<?xml version="1.0" encoding="utf-8"?>
<!-- Generator: Adobe Illustrator 16.0.0, SVG Export Plug-In . SVG Version: 6.00 Build 0)  -->
<!DOCTYPE svg PUBLIC "-//W3C//DTD SVG 1.1//EN" "http://www.w3.org/Graphics/SVG/1.1/DTD/svg11.dtd">
<svg version="1.1" id="Layer_1" xmlns="http://www.w3.org/2000/svg" xmlns:xlink="http://www.w3.org/1999/xlink" x="0px" y="0px"
	 width="1056.202px" height="1000px" viewBox="0 0 1056.202 1000" enable-background="new 0 0 1056.202 1000" xml:space="preserve">
<g>
	<g>
		<path fill="#FFF3E1" d="M35.185,414.653c0,36.437,26.768,54.386,61.582,54.386s66.369-25.639,66.369-62.078
			c0-36.441-39.078-70.028-72.522-60.375C53.721,357.225,35.185,378.211,35.185,414.653z"/>
		<path fill="#FFF3E1" d="M1002.967,628.275c-9.473,19.826-45.983,96.219-132.34,135.498
			c-18.373,8.354-104.736,47.627-177.46,11.742c-96.214-47.482-65.741-175.818-155.286-239.981
			c-76.999-55.173-160.708,46.749-253.247-3.669c-48.312-26.317-86.85-83.247-88.074-134.178
			c-3.834-158.944,351.786-425.971,613.477-296.709C1000.511,195.066,1079.301,468.541,1002.967,628.275z"/>
	</g>
	<circle opacity="0.7" fill="#FFDEA9" cx="164.651" cy="604.494" r="74.415"/>
	<g>
		<path fill="#FFF3E1" d="M494.127,953.362c30.556,0.099,61.106,0.061,91.661-0.226c65.454-0.613,130.912-2.318,196.255-6.225
			c28.295-1.692,128.922-0.185,81.277-60.862c-16.099-20.489-50.461-28.531-73.021-28.909c-24.731-0.414-48.753,1.828-73.516,3.148
			c-23.009,1.226-45.965,2.971-69.013,2.912c-47.075-0.127-94.156,0-141.144,3.843c-44.148,3.613-88.408,2.373-132.652,2.373
			c-45.371,0-90.436-0.437-135.479-7.808c-19.625-3.214-39.619-4.339-59.346-6.59c-17.664-2.017-34.64,0.042-52.237,1.899
			c-14.771,1.565-29.446,6.206-42.871,14.052c-10.624,6.209-29.567,25.495-32.825,40.317
			c-9.133,41.546,128.728,40.544,149.897,40.452C298.789,951.307,396.459,953.04,494.127,953.362z"/>
	</g>
	<g>
		<g>
			<g>
				<path fill="#3B455A" d="M712.436,788.419c5.825,5.129,7.174,14.965,7.565,22.449c0.577,11.075-3.18,20.669-6.185,31.074
					c-0.224,0.765-0.508,1.609-1.214,1.976c-0.83,0.434-1.908-0.047-2.418-0.832c-0.506-0.787-0.564-1.773-0.511-2.709
					c0.173-3.057,1.36-5.949,2.224-8.886c2.85-9.74,1.75-20.491-3.818-28.976c-2.186-3.327-5.957-6.805-3.581-14.346
					C706.047,783.247,708.731,785.154,712.436,788.419z"/>
				<path fill="#3B455A" d="M692.598,817.409c-8.12-1.708-16.725-0.997-25.097-0.19c-9.133,0.884-18.67,1.99-26.205,6.309
					c-3.861,2.22-7.553,5.836-8.97,10.49c-0.61,2.008-0.731,4.184-0.119,6.217c0.278,0.919,0.629,1.986,0.974,2.845
					c0.518,1.284,1.402,1.417,2.578,1.78c1.472,0.458,2.726,1.487,4.025,2.375c6.062,4.139,12.928,4.152,19.777,5.025
					c6.889,0.881,13.787,1.551,20.719,1.693c11.299,0.234,31.23-0.766,34.745-12.301
					C718.309,830.863,703.342,819.673,692.598,817.409z"/>
				<path fill="#3B455A" d="M646.826,838.514c-1.136,1.023-2.622,1.514-4.073,1.933c-4.653,1.342-8.088,4.034-12.916,4
					c-16.354-0.101-16.776-22.467-2.319-28.138C638.538,811.987,659.041,827.461,646.826,838.514z"/>
				<path fill="#3B455A" d="M697.558,836.545c2.518-2.199,5.462-3.963,8.314-5.426c0.629-0.322,1.284-0.641,1.988-0.705
					c0.717-0.065,1.439,0.138,2.099,0.427c4.011,1.741,6.119,6.912,4.466,10.956c-0.528,1.301-1.369,2.447-2.258,3.536
					c-2.502,3.081-5.428,5.847-7.518,9.22c-3.844,6.189-1.785,11.154-0.083,17.572c0.162,0.611,0.323,1.229,0.337,1.86
					c0.026,3.03-0.814,5.901-4.416,6.222c-0.994,0.088-2.124-0.479-2.301-1.462c-0.306-1.706,1.692-2.024,2.095-3.31
					c0.416-1.325-0.904-2.661-1.522-3.705c-1.639-2.77-3.181-5.614-4.495-8.552c-2.449-5.468-4.463-12.05-2.626-18.017
					C692.702,841.701,694.888,838.879,697.558,836.545z"/>
				<path fill="#3B455A" d="M674.937,867.579c-0.38,0.816-0.756,1.708-0.574,2.59c0.159,0.751,0.691,1.353,1.208,1.919
					c1.124,1.238,2.248,2.475,3.376,3.713c1.043,1.152,2.187,2.357,3.705,2.69c1.52,0.335,3.414-0.72,3.315-2.27
					c-0.122-1.973-2.832-2.457-4.179-3.906c-1.632-1.755-0.946-4.619,0.242-6.702c2.119-3.714,5.559-6.664,9.556-8.186
					c1.312-0.506,2.71-0.871,3.854-1.696c1.14-0.827,1.979-2.28,1.576-3.627c-1.734-5.761-9.955-6.121-12.993-2.157
					C680.271,854.843,677.514,861.98,674.937,867.579z"/>
				<path fill="#3B455A" d="M653.553,871.949c0.394,0.793,0.841,1.633,1.587,2.014c0.631,0.326,1.365,0.261,2.058,0.191
					c1.515-0.158,3.032-0.311,4.549-0.47c1.409-0.147,2.914-0.333,3.983-1.347c1.064-1.015,1.327-3.162,0.139-4.016
					c-1.513-1.083-3.336,0.792-5.129,0.998c-5.646,0.649-6.918-9.014-4.476-12.734c0.509-0.774,1.13-1.449,1.698-2.168
					c1.205-1.535,2.239-3.342,2.869-5.262c0.79-2.398,0.554-1.655-0.887-2.53c-2.993-1.804-6.361-2.999-9.715-1.647
					c-3.152,1.272-5.607,5.395-4.641,9.119C647.134,860.032,650.858,866.525,653.553,871.949z"/>
				<path fill="#3B455A" d="M649.922,857.563c0.204,2.144,0.407,4.295,0.327,6.448c-0.087,2.409-0.531,4.825-0.188,7.213
					c0.348,2.436,1.498,4.662,1.952,7.079c0.162,0.856,0.223,1.792-0.154,2.556c-0.376,0.77-1.332,1.231-2.006,0.758
					c-2.359-3.811-4.787-7.799-5.373-12.355c-0.486-3.77,0.314-7.773-0.984-11.312c-0.839-2.291-2.451-4.097-3.406-6.313
					c-0.873-2.022-1.961-4.483-1.314-6.733c0.362-1.259,1.401-1.784,1.622-3.032c0.037-0.2,0.104-0.439,0.288-0.494
					c0.108-0.032,0.225,0.021,0.329,0.069c2.096,1.021,6.755,2.147,7.787,4.441c0.614,1.375,0.38,3.853,0.522,5.383
					C649.526,853.366,649.724,855.465,649.922,857.563z"/>
			</g>
			<path fill="#FFFFFF" d="M648.714,821.943c0,0-1.803,16.7-11.465,22.277l-2.995-0.033c0,0,10.526-10.148,12.344-23.836
				L648.714,821.943z"/>
			<path fill="#96BFEE" d="M634.835,844.221c1.739,0.58,1.218,0.695,1.977,2.25c0.463,0.941,0.625,2.141,0.029,3.007
				c-0.478,0.697-1.354,1.029-2.199,1.074c-1.883,0.097-3.817-1.304-4.044-3.176c-0.224-1.874,1.626-3.78,3.472-3.37
				L634.835,844.221z"/>
		</g>
		<path fill="#3B455A" d="M620.22,810.715c-0.17-0.082-0.34,0.09-0.273,0.27c0.424,1.271,0.4,2.67,0.372,4.02
			c-0.074,3.248-0.146,6.492-0.223,9.738c0.054-2.191,14.136,4.828,12.678-2.877C631.929,817.383,624.229,812.695,620.22,810.715z"
			/>
		<path fill="#3B455A" d="M626.96,809.195c-0.175-0.084-0.342,0.09-0.281,0.271c0.431,1.271,0.408,2.664,0.375,4.021
			c-0.072,3.247-0.146,6.491-0.22,9.741c0.048-2.199,14.134,4.82,12.677-2.883C638.666,815.863,630.966,811.173,626.96,809.195z"/>
	</g>
	<polygon fill="#EACFC1" points="294.622,669.928 297.43,663.607 295.144,657.945 296.099,656.854 297.492,657.972 296.94,652.733 
		299.31,649.173 304.994,648.98 309.752,652.435 309.343,658.104 305.55,663.695 302.081,672.519 	"/>
	<polygon fill="#FFC550" points="295.703,664.404 274.521,701.205 235.235,708.066 239.915,730.979 284.038,735.436 
		309.077,666.183 	"/>
	<polygon fill="#FF651B" points="276.331,900.389 287.989,908.156 287.989,913.502 277.788,915.442 261.764,907.672 263.22,900.389 
			"/>
	<g>
		<path fill="#EACFC1" d="M234.412,706.509c-3.891,0.471-7.776,0.942-11.669,1.414c-0.719-3.043-1.19-10.445-1.415-13.563
			c-3.422-0.407-7.462-1.264-8.755-4.457c-0.406-1.006-0.464-2.112-0.516-3.197c-0.219-4.483-0.432-8.965-0.651-13.446
			c-0.073-1.547-0.142-3.146,0.384-4.604c0.925-2.561,3.471-4.159,5.986-5.198c6.426-2.648,14.027-2.826,20.184,0.396
			c1.64,0.857,3.195,1.979,4.182,3.541c1.525,2.413,1.467,5.458,1.36,8.31c-0.101,2.627-0.198,5.258-0.294,7.889
			c-0.113,3.023-0.471,6.513-2.984,8.201c-1.337,0.896-3.1,1.114-4.235,2.251C233.985,696.045,235.071,703.751,234.412,706.509z"/>
		<path fill="#3B455A" d="M263.381,650.573c0.415-1.224,0.89-2.423,1.461-3.572c1.245-2.496,2.952-4.78,3.809-7.43
			c0.856-2.653,0.632-5.938-1.505-7.729c-1.377-1.156-3.266-1.467-5.061-1.582c-5.908-0.396-11.922,0.827-17.212,3.505
			c-5.036,2.549-9.309,5.862-15.134,5.057c-5.47-0.761-8.946,0.821-13.8,3.88c-5.257,3.316-12.817,5.502-17.345,9.532
			c-1.894,1.683-3.196,3.947-4.076,6.316c-3.049,8.221-0.866,18.135,5.357,24.313c1.393,1.387,2.964,2.591,4.58,3.711
			c3.342,2.322,7.374,5.215,11.32,5.467c-0.652-3.335-6.001-13.115-4.064-16.399c3.079-5.214,12.556-5.748,17.801-5.808
			c5.729-0.057,11.466,2.726,17.07,2.345c4.035-0.277,8.589-3.296,11.454-6.052C261.575,662.721,261.862,655.041,263.381,650.573z"
			/>
	</g>
	<polygon fill="#FF651B" points="167.547,896.914 172.179,905.018 171.6,910.232 164.651,911.388 154.227,905.018 157.702,883.018 
		167.547,880.122 	"/>
	<path fill="#3B455A" d="M172.179,823.374c0,0-11.002,20.269,4.053,33.008c15.056,12.737,41.112,33.005,41.112,33.005
		l-49.216-11.001l-3.477,17.37c0,0,74.697,24.899,76.435,23.162c1.739-1.74,20.269-17.951,20.269-17.951l-39.957-87.436
		l-44.01,5.213L172.179,823.374z"/>
	<path fill="#FFC550" d="M289.126,810.639v-0.006c-3.607-3.865-6.961-7.949-9.875-12.312c-6.379-9.539-10.13-20.157-11.277-31.29
		c-0.58-5.62-0.573-11.268-0.311-16.884c0.141-3.043,0.363-6.079,0.621-9.105c0.144-1.727,1.811-7.942,0.884-9.294
		c-9.384-13.72-10.515-23.844-25.877-25.503c-35.041-3.784-33.058-1.653-44.97,12.832c-4.791,5.821-13.639,22.532-16.699,29.354
		c-3.707,8.257-7.308,16.562-10.634,24.977c-3.715,9.387-7.085,18.916-9.854,28.619c-0.308,1.079-1.291,4.068-2.341,7.682
		c-1.984,6.828-4.213,15.884-2.592,18.5c0.842,2.186,3.069,4.512,8.449,5.589c11.58,2.314,20.846,2.314,33.585-4.054
		c12.738-6.37,33.843-1.849,33.843-1.849v-0.003c3.355,0.924,6.861,1.829,10.596,2.661c27.155,6.054,41.183-10.573,45.589-13.591
		C292.113,814.322,289.126,810.639,289.126,810.639z"/>
	<path fill="#3B455A" d="M228.927,826.271l62.535-28.954l16.215,20.845l-27.793,85.124l-18.529-2.319l5.211-50.959
		c0,0-15.636,13.32-43.429,12.162c-12.738-12.737-12.738-12.162-12.738-12.162L228.927,826.271z"/>
	<polygon fill="#FF651B" points="581.481,478.368 254.201,586.655 451.597,634.537 	"/>
	<path fill="#FF651B" d="M245.657,596.93l69.732,210.762l306.797-101.507c23.203-7.677,35.367-34.008,27.158-58.812L594.471,481.52
		L456.039,647.965L245.657,596.93z"/>
	<path opacity="0.2" fill="#231F20" d="M522.759,497.801c0.497,2.916,1.217,5.835,2.176,8.732
		c2.959,8.932,7.837,16.687,14.024,22.962l42.522-51.127L522.759,497.801z"/>
	<path opacity="0.2" fill="#231F20" d="M599.785,544.166c4.794-1.588,9.247-3.729,13.317-6.327l-18.635-56.319l-46.258,55.625
		C562.868,546.951,581.74,550.137,599.785,544.166z"/>
	<path fill="#FFC550" d="M536.518,494.953c-10.276-31.062,6.573-64.572,37.632-74.848c31.059-10.278,64.57,6.573,74.847,37.633
		c10.277,31.064-6.572,64.57-37.63,74.849C580.309,542.861,546.795,526.013,536.518,494.953z"/>
	<g>
		<path fill="#FFFFFF" d="M596.603,502.874l-12.298-37.188l-8.166,2.701l-3.551-10.73l20.112-6.652l15.85,47.915L596.603,502.874z"
			/>
	</g>
	<path fill="#CC937A" d="M632.37,564.148l-3.098-4.01l-4.67-8.438l-6.418-2.214l-6.827,3.962c0,0,1.602,2.852,4.013,2.535
		c2.404-0.318,3.607-0.479,3.607-0.479l2.542,7.878c0,0,0.044,0.171,0.169,0.438l0.989,2.953c0,0,3.475,2.399,4.055,1.819
		c0.146-0.145,0.479-0.406,0.897-0.709c0.999,0.431,1.003,0.431,1.003,0.431L632.37,564.148z"/>
	<polygon fill="#3B455A" points="787.356,884.721 788.871,891.346 777.139,901.004 769,895.896 774.107,887.753 785.841,878.096 	
		"/>
	<polygon fill="#FF6820" points="762.415,679.991 767.018,700.111 760.141,793.428 787.563,882.428 775.022,888.064 719.42,785.102 
		712.997,752.313 710.192,683.083 	"/>
	<polygon fill="#FF6820" points="668.47,678.747 673.239,765.36 696.991,875.863 709.534,875.023 710.589,771.533 720.881,667.423 	
		"/>
	<polygon fill="#3B455A" points="709.815,880.318 696.704,888.006 689.473,881.674 695.8,874.443 709.36,873.537 	"/>
	<path fill="#FFC550" d="M732.219,554.381c8.142,2.09,15.343,6.537,20.212,15.66c4.245,7.947,5.809,17.089,7.31,26.038
		c4.289,25.624,6.124,53.772,15.743,78.122c4.179,10.585,8.079,16.834,7.395,29.02c-0.188,3.329-7.949,34.272-7.891,34.312
		c-10.715-6.888-23.736-10.119-36.428-9.039c-11.381,0.967-86.418,24.183-94.919,12.474c-1.845-2.55,10.556-38.757,11.671-44.064
		c3.671-17.436,7.336-34.874,11.059-52.294c4.11-19.342,8.266-38.763,15.262-57.257c2.366-6.255,5.048-12.391,8.039-18.375
		c1.891-3.776,5.639-14.615,9.568-16.457c3.241-1.52,10.825,0.15,14.52,0.135C719.952,552.636,726.194,552.833,732.219,554.381z"/>
	<g>
		<path fill="#CC937A" d="M735.687,518.146c-7.688-16.36-33.271-19.31-36.673,1.189c-1.022,6.158-1.308,12.599,0.603,18.539
			c1.909,5.947,6.329,11.34,12.307,13.151c0.035,0.012,0.065,0.019,0.102,0.029c-0.034,1.608-0.064,3.214-0.093,4.819
			c-0.009,0.344-0.003,0.723,0.22,0.986c0.259,0.296,0.702,0.331,1.094,0.34c1.918,0.055,3.835,0.111,5.757,0.165
			c0.95,0.026,1.941,0.049,2.806-0.348c1.892-0.87,2.431-3.328,2.269-5.405c-0.042-0.495-0.105-0.994-0.173-1.494
			C734.604,544.959,740.716,528.842,735.687,518.146z"/>
		<g>
			<path fill="#3B455A" d="M707.274,490.643c-4.573-0.762-8.556,3.619-12.826,5.877c-3.557,1.879-7.555,2.322-11.233,3.868
				c-3.679,1.545-7.321,4.843-7.472,9.05c-3.661-1.993-7.634-4.038-11.789-3.313c-4.156,0.728-8.092,5.602-6.512,9.709
				c1.416,3.679,6.16,4.623,7.683,8.245c2.405,5.729-4.528,14.438,0.032,18.289c1.091,0.922,2.602,1.171,3.679,2.119
				c1.333,1.188,1.739,3.185,2.309,4.966c2.593,8.067,10.592,13.446,18.597,12.521c5-2.236,9.048-6.979,10.922-12.446
				c2.254-6.593-1.251-8.975-1.742-15.21c-0.533-6.816,1.757-13.982,6.136-19.188c2.845-3.39,6.885-6.282,11.11-6.612
				c1.717-0.131,1.154,1.289,3.102-0.003c0.841-0.556,2.008-2.688,2.26-3.716C716.983,501.007,713.294,491.646,707.274,490.643z"/>
		</g>
	</g>
	<path fill="#FFC550" d="M708.265,552.961l-42.713,40.748c0,0-0.107,0.052-0.309,0.147l-34.498-33.546l-7.799,7.626l35.82,54.522
		c0.365,0.727,0.579,1.148,0.579,1.148l44.562-20.308l19.178-41.178L708.265,552.961z"/>
	<polygon fill="#CC937A" points="640.444,507.947 635.893,496.242 640.808,494.076 645.701,501.402 647.551,499.301 650.229,509.79 
		645.419,512.732 	"/>
	<path fill="#FFC550" d="M731.92,554.683c-5.715-2.536-13.356-1.946-21.104-2.186c-9.104-0.276-18.208-0.557-27.313-0.834
		l-32.99-45.729l-9.241,6.321l26.985,62.62c11.923,3.068,23.843,6.132,35.767,9.196c6.57,1.693,14.199,4.969,20.987,5.364
		c9.995,0.586,17.403-11.38,15.969-20.833C739.778,560.676,736.453,556.694,731.92,554.683z"/>
	<path fill="#3B455A" d="M756.709,500.344c2.354,0.699,4.923,0.647,7.16,1.679c3.36,1.544,3.091,5.052,3.996,8.119
		c0.998,3.397,2.462,7.961,4.645,10.632c1.571,1.919,3.802,3.037,5.731,4.536c1.932,1.495,3.69,3.685,3.604,6.316
		c-0.086,2.496-1.801,4.705-2.091,7.192c-0.362,3.709,0.242,5.627-0.97,9.403c-0.627,1.948-1.323,4.012-2.818,5.323
		c-1.971,1.73-4.73,1.642-7.148,1.199c-2.415-0.452-4.91-1.166-7.316-0.406c-5.217,1.649-4.341,6.915-5.799,11.285
		c-2.218,6.65-10.041,10.418-15.933,7.936c-4.998-2.109-7.804-8-7.476-13.766c0.166-2.88,1.364-5.552,1.498-8.438
		c0.13-2.788-1.374-6.672,1.191-8.841c0.623-0.528,1.417-0.799,1.983-1.4c0.452-0.488,0.714-1.149,0.882-1.811
		c0.577-2.295,0.113-4.817-1.214-6.604c-0.952-1.283-2.335-2.234-2.905-3.773c-0.651-1.768-0.073-3.804,0.075-5.74
		c0.361-4.675-2.116-9.309-5.981-11.186c-2.549-1.235-4.851-1.981-7.064-3.833c-0.337-0.281-5.367-4.885-5.518-3.911
		c0.26-1.697,1.281-3.164,2.306-4.507c1.691-2.212,3.562-4.359,5.914-5.661c7.598-4.207,7.781,5.879,13.841,4.661
		c1.462-0.293,2.583-1.61,3.906-2.382c2.503-1.46,5.536-0.872,8.048,0.303C751.77,497.842,754.06,499.555,756.709,500.344z"/>
	<polygon fill="#EACFC1" points="299.373,776.821 306.02,778.758 311.319,775.735 312.53,776.533 311.606,778.064 316.728,776.817 
		320.573,778.688 321.521,784.297 318.734,789.472 313.062,789.828 307.017,786.817 297.806,784.559 	"/>
	<polygon fill="#FFC550" points="306.029,775.82 265.935,756.796 261.254,725.408 230.931,714.091 236.999,768.365 306.05,789.318 	
		"/>
	<path fill="#E2E2E2" d="M133.509,923.408h299.268c1.84,0,3.328-1.974,3.328-4.4l0,0c0-2.438-1.488-4.405-3.328-4.405H133.509
		c-1.839,0-3.328,1.968-3.328,4.405l0,0C130.181,921.435,131.67,923.408,133.509,923.408z"/>
	<path fill="#E2E2E2" d="M728.891,909.808h109.306c1.838,0,3.327-1.972,3.327-4.401l0,0c0-2.436-1.489-4.402-3.327-4.402H728.891
		c-1.841,0-3.329,1.967-3.329,4.402l0,0C725.562,907.836,727.05,909.808,728.891,909.808z"/>
	<path fill="#D9F9E5" d="M261.556,538.039c1.485-1.484,3.897-1.484,5.38,0c1.487,1.484,1.487,3.896,0,5.381
		c-1.482,1.485-3.895,1.485-5.38,0C260.071,541.935,260.071,539.523,261.556,538.039z"/>
	<path fill="#EFA46C" d="M781.03,621.556c3.749,3.748,3.751,9.854,0.002,13.604c-3.753,3.752-9.857,3.752-13.611-0.002
		c-3.748-3.749-3.746-9.854,0-13.601C771.175,617.802,777.275,617.802,781.03,621.556z M770.978,631.608
		c1.789,1.796,4.708,1.796,6.503,0.002c1.794-1.794,1.794-4.712-0.002-6.506c-1.793-1.793-4.712-1.793-6.501,0
		C769.181,626.898,769.181,629.816,770.978,631.608z"/>
	<path fill="#EFA46C" d="M502.001,444.977l2.289,2.286l2.283-2.288c1.036-1.034,2.71-1.034,3.746,0c1.032,1.034,1.032,2.711,0,3.745
		l-2.287,2.285l2.287,2.285c1.032,1.034,1.032,2.708,0,3.746c-1.036,1.033-2.71,1.033-3.746,0l-2.283-2.287l-2.289,2.285
		c-1.031,1.033-2.707,1.033-3.742,0c-1.032-1.036-1.032-2.712,0-3.746l2.287-2.283l-2.287-2.283c-1.032-1.036-1.032-2.713,0-3.745
		C499.294,443.94,500.97,443.94,502.001,444.977z"/>
	<path fill="#FFD6BB" d="M744.184,374.219c17.083,17.082,17.074,44.867-0.006,61.946c-17.081,17.083-44.864,17.089-61.944,0.009
		c-17.08-17.083-17.089-44.881-0.011-61.959C699.307,357.133,727.103,357.141,744.184,374.219z M694.654,423.749
		c10.226,10.229,26.87,10.229,37.102-0.001c10.236-10.236,10.236-26.876,0.007-37.104c-10.238-10.24-26.883-10.24-37.113-0.01
		C684.417,396.872,684.417,413.512,694.654,423.749z"/>
</g>
</svg>
