<?xml version="1.0" encoding="utf-8"?>
<!-- Generator: Adobe Illustrator 16.0.0, SVG Export Plug-In . SVG Version: 6.00 Build 0)  -->
<!DOCTYPE svg PUBLIC "-//W3C//DTD SVG 1.1//EN" "http://www.w3.org/Graphics/SVG/1.1/DTD/svg11.dtd">
<svg version="1.1" id="Layer_1" xmlns="http://www.w3.org/2000/svg" xmlns:xlink="http://www.w3.org/1999/xlink" x="0px" y="0px"
	 width="900.117px" height="998.824px" viewBox="0 0 900.117 998.824" enable-background="new 0 0 900.117 998.824"
	 xml:space="preserve">
<path fill="#FFF3E1" d="M535.061,762.241c24.127-55.681,6.104-136.344,36.53-157.441c40.006-27.742,71.54,6.54,159.605-8.491
	c33.164-5.662,80.493-13.744,111.771-44.588c67.788-66.864,51.353-232.06-33.032-300.626
	c-60.048-48.788-102.811-6.654-254.438-36.432c-166.248-32.648-162.324-97.206-284.385-93.255
	c-33.782,1.095-153.996,4.986-215.59,94.78C-4.608,303.841,12.229,442.563,75.85,481.757
	c59.721,36.789,138.911-27.531,198.61,23.771c4.209,3.617,32.743,28.828,37.381,66.718c2.695,21.998-0.203,37.095-10.181,56.001
	C235.33,753.985,278.6,828.536,336.204,861.4C393.811,894.268,482.093,884.472,535.061,762.241z"/>
<rect fill="none" width="876.655" height="998.824"/>
<path fill="#FFF3E1" d="M81.961,674.163c0,79.28,58.248,118.321,133.982,118.321c75.74,0,144.392-55.771,144.392-135.057
	c0-79.282-85.028-152.35-157.797-131.354C122.286,549.228,81.961,594.88,81.961,674.163z"/>
<path opacity="0.3" fill="#FCA286" d="M315.149,316.827c-10.843,0-16.2-11.97-21.384-23.547
	c-5.199-11.623-10.114-22.605-19.924-22.605c-9.814,0-14.729,10.978-19.929,22.605c-5.187,11.573-10.542,23.547-21.386,23.547
	c-10.842,0-16.198-11.97-21.381-23.547c-5.202-11.623-10.113-22.605-19.923-22.605c-9.815,0-14.72,10.978-19.925,22.605
	c-5.179,11.573-10.537,23.547-21.383,23.547c-10.842,0-16.201-11.974-21.381-23.547c-5.198-11.628-10.11-22.605-19.926-22.605
	c-0.441,0-0.792-0.354-0.792-0.796c0-0.438,0.351-0.797,0.792-0.797c10.844,0,16.202,11.972,21.385,23.547
	c5.2,11.626,10.115,22.604,19.922,22.604c9.812,0,14.725-10.979,19.925-22.604c5.183-11.575,10.541-23.547,21.383-23.547
	c10.843,0,16.199,11.972,21.378,23.548c5.205,11.625,10.113,22.604,19.926,22.604c9.809,0,14.726-10.979,19.925-22.604
	c5.185-11.575,10.541-23.547,21.39-23.547c10.841,0,16.198,11.972,21.377,23.548c5.205,11.625,10.121,22.604,19.931,22.604
	c0.441,0,0.796,0.358,0.796,0.796C315.945,316.47,315.591,316.827,315.149,316.827z"/>
<g>
	<path fill="#FFC550" d="M34.219,592.635c-11.715-29.416-5.678-64.205,18.115-87.995c11.494-11.497,25.537-18.837,40.33-22.021
		l8.698,39.714c-18.45,4.021-32.241,20.445-32.241,40.056c0,5.373,1.023,10.498,2.907,15.18L34.219,592.635z"/>
	<path fill="#F25F46" d="M164.049,625.621c-10.994,10.994-24.318,18.196-38.357,21.6c-6.371,1.554-12.885,2.33-19.392,2.33
		c-3.71,0-7.396-0.249-11.078-0.748c-17.065-2.329-33.57-10.054-46.7-23.182c-0.637-0.637-1.248-1.305-1.855-1.969l29.694-27.784
		c7.476,7.978,18.112,12.966,29.939,12.966c22.624,0,40.965-18.337,40.965-40.966c0-16.12-9.304-30.082-22.851-36.757l18.001-36.477
		c7.814,3.821,15.153,9.001,21.634,15.482C195.928,541.997,195.928,593.737,164.049,625.621z"/>
	<path fill="#F7882D" d="M142.415,494.635l-18.001,36.477c-5.453-2.714-11.607-4.238-18.114-4.238c-3.019,0-5.953,0.332-8.755,0.943
		l-8.697-39.721c2.109-0.472,4.24-0.859,6.374-1.134c3.707-0.526,7.422-0.776,11.134-0.776c7.728,0,15.481,1.106,22.986,3.322
		C133.803,490.81,138.182,492.529,142.415,494.635z"/>
	<path fill="#D1D9FE" d="M46.672,631.244c-7.176-7.616-12.603-16.311-16.263-25.536l37.812-15.068
		c1.881,4.794,4.679,9.111,8.145,12.821L46.672,631.244z"/>
</g>
<g>
	<path fill="#FFDEA9" d="M559.273,491.864c-114.389-25.595-233.022-25.595-347.409,0c-6.632,1.476-13.268-2.516-14.854-9.045
		c-12.005-50.006-24.009-100.007-36.014-150.015c-1.585-6.525,3.715-13.419,11.872-15.24c140.062-31.341,285.328-31.341,425.406,0
		c8.152,1.821,13.457,8.715,11.868,15.24c-12.007,50.008-24.014,100.009-36.016,150.015
		C572.537,489.349,565.898,493.34,559.273,491.864"/>
	<path fill="#FFFFFF" d="M207.619,473.533c-10.271-45.855-20.539-91.716-30.807-137.573c-0.826-3.654,2.141-7.438,6.629-8.398
		c133.228-28.629,271.028-28.629,404.251,0c4.493,0.963,7.459,4.744,6.631,8.398c-10.264,45.857-20.535,91.718-30.805,137.573
		c-0.824,3.658-4.53,5.934-8.292,5.126c-111.828-24.031-227.491-24.031-339.32,0C212.151,479.467,208.444,477.191,207.619,473.533"
		/>
	<path fill="#F25F46" d="M422.896,339.418c-1.491,37.062-2.977,74.13-4.469,111.192c-0.949-0.037-1.905-0.074-2.854-0.11
		c1.357-37.069,2.718-74.137,4.081-111.206C420.735,339.331,421.813,339.375,422.896,339.418"/>
	<path fill="#E2EBF4" d="M221.283,416.912c3.08,15.956,6.16,31.91,9.239,47.864c-0.939,0.179-1.881,0.362-2.813,0.545
		c-3.136-15.939-6.271-31.887-9.406-47.826C219.295,417.295,220.288,417.104,221.283,416.912z"/>
	<path fill="#E2EBF4" d="M288.586,417.996c1.421,12.408,2.835,24.817,4.248,37.223c-0.942,0.109-1.893,0.221-2.84,0.333
		c-1.462-12.403-2.921-24.808-4.377-37.211C286.607,418.225,287.598,418.111,288.586,417.996"/>
	<path fill="#E2EBF4" d="M352.688,372.11c0.958,26.129,1.916,52.261,2.878,78.39c-0.954,0.036-1.909,0.073-2.854,0.11
		c-1.054-26.125-2.103-52.256-3.15-78.381C350.6,372.188,351.646,372.146,352.688,372.11z"/>
	<path fill="#E2EBF4" d="M491.621,366.443c-3.488,29.7-6.988,59.404-10.479,89.108c-0.945-0.112-1.896-0.224-2.844-0.333
		c3.389-29.714,6.78-59.429,10.172-89.142C489.518,366.195,490.572,366.314,491.621,366.443z"/>
	<path fill="#E2EBF4" d="M555.106,405.931c-3.891,19.796-7.781,39.595-11.679,59.391c-0.936-0.183-1.875-0.366-2.811-0.545
		c3.821-19.813,7.65-39.625,11.469-59.435C553.091,405.535,554.104,405.731,555.106,405.931"/>
	<path fill="#E7EAFE" d="M549.022,436.889c-0.054,0.271-0.109,0.541-0.161,0.812C548.913,437.43,548.969,437.159,549.022,436.889
		L549.022,436.889 M213.445,369.222c-1.686,0-3.424,0.168-5.226,0.521c0.179,0.901,0.355,1.81,0.538,2.713
		c1.557-0.303,3.064-0.448,4.535-0.448c14.085,0,24.203,13.367,34.316,27.519c10.619,14.809,20.953,30.159,36.492,30.159
		c0.924,0,1.869-0.052,2.828-0.166c-0.104-0.915-0.216-1.83-0.322-2.749c-0.834,0.094-1.654,0.146-2.457,0.146
		c-13.932,0-23.378-14.126-33.932-28.948C240.16,383.787,229.206,369.222,213.445,369.222 M488.576,358.398
		c-16.888,0-27.097,16.057-36.388,31.634c-9.583,16.008-18.062,31.194-32.598,31.575c-0.036,0.926-0.074,1.85-0.107,2.776
		c16.364-0.28,25.729-16.922,35.433-33.008c9.32-15.528,18.725-30.204,33.761-30.204c0.898,0,1.817,0.052,2.76,0.158
		c16.667,1.981,22.812,19.364,28.652,37.653c5.58,17.338,10.717,35.104,25.526,39.884c0.177-0.916,0.354-1.832,0.528-2.748
		c-12.994-4.471-17.622-20.651-23.088-37.817c-5.792-18.355-12.492-37.483-31.298-39.722
		C490.672,358.459,489.613,358.398,488.576,358.398 M350.725,353.086c-0.352,0-0.707,0.008-1.07,0.022
		c-18.893,0.783-27.016,19.337-34.186,37.191c-6.769,16.724-12.624,32.528-25.94,35.939c0.107,0.926,0.215,1.851,0.319,2.776
		c15.145-3.576,21.625-20.926,28.514-37.808c7.213-17.785,14.662-34.642,31.403-35.33c0.313-0.013,0.621-0.021,0.932-0.021
		c16.136,0,24.708,15.938,33.129,32.779c8.421,16.766,16.448,34.05,32.711,35.628c0.032-0.926,0.069-1.849,0.101-2.773
		c-14.413-1.539-21.684-17.311-29.994-33.983C378.262,370.6,368.916,353.086,350.725,353.086"/>
	<path fill="#DD7A7D" d="M416.637,421.49c-0.031,0.925-0.068,1.848-0.101,2.773c0.489,0.048,0.993,0.083,1.506,0.102
		c0.346,0.014,0.682,0.021,1.021,0.021c0.14,0,0.275,0,0.42-0.002c0.033-0.927,0.071-1.851,0.107-2.776
		c-0.182,0.002-0.368,0.007-0.552,0.007c-0.3,0-0.601-0.007-0.895-0.016C417.633,421.577,417.131,421.542,416.637,421.49"/>
	<path fill="#D2DCF7" d="M289.528,426.239c-0.913,0.23-1.855,0.406-2.841,0.521c-0.024,0.003-0.05,0.008-0.08,0.01
		c0.106,0.919,0.219,1.834,0.322,2.749c0.029-0.002,0.059-0.006,0.084-0.008c0.979-0.111,1.919-0.276,2.834-0.495
		C289.743,428.09,289.636,427.165,289.528,426.239"/>
	<path fill="#D2DCF7" d="M546.144,436.119c-0.174,0.916-0.352,1.832-0.528,2.748c0.92,0.3,1.874,0.543,2.871,0.736
		c0.123-0.634,0.246-1.267,0.375-1.902c0.052-0.271,0.107-0.542,0.161-0.812C548.02,436.692,547.061,436.436,546.144,436.119"/>
	<path fill="#FFC550" d="M211.137,337.839c0.409,2.178-1.086,4.284-3.338,4.717c-2.252,0.429-4.42-0.974-4.85-3.143
		c-0.43-2.174,1.066-4.298,3.337-4.736C208.56,334.238,210.731,335.663,211.137,337.839z"/>
	<path fill="#FFC550" d="M226.514,335.087c0.372,2.186-1.157,4.265-3.416,4.66c-2.25,0.392-4.395-1.045-4.791-3.223
		c-0.393-2.181,1.132-4.281,3.408-4.679C223.995,331.447,226.143,332.902,226.514,335.087z"/>
	<path fill="#FFC550" d="M241.92,332.592c0.334,2.188-1.222,4.242-3.48,4.603c-2.26,0.354-4.38-1.115-4.742-3.305
		c-0.355-2.185,1.205-4.258,3.485-4.617C239.469,328.913,241.586,330.402,241.92,332.592z"/>
</g>
<g>
	<g>
		<polygon fill="#D6DDEA" points="208.369,820.452 209.905,797.252 220.637,798.41 216.681,822.065 		"/>
		<path fill="#D84835" d="M217.576,816.502c0.689,0.097,1.347,0.354,1.866,0.785c3.652,3.031,8.18,6.484,11.454,7.73
			c5.522,2.104,8.734,5.462,0.137,5.462c-8.6,0-11.214-0.27-13.805-0.332c-3.833-0.091-2.11,0.332-11.685,0.332
			c-4.714,0-2.503-8.849,0.087-13.142c0.788-1.306,1.059-2.391,2.626-2.168L217.576,816.502z"/>
	</g>
	<g>
		<polygon fill="#D6DDEA" points="236.153,820.452 241.033,797.83 251.763,798.985 244.465,822.065 		"/>
		<path fill="#F25F46" d="M245.964,816.502c0.689,0.097,1.343,0.354,1.869,0.785c3.654,3.031,14.769,8.459,20.474,9.283
			c6.115,0.883,6.421,3.909-2.178,3.909c-8.601,0-14.909-0.767-18.744-0.672c-3.838,0.101-5.299,0.672-14.733,0.672
			c-7.236,0-2.51-9.233,0.079-13.523c0.788-1.305,2.343-2.009,3.915-1.786L245.964,816.502z"/>
	</g>
	<path fill="#FFAF84" d="M348.18,411.661c-2.73,2.109-5.751,3.849-8.294,5.282c-1.718,0.248-3.557,1.014-5.094,2.041
		c-1.907,1.273-11.16,7.783-13.649,16.064c-1.221,2.604-2.466,5.208-3.766,7.754c-0.279,0.557-0.559,1.106-0.833,1.662
		c-0.279,0.527-0.532,1.027-0.775,1.525c-1.306,2.466-2.578,4.848-3.85,7.09c-4.85,8.697-9.252,15.287-11.301,16.592
		c-7.479,3.767-30.026,1.245-43.627-1.771c-4.129-0.889-8.226,1.714-9.143,5.842c-0.909,4.129,1.689,8.226,5.845,9.14
		c4.129,0.915,19.279,4.046,33.52,4.046c7.645,0,15.037-0.914,20.303-3.574c5.482-2.769,10.771-14.068,14.703-24.401
		c0.889-2.272,1.695-4.513,2.414-6.591c0.552-1.582,1.077-3.05,1.549-4.406c0.029-0.111,0.083-0.221,0.111-0.329
		c0.776-2.414,1.467-4.38,1.936-5.709c0.971-2.688,1.554-3.794,2.441-5.817c0.856-2.02,9.195-2.05,12.604-4.35
		c3.543-2.351,3.13-8.392,1.689-12.324c-0.107-0.279-0.269-0.475-0.405-0.707c0.641-0.409,1.291-0.835,1.967-1.283
		C351.411,414.18,355.445,406.055,348.18,411.661z"/>
	<path fill="#FFAF84" d="M260.16,428.005c0-15.906-11.83-28.645-27.729-28.645c-15.907,0-28.802,12.895-28.802,28.801
		c0,11.055,5.889,23.25,15.028,28.075c-0.362,7.077,0.372,14.856,4.776,21.842c4.676,7.417,5.584,8.916,5.662,9.044
		c1.698,2.837,4.7,4.413,7.782,4.413c1.572,0,3.175-0.413,4.631-1.28c4.294-2.562,5.698-8.123,3.144-12.422
		c0,0-0.74-1.24-5.896-9.419c-1.285-2.031-2.144-4.243-2.057-9.253C255.053,462.637,260.16,442.329,260.16,428.005z"/>
	<path fill="#293549" d="M210.859,637.399c0,0-7.855-19.869-2.807-47.448h64.496c0,0,1.729,19.414,0.246,40.402L210.859,637.399z"/>
	<path fill="#293549" d="M222.216,614.264c-0.081,0-0.153,0-0.232,0c-7.009,0-15.357,0-12.884,15.438
		c0.1,0.603,2.965,62.723,0.867,88.822c-1.965,24.62-3.733,92.871-3.781,93.62h14.331c0.05-0.744,13.193-67.12,15.147-91.561
		c2.155-26.902,3.887-87.944,3.931-90.469C239.715,622.997,229.327,614.389,222.216,614.264z"/>
	<path fill="#293549" d="M272.853,627.459c-0.491-7.102-7.488-10.938-14.56-10.396c-7.098,0.485-21.387,6.121-20.899,13.224
		c0.037,0.537,12.615,54.374,13.081,78.668c0.412,21.524-1.252,39.493-15.68,103.401l14.056,0.951
		c3.147-8.438,27.983-74.563,27.396-104.849C275.765,683.535,273.006,629.676,272.853,627.459z"/>
	<path fill="#FFAF84" d="M212.897,475.572c0,0-10.497,50.08-12.462,59.329c-0.748,3.518-3.326,6.181-6.734,6.871
		c-0.692,0.163-1.41,0.303-2.266,0.303c-3.05,0-6.092-4.65-15.292-18.283c-0.277-0.413-0.583-0.856-0.883-1.299
		c-1.087-1.58-2.22-3.272-3.437-5.098c-0.307-0.471-0.64-0.942-0.973-1.413c-2.13-3.102-4.538-6.564-7.199-10.386
		c-2.635,0.941-10.554,5.234-13.684,5.234c-4.238,0-9.442-0.415-7.782-4.32c1.772-4.129,5.871-6.899,9.89-8.059
		c2.136-0.639,6.039-1.691,7.586-2.606c0.111-0.054,0.254-0.082,0.362-0.168c0.221-0.108,0.468-0.219,0.72-0.303
		c0.219-0.108,0.472-0.165,0.691-0.25c0.251-0.054,0.499-0.108,0.717-0.166c0.276-0.026,0.531-0.081,0.781-0.081
		c0.22-0.028,0.469-0.028,0.69-0.028c0.253,0,0.525,0.028,0.772,0.055c0.223,0.028,0.446,0.055,0.665,0.112
		c0.28,0.055,0.528,0.108,0.75,0.193c0.25,0.057,0.444,0.139,0.666,0.249c0.248,0.082,0.469,0.195,0.686,0.333
		c0.224,0.108,0.421,0.22,0.616,0.357c0.223,0.142,0.414,0.306,0.607,0.473c0.194,0.139,0.387,0.304,0.553,0.496
		c0.17,0.169,0.364,0.389,0.529,0.582c0.084,0.113,0.164,0.195,0.248,0.306c2.966,4.074,6.232,8.423,9.446,12.467
		c0.358,0.44,0.72,0.911,1.077,1.356c1.33,1.663,2.635,3.268,3.878,4.765c0.358,0.416,0.694,0.831,1.026,1.244
		c0.913,1.081,1.775,2.078,2.605,2.991c0.495-2.382,1.051-4.985,1.606-7.697c0.078-0.363,0.162-0.749,0.248-1.137
		c3.655-17.506,8.312-39.554,8.312-39.554L212.897,475.572z"/>
	<path fill="#ED8C62" d="M185.145,517.838l-9.001,5.954c-0.277-0.413-0.583-0.856-0.883-1.299c-1.087-1.58-2.22-3.272-3.437-5.098
		c-0.307-0.471-0.64-0.942-0.973-1.413l8.312-5.51c0.358,0.44,0.72,0.911,1.077,1.356c1.33,1.663,2.635,3.268,3.878,4.765
		C184.477,517.01,184.812,517.425,185.145,517.838z"/>
	<path fill="#FF6820" d="M313.885,446.626c-9.251,17.726-13.407,21.438-14.045,21.938c-6.893,3.276-23.322,1.89-36.428-0.767
		c-3.252-0.919-5.92-1.539-7.027-1.539h-53.381c-3.062,0-5.534,2.139-6.191,4.91h-0.01c0,0-5.983,28.501-9.83,46.754
		c-0.915-1.08-1.94-2.299-3.076-3.686l-14.068,11.272c10.747,13.16,16.288,17.812,21.796,17.84c0.029,0,0.029,0,0.058,0
		c0.83,0,1.689-0.112,2.549-0.303c1.024-0.252,1.963-0.637,2.822-1.164c2.353-1.412,4.071-3.794,4.679-6.706
		c0.416-1.947,1.218-5.753,2.235-10.55c2.932,24.85,7.463,29.894,4.086,65.325h64.496c0,0-2.455-65.771-7.011-100.992
		c6.356,0.974,15.479,1.279,23.618,0.497c7.83-0.747,13.511-2.141,18.966-4.882c2.603-1.305,5.821-2.855,19.122-28.338
		L313.885,446.626z"/>
	<path fill="#EF5018" d="M183.896,514.236l-14.068,11.272c-0.719-0.884-1.472-1.824-2.244-2.796l14.069-11.245
		C182.459,512.464,183.208,513.378,183.896,514.236z"/>
	<path fill="#ED8C62" d="M326.293,447.626c-0.028,0.108-0.082,0.218-0.111,0.329c-0.472,1.356-0.997,2.824-1.549,4.406l-8.864-6.371
		c0.243-0.498,0.496-0.998,0.775-1.525c0.274-0.556,0.554-1.105,0.833-1.662L326.293,447.626z"/>
	<path fill="#EF5018" d="M328.734,453.356c-0.49,1-0.995,1.938-1.49,2.88l-13.359-9.61c0.472-0.914,0.966-1.88,1.495-2.908
		L328.734,453.356z"/>
	<path fill="#EF5018" d="M203.975,524.681c-1.02,4.768-1.827,8.528-2.243,10.495c-0.607,2.912-2.326,5.294-4.679,6.706l3.244-45.26
		C201.538,505.235,202.814,514.846,203.975,524.681z"/>
	<path fill="#F78834" d="M261.228,394.811c0,0-0.488,4.408-10.649-0.175c-19.046-8.599-38.465-4.041-43.791,0
		c-5.221,3.958-5.915,8.073-4.309,11.346c-4.209,3.801-6.984,8.995-7.001,12.832c-0.094,16.39,10.258,33.06,21.491,33.06
		c17.938,0,25.84-21.85,24.826-34.443c-0.085-1.118-0.179-2.253-0.286-3.383c0.574,0.108,1.143,0.212,1.727,0.322
		C264.278,418.354,261.228,394.811,261.228,394.811z"/>
	<path fill="#FFAF84" d="M231.945,429.366c0,3.021,1.359,5.722,3.5,7.53c2.5,2.115,6.35,0.206,6.35-3.072v-8.912
		c0-3.279-3.85-5.189-6.35-3.072C233.305,423.646,231.945,426.348,231.945,429.366z"/>
	<g>
		<path fill="#687C99" d="M246.167,811.073l-1.318-0.419c0.225-0.703,20.12-64.685,22.516-74.926
			c1.651-7.088,4.365-20.532,3.96-30.917c-0.339-8.776-5.137-79.392-5.188-80.104c0.904-8.532,1.338-34.476,1.348-34.756h1.382
			c-0.002,0.28-0.435,26.312-1.349,34.781c0.046,0.595,4.85,71.229,5.191,80.022c0.408,10.549-2.326,24.132-3.998,31.288
			C266.307,746.336,246.391,810.369,246.167,811.073z"/>
		<polygon fill="#687C99" points="227.473,597.105 207.003,597.105 207.179,595.723 227.473,595.723 		"/>
	</g>
</g>
<g>
	<defs>
		<path id="SVGID_10_" d="M272.549,589.951c0,0-2.455-65.771-7.011-100.992c6.356,0.974,15.479,1.279,23.618,0.497
			c7.83-0.747,13.511-2.141,18.966-4.882c2.603-1.305,5.821-2.855,19.122-28.338c0.495-0.941,1-1.88,1.49-2.88l-3.553-2.564
			c0.355-0.985,0.689-1.946,1-2.837c0.029-0.111,0.083-0.221,0.111-0.329c0.776-2.414,1.467-4.38,1.936-5.709
			c0.971-2.688,1.554-3.794,2.441-5.817c0.856-2.02,9.195-2.05,12.604-4.35c3.543-2.351,3.13-8.392,1.689-12.324
			c-0.107-0.279-0.269-0.475-0.405-0.707c0.641-0.409,1.291-0.835,1.967-1.283c4.887-3.256,8.921-11.381,1.655-5.774
			c-2.73,2.109-5.751,3.849-8.294,5.282c-1.718,0.248-3.557,1.014-5.094,2.041c-1.907,1.273-11.16,7.783-13.649,16.064
			c-1.221,2.604-2.466,5.208-3.766,7.754c-0.279,0.557-0.559,1.106-0.833,1.662c-0.016,0.025-0.025,0.045-0.036,0.066l-1.128-0.813
			c-0.529,1.028-1.023,1.994-1.495,2.908c-9.251,17.726-13.407,21.438-14.045,21.938c-6.893,3.276-23.322,1.89-36.428-0.767
			c-3.252-0.919-5.92-1.539-7.027-1.539h-18.727c-0.642-1.637-1.013-3.729-0.959-7.097c18.354,3.476,23.461-16.832,23.461-31.156
			c0-5.789-1.586-11.145-4.337-15.634c6.979-5.338,5.404-17.561,5.404-17.561s-0.488,4.408-10.649-0.175
			c-19.046-8.599-38.465-4.041-43.791,0c-5.221,3.958-5.915,8.073-4.309,11.346c-4.209,3.801-6.984,8.995-7.001,12.832
			c-0.078,13.87,7.329,27.901,16.419,31.898c1.969,2.28,4.238,4.19,6.761,5.524c-0.164,3.241-0.079,6.627,0.463,10.021h-16.116
			c-3.062,0-5.534,2.139-6.191,4.91h-0.01c0,0-5.983,28.501-9.83,46.754c-0.915-1.08-1.94-2.299-3.076-3.686
			c-0.688-0.858-1.438-1.772-2.243-2.769l-1.038,0.828c-0.125-0.159-0.246-0.308-0.375-0.467c-0.357-0.445-0.719-0.916-1.077-1.356
			c-3.214-4.044-6.48-8.393-9.446-12.467c-0.084-0.11-0.164-0.192-0.248-0.306c-0.165-0.193-0.359-0.413-0.529-0.582
			c-0.166-0.192-0.358-0.357-0.553-0.496c-0.193-0.167-0.385-0.331-0.607-0.473c-0.195-0.138-0.393-0.249-0.616-0.357
			c-0.217-0.138-0.438-0.251-0.686-0.333c-0.222-0.11-0.416-0.192-0.666-0.249c-0.222-0.085-0.47-0.139-0.75-0.193
			c-0.219-0.058-0.442-0.084-0.665-0.112c-0.247-0.026-0.52-0.055-0.772-0.055c-0.222,0-0.471,0-0.69,0.028
			c-0.25,0-0.505,0.055-0.781,0.081c-0.218,0.058-0.466,0.112-0.717,0.166c-0.22,0.085-0.473,0.142-0.691,0.25
			c-0.252,0.084-0.499,0.194-0.72,0.303c-0.108,0.086-0.251,0.114-0.362,0.168c-1.547,0.915-5.45,1.968-7.586,2.606
			c-4.019,1.159-8.117,3.93-9.89,8.059c-1.66,3.905,3.544,4.32,7.782,4.32c3.13,0,11.049-4.293,13.684-5.234
			c2.661,3.821,5.069,7.284,7.199,10.386c0.333,0.471,0.666,0.942,0.973,1.413c0.289,0.435,0.561,0.838,0.836,1.257l-5.076,4.061
			c0.772,0.972,1.525,1.912,2.244,2.796c10.747,13.16,16.288,17.812,21.796,17.84c0.029,0,0.029,0,0.058,0
			c0.83,0,1.689-0.112,2.549-0.303c1.024-0.252,1.963-0.637,2.822-1.164c2.353-1.412,4.071-3.794,4.679-6.706
			c0.106-0.493,0.243-1.112,0.394-1.835c0.449-2.105,1.09-5.095,1.845-8.636c2.941,24.778,7.456,29.852,4.083,65.246
			 M208.053,589.951c-0.357,1.968-0.634,3.885-0.874,5.771h-1.287v1.383h1.14c-1.76,15.738,0.467,28.297,2.197,34.982
			c0.549,11.624,2.599,63.24,0.738,86.436c-1.965,24.62-3.733,92.871-3.781,93.62h2.733l-0.203,3.094l-0.459-0.067
			c-1.567-0.223-1.838,0.862-2.626,2.168c-2.59,4.293-4.801,13.142-0.087,13.142c9.574,0,7.852-0.423,11.685-0.332
			c2.591,0.062,5.205,0.332,13.805,0.332c0.45,0,0.854-0.016,1.242-0.031c0.133,0.007,0.235,0.031,0.376,0.031
			c9.435,0,10.896-0.571,14.733-0.672c3.835-0.095,10.144,0.672,18.744,0.672c8.599,0,8.293-3.026,2.178-3.909
			c-5.705-0.824-16.819-6.252-20.474-9.283c-0.466-0.383-1.03-0.605-1.634-0.725l1.066-3.361l1.585,0.106
			c3.147-8.438,27.983-74.563,27.396-104.849c-0.452-23.34-2.902-72.039-3.331-79.965c1.246-20.26-0.367-38.543-0.367-38.543
			 M237.27,815.262l-0.624-0.092c-1.572-0.223-3.127,0.481-3.915,1.786c-1.135,1.886-2.689,4.727-3.458,7.317
			c-3.039-1.575-6.745-4.426-9.83-6.986c-0.516-0.426-1.153-0.675-1.833-0.779l0.73-4.364h2.177
			c0.05-0.744,13.193-67.12,15.147-91.561c1.686-21.037,3.11-62.939,3.675-81.427c3.553,16.402,10.78,51.488,11.136,69.799
			c0.412,21.524-1.252,39.493-15.68,103.401l3.061,0.204L237.27,815.262z"/>
	</defs>
	<clipPath id="SVGID_2_">
		<use xlink:href="#SVGID_10_"  overflow="visible"/>
	</clipPath>
	<path clip-path="url(#SVGID_2_)" fill="#E0E0E0" d="M181.039,358.847c-24.463-24.712-46.24-34.347-77.348-33.121
		c-23.688,0.938-48.238,4.661-61.601,38.199c-20.384,51.182,23.119,79.72,16.348,131.024c-5.825,44.112-44.296,43.904-55.021,90.283
		c-5.605,24.209,6.359,56.661,36.43,90.615c53.022,59.861,171.232,68.963,204.695-56.62
		C268.902,527.816,232.021,410.355,181.039,358.847z"/>
</g>
<g id="_x3C_grupa_x3E__2_">
	<g>
		<g>
			<path fill="#CC5605" d="M445.311,604.249h76.869c2.488,0,3.935-2.015,3.236-4.503l-12.87-45.615
				c-0.698-2.488-3.284-4.505-5.77-4.505h-76.872c-2.484,0-3.938,2.017-3.234,4.505l12.868,45.615
				C440.238,602.234,442.824,604.249,445.311,604.249z"/>
			<path fill="#F78834" d="M446.992,604.249h76.873c2.484,0,3.935-2.015,3.23-4.503l-12.864-45.615
				c-0.706-2.488-3.29-4.505-5.778-4.505h-76.867c-2.49,0-3.938,2.017-3.232,4.505l12.864,45.615
				C441.92,602.234,444.506,604.249,446.992,604.249z"/>
		</g>
		<path fill="#F7F7F7" d="M446.777,593.281l-8.442-29.935c-0.907-3.233,1.52-6.444,4.88-6.444h60.575
			c2.267,0,4.263,1.508,4.884,3.692l8.44,29.934c0.913,3.238-1.519,6.447-4.882,6.447h-60.577
			C449.389,596.976,447.393,595.468,446.777,593.281z"/>
	</g>
	<g>
		<path fill="#CC5605" d="M442.006,605.096c0.342,0.886,1.202,1.519,2.206,1.519h81.156c1.011,0,1.866-0.633,2.208-1.519
			c0.162-0.407-0.146-0.847-0.581-0.847h-84.401C442.156,604.249,441.854,604.688,442.006,605.096z"/>
		<path fill="#FCD592" d="M463.098,605.096c0.343,0.886,1.2,1.519,2.209,1.519h81.151c1.008,0,1.866-0.633,2.204-1.519
			c0.162-0.407-0.148-0.847-0.582-0.847h-84.397C463.249,604.249,462.939,604.688,463.098,605.096z"/>
		<path fill="#FFF3E1" d="M498.181,604.249v0.384c0,0.438,0.36,0.803,0.802,0.803h13.795c0.441,0,0.799-0.365,0.799-0.803v-0.384
			H498.181z"/>
	</g>
</g>
<g>
	<path fill="#F4B038" d="M570.078,614.112c-1.035-7.04-7.561-11.905-14.628-10.88c-7.568,1.113-74.241,12.098-84.245,55.431
		c-6.092,26.415,11.895,72.196,25.977,108.903l12.234-3.625c-10.203-31.285-16.398-85.152-13.09-99.479
		c5.142-22.279,48.202-33.538,62.887-35.726C566.242,627.7,571.113,621.156,570.078,614.112z"/>
	<path fill="#FFAF84" d="M575.354,421.84c-0.146-0.122-0.309-0.186-0.459-0.282c-2.988-12.716-14.377-25.494-28.012-25.494
		c-13.419,0-24.664,12.49-27.86,24.914c-0.816,0.008-1.646,0.254-2.368,0.862c-2.138,1.807-3.497,4.508-3.497,7.526
		s1.359,5.722,3.497,7.53c0.936,0.787,2.055,1.016,3.092,0.822c2.598,7.723,10.73,19.972,22.895,20.858
		c0.084,4.782-0.742,7.712-2.081,9.837c-5.164,8.189-5.903,9.434-5.903,9.434c-2.544,4.293-1.135,9.837,3.151,12.393
		c1.454,0.869,3.048,1.283,4.63,1.283c3.078,0,6.073-1.566,7.775-4.393c0.098-0.159,1.01-1.667,5.67-9.053
		c4.404-6.987,5.171-15.386,4.805-22.463c6.402-3.39,10.985-11.108,13.391-18.042c0.444-0.142,0.881-0.345,1.275-0.677
		c2.14-1.809,3.494-4.512,3.494-7.53S577.493,423.646,575.354,421.84z"/>
	<path fill="#FFC550" d="M568.451,631.932c0,0,7.855-14.401,2.805-41.98h-64.492c0,0-0.908,20.991,0.567,41.98H568.451z"/>
	<path fill="#FFC550" d="M520.135,606.738c-11.586,0-21.945-0.083-31.127-0.156c-47.619-0.357-61.974-0.48-68.738,11.766
		c-2.343,4.247-3.891,11.254,2.051,20.537c15.028,23.461,66.939,60.201,72.553,64.747l9.582-12.006
		c-12.419-10.061-39.396-41.023-54.626-59.001c9.459-0.491,23.944-0.377,38.98-0.262c9.239,0.069,19.66,0.152,31.325,0.152
		c7.124,0,12.891-5.771,12.891-12.888C533.025,612.506,527.259,606.738,520.135,606.738z"/>
	<path fill="#FFAF84" d="M616.265,529.195c-0.003-5.929-6.231-17.893-14.067-30.356c-6.374-10.085-13.714-20.47-19.338-28.198
		c-2.516-3.408-7.309-4.153-10.715-1.661c-3.408,2.494-4.185,7.284-1.665,10.692c6.702,9.167,13.709,19.47,19.276,28.361
		c5.85,9.224,10.166,16.953,11.06,20.33c-2.915,5.595-19.841,22.741-34.657,36.064c-0.231,0.208-0.412,0.445-0.615,0.676
		c-0.105,0.124-0.233,0.238-0.33,0.363c-0.238,0.305-0.429,0.627-0.605,0.957c-0.062,0.105-0.137,0.201-0.191,0.31
		c-0.173,0.345-0.297,0.715-0.416,1.081c-0.029,0.101-0.076,0.199-0.101,0.3c-0.101,0.361-0.151,0.729-0.196,1.103
		c-0.018,0.119-0.047,0.234-0.055,0.353c-0.024,0.346-0.009,0.692,0.014,1.034c0.012,0.15,0,0.301,0.023,0.449
		c0.033,0.317,0.121,0.631,0.193,0.946c0.045,0.172,0.071,0.34,0.121,0.505c0.099,0.3,0.243,0.585,0.375,0.876
		c0.083,0.169,0.141,0.342,0.234,0.505c0.162,0.285,0.365,0.553,0.566,0.82c0.095,0.131,0.166,0.272,0.273,0.397
		c0.017,0.021,0.067,0.072,0.085,0.097c0.017,0.02,0.024,0.039,0.048,0.059c0.007,0.016,0.024,0.021,0.041,0.035
		c1.271,1.465,6.393,7.051,12.61,9.204c0.828,0.29,1.677,0.426,2.512,0.426c3.171,0,4.726-4.816,5.822-7.984
		c1.385-3.999-4.179-7.625-8.179-9.009c-0.091-0.035-0.205-0.096-0.304-0.136C600.07,550.854,616.27,538.036,616.265,529.195z"/>
	<path fill="#ED8C62" d="M602.197,498.839l-8.451,6.23l-3.99,2.964c-5.567-8.892-12.574-19.194-19.276-28.361
		c-2.52-3.408-1.743-8.198,1.665-10.692c3.406-2.492,8.199-1.747,10.715,1.661C588.483,478.369,595.823,488.754,602.197,498.839z"/>
	<path fill="#F25F46" d="M602.585,495.93l-9.196,5.705l-7.87,4.903l-1.33-2.132l-3.958-6.4c-2.8-4.54-5.348-8.561-7.23-11.467
		c-1.855-2.905-3.045-4.735-3.074-4.766c-0.772-1.188-1.244-2.492-1.465-3.819c-0.642-3.794,0.937-7.81,4.402-10.082
		c1.189-0.777,2.494-1.247,3.796-1.468c0.743-0.141,1.519-0.169,2.271-0.112c3.044,0.167,6.006,1.745,7.808,4.514
		c0.194,0.279,4.822,7.368,10.553,16.62l3.966,6.372L602.585,495.93z"/>
	<path fill="#E24530" d="M593.389,501.635l-7.87,4.903l-1.33-2.132l-3.958-6.4c-2.8-4.54-5.348-8.561-7.23-11.467
		c-1.855-2.905-3.045-4.735-3.074-4.766c-0.772-1.188-1.244-2.492-1.465-3.819c-0.642-3.794,0.937-7.81,4.402-10.082
		c1.189-0.777,2.494-1.247,3.796-1.468c0.743-0.141,1.519-0.169,2.271-0.112c1.605,1.471,2.88,3.322,3.681,5.459
		c0.194,0.47,4.379,11.603,9.421,26.037L593.389,501.635z"/>
	<path fill="#F25F46" d="M582.581,473.716c-4.456,25.702-13.231,90.269-11.325,116.248h-64.479c0,0,0.688-17.367,1.996-39.109
		c1.685-28.917,4.43-65.508,7.864-79.326c0.053-0.196,0.082-0.389,0.14-0.554c0.718-2.798,3.263-4.711,6.146-4.711h53.376
		C580.261,466.264,583.275,469.809,582.581,473.716z"/>
	<path fill="#FF6820" d="M562.297,403.481c-6.097,7.88-42.143,12.733-42.143-4.976c0-3.77,2.505-5.555,2.505-5.555
		s0.295,2.679,1.613,3.443c0,0,6.172-3.552,12.338-4.882c0,0-1.181,2.697,3.392,2.085
		C553.195,391.844,572.409,390.402,562.297,403.481z"/>
	<path fill="#E24530" d="M532.84,484.519c0,0.08-0.388,2.492-0.941,6.369c-0.554,3.908-1.335,9.308-2.108,15.291l-1.13,8.502
		l-19.888,36.174c1.685-28.917,4.43-65.508,7.864-79.326c0.771-0.611,1.662-1.052,2.572-1.331c1.636-0.525,3.436-0.583,5.294,0
		c3.71,1.108,6.618,4.377,7.837,8.256C532.948,480.39,533.169,482.469,532.84,484.519z"/>
	<path fill="#FF6820" d="M537.209,398.1c-6.596,1.745-12.266,13.278-12.864,20.074c-1.101,12.595,8.388,32.302,27.978,32.302
		c23.36,0,25.613-24.926,24.474-31.2c-1.132-6.272-4.971-20.241-15.011-21.494C555.768,397.029,544.255,396.232,537.209,398.1z"/>
	<path fill="#FFAF84" d="M527.105,469.451c-0.027-0.058-0.027-0.058-0.057-0.031c-0.715-0.385-1.471-0.664-2.272-0.829
		c-1.771-0.414-3.572-0.303-5.204,0.222c-1.66,0.526-3.161,1.441-4.32,2.716c-0.033,0.027-0.083,0.056-0.083,0.108
		c-0.28,0.584-0.527,1.219-0.666,1.885c-0.278,1.218-3.491,15.814-6.872,32.103c-3.544,16.786-7.34,35.344-8.447,42.878
		c-2.301,15.705-26.863,28.334-36.146,31.877c-0.146,0.057-0.268,0.141-0.403,0.202c-0.293,0.133-0.591,0.262-0.867,0.435
		c-0.266,0.16-0.487,0.351-0.729,0.533c-0.136,0.108-0.284,0.187-0.418,0.308c-0.035,0.029-0.088,0.083-0.126,0.117
		c-0.017,0.017-0.036,0.034-0.054,0.05c-1.971,1.82-9.682,9.595-8.731,19.054c0.396,3.956,0.471,4.987,4.203,6.088
		c1.942,0.571,3.764,0.574,5.842,0.567c4.237-0.013,6.653-1.218,6.229-5.434c-0.113-1.066-2.103-11.13-0.349-13.039
		c21.866-9.253,42.999-13.305,46.727-38.517c1.001-6.785,4.41-23.569,7.704-39.44c3.71-17.672,7.307-34.18,7.395-34.514
		C530.072,473.992,529.073,471.22,527.105,469.451z"/>
	<path fill="#ED8C62" d="M529.461,476.789c-0.088,0.334-3.685,16.842-7.395,34.514l-14.436-5.679
		c3.381-16.288,6.594-30.885,6.872-32.103c0.139-0.666,0.386-1.301,0.666-1.885c0-0.053,0.05-0.081,0.083-0.108
		c1.159-1.274,2.66-2.189,4.32-2.716c1.632-0.524,3.434-0.636,5.204-0.222c0.802,0.165,1.558,0.444,2.272,0.829
		c0.029-0.026,0.029-0.026,0.057,0.031C529.073,471.22,530.072,473.992,529.461,476.789z"/>
	<path fill="#F25F46" d="M506.764,503.201l19.698,3.938l0.493-2.445l1.482-7.39c1.041-5.197,2.035-9.881,2.753-13.271
		c0.718-3.385,1.195-5.479,1.197-5.535c0.414-1.787,0.295-3.568-0.226-5.219c-1.037-3.279-3.756-5.976-7.377-6.777
		c-1.784-0.408-3.564-0.294-5.216,0.229c-3.282,1.034-5.979,3.757-6.779,7.376c-0.075,0.342-1.922,8.584-4.048,19.258l-1.482,7.389
		L506.764,503.201z"/>
	<g>
		<rect x="551.367" y="597.22" fill="#EFA21B" width="21.582" height="1.388"/>
		<path fill="#EFA21B" d="M493.455,698.359c-23.118-17.013-50.556-43.496-62.473-60.294c-4.059-5.717-5.076-10.632-3.02-14.604
			c3.086-5.979,12.937-9.273,27.729-9.273c5.014,0,13.581,0.041,22.441,0.08c9.496,0.048,19.333,0.094,25.512,0.094
			c11.772,0,11.772-5.541,11.772-7.631V589.26h1.384v17.471c0,5.982-4.43,9.014-13.156,9.014c-6.179,0-16.021-0.044-25.52-0.091
			c-8.86-0.039-17.42-0.083-22.434-0.083c-14.039,0-23.706,3.111-26.502,8.527c-1.793,3.473-0.81,7.907,2.922,13.169
			c11.842,16.696,39.146,43.04,62.17,59.979L493.455,698.359z"/>
	</g>
	<g>
		<path fill="#293549" d="M492.138,697.578c-0.578,0.391-1.05,0.91-1.335,1.526c-1.944,4.333-9.537,14.098-14.294,17.346
			c-5.106,3.483-4.056,6.335,3.672,2.553c7.724-3.784,13.052-7.25,16.533-8.847c3.489-1.598,5.061-1.732,13.527-5.882
			c6.501-3.184-1.804-9.395-6.017-12.108c-1.284-0.828-2.991-0.777-4.305,0.122L492.138,697.578z"/>
	</g>
	<g>
		<path fill="#293549" d="M497.614,764.389c-0.388,0.578-0.64,1.234-0.667,1.911c-0.199,4.747-2.653,15.464-8.307,19.076
			c-5.203,3.332-3.55,5.865,4.363,2.502c7.064-2.998,10.9-10.741,13.541-13.523c2.645-2.78,4.047-3.486,10.363-10.487
			c4.85-5.379-5.172-8.047-10.096-9.001c-1.496-0.29-3.06,0.394-3.947,1.712L497.614,764.389z"/>
	</g>
</g>
<g>
	<defs>
		<path id="SVGID_12_" d="M616.265,529.195c-0.003-5.929-6.231-17.893-14.067-30.356c-0.402-0.637-0.822-1.271-1.227-1.909l1.614-1
			l-1.328-2.132l-3.966-6.372c-5.73-9.252-10.358-16.341-10.553-16.62c-1.802-2.769-4.764-4.347-7.808-4.514
			c-0.608-0.044-1.227-0.018-1.833,0.061c-0.265-0.032-0.525-0.089-0.799-0.089h-16.141c0.605-3.651,0.705-7.3,0.529-10.648
			c6.402-3.39,10.985-11.108,13.391-18.042c0.444-0.142,0.881-0.345,1.275-0.677c2.14-1.809,3.494-4.512,3.494-7.53
			c0-2.137-0.702-4.092-1.863-5.703c0.075-1.822,0-3.365-0.188-4.388c-1.004-5.567-4.152-17.176-11.863-20.595
			c2.02-7.847-13.651-6.583-24.931-5.083c-4.572,0.612-3.392-2.085-3.392-2.085c-6.166,1.33-12.338,4.882-12.338,4.882
			c-1.318-0.765-1.613-3.443-1.613-3.443s-2.505,1.785-2.505,5.555c0,4.32,2.162,7.291,5.499,9.21
			c-3.123,3.999-5.436,8.633-6.631,13.262c-0.816,0.008-1.646,0.254-2.368,0.862c-2.138,1.807-3.497,4.508-3.497,7.526
			s1.359,5.722,3.497,7.53c0.936,0.787,2.055,1.016,3.092,0.822c2.598,7.723,10.73,19.972,22.895,20.858
			c0.059,3.36-0.343,5.793-1.041,7.687h-18.677c-0.063,0-0.117,0.015-0.173,0.015c-1.088-0.017-2.166,0.128-3.181,0.453
			c-3.282,1.034-5.979,3.757-6.779,7.376c-0.075,0.342-1.922,8.584-4.048,19.258l-1.482,7.389l-0.496,2.447l1.322,0.261
			c-0.153,0.72-0.305,1.437-0.455,2.162c-3.544,16.786-7.34,35.344-8.447,42.878c-2.301,15.705-26.863,28.334-36.146,31.877
			c-0.146,0.057-0.268,0.141-0.403,0.202c-0.293,0.133-0.591,0.262-0.867,0.435c-0.266,0.16-0.487,0.351-0.729,0.533
			c-0.136,0.108-0.284,0.187-0.418,0.308c-0.035,0.029-0.088,0.083-0.126,0.117c-0.017,0.017-0.036,0.034-0.054,0.05
			c-1.971,1.82-9.682,9.595-8.731,19.054c0.334,3.354,0.467,4.604,2.768,5.576c-20.999,0.61-29.476,3.121-34.208,11.694
			c-2.343,4.247-3.891,11.254,2.051,20.537c9.029,14.099,31.377,32.984,48.995,46.806c1.426,9.189,3.916,19.11,7.019,29.313
			c-0.635,0.56-1.252,1.055-1.825,1.446c-4.979,3.394-4.054,6.146,3.147,2.779c5.107,16.071,11.482,32.587,17.252,47.632
			c-0.347,4.971-2.821,15.035-8.268,18.515c-5.203,3.332-3.55,5.865,4.363,2.502c7.064-2.998,10.9-10.741,13.541-13.523
			c2.645-2.78,4.047-3.486,10.363-10.487c4.85-5.379-5.172-8.047-10.096-9.001c-0.028-0.011-0.057,0-0.083-0.004
			c-3.718-13.739-6.719-30.089-8.698-45.281c2.715-1.131,4.871-1.715,12.21-5.307c6.501-3.184-1.804-9.395-6.017-12.108
			c-0.047-0.033-0.102-0.041-0.146-0.063l0.376-0.477c-2.441-1.975-5.46-4.787-8.834-8.124c-0.382-8.408-0.187-15.173,0.705-19.039
			c3.903-16.91,29.644-27.467,48.249-32.531h23.876c0,0,6.192-11.415,4.016-33.324h0.482v-1.388h-0.637
			c-0.266-2.322-0.585-4.718-1.057-7.269l0,0c-0.202-2.777-0.279-6.02-0.256-9.588c2.061,1.61,4.526,3.198,7.233,4.134
			c0.828,0.29,1.677,0.426,2.512,0.426c3.171,0,4.726-4.816,5.822-7.984c1.385-3.999-4.179-7.625-8.179-9.009
			c-0.091-0.035-0.205-0.096-0.304-0.136C600.07,550.854,616.27,538.036,616.265,529.195z M467.984,602.299
			c-0.113-1.066-2.103-11.13-0.349-13.039c15.982-6.764,31.535-10.782,40.23-22.28c-0.716,13.523-1.085,22.871-1.09,22.972h-0.013
			c0,0-0.297,6.911-0.273,16.748c-6.223-0.03-12.085-0.07-17.482-0.117c-8.432-0.064-15.803-0.118-22.29-0.099
			C467.719,605.647,468.189,604.328,467.984,602.299z M449.829,632.625c9.093-0.472,22.818-0.389,37.208-0.274
			c-7.279,6.824-12.961,15.152-15.543,25.274C463.527,648.657,455.778,639.648,449.829,632.625z M571.955,559.124
			c1.483-20.197,4.406-44.054,7.123-62.974c0.389,0.618,0.757,1.22,1.152,1.855l3.958,6.4l1.33,2.132l2.347-1.46
			c0.626,0.984,1.302,2.002,1.891,2.955c5.85,9.224,10.166,16.953,11.06,20.33C598.277,533.238,585.11,546.877,571.955,559.124z"/>
	</defs>
	<clipPath id="SVGID_4_">
		<use xlink:href="#SVGID_12_"  overflow="visible"/>
	</clipPath>
	<path clip-path="url(#SVGID_4_)" fill="#E0E0E0" d="M681.424,425.126c-24.462-24.718-46.246-34.352-77.353-33.122
		c-23.684,0.936-48.239,4.658-61.597,38.196c-20.39,51.185,23.118,79.721,16.346,131.027c-5.82,44.106-44.297,43.898-55.025,90.28
		c-5.597,24.209,6.368,56.661,36.438,90.61c53.018,59.868,171.231,68.967,204.7-56.615
		C769.289,594.096,732.41,476.63,681.424,425.126z"/>
</g>
<rect x="504.455" y="631.244" fill="#FF651B" width="68.494" height="199.235"/>
<rect x="599.355" y="783.277" opacity="0.7" fill="#FFDEA9" width="68.494" height="47.202"/>
<rect x="409.562" y="748.195" opacity="0.7" fill="#FFDEA9" width="68.494" height="82.284"/>
<rect x="315.083" y="697.412" opacity="0.7" fill="#FFDEA9" width="68.495" height="133.067"/>
<path fill="#E2E2E2" d="M172.512,839.166h508.766c2.396,0,4.34-1.946,4.34-4.344l0,0c0-2.403-1.943-4.343-4.34-4.343H172.512
	c-2.396,0-4.344,1.939-4.344,4.343l0,0C168.168,837.22,170.115,839.166,172.512,839.166z"/>
<g>
	<g>
		<rect x="328.528" y="538.479" fill="#FFDEA9" width="37.32" height="11.542"/>
		<rect x="320.682" y="521.4" fill="#E2EBF4" width="4.018" height="100.634"/>
		<rect x="328.528" y="555.1" fill="#FFDEA9" width="22.795" height="11.543"/>
		<rect x="356.709" y="555.1" fill="#FFDEA9" width="31.302" height="11.543"/>
		<rect x="328.528" y="571.718" fill="#FFDEA9" width="14.815" height="11.543"/>
		<rect x="328.528" y="604.956" fill="#FFDEA9" width="15.921" height="11.54"/>
		<rect x="354.38" y="604.956" fill="#FFDEA9" width="38.132" height="11.54"/>
	</g>
	<g>
		<rect x="58.621" y="368.266" fill="#FFDEA9" width="68.531" height="11.539"/>
		<rect x="50.772" y="368.266" fill="#E2EBF4" width="4.022" height="100.636"/>
		<rect x="58.621" y="384.884" fill="#FFDEA9" width="78.457" height="11.538"/>
		<rect x="58.621" y="401.503" fill="#FFDEA9" width="51.688" height="11.538"/>
		<rect x="58.621" y="434.742" fill="#FFDEA9" width="9.849" height="11.538"/>
		<rect x="74.613" y="434.742" fill="#FFDEA9" width="23.589" height="11.538"/>
	</g>
	<g>
		
			<rect x="580.302" y="353.165" transform="matrix(0.7075 -0.7067 0.7067 0.7075 -84.0452 518.6157)" fill="#F78879" width="8.418" height="15.353"/>
		<path fill="#EFA46C" d="M625.36,401.691L625.36,401.691c-2.99,2.993-7.862,2.886-10.731-0.227l-31.223-34.008l7.723-7.718
			l34.005,31.225C628.248,393.825,628.35,398.702,625.36,401.691z"/>
		<path opacity="0.4" fill="#BFE2EF" d="M590.062,328.898c0,20.715-16.786,37.502-37.501,37.502c-8.913,0-17.108-3.123-23.539-8.314
			c-2.277-1.816-4.345-3.901-6.134-6.224c-1.078-1.398-2.09-2.892-2.985-4.479c-2.64-4.638-4.317-9.921-4.749-15.545
			c-0.075-0.968-0.121-1.953-0.121-2.94c0-20.715,16.814-37.524,37.528-37.524c0.987,0,2,0.042,2.965,0.113
			c5.626,0.437,10.882,2.112,15.523,4.756c1.581,0.893,3.078,1.903,4.477,2.981c2.321,1.795,4.409,3.861,6.225,6.134
			C586.943,311.788,590.062,319.987,590.062,328.898z"/>
		<path opacity="0.3" fill="#FFFFFF" d="M571.05,296.243l-51.146,51.141c-2.64-4.638-4.317-9.921-4.749-15.545l40.372-40.352
			C561.152,291.924,566.408,293.6,571.05,296.243z"/>
		<path opacity="0.3" fill="#FFFFFF" d="M581.751,305.358l-52.729,52.728c-2.277-1.816-4.345-3.901-6.134-6.224l52.638-52.638
			C577.848,301.02,579.936,303.086,581.751,305.358z"/>
		<path fill="#FCD592" d="M552.558,370.554c-11.132,0-21.592-4.334-29.458-12.204c-7.877-7.872-12.209-18.335-12.209-29.46
			c0-11.13,4.332-21.596,12.209-29.467c7.866-7.867,18.326-12.2,29.458-12.2c11.128,0,21.591,4.333,29.459,12.2l0,0l0,0
			c7.872,7.871,12.204,18.337,12.204,29.467c0,11.125-4.332,21.588-12.204,29.46C574.148,366.22,563.686,370.554,552.558,370.554z
			 M552.558,295.531c-8.909,0-17.284,3.469-23.584,9.77c-6.305,6.3-9.773,14.676-9.773,23.589c0,8.906,3.469,17.283,9.773,23.583
			c6.3,6.301,14.675,9.768,23.584,9.768s17.282-3.467,23.581-9.768c6.304-6.3,9.771-14.677,9.771-23.583
			c0-8.913-3.468-17.289-9.771-23.589l0,0C569.84,299,561.467,295.531,552.558,295.531z"/>
	</g>
</g>
</svg>
