<?xml version="1.0" encoding="utf-8"?>
<!-- Generator: Adobe Illustrator 16.0.0, SVG Export Plug-In . SVG Version: 6.00 Build 0)  -->
<!DOCTYPE svg PUBLIC "-//W3C//DTD SVG 1.1//EN" "http://www.w3.org/Graphics/SVG/1.1/DTD/svg11.dtd">
<svg version="1.1" id="Layer_1" xmlns="http://www.w3.org/2000/svg" xmlns:xlink="http://www.w3.org/1999/xlink" x="0px" y="0px"
	 width="1038.199px" height="1000px" viewBox="0 0 1038.199 1000" enable-background="new 0 0 1038.199 1000" xml:space="preserve">
<g>
	<g>
		<path fill="#FFF3E1" d="M1009.412,399.464c0,36.437-26.768,54.385-61.582,54.385s-66.369-25.638-66.369-62.078
			c0-36.441,39.078-70.028,72.522-60.375C990.876,342.036,1009.412,363.021,1009.412,399.464z"/>
		<path fill="#FFF3E1" d="M41.63,613.085c9.473,19.827,45.983,96.22,132.34,135.498c18.373,8.354,104.736,47.628,177.46,11.743
			c96.214-47.483,65.741-175.818,155.286-239.981c76.999-55.173,160.708,46.749,253.247-3.668
			c48.312-26.318,86.85-83.248,88.074-134.178c3.834-158.945-351.786-425.971-613.477-296.71
			C44.086,179.876-34.704,453.352,41.63,613.085z"/>
	</g>
	<g>
		<path fill="#FFA9A9" d="M669.139,481.854c-0.498,0-1.002-0.19-1.382-0.572l-9.467-9.464c-0.769-0.769-0.769-2.01,0-2.779
			c0.769-0.767,2.01-0.767,2.778,0l9.463,9.467c0.768,0.765,0.768,2.008,0,2.776C670.146,481.664,669.644,481.854,669.139,481.854z"
			/>
		<path fill="#FF651B" d="M417.968,267.654c-5.403,0-9.793-4.392-9.793-9.793c0-5.401,4.39-9.796,9.793-9.796
			c5.398,0,9.794,4.396,9.794,9.796C427.762,263.263,423.366,267.654,417.968,267.654z M417.968,251.991
			c-3.237,0-5.866,2.631-5.866,5.87c0,3.233,2.629,5.866,5.866,5.866c3.234,0,5.867-2.633,5.867-5.866
			C423.835,254.623,421.202,251.991,417.968,251.991z"/>
		<path fill="#FFA9A9" d="M404.481,246.114c0,2.161-1.749,3.914-3.915,3.914c-2.163,0-3.918-1.753-3.918-3.914
			c0-2.162,1.755-3.914,3.918-3.914C402.732,242.2,404.481,243.952,404.481,246.114z"/>
		<path fill="#FFA9A9" d="M621.549,514.94c-4.887,0-8.861-3.974-8.861-8.859c0-4.888,3.975-8.862,8.861-8.862
			c4.89,0,8.861,3.974,8.861,8.862C630.41,510.966,626.438,514.94,621.549,514.94z M621.549,501.148
			c-2.717,0-4.935,2.209-4.935,4.932c0,2.722,2.218,4.932,4.935,4.932c2.722,0,4.934-2.21,4.934-4.932
			C626.482,503.357,624.271,501.148,621.549,501.148z"/>
		<circle fill="#FCC5C5" cx="167.25" cy="408.527" r="11.444"/>
		<path fill="#FFA9A9" d="M118.124,494.562c-1.087,0-1.957-0.879-1.957-1.964v-8.725c0-1.087,0.87-1.966,1.957-1.966
			s1.966,0.879,1.966,1.966v8.725C120.09,493.683,119.211,494.562,118.124,494.562z"/>
		<path fill="#FFA9A9" d="M122.484,490.199h-8.725c-1.082,0-1.962-0.879-1.962-1.963c0-1.085,0.88-1.964,1.962-1.964h8.725
			c1.092,0,1.966,0.879,1.966,1.964C124.45,489.32,123.576,490.199,122.484,490.199z"/>
		<path fill="#FFD6BB" d="M618.386,199.791l-9.185-1.825c-1.383-0.276-2.734,0.627-3.008,2.01c-0.159,0.791,0.075,1.555,0.548,2.127
			l-1.966,2.063l-71.499-3.514c-1.396-0.067-2.589,0.996-2.682,2.394l-2.54,38.473c-0.084,1.286,0.791,2.432,2.054,2.686
			l18.956,3.76v0.004h0.005l38.226,7.599l-0.318,4.581l-52.892-10.505c-1.388-0.276-2.734,0.623-3.014,2.01
			c-0.273,1.388,0.628,2.741,2.021,3.015l3.709,0.738c-0.781,0.777-1.346,1.787-1.576,2.949c-0.623,3.123,1.404,6.158,4.528,6.776
			c3.123,0.623,6.157-1.405,6.78-4.528c0.23-1.163,0.089-2.313-0.33-3.332l29.518,5.867c-0.777,0.778-1.347,1.785-1.578,2.947
			c-0.622,3.123,1.406,6.158,4.529,6.781s6.157-1.409,6.775-4.532c0.235-1.162,0.094-2.311-0.326-3.331l3.711,0.742
			c0.725,0.137,1.476-0.031,2.059-0.481c0.588-0.446,0.945-1.124,1.003-1.86l0.645-9.407l15.528-45.857l4.148-4.35l5.173,1.027
			c1.387,0.274,2.738-0.627,3.013-2.017C620.679,201.415,619.777,200.065,618.386,199.791z M534.835,216.578l14.994,2.328
			l-1.034,9.648l-14.561-2.891L534.835,216.578z M554.891,219.692l23.062,3.574l-2.505,10.582l-21.607-4.296L554.891,219.692z
			 M555.439,214.59l0.817-7.675l25.277,1.241l-2.399,10.114L555.439,214.59z M583.031,224.059l13.527,2.096l-3.777,11.137
			l-12.308-2.447L583.031,224.059z M574.267,238.834l-2.019,8.515l-19.888-3.952l0.937-8.729L574.267,238.834z M579.295,239.836
			l11.83,2.35l-2.828,8.354l-11.021-2.191L579.295,239.836z M598.22,221.228l-14.005-2.171l2.527-10.648l15.563,0.766
			L598.22,221.228z M551.133,206.661l-0.766,7.143l-15.195-2.359l0.367-5.549L551.133,206.661z M533.895,230.82l14.357,2.845
			l-0.932,8.733l-14.009-2.781L533.895,230.82z"/>
	</g>
	<path fill="#FFEDE1" d="M411.262,764.69c-53.651,0-101.145-15.156-139.242-44.765c-53.134-41.286-85.591-108.885-91.398-190.334
		c-7.295-102.36,29.812-209.076,96.85-278.498c69.034-71.499,177.95-111.944,284.387-105.592
		c84.673,5.074,154.201,38.095,195.784,92.997c74.684,98.605,43.333,251.838-26.245,352.244l0,0
		c-60.486,87.273-167.541,154.096-272.742,170.225C442.406,763.45,426.583,764.69,411.262,764.69z M539.854,147.793
		c-98.415,0-196.521,39.326-260.267,105.352c-66.468,68.836-103.267,174.683-96.031,276.238
		c5.748,80.606,37.807,147.448,90.275,188.219c48.31,37.546,112.063,51.531,184.371,40.448
		c104.441-16.014,210.725-82.345,270.769-168.987l0,0c68.976-99.535,100.16-251.302,26.324-348.785
		c-40.465-53.422-111.031-86.89-193.614-91.837C554.414,148.008,547.135,147.793,539.854,147.793z"/>
	<path fill="#F25F46" d="M616.385,762.946c0,11.621-9.418,21.029-21.037,21.029c-11.613,0-21.031-9.408-21.031-21.029
		c0-11.619,9.418-21.038,21.031-21.038C606.967,741.908,616.385,751.327,616.385,762.946z"/>
	<path fill="#FFDEA9" d="M672.457,748.627c0,19.525-15.823,35.348-35.35,35.348c-19.521,0-35.354-15.822-35.354-35.348
		c0-19.527,15.832-35.351,35.354-35.351C656.634,713.277,672.457,729.1,672.457,748.627z"/>
	<polygon fill="#F7882D" points="742.904,783.975 634.055,783.975 688.502,650.114 701.776,682.755 	"/>
	<polygon fill="#E0B48C" points="742.904,783.975 687.084,783.975 701.776,682.755 	"/>
	<rect x="711.57" y="680.595" fill="#FFC550" width="171.421" height="103.38"/>
	<rect x="826.415" y="680.595" fill="#FF6820" width="56.576" height="103.38"/>
	<polygon fill="#F7882D" points="711.57,692.628 711.57,724.559 716.059,741.237 798.605,719.02 788.277,680.595 756.268,680.595 	
		"/>
	<g>
		<path fill="#FF651B" d="M635.142,851.45c0,9.414-7.634,17.053-17.052,17.053c-9.414,0-17.053-7.639-17.053-17.053
			c0-9.418,7.639-17.057,17.053-17.057C627.508,834.393,635.142,842.032,635.142,851.45z"/>
		<path fill="#FF651B" d="M813.697,851.45c0,9.414-7.635,17.053-17.049,17.053c-9.418,0-17.052-7.639-17.052-17.053
			c0-9.418,7.634-17.057,17.052-17.057C806.062,834.393,813.697,842.032,813.697,851.45z"/>
		<path fill="#FC5615" d="M730.896,850.368c0,9.414-7.629,17.051-17.047,17.051c-9.414,0-17.052-7.637-17.052-17.051
			c0-9.422,7.638-17.051,17.052-17.051C723.268,833.317,730.896,840.946,730.896,850.368z"/>
		<path fill="#FC5615" d="M909.457,850.368c0,9.414-7.635,17.051-17.048,17.051c-9.418,0-17.057-7.637-17.057-17.051
			c0-9.422,7.639-17.051,17.057-17.051C901.822,833.317,909.457,840.946,909.457,850.368z"/>
		<path fill="#F9D19D" d="M972.902,542.452c1.701-2.687,0.905-6.247-1.781-7.956c-2.689-1.703-6.25-0.906-7.955,1.78l-17.552,27.667
			h-95.335c-3.178,0-5.757,2.584-5.757,5.77c0,3.18,2.579,5.761,5.757,5.761h44.507l-6.817,51.956H841.96
			c-3.181,0-5.765,2.576-5.765,5.761c0,3.181,2.584,5.76,5.765,5.76h44.498l-7.739,59.006H832.71c-3.181,0-5.761,2.575-5.761,5.761
			c0,3.185,2.58,5.77,5.761,5.77h44.498l-5.845,44.601H825.35c-3.176,0-5.756,2.585-5.756,5.77c0,3.176,2.58,5.764,5.756,5.764
			h44.503l-2.411,18.354h-46.01c-3.176,0-5.76,2.59-5.76,5.762c0,3.184,2.584,5.77,5.76,5.77h93.432l4.117,32.049h-91.957
			c-3.18,0-5.76,2.576-5.76,5.762c0,3.184,2.58,5.768,5.76,5.768h98.504c1.662,0,3.23-0.715,4.329-1.957
			c1.087-1.25,1.595-2.902,1.388-4.541l-5.496-42.832l28.592-218.041L972.902,542.452z M906.408,575.474h35.81l-6.812,51.956
			h-35.809L906.408,575.474z M898.086,638.951h35.805l-7.731,59.006h-35.809L898.086,638.951z M888.84,709.487h35.809l-5.85,44.601
			h-35.808L888.84,709.487z M881.479,765.622h35.806l-2.399,18.354h-35.813L881.479,765.622z"/>
		<path fill="#FFDDA8" d="M874.398,542.452c1.705-2.687,0.91-6.247-1.775-7.956c-2.691-1.703-6.256-0.906-7.961,1.78l-17.834,28.122
			L525.576,611.99c-3.119,0.464-5.283,3.331-4.872,6.454l22.529,172.048c0.38,2.865,2.823,5.014,5.722,5.014h267.404l4.113,32.049
			H571.259c-3.185,0-5.766,2.576-5.766,5.762c0,3.184,2.581,5.768,5.766,5.768h255.765c1.658,0,3.234-0.715,4.33-1.957
			c1.092-1.25,1.6-2.902,1.387-4.541l-5.495-42.832l28.591-218.041L874.398,542.452z M723.321,594.346l53.815-7.969l-3.45,43.929
			l-51.364,2.169L723.321,594.346z M532.866,622.57l51.049-7.563l1.833,23.232l-50.546,2.138L532.866,622.57z M542.743,697.957
			l-6.044-46.11l49.95-2.108l3.8,48.218H542.743z M544.25,709.487h47.104l3.114,39.652l-45.152-0.962L544.25,709.487z
			 M554.008,783.975l-3.176-24.237l44.547,0.959l1.833,23.278H554.008z M595.348,613.311l51.995-7.705l0.791,30l-50.859,2.146
			L595.348,613.311z M598.18,649.253l50.255-2.125l1.333,50.829h-47.753L598.18,649.253z M602.92,709.487h47.148l1.078,40.868
			l-45.091-0.968L602.92,709.487z M608.777,783.975l-1.816-23.036l44.49,0.954l0.579,22.082H608.777z M706.826,783.975h-43.266
			l-0.574-21.834l44.393,0.955L706.826,783.975z M707.674,751.565l-44.992-0.968l-1.079-41.11h47.176L707.674,751.565z
			 M709.079,697.957h-47.78l-1.348-51.31l50.528-2.134L709.079,697.957z M710.775,632.961l-51.129,2.16l-0.822-31.214l52.924-7.841
			L710.775,632.961z M761.613,783.975h-43.254l0.541-20.637l44.254,0.951L761.613,783.975z M764.061,752.775l-44.857-0.963
			l1.102-42.325h47.162L764.061,752.775z M768.371,697.957h-47.762l1.408-53.935l50.758-2.142L768.371,697.957z M816.373,783.975
			h-43.199l1.528-19.436l44.101,0.941L816.373,783.975z M820.305,753.982l-44.697-0.959l3.42-43.536h47.113L820.305,753.982z
			 M827.66,697.957h-47.723l4.443-56.567l50.975-2.156L827.66,697.957z M836.876,627.633l-51.589,2.182l3.551-45.174l54.739-8.107
			L836.876,627.633z"/>
		<path fill="#FF651B" d="M984.449,546.207H851.365c-3.186,0-5.766-2.575-5.766-5.76c0-3.181,2.58-5.766,5.766-5.766h133.084
			c3.182,0,5.761,2.585,5.761,5.766C990.21,543.631,987.631,546.207,984.449,546.207z"/>
		<path fill="#E2E2E2" d="M894.953,879.731H580.629c-3.406,0-6.158-2.756-6.158-6.152l0,0c0-3.402,2.752-6.16,6.158-6.16h314.324
			c3.401,0,6.159,2.758,6.159,6.16l0,0C901.112,876.975,898.354,879.731,894.953,879.731z"/>
	</g>
	<path fill="#F9875F" d="M457.178,298.653l38.699,455.267c0.653,7.672-5.041,14.423-12.714,15.071l-238.926,20.312
		c-7.673,0.65-14.423-5.041-15.072-12.713l-38.699-455.271c-0.648-7.669,5.042-14.463,12.71-15.115l238.922-20.308
		C449.774,285.245,456.529,290.981,457.178,298.653z"/>
	<path fill="#F9875F" d="M200.172,636.128c-1.016,0-1.873-0.777-1.956-1.803l-5.894-69.299c-0.094-1.083,0.716-2.032,1.793-2.125
		c1.101-0.102,2.027,0.711,2.121,1.793l5.893,69.3c0.088,1.082-0.711,2.032-1.789,2.125
		C200.278,636.119,200.226,636.128,200.172,636.128z"/>
	<path fill="#F9875F" d="M203.233,672.131c-1.017,0-1.868-0.773-1.958-1.793l-1.611-18.953c-0.092-1.073,0.711-2.022,1.789-2.116
		c1.108-0.102,2.032,0.707,2.124,1.79l1.613,18.947c0.089,1.073-0.712,2.022-1.789,2.115
		C203.34,672.131,203.286,672.131,203.233,672.131z"/>
	<path fill="#FF9B73" d="M468.634,297.676l38.693,455.271c0.649,7.669-5.04,14.424-12.71,15.072l-238.92,20.307
		c-7.673,0.65-14.424-5.041-15.072-12.709l-38.699-455.271c-0.654-7.673,5.036-14.468,12.705-15.113l238.926-20.312
		C461.23,284.269,467.979,290.005,468.634,297.676z"/>
	<path fill="#F9EAD2" d="M444.539,319.212l33.446,393.478c0.35,4.13-2.729,7.788-6.908,8.142l-200.145,17.008
		c-4.179,0.362-7.827-2.721-8.177-6.856L229.311,337.51c-0.354-4.137,2.727-7.788,6.899-8.146l200.148-17.01
		C440.538,312.002,444.187,315.077,444.539,319.212z"/>
	<g>
		<path fill="#FF6820" d="M374.141,766.227L374.141,766.227c-7.223,0.615-13.566-4.745-14.181-11.963l0,0
			c-0.614-7.219,4.736-13.571,11.959-14.18l0,0c7.219-0.614,13.571,4.735,14.181,11.958l0,0
			C386.713,759.262,381.359,765.614,374.141,766.227z"/>
	</g>
	<polygon fill="#FFE4C0" points="295.301,515.161 326.629,541.582 462.457,530.033 460.006,501.157 	"/>
	<polygon fill="#FFE4C0" points="301.75,591.095 333.084,617.517 468.911,605.969 466.456,577.09 	"/>
	<polygon fill="#FFE4C0" points="309.078,677.255 340.414,703.677 476.232,692.139 473.779,663.256 	"/>
	<g>
		<path fill="#FF6820" d="M250.184,320.563L250.184,320.563c-2.929,0.252-5.514-1.926-5.765-4.859l0,0
			c-0.247-2.931,1.931-5.513,4.862-5.76l0,0c2.936-0.252,5.515,1.926,5.762,4.859l0,0
			C255.295,317.736,253.117,320.316,250.184,320.563z"/>
	</g>
	<g>
		<path fill="#FF6820" d="M265.941,317.007L265.941,317.007c-1.719,0.148-3.226-1.126-3.375-2.845l0,0
			c-0.146-1.716,1.131-3.225,2.846-3.375l0,0c1.723-0.146,3.228,1.126,3.374,2.845l0,0
			C268.937,315.353,267.66,316.864,265.941,317.007z"/>
	</g>
	<path fill="#E24444" d="M477.212,389.207l-0.794,0.066l-3.68-43.316l0.794-0.07c0.911-0.076,1.715,0.598,1.789,1.511l3.402,40.019
		C478.803,388.325,478.123,389.129,477.212,389.207z"/>
	<path fill="#E24444" d="M481.458,439.108l-0.796,0.066l-3.68-43.319l0.791-0.064c0.914-0.08,1.714,0.599,1.794,1.513l3.396,40.013
		C483.044,438.227,482.372,439.03,481.458,439.108z"/>
	<g>
		<g>
			<g>
				<polygon fill="#E8AFAF" points="416.047,329.62 412.618,329.911 411.723,319.349 415.146,319.058 				"/>
				<polygon fill="#E8AFAF" points="412.133,329.951 408.704,330.243 408.145,323.594 411.567,323.305 				"/>
				
					<rect x="404.67" y="327.691" transform="matrix(0.9964 -0.0849 0.0849 0.9964 -26.4635 35.6809)" fill="#E8AFAF" width="3.44" height="2.742"/>
			</g>
		</g>
		<g>
			<g>
				
					<rect x="421.571" y="321.999" transform="matrix(0.9964 -0.0853 0.0853 0.9964 -26.1937 37.4753)" fill="#E8AFAF" width="8.132" height="6.792"/>
				<g>
					<path fill="#E8AFAF" d="M432.229,322.413l0.41,4.809l-9.873,0.839l-0.406-4.811L432.229,322.413 M433.121,321.35l-11.822,1.007
						l0.574,6.768l11.822-1.007L433.121,321.35L433.121,321.35z"/>
					
						<rect x="432.979" y="322.3" transform="matrix(-0.9963 0.0857 -0.0857 -0.9963 894.3003 610.9794)" fill="#E8AFAF" width="2.12" height="4.76"/>
				</g>
			</g>
		</g>
	</g>
	<g>
		
			<rect x="258.496" y="496.808" transform="matrix(-0.9964 0.0847 -0.0847 -0.9964 759.658 974.2827)" fill="#FFF8EE" width="201.326" height="12.899"/>
		<polygon fill="#F9CF98" points="398.672,506.372 460.006,501.157 458.915,488.304 397.582,493.521 		"/>
	</g>
	<g>
		
			<rect x="272.275" y="658.909" transform="matrix(-0.9964 0.0847 -0.0847 -0.9964 800.8853 1296.7356)" fill="#FFF8EE" width="201.321" height="12.897"/>
		
			<rect x="411.795" y="652.992" transform="matrix(-0.9964 0.0848 -0.0848 -0.9964 939.4495 1278.9879)" fill="#FFD092" width="61.55" height="12.897"/>
	</g>
	<g>
		<g>
			<path fill="#E0D8D1" d="M284.222,544.214l2.845,33.538c0.079,0.906-0.562,1.701-1.463,1.781l-12.956,1.104
				c-0.901,0.075-1.667-0.605-1.741-1.511l-2.854-33.538c-0.221-2.62,0.83-5.076,2.624-6.688c0.774-0.698,1.118-1.749,1.029-2.77
				l-0.649-7.67l-0.199,0.013c-0.118,0.011-0.243-0.097-0.256-0.251l-0.146-1.679c-0.01-0.159,0.093-0.284,0.213-0.295l7.667-0.654
				c0.16-0.009,0.287,0.097,0.307,0.25l0.137,1.683c0.012,0.157-0.089,0.285-0.248,0.296l-0.159,0.015l0.654,7.671
				c0.083,1.02,0.602,2,1.476,2.557C282.538,539.351,283.996,541.59,284.222,544.214z"/>
			<polygon fill="#EDE9E2" points="273.49,547.846 275.5,571.484 270.293,571.931 268.287,548.283 			"/>
		</g>
		<g>
			<path fill="#E0CCB3" d="M295.429,542.089l2.951,34.652c0.075,0.927-0.61,1.74-1.524,1.825l-13.367,1.135
				c-0.933,0.075-1.746-0.614-1.825-1.533l-2.946-34.656c-0.229-2.7,0.865-5.227,2.743-6.914c0.787-0.711,1.136-1.799,1.048-2.851
				l-0.672-7.93l-0.182,0.015c-0.146,0.016-0.265-0.099-0.283-0.247l-0.146-1.731c-0.013-0.152,0.084-0.281,0.234-0.298l7.917-0.667
				c0.136-0.018,0.264,0.099,0.283,0.243l0.145,1.736c0.009,0.154-0.101,0.283-0.234,0.298l-0.186,0.012l0.677,7.931
				c0.093,1.045,0.618,2.061,1.52,2.632C293.701,537.084,295.199,539.391,295.429,542.089z"/>
			
				<rect x="273.147" y="552.644" transform="matrix(-0.0845 -0.9964 0.9964 -0.0845 -246.5378 889.6173)" fill="#FFFBF3" width="24.517" height="10.84"/>
			<polygon fill="#FFFBF3" points="295.672,544.89 297.748,569.32 296.043,569.47 293.967,545.032 			"/>
		</g>
	</g>
	<g>
		<g>
			<path fill="#C4B4BB" d="M384.501,620.578l3.004,35.345c0.079,0.95,0.94,1.648,1.895,1.564l14.198-1.206
				c0.981-0.083,1.728-0.919,1.647-1.864l-3.004-35.341c-0.234-2.756-1.819-5.102-4.095-6.467c-0.955-0.579-1.506-1.612-1.6-2.682
				l-1.183-13.916l0.185-0.018c0.177-0.014,0.27-0.15,0.257-0.305l-0.15-1.763c-0.019-0.155-0.128-0.27-0.301-0.252l-8.397,0.711
				c-0.133,0.009-0.27,0.146-0.256,0.3l0.149,1.772c0.018,0.155,0.169,0.26,0.301,0.251l0.186-0.017l1.188,13.919
				c0.089,1.065-0.282,2.178-1.126,2.907C385.42,615.246,384.262,617.821,384.501,620.578z"/>
			<polygon fill="#D3C9C7" points="385.217,629.122 386.369,642.662 402.197,641.314 401.045,627.783 			"/>
			
				<rect x="384.919" y="601.41" transform="matrix(-0.0845 -0.9964 0.9964 -0.0845 -178.189 1044.999)" fill="#D3C9C7" width="12.059" height="5.888"/>
			<path fill="#D6D0D0" d="M390.088,635.527c0.164,1.921,1.918,3.339,3.915,3.171c2.001-0.172,3.489-1.864,3.322-3.785
				c-0.159-1.922-1.913-3.345-3.915-3.172C391.414,631.909,389.925,633.605,390.088,635.527z"/>
			<path fill="#D3C9C7" d="M394.396,592.686l-6.661,0.565c-0.243,0.022-0.424,0.238-0.402,0.473l0.062,0.769
				c0.021,0.248,0.238,0.433,0.481,0.406l6.661-0.565c0.239-0.018,0.429-0.229,0.401-0.477l-0.065-0.769
				C394.851,592.844,394.639,592.659,394.396,592.686z"/>
		</g>
		<g>
			<path fill="#C9B8BF" d="M399.34,619.319l3.004,35.345c0.079,0.941,0.94,1.639,1.896,1.564l14.192-1.21
				c0.985-0.088,1.732-0.914,1.652-1.869l-3.004-35.341c-0.233-2.756-1.819-5.103-4.095-6.458c-0.955-0.583-1.506-1.612-1.6-2.686
				l-1.179-13.92l0.185-0.013c0.173-0.013,0.271-0.146,0.253-0.296l-0.15-1.767c-0.014-0.154-0.124-0.269-0.301-0.26l-8.398,0.72
				c-0.128,0.009-0.268,0.146-0.252,0.3l0.156,1.763c0.004,0.154,0.163,0.269,0.295,0.256l0.186-0.018l1.184,13.916
				c0.089,1.078-0.282,2.187-1.122,2.916C400.254,613.987,399.105,616.562,399.34,619.319z"/>
			<polygon fill="#D2C8CE" points="401.977,627.695 403.131,641.24 418.953,639.892 417.805,626.356 			"/>
			
				<rect x="401.074" y="599.578" transform="matrix(-0.0848 -0.9964 0.9964 -0.0848 -160.097 1059.0518)" fill="#D2C8CE" width="10.476" height="6.942"/>
			<path fill="#D4D6D1" d="M405.908,634.185c0.203,2.42,2.412,4.205,4.93,3.994c2.514-0.217,4.392-2.351,4.184-4.767
				c-0.203-2.425-2.412-4.214-4.926-3.998C407.578,629.629,405.704,631.759,405.908,634.185z"/>
			<path fill="#D3C9C7" d="M409.234,591.426l-6.657,0.565c-0.247,0.018-0.428,0.23-0.411,0.478l0.067,0.764
				c0.021,0.248,0.239,0.424,0.48,0.407l6.657-0.565c0.248-0.022,0.425-0.239,0.407-0.481l-0.066-0.769
				C409.689,591.585,409.473,591.4,409.234,591.426z"/>
		</g>
		<g>
			<path fill="#C4B5B7" d="M358.252,622.809l3,35.346c0.078,0.949,0.939,1.647,1.898,1.563l14.193-1.207
				c0.98-0.083,1.727-0.919,1.647-1.859l-3-35.346c-0.237-2.761-1.823-5.102-4.103-6.467c-0.945-0.575-1.502-1.613-1.595-2.678
				l-1.185-13.919l0.19-0.014c0.177-0.017,0.265-0.149,0.253-0.309l-0.147-1.762c-0.021-0.155-0.132-0.27-0.3-0.252l-8.403,0.711
				c-0.128,0.009-0.264,0.15-0.251,0.301l0.15,1.762c0.013,0.155,0.168,0.27,0.3,0.261l0.187-0.014l1.184,13.911
				c0.089,1.069-0.287,2.187-1.123,2.916C359.166,617.477,358.009,620.057,358.252,622.809z"/>
			<polygon fill="#CCBEBD" points="358.967,631.357 360.119,644.897 375.943,643.545 374.795,630.005 			"/>
			
				<rect x="358.669" y="603.642" transform="matrix(-0.0846 -0.9964 0.9964 -0.0846 -208.86 1021.2941)" fill="#CCBEBD" width="12.05" height="5.886"/>
			<path fill="#BEB2AF" d="M363.835,637.762c0.163,1.918,1.917,3.336,3.919,3.168c1.996-0.168,3.485-1.864,3.322-3.781
				c-0.159-1.926-1.914-3.344-3.914-3.177C365.161,634.14,363.672,635.837,363.835,637.762z"/>
			<path fill="#D3C9C7" d="M368.142,594.917l-6.657,0.565c-0.242,0.018-0.428,0.229-0.406,0.477l0.066,0.765
				c0.018,0.248,0.234,0.433,0.479,0.411l6.661-0.57c0.237-0.022,0.423-0.229,0.401-0.477l-0.066-0.765
				C368.602,595.075,368.385,594.894,368.142,594.917z"/>
		</g>
		<g>
			<path fill="#9B8AA8" d="M347.821,622.442l3.105,36.534c0.08,0.979-0.676,1.842-1.661,1.921l-14.675,1.246
				c-1.017,0.093-1.923-0.632-2.006-1.612l-3.104-36.529c-0.243-2.85,0.962-5.522,3.048-7.307c0.87-0.751,1.249-1.904,1.157-3.008
				l-1.225-14.383l-0.193,0.018c-0.178,0.013-0.297-0.11-0.306-0.265l-0.159-1.825c-0.008-0.159,0.084-0.3,0.261-0.313l8.682-0.738
				c0.136-0.014,0.296,0.102,0.312,0.26l0.151,1.829c0.019,0.159-0.119,0.296-0.256,0.314l-0.199,0.013l1.225,14.384
				c0.097,1.104,0.671,2.173,1.655,2.774C345.953,617.163,347.574,619.588,347.821,622.442z"/>
			
				<rect x="333.967" y="630.753" transform="matrix(-0.0846 -0.9964 0.9964 -0.0846 -266.8298 1032.7969)" fill="#EACECE" width="14.045" height="16.421"/>
			
				<rect x="332.191" y="603.989" transform="matrix(-0.0845 -0.9964 0.9964 -0.0845 -237.8434 995.5363)" fill="#EACECE" width="12.458" height="6.084"/>
			<path fill="#F7E7E7" d="M344.734,638.641c0.172,1.988-1.37,3.738-3.438,3.915c-2.066,0.176-3.878-1.29-4.051-3.274
				c-0.167-1.987,1.37-3.736,3.437-3.914C342.75,635.191,344.566,636.658,344.734,638.641z"/>
			<path fill="#EACECE" d="M332.872,595.742l6.884-0.583c0.247-0.022,0.471,0.164,0.494,0.416l0.065,0.791
				c0.022,0.251-0.168,0.477-0.419,0.499l-6.878,0.583c-0.257,0.022-0.478-0.159-0.5-0.415l-0.065-0.799
				C332.435,595.99,332.616,595.769,332.872,595.742z"/>
		</g>
		<g>
			<path fill="#AD9BBC" d="M363.137,621.139l3.102,36.533c0.088,0.977-0.671,1.838-1.661,1.922l-14.67,1.251
				c-1.021,0.088-1.923-0.637-2.006-1.609l-3.106-36.542c-0.238-2.845,0.964-5.513,3.039-7.298c0.875-0.755,1.26-1.899,1.162-3.013
				L347.777,598l-0.195,0.018c-0.176,0.013-0.299-0.102-0.309-0.265l-0.158-1.825c-0.01-0.159,0.084-0.3,0.264-0.313l8.682-0.738
				c0.132-0.009,0.295,0.106,0.309,0.26l0.155,1.834c0.013,0.154-0.124,0.3-0.262,0.309l-0.194,0.013l1.224,14.384
				c0.093,1.113,0.667,2.182,1.652,2.778C361.269,615.86,362.89,618.29,363.137,621.139z"/>
			<polygon fill="#D7CFE8" points="361.91,630.133 363.098,644.128 346.734,645.524 345.546,631.525 			"/>
			<polygon fill="#D7CFE8" points="356.308,600.076 357.223,610.864 350.074,611.478 349.156,600.686 			"/>
			<path fill="#E6EDF4" d="M359.033,637.431c0.212,2.505-1.723,4.705-4.329,4.926c-2.599,0.225-4.882-1.626-5.094-4.126
				c-0.213-2.5,1.728-4.704,4.325-4.925C356.537,633.084,358.821,634.931,359.033,637.431z"/>
			<path fill="#EACECE" d="M348.179,594.439l6.887-0.583c0.257-0.022,0.474,0.168,0.499,0.415l0.071,0.8
				c0.014,0.251-0.167,0.473-0.419,0.491l-6.888,0.587c-0.252,0.017-0.472-0.168-0.495-0.42l-0.064-0.791
				C347.746,594.686,347.932,594.461,348.179,594.439z"/>
		</g>
		<g>
			<path fill="#A5899C" d="M390.297,618.829l3.105,36.534c0.084,0.981-0.676,1.837-1.661,1.926l-14.671,1.249
				c-1.02,0.085-1.926-0.635-2.006-1.611l-3.105-36.543c-0.244-2.844,0.959-5.518,3.043-7.293c0.871-0.76,1.256-1.904,1.158-3.013
				l-1.219-14.388l-0.195,0.013c-0.18,0.018-0.295-0.097-0.309-0.256l-0.154-1.829c-0.019-0.159,0.074-0.295,0.256-0.313
				l8.684-0.738c0.134-0.004,0.297,0.111,0.311,0.261l0.154,1.837c0.018,0.15-0.123,0.296-0.261,0.305l-0.188,0.013l1.218,14.388
				c0.093,1.109,0.667,2.178,1.652,2.774C388.432,613.549,390.054,615.983,390.297,618.829z"/>
			<polygon fill="#CCAAAA" points="391.053,627.66 392.249,641.654 375.883,643.051 374.694,629.047 			"/>
			
				<rect x="374.667" y="600.377" transform="matrix(-0.0847 -0.9964 0.9964 -0.0847 -188.0872 1034.0598)" fill="#CCAAAA" width="12.463" height="6.082"/>
			<path fill="#846D6D" d="M387.208,635.037c0.173,1.979-1.369,3.737-3.436,3.914c-2.063,0.177-3.88-1.299-4.048-3.282
				c-0.168-1.98,1.37-3.738,3.438-3.915S387.045,633.049,387.208,635.037z"/>
			<path fill="#EACECE" d="M375.348,592.129l6.882-0.583c0.256-0.022,0.478,0.172,0.499,0.415l0.067,0.799
				c0.021,0.252-0.168,0.473-0.419,0.491l-6.88,0.592c-0.256,0.022-0.481-0.168-0.499-0.424l-0.066-0.791
				C374.906,592.376,375.096,592.151,375.348,592.129z"/>
		</g>
	</g>
	<g>
		
			<rect x="264.95" y="572.745" transform="matrix(-0.9964 0.0847 -0.0847 -0.9964 778.9564 1125.3417)" fill="#F8FFF0" width="201.322" height="12.892"/>
		
			<rect x="422.275" y="566.072" transform="matrix(-0.9964 0.0847 -0.0847 -0.9964 935.1481 1105.3717)" fill="#FFD69F" width="43.715" height="12.892"/>
	</g>
	<g>
		<path fill="#FFD097" d="M307.842,643.192c-2.08-1.304-12.776-6.763-4.683-10.072c8.093-3.305-0.009-5.99-2.165-7.254
			c-1.594-0.932-7.792-4.13-3.117-9.153c4.668-5.027,2.8-7.629-0.619-8.857c-3.41-1.219-2.085-13.178,8.026-9.356
			c10.104,3.826-0.605,12.343,1.48,17.454c2.09,5.116,14.445,4.617,10.407,10.607c-4.037,5.99-5.986,8.442-1.353,11.079
			C320.454,640.276,313.391,646.677,307.842,643.192z"/>
		<path fill="#FFCA85" d="M307.542,645.272l-0.235-0.57c2.131-0.87,3.271-1.779,3.296-2.628c0.04-1.356-2.663-2.672-4.284-3.455
			c-0.486-0.238-0.914-0.441-1.215-0.618l-0.252-0.154c-1.286-0.738-4.29-2.47-4.688-5.094c-0.212-1.427,0.371-2.907,1.75-4.391
			l0.45,0.424c-1.241,1.334-1.775,2.638-1.595,3.875c0.354,2.323,3.176,3.958,4.387,4.656l0.256,0.146
			c0.283,0.167,0.698,0.367,1.181,0.601c1.974,0.959,4.683,2.271,4.624,4.024C311.182,643.232,309.979,644.273,307.542,645.272z"/>
		<path fill="#FFCA85" d="M315.859,634.865c-1.863-0.641-2.94-1.427-3.387-2.496c-0.792-1.873,0.387-4.356,2.35-8.468l0.406-0.862
			c0.526-1.104,0.623-1.961,0.291-2.628c-0.658-1.343-3.021-1.86-5.521-2.398c-2.979-0.641-6.053-1.308-7.418-3.441
			c-1.215-1.904-0.543-4.528,0.168-7.302c0.689-2.704,1.405-5.496,0.168-7.413c-0.791-1.229-2.302-2.023-4.62-2.439l0.106-0.605
			c2.499,0.442,4.143,1.334,5.027,2.708c1.387,2.147,0.635,5.071-0.088,7.899c-0.678,2.646-1.309,5.142-0.244,6.82
			c1.228,1.921,4.174,2.558,7.029,3.172c2.649,0.574,5.154,1.118,5.945,2.73c0.419,0.844,0.322,1.882-0.287,3.167l-0.406,0.853
			c-1.821,3.826-3.021,6.353-2.342,7.97c0.376,0.888,1.334,1.572,3.025,2.147L315.859,634.865z"/>
		<path fill="#FCE5C8" d="M318.294,663.54l-12.882,1.095c-0.666,0.058-1.264-0.406-1.374-1.064l-3.622-21.558
			c-0.105-0.645,0.357-1.241,1.008-1.294l16.769-1.431c0.649-0.054,1.205,0.455,1.205,1.109l0.071,21.861
			C319.478,662.925,318.962,663.486,318.294,663.54z"/>
	</g>
	<g>
		
			<rect x="315.349" y="622.497" transform="matrix(0.9964 -0.0846 0.0846 0.9964 -53.2658 29.4554)" fill="#F9C78C" width="10.752" height="40.753"/>
		<polygon fill="#F9C78C" points="395.019,616.112 384.307,617.018 387.762,657.624 398.473,656.718 		"/>
		<polygon fill="#F9C78C" points="434.662,612.746 423.949,613.647 427.399,654.258 438.113,653.344 		"/>
		
			<rect x="351.95" y="610.056" transform="matrix(-0.085 -0.9964 0.9964 -0.085 -264.7394 1066.5227)" fill="#FFDDA8" width="10.751" height="89.522"/>
		<polygon fill="#FFDDA8" points="311.111,639.574 312.021,650.282 401.221,642.702 400.311,631.984 		"/>
		
			<rect x="349.631" y="582.689" transform="matrix(-0.0843 -0.9964 0.9964 -0.0843 -240.2772 1034.1008)" fill="#FFDDA8" width="10.747" height="89.526"/>
		
			<rect x="416.376" y="629.452" transform="matrix(-0.0842 -0.9964 0.9964 -0.0842 -189.7619 1124.2886)" fill="#FCD39D" width="10.748" height="39.783"/>
		<polygon fill="#FCD39D" points="439.95,628.618 440.865,639.327 401.221,642.702 400.311,631.984 		"/>
		
			<rect x="414.051" y="602.088" transform="matrix(-0.0846 -0.9964 0.9964 -0.0846 -164.8401 1092.5198)" fill="#FCD39D" width="10.747" height="39.781"/>
	</g>
	<g>
		<path fill="#E2B3B3" d="M367.63,526.786c-0.394-7.165,5.094-13.292,12.254-13.686c7.161-0.4,13.283,5.085,13.687,12.252
			c0.393,7.159-5.094,13.288-12.255,13.685C374.155,539.43,368.027,533.945,367.63,526.786z"/>
		<path fill="#ED6B6B" d="M309.018,569.642c0.371,4.325-2.836,8.128-7.161,8.495c-4.325,0.366-8.124-2.836-8.491-7.157
			c-0.371-4.329,2.837-8.132,7.161-8.495C304.852,562.119,308.655,565.326,309.018,569.642z"/>
		<path fill="#D39494" d="M398.955,526.875c-0.239-4.33,3.079-8.036,7.407-8.279c4.331-0.243,8.041,3.082,8.28,7.413
			c0.237,4.33-3.08,8.036-7.413,8.279C402.899,534.523,399.193,531.204,398.955,526.875z"/>
		<path fill="#D39494" d="M355.649,529.776c-0.305-5.575,3.959-10.339,9.532-10.651c5.576-0.307,10.347,3.963,10.651,9.533
			c0.306,5.577-3.962,10.347-9.537,10.652C360.721,539.62,355.955,535.352,355.649,529.776z"/>
		<path fill="#D39494" d="M368.395,535.772c-0.306-5.572,3.958-10.343,9.533-10.65c5.574-0.309,10.346,3.956,10.65,9.535
			c0.309,5.577-3.963,10.343-9.538,10.647C373.47,545.619,368.703,541.347,368.395,535.772z"/>
		<path fill="#D39494" d="M381.818,527.555c-0.309-5.58,3.963-10.342,9.538-10.655c5.571-0.305,10.343,3.962,10.646,9.533
			c0.313,5.58-3.958,10.347-9.528,10.651C386.9,537.394,382.129,533.125,381.818,527.555z"/>
		<path fill="#D39494" d="M347.071,526.547c-0.271-4.846,3.44-8.99,8.282-9.259c4.842-0.265,8.99,3.446,9.254,8.287
			c0.271,4.849-3.439,8.99-8.282,9.259C351.479,535.102,347.335,531.389,347.071,526.547z"/>
		<path fill="#D39494" d="M334.419,527.762c-0.239-4.332,3.083-8.038,7.412-8.281c4.333-0.236,8.04,3.081,8.278,7.41
			c0.239,4.332-3.074,8.041-7.413,8.279C338.368,535.409,334.662,532.096,334.419,527.762z"/>
		<path fill="#D39494" d="M325.332,537.239c-0.243-4.33,3.074-8.037,7.408-8.275c4.328-0.239,8.035,3.079,8.273,7.409
			c0.242,4.329-3.074,8.041-7.408,8.279C329.271,544.895,325.565,541.577,325.332,537.239z"/>
		<path fill="#D39494" d="M339.433,536.042c-0.239-4.335,3.083-8.037,7.412-8.28c4.329-0.238,8.041,3.079,8.278,7.413
			c0.239,4.331-3.078,8.037-7.408,8.275C343.382,543.693,339.676,540.375,339.433,536.042z"/>
		<circle fill="#D39494" cx="332.289" cy="527.461" r="5.973"/>
		<path fill="#D39494" d="M394.701,518.697c-0.182-3.295,2.341-6.11,5.632-6.295c3.296-0.182,6.118,2.339,6.3,5.637
			c0.181,3.291-2.342,6.109-5.637,6.293C397.7,524.511,394.882,521.993,394.701,518.697z"/>
		<path fill="#D39494" d="M310.912,536.93c-0.234-4.332,3.084-8.041,7.412-8.28c4.33-0.238,8.041,3.079,8.28,7.41
			c0.237,4.333-3.079,8.04-7.414,8.278C314.861,544.577,311.156,541.263,310.912,536.93z"/>
		<path fill="#ED6B6B" d="M333.119,536.206c0.367,4.32-2.84,8.119-7.16,8.49c-4.324,0.367-8.125-2.836-8.496-7.161
			c-0.367-4.324,2.842-8.125,7.166-8.493C328.95,528.672,332.758,531.879,333.119,536.206z"/>
		<path fill="#ED6B6B" d="M367.582,529.065c0.365,4.318-2.836,8.125-7.162,8.487c-4.325,0.371-8.123-2.837-8.494-7.16
			c-0.367-4.323,2.84-8.126,7.16-8.493C363.41,521.531,367.215,524.736,367.582,529.065z"/>
		<path fill="#ED6B6B" d="M397.599,533.412c0.371,4.322-2.836,8.125-7.16,8.492c-4.325,0.363-8.129-2.84-8.496-7.162
			c-0.366-4.325,2.841-8.128,7.17-8.49C393.428,525.88,397.231,529.087,397.599,533.412z"/>
		<path fill="#ED6B6B" d="M420.331,527.859c0.367,4.325-2.836,8.13-7.16,8.497c-4.32,0.367-8.125-2.841-8.495-7.16
			c-0.367-4.327,2.841-8.131,7.161-8.497C416.161,520.332,419.97,523.543,420.331,527.859z"/>
		<polygon fill="#FFDDA8" points="302.616,539.678 305.859,577.797 428.857,567.34 425.62,529.22 		"/>
		
			<rect x="392.282" y="533.745" transform="matrix(-0.0847 -0.9964 0.9964 -0.0847 -101.3745 1006.1316)" fill="#F9D19D" width="38.262" height="31.762"/>
		<path fill="#ED6B6B" d="M418.113,560.365c0.372,4.329-2.84,8.137-7.16,8.504c-4.32,0.362-8.125-2.85-8.49-7.166
			c-0.367-4.329,2.836-8.124,7.161-8.495C413.944,552.842,417.748,556.049,418.113,560.365z"/>
		<path fill="#D65C5C" d="M437.074,559.623c0.331,3.852-2.527,7.236-6.379,7.567c-3.848,0.318-7.231-2.535-7.562-6.383
			c-0.327-3.852,2.531-7.236,6.383-7.567C433.359,552.917,436.747,555.775,437.074,559.623z"/>
	</g>
	<g>
		<path fill="#D6E8D9" d="M305.545,452.403l0.163,46.424c0.004,1.413-1.082,2.61-2.526,2.734l-27.354,2.328
			c-1.413,0.119-2.677-0.877-2.92-2.275l-7.669-45.784c-0.233-1.361,0.756-2.671,2.125-2.783l35.615-3.028
			C304.348,449.898,305.55,451.02,305.545,452.403z"/>
		<path fill="#C1D6C4" d="M305.545,452.403l0.163,46.424c0.004,1.413-1.082,2.61-2.526,2.734l-10.368,0.883l-4.352-51.196
			l14.517-1.229C304.348,449.898,305.55,451.02,305.545,452.403z"/>
	</g>
	<g>
		<g>
			<polygon fill="#DAD7F9" points="296.166,463.742 299.404,501.864 355.936,497.058 352.698,458.936 			"/>
			<polygon fill="#B7B7E2" points="327.744,461.061 330.985,499.185 355.936,497.058 352.698,458.936 			"/>
		</g>
		<path fill="#E8E8F9" d="M328.653,484.715c0.49,5.741-3.768,10.786-9.511,11.276c-5.743,0.488-10.793-3.771-11.277-9.511
			c-0.491-5.743,3.771-10.794,9.51-11.278C323.114,474.711,328.168,478.965,328.653,484.715z"/>
		<path fill="#E8E8F9" d="M311.093,471.204c0.213,2.483-1.63,4.665-4.112,4.882c-2.482,0.208-4.674-1.635-4.881-4.117
			c-0.213-2.487,1.629-4.67,4.116-4.882C308.695,466.879,310.885,468.719,311.093,471.204z"/>
	</g>
	<g>
		
			<rect x="358.576" y="413.631" transform="matrix(-0.0847 -0.9964 0.9964 -0.0847 -40.3697 890.6344)" fill="#FFE3BD" width="60.587" height="100.455"/>
		<polygon fill="#EDC2A2" points="403.318,432.227 408.448,492.598 441.483,489.789 436.354,429.424 		"/>
		<polygon fill="#F9F2F8" points="336.856,444.961 338.438,463.601 341.884,473.114 388.984,456.049 381.045,434.122 
			362.355,435.71 		"/>
	</g>
	<path fill="#FF9B73" d="M289.765,459.168l115.72-9.835c2.465-0.212,4.294-2.377,4.085-4.849l-3.201-37.685
		c-0.208-2.469-2.382-4.294-4.847-4.086l-115.723,9.833c-2.461,0.21-4.29,2.377-4.082,4.846l3.203,37.687
		C285.127,457.549,287.3,459.374,289.765,459.168z"/>
	<g>
		<g>
			<path fill="#FFFFFF" d="M330.084,434.809c0.761,0.859,1.193,1.922,1.3,3.192c0.136,1.595-0.151,2.982-0.87,4.15
				c-0.712,1.175-1.715,2.079-3,2.724c-1.276,0.64-2.717,1.029-4.315,1.166l-11.942,1.012l-2-23.493l10.889-0.925
				c5.826-0.497,8.925,1.452,9.296,5.847c0.088,0.959-0.103,1.825-0.558,2.584s-1.086,1.418-1.895,1.988
				C328.3,433.367,329.325,433.95,330.084,434.809z M317.062,431.803l4.047-0.347c0.353-0.029,0.649-0.223,0.893-0.572
				c0.242-0.349,0.344-0.747,0.309-1.193c-0.057-0.636-0.265-1.1-0.618-1.387c-0.354-0.291-0.769-0.415-1.237-0.371l-3.702,0.314
				L317.062,431.803z M323.586,440.119c0.385-0.437,0.553-1.022,0.49-1.74c-0.061-0.707-0.322-1.235-0.777-1.57
				c-0.451-0.34-1.02-0.482-1.704-0.424l-4.078,0.347l0.376,4.438l4.188-0.358C322.693,440.786,323.198,440.552,323.586,440.119z"/>
			<path fill="#FFFFFF" d="M338.196,443.435c-1.98-1.312-3.103-3.601-3.386-6.86l-1.28-15.075l7.399-0.629l1.242,14.655
				c0.133,1.526,0.512,2.622,1.152,3.289s1.613,0.945,2.93,0.833c1.169-0.1,2.05-0.554,2.633-1.363
				c0.578-0.804,0.812-1.933,0.688-3.388l-1.246-14.656l6.688-0.567l1.281,15.077c0.27,3.143-0.438,5.557-2.115,7.236
				c-1.675,1.679-4.044,2.65-7.1,2.911C343.143,445.233,340.179,444.744,338.196,443.435z"/>
			<path fill="#FFFFFF" d="M375.373,431.702l0.841,9.829l-7.052,0.597l-0.834-9.896l-10.139-12.829l8.703-0.742l5.27,7.748
				l3.251-8.473l6.795-0.576L375.373,431.702z"/>
		</g>
	</g>
	<g>
		<path fill="#FFFFFF" d="M290.115,380.024l-3.969,3.415l-3.423-5.072l5.844-2.708l-6.215-1.677l2.521-5.573l4.485,2.695
			l-0.897-4.974l6.104-0.521l0.04,5.049l3.884-3.408l3.428,5.067l-5.76,2.697l6.131,1.688l-2.518,5.579l-4.413-2.701l0.821,4.976
			l-6.105,0.518L290.115,380.024z"/>
		<path fill="#FFFFFF" d="M322.442,377.279l-3.963,3.409l-3.428-5.065l5.841-2.71l-6.217-1.678l2.523-5.575l4.487,2.699
			l-0.897-4.972l6.111-0.52l0.029,5.045l3.893-3.41l3.424,5.071l-5.761,2.697l6.133,1.689l-2.52,5.573l-4.413-2.697l0.822,4.97
			l-6.11,0.521L322.442,377.279z"/>
		<path fill="#FFFFFF" d="M354.771,374.534l-3.968,3.403l-3.424-5.067l5.84-2.704l-6.215-1.681l2.522-5.571l4.488,2.695l-0.896-4.97
			l6.104-0.521l0.035,5.041l3.889-3.406l3.427,5.067l-5.76,2.704l6.136,1.688l-2.526,5.575l-4.403-2.703l0.816,4.974l-6.109,0.523
			L354.771,374.534z"/>
		<path fill="#FFFFFF" d="M387.104,371.781l-3.969,3.411l-3.427-5.072l5.84-2.699l-6.211-1.679l2.521-5.579l4.483,2.697
			l-0.896-4.972l6.104-0.517l0.04,5.04l3.882-3.408l3.434,5.074l-5.766,2.699l6.137,1.685l-2.522,5.573l-4.409-2.695l0.817,4.97
			l-6.104,0.521L387.104,371.781z"/>
	</g>
	<g>
		<g>
			<path fill="#FFAF84" d="M426.896,403.837c-2.244,7.95-10.51,12.57-18.452,10.329c-7.952-2.246-12.569-10.503-10.323-18.455
				c2.238-7.947,10.503-12.568,18.446-10.324C424.516,387.632,429.141,395.89,426.896,403.837z"/>
			<path fill="#FFAF84" d="M407.794,407.14L407.794,407.14c-0.658-0.186-1.214-0.623-1.55-1.224l-4.047-7.234
				c-0.693-1.244-0.247-2.807,0.994-3.505c1.24-0.689,2.813-0.251,3.508,0.989l2.787,4.986l11.234-6.282
				c1.241-0.698,2.81-0.251,3.503,0.992c0.698,1.237,0.256,2.805-0.985,3.505l-13.486,7.541
				C409.159,407.241,408.452,407.325,407.794,407.14z"/>
		</g>
		<g>
			<path fill="#FFC44F" d="M426.896,403.837c-2.244,7.95-10.51,12.57-18.452,10.329c-7.952-2.246-12.569-10.503-10.323-18.455
				c2.238-7.947,10.503-12.568,18.446-10.324C424.516,387.632,429.141,395.89,426.896,403.837z"/>
			<path fill="#F0FFDC" d="M407.794,407.14L407.794,407.14c-0.658-0.186-1.214-0.623-1.55-1.224l-4.047-7.234
				c-0.693-1.244-0.247-2.807,0.994-3.505c1.24-0.689,2.813-0.251,3.508,0.989l2.787,4.986l11.234-6.282
				c1.241-0.698,2.81-0.251,3.503,0.992c0.698,1.237,0.256,2.805-0.985,3.505l-13.486,7.541
				C409.159,407.241,408.452,407.325,407.794,407.14z"/>
		</g>
	</g>
	<g>
		<path fill="#E2E2E2" d="M591.654,948.583H458.279c-3.402,0-6.159-2.76-6.159-6.16l0,0c0-3.398,2.757-6.154,6.159-6.154h133.375
			c3.406,0,6.158,2.756,6.158,6.154l0,0C597.812,945.823,595.061,948.583,591.654,948.583z"/>
		<path fill="#FFAF84" d="M508.542,473.042c-1.563,0-3.141-0.411-4.577-1.264c-4.227-2.529-5.623-8.007-3.101-12.241
			c0,0,1.185-1.983,9.388-14.995c4.784-7.587,3.834-26.649,2.633-34.689c-0.738-4.881,2.628-9.436,7.51-10.165
			c4.877-0.729,9.436,2.633,10.164,7.51c0.479,3.203,4.41,31.659-5.189,46.875c-7.674,12.184-9.053,14.461-9.154,14.631
			C514.541,471.496,511.577,473.042,508.542,473.042z"/>
		<path fill="#FFAF84" d="M572.227,922.172l-11.004,3.611c-1.454-4.557-37.784-112.93-43.877-153.111
			c-2.588-17.127-4.116-46.748-5.062-75.304c0-0.349-0.04-0.742-0.04-1.095c-1.219-37.868,0.433-73.381,0.433-75.965
			c-0.044-8.332,6.68-15.13,15.002-15.13c0.04,0,0.04,0,0.084,0c8.288,0,20.971,5.778,21.011,14.061c0,0.592,1.06,32.372,0,72.909
			c0,0.353-0.04,0.706-0.04,1.061c-0.94,28.32-8.169,55.344-3.454,71.138C552.82,789.598,571.869,921.067,572.227,922.172z"/>
		<path fill="#FFAF84" d="M515.579,921.852l-11.542,1.654c-0.16-1.145-27.655-111.482-33.549-150.521
			c-2.398-16.062-4.594-43.169-6.326-70.111c0-0.279-0.034-0.517-0.034-0.791c-2.515-39.551-4.126-78.514-4.245-81.23
			c-0.354-8.323,6.131-15.32,14.453-15.673c8.328-0.265,21.527,5.265,22.273,13.557c1.693,18.342,3.693,39.949,4.675,79.543v0.349
			c0.746,33.035-3.141,54.329-0.981,69.84C509.925,837.403,515.43,920.749,515.579,921.852z"/>
		<path fill="#FFAF84" d="M694.713,591.068c-1.33,0.707-6.419,1.25-7.837,1.25c-3.167,0-6.233-1.688-7.858-4.647
			c-1.269-1.815-7.298-11.239-13.115-13.779c-10.068-2.668-72.564-14.22-90.787-34.546c-3.9-4.359-8.778-18.825-13.509-36.044
			c-2.522-9.193-5.022-19.199-7.32-28.832c-0.04-0.271-0.124-0.562-0.186-0.834c-1.312-5.566-2.544-11.028-3.666-16.113
			c-0.628-2.734-1.21-5.381-1.755-7.881c-0.918-4.214-1.727-8.049-2.415-11.342c-0.314-1.522-0.235-3.046,0.207-4.442
			c0.914-3,3.397-5.438,6.714-6.149c0.395-0.102,0.854-0.144,1.286-0.144c4.759-0.064,10.846,4.336,11.76,8.753
			c3.569,16.909,7.696,34.692,11.613,50.034c5.293,20.743,10.237,37.002,12.864,40.633c10.382,0.915,68.65,30.876,81.47,35.837
			c5.442,2.107,19.406,9.378,23.62,17.282C698.133,584.459,699.073,588.753,694.713,591.068z"/>
		<path fill="#FFAF84" d="M468.925,368.486c0,25.511,20.675,46.186,46.182,46.186c25.508,0,46.178-20.674,46.178-46.186
			c0-25.503-20.67-46.182-46.178-46.182C489.6,322.304,468.925,342.983,468.925,368.486z"/>
		<path fill="#F7B141" d="M561.146,438.902c-0.711,3.9-1.418,7.903-2.209,11.989c-0.062,0.313-0.105,0.623-0.186,0.937
			c-0.396,2.169-0.834,4.378-1.254,6.609c-0.084,0.229-0.124,0.439-0.168,0.667c-0.893,4.756-1.873,9.634-2.858,14.573
			c-0.058,0.272-0.102,0.521-0.186,0.793c0,0.04,0,0.104-0.018,0.144c-0.437,2.214-0.853,4.361-1.294,6.609
			c-0.04,0.189-0.084,0.417-0.124,0.627c-0.981,4.859-1.877,9.692-2.774,14.653c-0.04,0.271-0.123,0.583-0.163,0.857
			c-0.441,2.208-0.812,4.439-1.211,6.648c-0.044,0.19-0.084,0.375-0.124,0.583c-0.357,2.147-0.732,4.316-1.086,6.465
			c-0.438,2.772-0.875,5.546-1.272,8.296c-0.039,0.25-0.084,0.519-0.124,0.749c-0.313,2.235-0.666,4.525-0.896,6.714
			c-0.044,0.208-0.044,0.353-0.084,0.563c-0.667,5.025-1.206,9.965-1.604,14.887c0,0.186-0.043,0.415-0.043,0.623
			c-0.271,2.315-0.395,4.506-0.479,6.754c-0.021,0.168-0.021,0.358-0.021,0.521c-0.354,5.129-0.481,10.174-0.397,15.033v0.438
			c0.044,3.189,0.189,6.317,0.397,9.379h-87.163c0,0,0.189-3.499,0.626-9.379c0-0.208,0.04-0.398,0.04-0.605
			c0.273-4.002,0.628-9.069,1.087-14.865c0.04-0.291,0.04-0.605,0.084-0.915c0.124-2.045,0.31-4.17,0.477-6.361
			c0-0.208,0.045-0.354,0.045-0.561c0.376-4.713,0.729-9.696,1.25-14.948c0.044-0.333,0.044-0.605,0.079-0.917v-0.042
			c0.15-2.042,0.358-4.149,0.549-6.318c0-0.167,0.04-0.354,0.04-0.5c0.437-4.919,0.896-9.944,1.457-15.011
			c0.04-0.311,0.084-0.623,0.084-0.937v-0.083c0.226-2.063,0.415-4.148,0.667-6.211c0-0.146,0.018-0.355,0.018-0.501
			c0.565-5.065,1.108-10.067,1.691-15.009c0.04-0.313,0.084-0.627,0.124-0.939c0.274-2.127,0.521-4.212,0.791-6.297
			c0-0.144,0.044-0.311,0.066-0.457c0.646-5.232,1.374-10.297,2.08-15.053c0.049-0.354,0.133-0.667,0.173-0.979
			c0.349-2.167,0.667-4.274,1.016-6.297c0.044-0.146,0.044-0.314,0.089-0.458c0.977-5.63,2.001-10.737,3.021-15.053
			c0.084-0.353,0.186-0.709,0.27-1.064c0.084-0.225,0.124-0.455,0.189-0.707c0.853-3.23,3.229-5.734,6.233-6.901
			c1.145-0.437,2.399-0.667,3.667-0.667h69.339c1.21,0,2.358,0.208,3.414,0.585c3.508,1.248,6.114,4.336,6.72,8.004
			c0.039,0.25,0.084,0.521,0.084,0.749C561.332,437.153,561.293,438.008,561.146,438.902z"/>
		<path fill="#FFC44F" d="M542.99,549.644c-0.021,0.168-0.021,0.358-0.021,0.521c-0.354,5.129-0.481,10.174-0.397,15.033
			c-10.802-1.608-21.659-2.606-32.522-3.004c-17.887-0.689-35.814,0.252-53.577,2.836c0.273-4.002,0.628-9.069,1.087-14.865
			c0.04-0.291,0.04-0.605,0.084-0.915c17.053-2.296,34.232-3.149,51.386-2.566C520.391,547.037,531.735,548.04,542.99,549.644z"/>
		<path fill="#FFC44F" d="M545.199,526.817c-0.044,0.208-0.044,0.353-0.084,0.563c-0.667,5.025-1.206,9.965-1.604,14.887
			c-11.569-1.67-23.223-2.646-34.899-2.943c-16.844-0.437-33.731,0.583-50.448,3.004c0.376-4.713,0.729-9.696,1.25-14.948
			c0.044-0.333,0.044-0.605,0.079-0.917v-0.042c16.075-2.126,32.275-3.001,48.452-2.648
			C520.391,524.042,532.834,525.065,545.199,526.817z"/>
		<path fill="#FFC44F" d="M548.702,504.009c-0.044,0.19-0.084,0.375-0.124,0.583c-0.357,2.147-0.732,4.316-1.086,6.465
			c-0.438,2.772-0.875,5.546-1.272,8.296c-12.779-1.814-25.64-2.794-38.503-2.962c-15.926-0.186-31.834,0.877-47.635,3.212
			c0.437-4.919,0.896-9.944,1.457-15.011c0.04-0.311,0.084-0.623,0.084-0.937c6.75-0.896,13.531-1.586,20.325-2.043
			c8.464-0.585,16.95-0.833,25.455-0.749C521.203,501.009,535.004,502.069,548.702,504.009z"/>
		<path fill="#FFC44F" d="M552.975,481.216c-0.036,0.201-0.075,0.433-0.12,0.627c-0.979,4.871-1.881,9.706-2.786,14.655
			c-29.104-4.086-58.68-3.967-87.747,0.354c0.547-5.067,1.1-10.059,1.683-15.009c0.045-0.311,0.084-0.627,0.124-0.943
			C493.624,476.973,523.514,477.053,552.975,481.216z"/>
		<path fill="#FFC44F" d="M557.493,458.437c-0.079,0.234-0.119,0.431-0.153,0.667c-0.906,4.753-1.891,9.621-2.872,14.573
			c-29.69-4.082-59.819-3.931-89.479,0.473c0.632-5.226,1.373-10.293,2.085-15.046c0.035-0.349,0.119-0.667,0.155-0.981
			C497.202,454.116,527.564,454.233,557.493,458.437z"/>
		<path fill="#FFC44F" d="M561.271,436.32c0.07,0.831,0.03,1.69-0.124,2.594c-0.707,3.891-1.418,7.892-2.199,11.982
			c-30.088-4.126-60.61-4.007-90.618,0.469c0.985-5.615,2.006-10.722,3.025-15.045c0.079-0.351,0.195-0.704,0.274-1.058
			c29.735-3.927,59.818-3.812,89.558,0.314C561.223,435.812,561.271,436.088,561.271,436.32z"/>
		<path fill="#FFAF84" d="M481.145,428.039c-4.665-1.652-11.389,1.924-13.041,6.571c-10.902,30.625-23.497,61.957-29.99,73.401
			c-30.438-11.782-57.687-36.516-63.605-45.046c1.038-7.318,8.57-12.458,8.659-12.65c0.937-2.074,0.98-4.312,0.353-6.331
			c0.018-7.119,3.429-16.1,0.725-14.858c-2.531,1.167-3.119,5.657-3.719,10.497c-0.539-0.425-1.114-0.809-1.763-1.109
			c-4.479-2.07-9.794-0.106-11.858,4.373c-0.352,0.773-3.502,7.877-4.739,20.343c-0.004,0.097,0.009,0.179,0,0.274
			c-0.021,0.314-0.004,0.623,0.005,0.937c0.008,0.283,0.008,0.565,0.044,0.841c0.04,0.274,0.106,0.545,0.172,0.82
			c0.071,0.305,0.138,0.605,0.23,0.89c0.088,0.243,0.199,0.478,0.3,0.707c0.133,0.314,0.274,0.616,0.442,0.908
			c0.044,0.075,0.071,0.154,0.115,0.228c1.188,1.911,29.602,46.875,74.657,60.912c1.307,0.409,2.525,0.654,3.714,0.654
			c7.329,0,13.183-9.383,28.353-47.502c8.49-21.346,16.293-43.224,16.367-43.438C488.226,434.805,485.796,429.693,481.145,428.039z"
			/>
		<path fill="#FF6820" d="M584.393,884.745c-0.27,10.338-0.543,16.279-0.543,16.279l-14.508,2.336l-14.675,2.379l-39.803,6.418
			l-13.067,2.107l-11.761,1.895l-1.938,0.314l-3.604,0.588c-2.566-20.809-7.108-73.447-11.822-131.361c0-0.023,0-0.045-0.022-0.09
			c-4.625-56.99-9.422-119.071-12.606-160.955v-0.167c-2.298-29.895-3.756-49.474-3.756-49.474h87.143
			C588.02,624.593,585.996,825.827,584.393,884.745z"/>
		<g>
			<g>
				<path fill="#E0654C" d="M375.264,462.965c0,1.224-0.999,2.217-2.223,2.217c-1.227,0-2.222-0.993-2.222-2.217
					c0-1.229,0.995-2.227,2.222-2.227C374.265,460.738,375.264,461.737,375.264,462.965z"/>
				<path fill="#E0654C" d="M371.61,465.037c0,1.229-0.989,2.218-2.222,2.218c-1.225,0-2.223-0.989-2.223-2.218
					c0-1.228,0.998-2.226,2.223-2.226C370.621,462.811,371.61,463.809,371.61,465.037z"/>
				<path fill="#E0654C" d="M368.562,468.047c0,1.226-0.993,2.22-2.218,2.22c-1.227,0-2.222-0.994-2.222-2.22
					c0-1.222,0.995-2.22,2.222-2.22C367.568,465.827,368.562,466.826,368.562,468.047z"/>
				<path fill="#E0654C" d="M367.754,472.114c0,1.226-0.994,2.222-2.227,2.222c-1.224,0-2.218-0.996-2.218-2.222
					s0.994-2.222,2.218-2.222C366.76,469.892,367.754,470.888,367.754,472.114z"/>
			</g>
		</g>
		<path fill="#FFF0E9" d="M488.207,917.227c-1.209-6.529-28.475-312.769-25.728-344.74l1.952,0.173
			c-2.734,31.838,24.506,337.708,25.707,344.206L488.207,917.227z"/>
		
			<rect x="513.609" y="633.408" transform="matrix(0.262 0.9651 -0.9651 0.262 1022.8089 -6.3749)" fill="#F4654A" width="3.928" height="64.349"/>
		<polygon fill="#F4654A" points="498.033,666.288 496.628,662.616 547.355,643.262 548.764,646.93 		"/>
		<path fill="#FFAF84" d="M473.492,357.539v14.892c0,2.796,2.938,4.727,5.439,3.479c4.006-1.999,6.763-6.143,6.763-10.922
			c0-4.785-2.757-8.928-6.763-10.929C476.431,352.812,473.492,354.738,473.492,357.539z"/>
		<path fill="#2C4663" d="M503.484,918.766c-0.866,0.119-1.688,0.436-2.342,0.98c-4.576,3.799-18.496,10.592-25.64,11.631
			c-7.655,1.104-8.044,4.891,2.73,4.891c10.77,0,18.669-0.963,23.466-0.836c4.807,0.115,6.644,0.836,18.452,0.836
			c9.069,0,3.149-11.557-0.097-16.938c-0.99-1.635-2.938-2.518-4.903-2.23L503.484,918.766z"/>
		<path fill="#2C4663" d="M558.903,918.766c-0.817,0.119-1.591,0.436-2.214,0.98c-4.329,3.799-11.454,10.592-18.209,11.631
			c-7.24,1.104-7.607,4.891,2.575,4.891c10.195,0,11.623-0.963,16.164-0.836c4.542,0.115,6.281,0.836,17.449,0.836
			c8.575,0,2.974-11.557-0.093-16.938c-0.936-1.635-2.774-2.518-4.643-2.23L558.903,918.766z"/>
		<path fill="#FFC44F" d="M466.924,432.395c0,0,9.389-9.454,15.117-5.968c5.729,3.486,7.228,8.047,5.045,14.952
			c-2.182,6.907-28.374,87.298-38.142,91.075c-9.772,3.783-43.429-8.274-81.19-54.431l12.846-10.768
			c0,0,52.998,37.774,55.719,35.917C439.04,501.314,463.522,435.297,466.924,432.395z"/>
		<path fill="#FFC44F" d="M545.199,440.206c0,0-4.916-12.767,2.116-16.155c7.037-3.389,22.671-2.527,23.714,10.072
			c1.043,12.6,18.239,85.763,20.064,87.75c1.824,1.983,62.518,27.984,70.62,33.979c-5.474,12.828-7.555,16.663-7.555,16.663
			s-76.358-12.767-83.391-33.185C563.731,518.905,545.199,440.206,545.199,440.206z"/>
		<linearGradient id="SVGID_2_" gradientUnits="userSpaceOnUse" x1="539.5938" y1="508.0474" x2="495.4136" y2="278.3104">
			<stop  offset="0" style="stop-color:#141414"/>
			<stop  offset="1" style="stop-color:#3C3C3C"/>
		</linearGradient>
		<path fill="url(#SVGID_2_)" d="M587.935,458.313c-1.457,10.946-5.066,20.263-10.09,28.038c-4.439,6.86-10.005,12.488-16.238,16.95
			c-4.418,3.188-9.175,5.774-14.114,7.755c-13.028,5.317-27.287,6.628-39.82,4.15c-10.297-2.025-19.429-6.591-25.724-13.595
			c-1.811-2.001-3.374-4.21-4.669-6.609c-0.354-0.605-0.668-1.23-0.959-1.877c-2.417-5.21-3.521-9.526-3.672-13.215
			c-0.039-1.314,0.022-2.544,0.168-3.69c0.169-1.125,0.42-2.189,0.752-3.21c0.561-1.749,1.378-3.337,2.354-4.837
			c2.818-4.355,7.007-7.92,10.549-12.051c1.917-2.208,3.649-4.585,4.899-7.338c1.878-4.104,2.708-9.091,1.479-15.634
			c-0.354-1.917-0.874-3.962-1.626-6.171c-1.21-3.649-2.981-7.713-5.419-12.301c-2.522-4.751-4.334-9.776-5.501-14.947
			c-0.11-0.393-0.189-0.791-0.251-1.186c-0.107-0.356-0.169-0.714-0.23-1.065c-1.356-7.065-1.586-14.364-0.879-21.578
			c0.022-0.457,0.084-0.917,0.128-1.374c0.08-0.753,0.189-1.524,0.292-2.293c0.706-5.173,1.877-10.258,3.419-15.157
			c0.896-2.898,1.918-5.712,3.066-8.442c-4.254-0.669-7.775-2.023-10.364-3.857c-6.71-4.736-7.147-12.656,2.063-20.327
			c15.51-12.924,29.982-11.842,40.403-10.172c2.292-0.044,7.818-0.229,11.675,0.06c0.208,0.02,0.416,0.042,0.605,0.042
			c32.606,2.73,30.332,25.914,35.085,64.377C570.07,417.473,593.17,419.328,587.935,458.313z"/>
		<path fill="#FFF0E9" d="M479.594,399.776c-7.594,0-13.778-6.181-13.778-13.774s6.185-13.77,13.778-13.77
			s13.774,6.176,13.774,13.77S487.188,399.776,479.594,399.776z M479.594,374.509c-6.335,0-11.49,5.155-11.49,11.492
			c0,6.339,5.155,11.493,11.49,11.493c6.34,0,11.485-5.153,11.485-11.493C491.079,379.665,485.934,374.509,479.594,374.509z"/>
	</g>
	<g>
		<path fill="#E0E0E0" d="M654.159,572.513c-10.072-2.664-63.71-9.86-81.933-30.185c-3.901-4.36-5.89-21.807-10.62-39.026
			c-4.418,3.188-9.175,5.774-14.114,7.755c-0.438,2.772-0.875,5.546-1.272,8.296c-0.039,0.25-0.084,0.519-0.124,0.749
			c-0.313,2.235-0.666,4.525-0.896,6.714c-0.044,0.208-0.044,0.353-0.084,0.563c-0.667,5.025-1.206,9.965-1.604,14.887
			c0,0.186-0.043,0.415-0.043,0.623c-0.271,2.315-0.395,4.506-0.479,6.754c-0.021,0.168-0.021,0.358-0.021,0.521
			c-0.354,5.129-0.481,10.174-0.397,15.033v0.438c0.044,3.189,0.189,6.317,0.397,9.379h0.46
			c44.591,49.579,42.567,250.812,40.964,309.73c-12.635-30.145-24.143-63.312-34.211-98.361
			c-11.047-38.458-20.347-79.216-27.393-120.724c-0.23-1.29-0.438-2.585-0.649-3.879c-0.269-1.458-0.5-2.938-0.729-4.418
			c-0.225-1.312-0.433-2.628-0.645-3.957c-2.191-13.682-4.108-27.416-5.773-41.155c-1.523-12.427-2.836-24.849-3.896-37.237
			c-0.375-4.272-0.729-8.544-1.047-12.82c-0.376-5.168-0.729-10.337-1.021-15.51c-0.146-2.461-0.292-4.899-0.416-7.36
			c-0.273-5.189-0.499-10.382-0.667-15.551c-0.102-2.46-0.189-4.919-0.229-7.382c-0.022-0.393-0.045-0.791-0.045-1.184
			c-0.141-4.798-0.225-9.593-0.269-14.344c-0.04-2.463-0.062-4.901-0.04-7.339c-0.045-5.193,0-10.34,0.102-15.491
			c0-1.688,0.021-3.375,0.084-5.045c0-0.751,0.021-1.48,0.044-2.231c0.124-5.208,0.287-10.381,0.521-15.53
			c0.102-2.441,0.203-4.837,0.354-7.253c0-0.21,0-0.44,0.04-0.647c0.253-5,0.565-9.966,0.937-14.885
			c0.128-1.835,0.273-3.646,0.441-5.462c0.314-4.188,0.686-8.358,1.123-12.488c2.672-26.935,6.9-52.722,12.842-76.904
			c1.127-4.627,2.314-9.153,3.564-13.595c0.896-3.251,1.838-6.458,2.818-9.608c32.606,2.73,30.332,25.914,35.085,64.377
			c4.753,38.712,27.853,40.567,22.617,79.553c-1.457,10.946-2.244,15.441-7.271,23.219c5.296,20.745,7.801,36.71,10.43,40.339
			c9.652,3.682,50.555,22.701,70.62,33.979"/>
	</g>
</g>
</svg>
