<?xml version="1.0" encoding="utf-8"?>
<!-- Generator: Adobe Illustrator 16.0.0, SVG Export Plug-In . SVG Version: 6.00 Build 0)  -->
<!DOCTYPE svg PUBLIC "-//W3C//DTD SVG 1.1//EN" "http://www.w3.org/Graphics/SVG/1.1/DTD/svg11.dtd">
<svg version="1.1" id="Layer_1" xmlns="http://www.w3.org/2000/svg" xmlns:xlink="http://www.w3.org/1999/xlink" x="0px" y="0px"
	 width="965.933px" height="1028.531px" viewBox="0 0 965.933 1028.531" enable-background="new 0 0 965.933 1028.531"
	 xml:space="preserve">
<g>
	<path fill="#2D1E56" d="M383.203,1028.531"/>
	<g>
		<g>
			<path fill="#FFF3E1" d="M171.851,970.903c-72.517,2.339-132.099-55.265-150.501-85.727C2.938,854.719-6.354,816.82,4.871,783.052
				c21.147-63.571,100.684-84.576,167.669-84.164c66.992,0.423,139.651,10.959,196.205-24.95
				c35.207-22.352,58.661-59.942,94.017-82.049c70.366-43.988,173.053-7.297,211.684,66.14
				c38.631,73.444,18.578,168.856-35.854,231.494c-54.436,62.636-137.266,95.316-219.823,103.701
				C336.214,1001.609,253.055,987.975,171.851,970.903"/>
		</g>
		<g>
			<path fill="#FFDEA9" d="M785.665,731.318c10.604,11.519,29.938,12.614,44.94,8.133c15.005-4.489,26.906-18.009,29.455-33.457
				c1.754-10.686-0.529-22.27,4.262-31.982c5.709-11.548,19.711-16.864,26.327-27.915c6.183-10.312,4.686-23.286,6.817-35.118
				c1.623-9.025,5.403-17.492,8.21-26.218c2.806-8.725,4.638-18.17,2.252-27.021c-2.383-8.852-9.989-16.816-19.156-17.054
				c-7.865-0.198-14.831,5.057-20.048,10.947c-5.219,5.886-9.492,12.718-15.736,17.5c-9.443,7.227-21.885,8.727-33.46,11.415
				c-11.583,2.684-23.984,7.791-28.938,18.597c-5.188,11.313-0.687,25.87-7.753,36.111c-4.418,6.389-12.205,9.335-18.624,13.711
				c-15.274,10.41-22.939,30.839-18.277,48.727C750.593,715.587,767.25,729.676,785.665,731.318"/>
			<g>
				<path fill="#F4C17F" d="M765.948,727.423c0.031,0.041,0.602-0.36,1.643-1.169c1.058-0.803,2.548-2.062,4.429-3.732
					c3.732-3.362,8.869-8.554,14.577-15.506c5.741-6.919,11.991-15.61,18.866-25.258c6.875-9.665,14.424-20.285,22.352-31.424
					c15.822-22.329,30.069-42.596,40.312-57.32c5.061-7.341,9.171-13.304,12.049-17.479c1.371-2.051,2.446-3.657,3.213-4.808
					c0.717-1.107,1.066-1.707,1.015-1.738c-0.045-0.036-0.49,0.499-1.302,1.541c-0.824,1.102-1.989,2.648-3.466,4.62
					c-2.985,4.099-7.255,9.954-12.502,17.163c-10.494,14.539-24.893,34.697-40.715,57.027c-7.891,11.169-15.4,21.813-22.244,31.503
					c-6.805,9.707-12.934,18.427-18.521,25.415c-5.553,7.007-10.518,12.285-14.1,15.777c-1.791,1.738-3.205,3.075-4.184,3.955
					C766.399,726.883,765.906,727.376,765.948,727.423z"/>
			</g>
			<g>
				<path fill="#F4C17F" d="M820.886,596.855c-0.229,0.167,1.403,2.545,3.483,6.656c1.056,2.051,2.145,4.575,3.182,7.433
					c0.984,2.871,1.902,6.083,2.553,9.527c0.626,3.447,0.923,6.777,1.033,9.816c0.062,3.033-0.047,5.776-0.295,8.072
					c-0.466,4.586-1.137,7.395-0.859,7.468c0.179,0.054,1.273-2.661,2.059-7.311c0.406-2.325,0.647-5.13,0.679-8.251
					c-0.026-3.124-0.282-6.556-0.926-10.112c-0.678-3.54-1.666-6.841-2.765-9.759c-1.145-2.9-2.377-5.437-3.593-7.456
					C823.035,598.874,821.033,596.735,820.886,596.855z"/>
			</g>
			<g>
				<path fill="#F4C17F" d="M785.098,646.049c-0.236,0.15,1.232,2.535,3.094,6.591c0.944,2.027,1.912,4.501,2.844,7.293
					c0.885,2.805,1.703,5.938,2.279,9.283c0.545,3.351,0.805,6.579,0.891,9.523c0.037,2.941-0.068,5.598-0.3,7.819
					c-0.427,4.447-1.031,7.172-0.761,7.245c0.185,0.054,1.215-2.582,1.967-7.09c0.387-2.248,0.627-4.962,0.676-7.988
					c0-3.021-0.215-6.346-0.781-9.791c-0.592-3.447-1.479-6.659-2.477-9.512c-1.035-2.838-2.145-5.327-3.255-7.322
					C787.095,648.093,785.253,645.936,785.098,646.049z"/>
			</g>
			<g>
				<path fill="#F4C17F" d="M818.135,662.511c0.141,0.22,2.986-1.409,7.684-3.807c4.702-2.382,11.305-5.478,18.944-7.892
					c3.826-1.179,7.541-2.055,10.947-2.684c3.419-0.552,6.522-0.929,9.146-1.014c5.239-0.247,8.505,0.103,8.537-0.193
					c0.034-0.172-3.202-0.958-8.565-1.023c-2.679-0.066-5.865,0.191-9.375,0.671c-3.496,0.551-7.3,1.402-11.203,2.606
					c-7.793,2.457-14.422,5.784-19.009,8.468C820.645,660.335,818.02,662.335,818.135,662.511z"/>
			</g>
			<g>
				<path fill="#F4C17F" d="M785.434,706.696c0.188,0.209,2.428-1.716,6.375-4.316c1.967-1.312,4.393-2.721,7.162-4.136
					c2.795-1.373,5.945-2.72,9.352-3.853c3.412-1.102,6.752-1.875,9.814-2.421c3.068-0.505,5.867-0.797,8.227-0.904
					c4.715-0.234,7.658-0.007,7.692-0.288c0.023-0.191-2.895-0.845-7.72-0.923c-2.407-0.054-5.279,0.125-8.445,0.552
					c-3.151,0.473-6.596,1.222-10.105,2.354c-3.498,1.163-6.712,2.595-9.541,4.075c-2.8,1.527-5.223,3.086-7.134,4.55
					C787.268,704.304,785.298,706.555,785.434,706.696z"/>
			</g>
		</g>
		<g opacity="0.7">
			<g>
				<path fill="#FFDEA9" d="M243.569,742.276c-23.524,8.14-51.419-4.87-69.05-22.441c-17.631-17.572-24.117-45.467-16.056-69.011
					c5.575-16.288,17.495-30.792,18.091-47.996c0.709-20.461-14.899-38.455-15.853-58.902c-0.89-19.1,10.967-36.136,16.892-54.309
					c4.518-13.855,5.6-28.559,8.236-42.886c2.64-14.335,7.18-28.939,17.183-39.535c9.997-10.603,26.653-16.024,39.66-9.459
					c11.162,5.637,16.958,18.245,19.831,30.411c2.873,12.171,3.729,24.959,8.875,36.356c7.778,17.223,24.063,28.688,38.254,41.164
					c14.195,12.477,27.711,28.962,26.514,47.822c-1.247,19.74-18.506,36.747-16.309,56.406
					c1.367,12.271,10.059,22.254,15.752,33.208c13.549,26.08,8.904,60.449-11.085,81.993
					C304.516,746.639,270.589,753.841,243.569,742.276"/>
			</g>
			<g>
				<g>
					<g>
						<path fill="#F4C587" d="M274.111,751.661c-0.083,0.034-0.552-0.964-1.37-2.9c-0.403-0.977-0.899-2.178-1.484-3.596
							c-0.288-0.714-0.599-1.482-0.93-2.304s-0.695-1.693-0.988-2.648c-2.614-7.548-5.972-18.651-8.737-32.681
							c-2.825-14.015-5.035-30.887-7.402-49.572c-2.349-18.698-4.93-39.252-7.64-60.827c-5.35-43.174-10.048-82.273-13.319-110.59
							c-1.635-14.159-2.914-25.622-3.739-33.55c-0.413-3.964-0.712-7.045-0.886-9.138c-0.174-2.093-0.223-3.197-0.134-3.208
							s0.312,1.071,0.654,3.143c0.342,2.072,0.804,5.133,1.37,9.078c1.135,7.891,2.692,19.319,4.562,33.449
							c3.738,28.259,8.726,67.323,14.075,110.497c2.638,21.583,5.15,42.146,7.437,60.852c2.238,18.713,4.251,35.54,6.83,49.524
							c2.521,13.996,5.584,25.091,7.89,32.701c0.255,0.963,0.58,1.843,0.872,2.674c0.289,0.832,0.561,1.61,0.812,2.334
							c0.49,1.447,0.907,2.674,1.246,3.671C273.889,750.561,274.194,751.626,274.111,751.661z"/>
					</g>
				</g>
			</g>
			<g>
				<g>
					<g>
						<path fill="#F4C587" d="M295.459,527.481c0.076,0.163-0.869,0.839-2.629,1.915c-0.446,0.267-0.938,0.561-1.472,0.88
							c-0.526,0.345-1.096,0.717-1.706,1.116c-1.215,0.812-2.646,1.653-4.113,2.758c-0.747,0.532-1.529,1.088-2.343,1.667
							c-0.812,0.582-1.605,1.258-2.457,1.915c-1.724,1.29-3.424,2.84-5.249,4.421c-3.553,3.275-7.258,7.09-10.771,11.417
							c-3.471,4.365-6.398,8.806-8.831,12.981c-1.151,2.124-2.299,4.118-3.187,6.08c-0.458,0.973-0.947,1.894-1.341,2.812
							c-0.39,0.919-0.765,1.803-1.123,2.647c-0.765,1.675-1.272,3.24-1.804,4.598c-0.258,0.68-0.498,1.315-0.721,1.903
							c-0.198,0.595-0.381,1.142-0.546,1.638c-0.675,1.964-1.13,3.029-1.304,2.983s-0.05-1.197,0.323-3.239
							c0.099-0.515,0.207-1.081,0.325-1.696c0.14-0.617,0.334-1.283,0.526-2.002c0.407-1.43,0.812-3.094,1.478-4.838
							c0.316-0.883,0.646-1.807,0.99-2.768c0.354-0.96,0.807-1.923,1.232-2.939c0.825-2.047,1.926-4.13,3.051-6.342
							c2.379-4.351,5.33-8.962,8.899-13.449c3.612-4.45,7.478-8.325,11.213-11.585c1.917-1.574,3.714-3.098,5.535-4.345
							c0.9-0.635,1.743-1.285,2.604-1.836c0.864-0.542,1.695-1.064,2.489-1.563c1.563-1.027,3.089-1.775,4.395-2.479
							c0.659-0.342,1.264-0.673,1.839-0.944c0.58-0.25,1.113-0.481,1.598-0.69C294.288,527.687,295.382,527.319,295.459,527.481z"/>
					</g>
				</g>
			</g>
			<g>
				<g>
					<g>
						<path fill="#F4C587" d="M308.542,623.299c0.203,0.378-3.649,2.593-9.323,6.869c-0.705,0.542-1.442,1.107-2.209,1.697
							c-0.767,0.592-1.515,1.27-2.318,1.933c-1.625,1.306-3.229,2.852-4.953,4.435c-3.355,3.265-6.857,7.041-10.189,11.291
							c-3.291,4.283-6.082,8.613-8.412,12.674c-1.106,2.062-2.207,4.001-3.068,5.899c-0.443,0.943-0.915,1.836-1.298,2.725
							c-0.381,0.89-0.746,1.744-1.096,2.562c-2.725,6.521-3.933,10.862-4.342,10.734c-0.174-0.047-0.048-1.162,0.329-3.138
							c0.1-0.498,0.209-1.045,0.328-1.641c0.139-0.597,0.329-1.241,0.519-1.936c0.398-1.383,0.803-2.989,1.446-4.679
							c0.307-0.854,0.628-1.748,0.962-2.678c0.342-0.93,0.776-1.863,1.188-2.848c0.797-1.981,1.85-4.005,2.926-6.152
							c2.272-4.228,5.079-8.721,8.462-13.12c3.422-4.367,7.078-8.199,10.609-11.449c1.812-1.575,3.512-3.097,5.234-4.36
							c0.852-0.643,1.648-1.295,2.463-1.857c0.818-0.554,1.604-1.086,2.355-1.596C304.225,624.689,308.415,623.04,308.542,623.299z"
							/>
					</g>
				</g>
			</g>
			<g>
				<g>
					<g>
						<path fill="#F4C587" d="M249.892,621.489c-0.35,0.198-3.095-4.236-7.862-11.135c-1.196-1.722-2.504-3.607-3.983-5.576
							c-1.429-2.006-3.063-4.065-4.755-6.252c-3.462-4.309-7.392-8.946-11.841-13.502c-4.468-4.54-9.009-8.562-13.314-12.001
							c-2.214-1.636-4.258-3.283-6.319-4.608c-1.018-0.683-1.983-1.371-2.939-1.988c-0.971-0.591-1.904-1.16-2.795-1.702
							c-1.76-1.137-3.435-1.978-4.882-2.785c-0.724-0.4-1.399-0.773-2.024-1.119c-0.641-0.314-1.229-0.603-1.763-0.865
							c-2.11-1.057-3.243-1.72-3.174-1.886c0.069-0.166,1.336,0.182,3.567,0.952c0.56,0.198,1.178,0.417,1.85,0.655
							c0.667,0.272,1.383,0.601,2.156,0.942c1.54,0.697,3.33,1.453,5.174,2.502c0.937,0.507,1.916,1.038,2.937,1.59
							c1.003,0.583,2.016,1.242,3.079,1.899c2.158,1.276,4.292,2.888,6.594,4.509c4.478,3.405,9.166,7.46,13.717,12.084
							c4.531,4.641,8.471,9.403,11.876,13.854c1.662,2.257,3.253,4.392,4.621,6.475c1.42,2.047,2.652,4.012,3.761,5.814
							C247.987,616.571,250.169,621.336,249.892,621.489z"/>
					</g>
				</g>
			</g>
			<g>
				<g>
					<g>
						<path fill="#F4C587" d="M262.429,707.969c-0.407,0.146-2.088-4.241-5.642-10.857c-0.452-0.823-0.926-1.685-1.418-2.581
							c-0.495-0.896-1.084-1.786-1.648-2.731c-1.104-1.909-2.465-3.833-3.845-5.887c-2.879-4.026-6.271-8.287-10.19-12.44
							c-3.96-4.116-8.052-7.713-11.935-10.783c-1.985-1.478-3.841-2.931-5.694-4.126c-0.917-0.609-1.778-1.24-2.648-1.779
							c-0.872-0.535-1.709-1.049-2.51-1.541c-6.403-3.854-10.76-5.77-10.571-6.16c0.072-0.165,1.214,0.149,3.218,0.856
							c0.504,0.183,1.058,0.385,1.66,0.604c0.602,0.24,1.244,0.541,1.939,0.848c1.381,0.635,2.995,1.31,4.658,2.248
							c0.844,0.455,1.727,0.931,2.646,1.426c0.916,0.503,1.823,1.104,2.786,1.688c1.945,1.143,3.893,2.561,5.966,4.023
							c4.058,3.037,8.309,6.675,12.37,10.899c4.021,4.261,7.448,8.682,10.285,12.882c1.359,2.141,2.682,4.154,3.729,6.152
							c0.536,0.99,1.093,1.925,1.552,2.864c0.449,0.941,0.883,1.847,1.296,2.711c0.858,1.71,1.448,3.343,2.015,4.75
							c0.273,0.708,0.541,1.36,0.753,1.975c0.191,0.617,0.367,1.185,0.527,1.7C262.342,706.757,262.599,707.91,262.429,707.969z"/>
					</g>
				</g>
			</g>
		</g>
		<path fill="#FF651B" d="M250.867,414.424V731.61h537.646V414.424c0-16.631-13.481-30.114-30.113-30.114H280.979
			C264.352,384.311,250.867,397.793,250.867,414.424z"/>
		<rect x="269.422" y="410.6" fill="#FFDDA8" width="493.854" height="331.03"/>
		<path fill="#FCDEBB" d="M216.2,728.272h610.097l0,0c0,16.601-18.943,30.054-42.308,30.054H258.502
			c-19.549,0-36.006-9.421-40.854-22.221C216.701,733.606,216.2,730.981,216.2,728.272L216.2,728.272z"/>
		<path fill="#FF651B" d="M442.875,728.272L442.875,728.272c0,3.649,2.932,6.615,6.577,6.67l143.396,2.056
			c4.019,0.062,7.174-3.428,6.725-7.42l-0.148-1.306H442.875z"/>
		<g opacity="0.46">
			<path fill="none" d="M511.279,462.549c12.019,0.337,24.035,0.668,36.055,1.001"/>
		</g>
		<path fill="#134261" d="M527.518,398.051c0,2.596-2.108,4.705-4.707,4.705c-2.602,0-4.705-2.109-4.705-4.705
			c0-2.601,2.104-4.704,4.705-4.704C525.409,393.347,527.518,395.45,527.518,398.051z"/>
		<g>
			<g>
				<defs>
					<path id="SVGID_1_" d="M737.198,728.32H302.188c-4.942,0-8.947-4.002-8.947-8.946V437.776c0-4.939,4.005-8.942,8.947-8.942
						h435.011c4.941,0,8.946,4.003,8.946,8.942v281.597C746.145,724.318,742.14,728.32,737.198,728.32z"/>
				</defs>
				<clipPath id="SVGID_2_">
					<use xlink:href="#SVGID_1_"  overflow="visible"/>
				</clipPath>
				<path clip-path="url(#SVGID_2_)" fill="#FFFFFF" d="M737.198,728.32H302.188c-4.942,0-8.947-4.002-8.947-8.946V437.776
					c0-4.939,4.005-8.942,8.947-8.942h435.011c4.941,0,8.946,4.003,8.946,8.942v281.597
					C746.145,724.318,742.14,728.32,737.198,728.32z"/>
				<g clip-path="url(#SVGID_2_)">
					<path fill="#FFC44F" d="M735.191,426.514H304.523c-6.432,0-11.648,4.194-11.648,9.37c0,0,0.161,7.533,0.387,9.914
						c6.609-0.165,453.576,0.06,453.576,0.06v-9.974C746.838,430.708,741.622,426.514,735.191,426.514z"/>
				</g>
				<path clip-path="url(#SVGID_2_)" fill="#FFFFFF" d="M314.852,435.739c0,1.336-1.078,2.418-2.418,2.418
					c-1.336,0-2.422-1.082-2.422-2.418c0-1.335,1.086-2.421,2.422-2.421C313.773,433.317,314.852,434.403,314.852,435.739z"/>
				<circle clip-path="url(#SVGID_2_)" fill="#FFFFFF" cx="324.035" cy="435.739" r="2.421"/>
				<circle clip-path="url(#SVGID_2_)" fill="#FFFFFF" cx="335.633" cy="435.739" r="2.42"/>
				<rect x="292.875" y="445.783" clip-path="url(#SVGID_2_)" fill="#DDE2E8" width="453.27" height="17.972"/>
				<g clip-path="url(#SVGID_2_)">
					<rect x="312.434" y="494.507" fill="#DDE2E8" width="53.323" height="47.302"/>
					<rect x="371.742" y="518.978" fill="#DDE2E8" width="139.359" height="4.261"/>
					<rect x="371.742" y="505.524" fill="#F8C487" width="32.107" height="4.26"/>
					<rect x="371.742" y="498.291" fill="#F8C487" width="50.665" height="4.26"/>
					<rect x="371.742" y="528.267" fill="#DDE2E8" width="139.359" height="4.26"/>
					<rect x="371.742" y="537.55" fill="#DDE2E8" width="80.186" height="4.26"/>
				</g>
				<g clip-path="url(#SVGID_2_)">
					<rect x="524.435" y="494.507" fill="#F8C487" width="53.319" height="47.302"/>
					<rect x="583.749" y="518.978" fill="#DDE2E8" width="139.352" height="4.261"/>
					<rect x="583.749" y="505.524" fill="#F8C487" width="32.098" height="4.26"/>
					<rect x="583.749" y="498.291" fill="#F8C487" width="50.661" height="4.26"/>
					<rect x="583.749" y="528.267" fill="#DDE2E8" width="139.352" height="4.26"/>
					<rect x="583.749" y="537.55" fill="#DDE2E8" width="80.18" height="4.26"/>
				</g>
				<g clip-path="url(#SVGID_2_)">
					<rect x="312.434" y="562.149" fill="#DDE2E8" width="53.323" height="47.308"/>
					<rect x="371.742" y="586.625" fill="#DDE2E8" width="139.359" height="4.258"/>
					<rect x="371.742" y="573.164" fill="#F8C487" width="32.107" height="4.26"/>
					<rect x="371.742" y="565.937" fill="#F8C487" width="50.665" height="4.26"/>
					<rect x="371.742" y="595.905" fill="#DDE2E8" width="139.359" height="4.263"/>
					<rect x="371.742" y="605.188" fill="#DDE2E8" width="80.186" height="4.269"/>
				</g>
				<g clip-path="url(#SVGID_2_)">
					<rect x="524.435" y="562.149" fill="#DDE2E8" width="53.319" height="47.308"/>
					<rect x="583.749" y="586.625" fill="#DDE2E8" width="139.352" height="4.258"/>
					<rect x="583.749" y="573.164" fill="#F8C487" width="32.098" height="4.26"/>
					<rect x="583.749" y="565.937" fill="#F8C487" width="50.661" height="4.26"/>
					<rect x="583.749" y="595.905" fill="#DDE2E8" width="139.352" height="4.263"/>
					<rect x="583.749" y="605.188" fill="#DDE2E8" width="80.18" height="4.269"/>
				</g>
				<g clip-path="url(#SVGID_2_)">
					<rect x="312.434" y="627.552" fill="#DDE2E8" width="53.323" height="47.306"/>
					<rect x="371.742" y="652.027" fill="#DDE2E8" width="139.359" height="4.26"/>
					<rect x="371.742" y="638.574" fill="#F8C487" width="32.107" height="4.261"/>
					<rect x="371.742" y="631.341" fill="#F8C487" width="50.665" height="4.26"/>
					<rect x="371.742" y="661.309" fill="#DDE2E8" width="139.359" height="4.268"/>
					<rect x="371.742" y="670.597" fill="#DDE2E8" width="80.186" height="4.261"/>
				</g>
				<g clip-path="url(#SVGID_2_)">
					<rect x="524.435" y="627.552" fill="#DDE2E8" width="53.319" height="47.306"/>
					<rect x="583.749" y="652.027" fill="#DDE2E8" width="139.352" height="4.26"/>
					<rect x="583.749" y="638.574" fill="#F8C487" width="32.098" height="4.261"/>
					<rect x="583.749" y="631.341" fill="#F8C487" width="50.661" height="4.26"/>
					<rect x="583.749" y="661.309" fill="#DDE2E8" width="139.352" height="4.268"/>
					<rect x="583.749" y="670.597" fill="#DDE2E8" width="80.18" height="4.261"/>
				</g>
				<g clip-path="url(#SVGID_2_)">
					<rect x="312.434" y="695.157" fill="#DDE2E8" width="53.323" height="47.307"/>
					<rect x="371.742" y="719.631" fill="#DDE2E8" width="139.359" height="4.26"/>
					<rect x="371.742" y="706.178" fill="#F8C487" width="32.107" height="4.26"/>
					<rect x="371.742" y="698.945" fill="#F8C487" width="50.665" height="4.26"/>
					<rect x="371.742" y="728.913" fill="#DDE2E8" width="139.359" height="4.267"/>
					<rect x="371.742" y="738.202" fill="#DDE2E8" width="80.186" height="4.262"/>
				</g>
				<g clip-path="url(#SVGID_2_)">
					<rect x="524.435" y="695.157" fill="#DDE2E8" width="53.319" height="47.307"/>
					<rect x="583.749" y="719.631" fill="#DDE2E8" width="139.352" height="4.26"/>
					<rect x="583.749" y="706.178" fill="#F8C487" width="32.098" height="4.26"/>
					<rect x="583.749" y="698.945" fill="#F8C487" width="50.661" height="4.26"/>
					<rect x="583.749" y="728.913" fill="#DDE2E8" width="139.352" height="4.267"/>
					<rect x="583.749" y="738.202" fill="#DDE2E8" width="80.18" height="4.262"/>
				</g>
			</g>
			<rect x="732.622" y="473.24" fill="#DDE2E8" width="5.637" height="251.335"/>
		</g>
		<polygon opacity="0.29" fill="#FFFFFF" points="277.949,731.61 583.226,384.311 654.588,384.311 353.066,731.61 		"/>
		<polygon opacity="0.29" fill="#FFFFFF" points="383.864,731.61 682.363,384.311 707.494,384.311 409.846,731.61 		"/>
		<g>
			
				<image overflow="visible" opacity="0.25" width="228" height="314" xlink:href="43A5C6AF30A5EDDF.png"  transform="matrix(1 0 0 1 602.9434 207.8042)">
			</image>
			<g>
				<g>
					<g>
						<defs>
							<path id="SVGID_3_" d="M797.363,468.293H623.105c-2.343,0-4.234-1.899-4.234-4.235V229.101c0-2.339,1.892-4.236,4.234-4.236
								h174.258c2.341,0,4.236,1.897,4.236,4.236v234.957C801.6,466.394,799.704,468.293,797.363,468.293z"/>
						</defs>
						<clipPath id="SVGID_4_">
							<use xlink:href="#SVGID_3_"  overflow="visible"/>
						</clipPath>
					</g>
				</g>
				<g>
					<path fill="#F76937" d="M796.016,499.644h-171.56c-7.021,0-12.707-5.689-12.707-12.705V228.52
						c0-7.017,5.687-12.703,12.707-12.703h171.56c7.016,0,12.705,5.687,12.705,12.703v258.419
						C808.721,493.955,803.031,499.644,796.016,499.644z"/>
					<path fill="#FFFFFF" d="M797.363,468.293H623.105c-2.343,0-4.234-1.899-4.234-4.235V229.101c0-2.339,1.892-4.236,4.234-4.236
						h174.258c2.341,0,4.236,1.897,4.236,4.236v234.957C801.6,466.394,799.704,468.293,797.363,468.293z"/>
					<path opacity="0.34" fill="#2D1E56" d="M716.296,484.083c0,3.348-2.717,6.06-6.064,6.06c-3.346,0-6.057-2.712-6.057-6.06
						c0-3.347,2.711-6.064,6.057-6.064C713.579,478.019,716.296,480.736,716.296,484.083z"/>
					<g>
						<rect x="630.893" y="253.079" fill="#DDE2E8" width="42.589" height="37.784"/>
						<rect x="678.27" y="272.627" fill="#DDE2E8" width="111.306" height="3.403"/>
						<rect x="678.27" y="261.878" fill="#F8C487" width="25.641" height="3.404"/>
						<rect x="678.27" y="256.101" fill="#F8C487" width="40.464" height="3.404"/>
						<rect x="678.27" y="280.042" fill="#DDE2E8" width="111.306" height="3.404"/>
						<rect x="678.27" y="287.459" fill="#DDE2E8" width="64.041" height="3.404"/>
					</g>
					<g>
						<rect x="630.893" y="301.632" fill="#F8C487" width="42.589" height="37.784"/>
						<rect x="678.27" y="321.175" fill="#DDE2E8" width="111.306" height="3.406"/>
						<rect x="678.27" y="310.429" fill="#F8C487" width="25.641" height="3.402"/>
						<rect x="678.27" y="304.655" fill="#F8C487" width="40.464" height="3.402"/>
						<rect x="678.27" y="328.592" fill="#DDE2E8" width="111.306" height="3.405"/>
						<rect x="678.27" y="336.012" fill="#DDE2E8" width="64.041" height="3.404"/>
					</g>
					<g>
						<rect x="630.893" y="352.492" fill="#DDE2E8" width="42.589" height="37.782"/>
						<rect x="678.27" y="372.037" fill="#DDE2E8" width="111.306" height="3.403"/>
						<rect x="678.27" y="361.288" fill="#F8C487" width="25.641" height="3.404"/>
						<rect x="678.27" y="355.514" fill="#F8C487" width="40.464" height="3.403"/>
						<rect x="678.27" y="379.453" fill="#DDE2E8" width="111.306" height="3.403"/>
						<rect x="678.27" y="386.872" fill="#DDE2E8" width="64.041" height="3.402"/>
					</g>
					<g>
						<rect x="630.893" y="403.643" fill="#DDE2E8" width="42.589" height="37.784"/>
						<rect x="678.27" y="423.187" fill="#DDE2E8" width="111.306" height="3.405"/>
						<rect x="678.27" y="412.442" fill="#F8C487" width="25.641" height="3.405"/>
						<rect x="678.27" y="406.665" fill="#F8C487" width="40.464" height="3.406"/>
						<rect x="678.27" y="430.606" fill="#DDE2E8" width="111.306" height="3.405"/>
						<rect x="678.27" y="438.021" fill="#DDE2E8" width="64.041" height="3.405"/>
					</g>
					<g>
						<defs>
							<path id="SVGID_5_" d="M797.363,468.293H623.105c-2.343,0-4.234-1.899-4.234-4.235V229.101c0-2.339,1.892-4.236,4.234-4.236
								h174.258c2.341,0,4.236,1.897,4.236,4.236v234.957C801.6,466.394,799.704,468.293,797.363,468.293z"/>
						</defs>
						<clipPath id="SVGID_6_">
							<use xlink:href="#SVGID_5_"  overflow="visible"/>
						</clipPath>
						<g clip-path="url(#SVGID_6_)">
							<rect x="630.893" y="450.921" fill="#DDE2E8" width="42.589" height="37.785"/>
							<rect x="678.27" y="470.471" fill="#DDE2E8" width="111.306" height="3.402"/>
							<rect x="678.27" y="459.72" fill="#F8C487" width="25.641" height="3.403"/>
							<rect x="678.27" y="453.945" fill="#F8C487" width="40.464" height="3.404"/>
							<rect x="678.27" y="477.884" fill="#DDE2E8" width="111.306" height="3.403"/>
							<rect x="678.27" y="485.302" fill="#DDE2E8" width="64.041" height="3.403"/>
						</g>
						<rect x="618.871" y="223.05" clip-path="url(#SVGID_6_)" fill="#DDE2E8" width="182.729" height="17.185"/>
					</g>
				</g>
				<g>
					<g>
						<defs>
							<path id="SVGID_7_" d="M797.363,468.293H623.105c-2.343,0-4.234-1.899-4.234-4.235V229.101c0-2.339,1.892-4.236,4.234-4.236
								h174.258c2.341,0,4.236,1.897,4.236,4.236v234.957C801.6,466.394,799.704,468.293,797.363,468.293z"/>
						</defs>
						<clipPath id="SVGID_8_">
							<use xlink:href="#SVGID_7_"  overflow="visible"/>
						</clipPath>
					</g>
				</g>
			</g>
		</g>
		<g>
			<path fill="#FFDEA9" d="M208.843,745.166c-10.606,11.519-29.942,12.613-44.948,8.131c-14.996-4.488-26.9-18.008-29.447-33.455
				c-1.76-10.686,0.523-22.27-4.269-31.983c-5.704-11.548-19.71-16.864-26.321-27.915c-6.18-10.312-4.69-23.287-6.819-35.116
				c-1.624-9.027-5.4-17.493-8.21-26.217c-2.807-8.726-4.64-18.171-2.251-27.021c2.382-8.853,9.993-16.817,19.155-17.056
				c7.861-0.198,14.827,5.059,20.044,10.95c5.222,5.886,9.499,12.717,15.739,17.497c9.444,7.229,21.883,8.728,33.465,11.417
				c11.579,2.684,23.979,7.791,28.931,18.597c5.185,11.314,0.691,25.871,7.756,36.111c4.42,6.389,12.203,9.336,18.623,13.711
				c15.272,10.409,22.942,30.839,18.278,48.727C243.91,729.434,227.255,743.524,208.843,745.166"/>
			<g>
				<path fill="#F4C17F" d="M228.561,741.27c-0.041,0.041-0.604-0.36-1.648-1.169c-1.055-0.803-2.551-2.06-4.423-3.733
					c-3.738-3.362-8.869-8.553-14.584-15.503c-5.736-6.922-11.991-15.611-18.867-25.259c-6.87-9.667-14.421-20.286-22.352-31.425
					c-15.826-22.33-30.069-42.597-40.308-57.32c-5.061-7.342-9.172-13.304-12.057-17.481c-1.365-2.051-2.439-3.655-3.206-4.808
					c-0.716-1.108-1.07-1.708-1.019-1.738c0.049-0.035,0.494,0.499,1.306,1.54c0.826,1.104,1.987,2.65,3.467,4.622
					c2.984,4.1,7.247,9.954,12.499,17.164c10.493,14.538,24.894,34.696,40.717,57.026c7.889,11.17,15.401,21.813,22.242,31.503
					c6.81,9.707,12.93,18.427,18.526,25.416c5.555,7.005,10.517,12.283,14.093,15.776c1.794,1.739,3.21,3.076,4.189,3.956
					C228.104,740.73,228.598,741.223,228.561,741.27z"/>
			</g>
			<g>
				<path fill="#F4C17F" d="M173.617,610.703c0.23,0.166-1.408,2.546-3.482,6.657c-1.051,2.05-2.14,4.573-3.179,7.432
					c-0.987,2.87-1.905,6.082-2.559,9.528c-0.619,3.445-0.923,6.777-1.032,9.815c-0.056,3.034,0.053,5.777,0.301,8.072
					c0.466,4.584,1.133,7.396,0.859,7.467c-0.179,0.055-1.28-2.662-2.062-7.31c-0.41-2.326-0.65-5.13-0.676-8.252
					c0.021-3.124,0.277-6.557,0.92-10.11c0.678-3.542,1.667-6.844,2.772-9.762c1.141-2.899,2.374-5.436,3.587-7.457
					C171.473,612.722,173.473,610.582,173.617,610.703z"/>
			</g>
			<g>
				<path fill="#F4C17F" d="M209.407,659.896c0.23,0.149-1.236,2.533-3.096,6.591c-0.942,2.025-1.915,4.5-2.84,7.293
					c-0.892,2.805-1.7,5.939-2.28,9.283c-0.55,3.351-0.805,6.58-0.888,9.522c-0.041,2.943,0.063,5.599,0.296,7.82
					c0.429,4.448,1.03,7.173,0.765,7.244c-0.188,0.056-1.219-2.58-1.971-7.088c-0.388-2.247-0.628-4.962-0.676-7.989
					c0-3.019,0.218-6.346,0.78-9.791c0.599-3.445,1.484-6.658,2.475-9.513c1.031-2.838,2.149-5.325,3.253-7.321
					C207.409,661.939,209.248,659.782,209.407,659.896z"/>
			</g>
			<g>
				<path fill="#F4C17F" d="M176.369,676.359c-0.146,0.22-2.99-1.41-7.688-3.807c-4.698-2.385-11.301-5.479-18.938-7.893
					c-3.829-1.18-7.539-2.057-10.949-2.685c-3.422-0.552-6.525-0.929-9.146-1.013c-5.236-0.247-8.506,0.102-8.545-0.193
					c-0.025-0.174,3.211-0.958,8.572-1.024c2.677-0.066,5.862,0.191,9.375,0.673c3.49,0.55,7.298,1.401,11.203,2.605
					c7.793,2.458,14.42,5.784,19.014,8.468C173.857,674.181,176.483,676.182,176.369,676.359z"/>
			</g>
			<g>
				<path fill="#F4C17F" d="M209.072,720.542c-0.191,0.208-2.437-1.716-6.374-4.316c-1.964-1.312-4.395-2.72-7.169-4.135
					c-2.79-1.373-5.939-2.72-9.345-3.852c-3.42-1.104-6.753-1.877-9.818-2.421c-3.07-0.506-5.868-0.797-8.224-0.906
					c-4.713-0.233-7.666-0.006-7.69-0.288c-0.024-0.19,2.891-0.845,7.717-0.923c2.407-0.054,5.278,0.125,8.44,0.552
					c3.158,0.473,6.603,1.222,10.111,2.355c3.498,1.162,6.715,2.594,9.539,4.075c2.799,1.527,5.226,3.085,7.131,4.549
					C207.236,718.151,209.205,720.403,209.072,720.542z"/>
			</g>
		</g>
		<g>
			<polygon fill="#FCA57E" points="597.541,429.734 584.812,432.76 571.021,429.734 570.207,358.967 601.124,362.108 			"/>
			<path fill="#F25F46" d="M669.243,523.424l-14.667-78.953c-3.25-18.647-13.284-32.042-31.233-32.11h-12.845l-25.686,20.399
				l-23.242-20.399h-16.429c-22.411-0.085-34.241,14.066-34.337,40.006l15.143,19.67l2.393,342.536h139.835l-23.622-256.43
				C660.903,555.312,671.946,539.83,669.243,523.424z"/>
			<polygon fill="#FF8A63" points="530.131,905.674 515.137,905.674 518.533,853.445 531.787,888.809 			"/>
			<path fill="#102257" d="M525.014,920.542h-34.02c0-3.375,1.974-6.44,5.047-7.838c3-1.363,11.139-4.115,15.545-5.575
				c1.763-0.582,2.987-2.188,3.097-4.043l0.12-2.201h15.688v14.176C530.491,918.084,528.04,920.542,525.014,920.542z"/>
			<polygon fill="#FF8A63" points="597.41,905.674 612.404,905.674 612.793,887.831 595.687,888.161 			"/>
			<path fill="#102257" d="M602.529,920.542h34.019c0-3.375-1.977-6.44-5.052-7.838c-2.994-1.363-11.135-4.115-15.537-5.575
				c-1.764-0.582-2.994-2.188-3.101-4.043l-0.122-2.201h-15.688v14.176C597.048,918.084,599.505,920.542,602.529,920.542z"/>
			<path fill="#102257" d="M612.793,887.831c0,0,30.801-162.428,26.403-244.775l-5.067-58.887l-104.731-1.201l-9.37,39.844
				c-6.028,76.893-5.233,267.105-5.233,267.105h16.888l46.106-222.473c1.395-3.499,6.338-3.469,7.684,0.032l10.215,220.686
				L612.793,887.831z"/>
			<path fill="#FFC550" d="M633.761,672.831H523.657l28.786-252.795l32.369,12.725l29.113-12.725l30.328,240.895
				C645.049,667.249,640.123,672.831,633.761,672.831z"/>
			<path fill="#F25F46" d="M547.602,417.101l-10.082,19.521l-20.896-9.742l-43.545,91.342c-6.583,15.36-4.725,27.736,10.417,36.687
				l6.42,3.457l7.47-17.411l15.824-35.941l-48.383,321.254h66.961l34.49-398.706L547.602,417.101z"/>
			<path fill="#102257" d="M561.046,455.462l42.125,1.589c2.439,0.093,4.345,2.145,4.257,4.587l-2.324,61.495
				c-0.094,2.44-2.146,4.348-4.586,4.253l-42.119-1.588c-2.448-0.091-4.352-2.146-4.258-4.588l2.319-61.493
				C556.549,457.274,558.607,455.371,561.046,455.462z"/>
			<path fill="#102257" d="M663.15,623.463l-13.24-32.152c-2.386-5.8-8.701-8.784-14.602-7.165l-81.845-173.052
				c-0.714-1.511-2.515-2.156-4.025-1.441c-1.512,0.712-2.158,2.516-1.444,4.024l82.046,173.463
				c-3.528,3.396-4.823,8.722-2.843,13.523l13.237,32.153c2.583,6.274,9.763,9.265,16.035,6.682S665.734,629.737,663.15,623.463z"/>
			<path fill="#FFAE83" d="M638.306,528.746l-35.824-11.45l-9.237-17.449c-0.48-0.975-1.825-1.076-2.443-0.183l-3.521,5.095
				l-12.45-12.305c-1.5-1.427-3.871-1.363-5.301,0.138c-0.979,1.033-1.293,2.535-0.794,3.876l3.804,10.337
				c0.844,2.284,2.195,4.345,3.965,6.024l13.631,14.667c1.445,1.558,3.126,2.879,4.983,3.917l48.169,26.952L638.306,528.746z"/>
			<polygon fill="#FFAE83" points="497.385,540.954 507.385,556.557 520.027,558.239 514.794,575.09 489.915,558.365 			"/>
			<path fill="#FFC550" d="M584.812,432.76h-1.365c-14.313,0-27.739-6.94-36.018-18.62l-0.266-0.374
				c-5.033-7.108-5.862-16.369-2.17-24.254l13.535-28.896l10.864,27.861L584.812,432.76z"/>
			<path fill="#FFC550" d="M584.812,432.76c14.996,0.416,29.178-6.814,37.654-19.195l0.92-1.348
				c5.092-7.442,5.627-17.097,1.385-25.051l-13.799-25.884l-10.868,27.863L584.812,432.76z"/>
			<path fill="#102257" d="M618.275,344.243c0,17.272-14.002,31.273-31.275,31.273c-17.265,0-31.268-14-31.268-31.273
				c0-17.271,14.003-31.272,31.268-31.272C604.273,312.971,618.275,326.972,618.275,344.243z"/>
			<path fill="#FFAE83" d="M586.225,397.029c-15.299,0-27.695-12.403-27.695-27.7l-0.137-21.805
				c0-15.298,55.533-16.936,55.533-1.638v23.443C613.926,384.626,601.52,397.029,586.225,397.029z"/>
			<path fill="#102257" d="M585.668,317.788c-20.299,0.021-27.139,7.877-27.139,25.053l-1.1,1.121l0.789,6.609
				c0,0,1.84-9.605,8.828-9.747h38.355c6.605-0.178,8.523,9.41,8.523,9.41l1.401-6.107l-0.137-1.416
				C615.19,325.536,608.56,317.767,585.668,317.788z"/>
			<path fill="#FFAE83" d="M609.646,370.964l-1.129-0.073l1.085-16.481l4.25,0.279c2.34,0.152,4.112,2.174,3.952,4.512l-0.318,4.895
				C617.22,368.156,613.708,371.234,609.646,370.964z"/>
			<path fill="#FFAE83" d="M562.045,371.881l1.132-0.075l-1.083-16.481l-4.252,0.277c-2.343,0.154-4.113,2.175-3.957,4.514
				l0.319,4.894C554.469,369.071,557.98,372.147,562.045,371.881z"/>
			<path fill="#101857" d="M601.254,363.349c1.108,0.073,2.077-0.775,2.148-1.879l0.056-0.842c0.075-1.104-0.773-2.071-1.881-2.142
				c-1.106-0.073-2.068,0.772-2.144,1.878l-0.055,0.842C599.303,362.312,600.148,363.275,601.254,363.349z"/>
			<path fill="#101857" d="M570.707,363.054c1.108,0,2.013-0.907,2.013-2.02v-0.838c0-1.109-0.904-2.018-2.013-2.018
				c-1.11,0-2.019,0.909-2.019,2.018v0.838C568.688,362.147,569.597,363.054,570.707,363.054z"/>
			<path fill="#D34539" d="M587.688,387.176l-4.063-0.052c-4.602-0.063-8.322-2.983-8.319-6.525l20.727,0.277
				C596.022,384.418,592.287,387.238,587.688,387.176z"/>
			<path fill="#FFFFFF" d="M581.667,383.669l8.035,0.108c2.63,0.035,4.881-1.162,5.849-2.898l-19.72-0.263
				C576.79,382.378,579.037,383.633,581.667,383.669z"/>
			<path fill="#E67049" d="M585.103,376.383c-3.128-0.784-4.855-1.982-5.255-3.633c-0.261-1.089,0.13-1.971,0.782-3.436
				c0.285-0.633,0.629-1.412,1.015-2.404c0.688-1.762,1.257-3.582,1.692-5.411c0.094-0.406,0.502-0.654,0.907-0.56
				c0.415,0.103,0.659,0.506,0.56,0.91c-0.447,1.895-1.036,3.782-1.745,5.608c-0.396,1.022-0.755,1.821-1.047,2.474
				c-0.622,1.395-0.832,1.907-0.697,2.462c0.317,1.322,2.494,2.339,6.283,2.955c0.401,0.071,0.693,0.457,0.626,0.865
				c-0.064,0.412-0.452,0.693-0.868,0.626C586.539,376.708,585.789,376.554,585.103,376.383z"/>
			<path fill="#102257" d="M617.602,348.335l-1.773-2.706l-5.947,9.551c-1.995-2.285-5.209-3.78-8.832-3.78
				c-4.677,0-8.668,2.48-10.242,5.955h-9.548c-1.573-3.474-5.561-5.955-10.238-5.955c-3.574,0-6.74,1.45-8.744,3.678l-4.058-6.395
				l-1.392,3.277l3.736,5.892c-0.327,0.871-0.505,1.8-0.505,2.762c0,5.079,4.918,9.213,10.962,9.213
				c6.04,0,10.962-4.134,10.962-9.213c0-0.077-0.014-0.154-0.016-0.237h8.134c0,0.083-0.011,0.16-0.011,0.237
				c0,5.079,4.916,9.213,10.959,9.213c6.044,0,10.959-4.134,10.959-9.213c0-0.897-0.156-1.761-0.439-2.58L617.602,348.335z
				 M571.021,366.804c-4.376,0-7.94-2.776-7.94-6.189c0-3.412,3.564-6.19,7.94-6.19c4.374,0,7.936,2.778,7.936,6.19
				C578.956,364.028,575.395,366.804,571.021,366.804z M601.049,366.804c-4.376,0-7.936-2.776-7.936-6.189
				c0-3.412,3.56-6.19,7.936-6.19c4.378,0,7.94,2.778,7.94,6.19C608.989,364.028,605.427,366.804,601.049,366.804z"/>
			<path fill="#E2E2E2" d="M468.424,930.348h284.788c2.712,0,4.904-2.195,4.904-4.902l0,0c0-2.712-2.192-4.903-4.904-4.903H468.424
				c-2.705,0-4.9,2.191-4.9,4.903l0,0C463.523,928.153,465.719,930.348,468.424,930.348z"/>
		</g>
		<rect x="440.746" y="224.865" fill="#FFD6BB" width="56.88" height="56.881"/>
		<rect x="508.929" y="273.238" fill="#FFD6BB" width="28.44" height="28.441"/>
		<rect x="274.111" y="331.997" fill="#FFD6BB" width="105.997" height="5.716"/>
	</g>
</g>
</svg>
