<svg width="40" height="40" viewBox="0 0 40 40" fill="none" xmlns="http://www.w3.org/2000/svg">
<path d="M36 0H0V40H36C38.2091 40 40 38.2091 40 36V4C40 1.79086 38.2091 0 36 0Z" fill="#1BD741"/>
<path d="M6.01178 34.0035L7.97109 27.0446C6.71114 24.9042 6.04777 22.4688 6.04777 19.967C6.04777 12.2637 12.3148 5.9967 20.018 5.9967C27.7213 5.9967 33.9882 12.2637 33.9882 19.967C33.9882 27.6702 27.7213 33.9372 20.018 33.9372C17.6177 33.9372 15.2674 33.3228 13.1882 32.1562L6.01178 34.0035ZM13.5551 29.6146L13.9827 29.8757C15.7955 30.9824 17.8826 31.5674 20.018 31.5674C26.4145 31.5674 31.6184 26.3635 31.6184 19.967C31.6184 13.5705 26.4145 8.36652 20.018 8.36652C13.6215 8.36652 8.41758 13.5705 8.41758 19.967C8.41758 22.1957 9.05103 24.3601 10.2493 26.226L10.5373 26.6744L9.40896 30.6819L13.5551 29.6146Z" fill="white"/>
<path d="M16.0936 13.4648L15.1871 13.4153C14.9024 13.3998 14.6231 13.4949 14.4079 13.6819C13.9684 14.0635 13.2657 14.8013 13.0499 15.7628C12.728 17.1963 13.2254 18.9518 14.5128 20.7072C15.8001 22.4626 18.1992 25.2713 22.4414 26.4708C23.8084 26.8574 24.8838 26.5968 25.7135 26.066C26.3706 25.6457 26.8236 24.971 26.9869 24.2083L27.1316 23.5323C27.1776 23.3174 27.0685 23.0994 26.8689 23.0074L23.8053 21.5953C23.6064 21.5036 23.3705 21.5615 23.2368 21.7349L22.0341 23.2941C21.9432 23.4118 21.7877 23.4585 21.6472 23.4092C20.8236 23.1197 18.0646 21.9642 16.5507 19.0481C16.4851 18.9217 16.5014 18.7681 16.5945 18.6603L17.744 17.3305C17.8614 17.1948 17.8911 17.0039 17.8205 16.8388L16.4999 13.7492C16.4296 13.5847 16.2721 13.4745 16.0936 13.4648Z" fill="white"/>
</svg>
