<svg width="200" height="200" viewBox="0 0 200 200" fill="none" xmlns="http://www.w3.org/2000/svg">
<rect width="200" height="200" fill="#F1F1F1"/>
<path d="M138.891 116.109C132.901 110.119 125.77 105.684 117.991 103C126.323 97.261 131.797 87.6568 131.797 76.7969C131.797 59.2641 117.533 45 100 45C82.4672 45 68.2031 59.2641 68.2031 76.7969C68.2031 87.6568 73.6771 97.261 82.0094 103C74.2299 105.684 67.0997 110.119 61.1092 116.109C50.7211 126.497 45 140.309 45 155H53.5938C53.5938 129.411 74.4115 108.594 100 108.594C125.589 108.594 146.406 129.411 146.406 155H155C155 140.309 149.279 126.497 138.891 116.109ZM100 100C87.2058 100 76.7969 89.5912 76.7969 76.7969C76.7969 64.0025 87.2058 53.5938 100 53.5938C112.794 53.5938 123.203 64.0025 123.203 76.7969C123.203 89.5912 112.794 100 100 100Z" fill="#CCCCCC"/>
</svg>
