<svg width="200" height="200" viewBox="0 0 200 200" fill="none" xmlns="http://www.w3.org/2000/svg">
<rect width="200" height="200" fill="white"/>
<rect x="3" y="3" width="194" height="194" fill="#F1F1F1"/>
<path d="M59.2932 90.13L88.0804 66.3996C88.7675 65.8333 88.8647 64.8178 88.2988 64.1314C87.733 63.4449 86.7176 63.3466 86.0306 63.913L57.2433 87.6433C56.5563 88.2097 56.4591 89.2251 57.0249 89.9116C57.5908 90.598 58.6061 90.6964 59.2932 90.13V90.13Z" fill="black"/>
<path d="M64.9159 63.9129L59.0767 68.7264C58.3903 69.2922 58.2919 70.3076 58.8583 70.9947C59.4242 71.6811 60.4401 71.7789 61.1266 71.2131L66.9657 66.3996C67.6522 65.8338 67.75 64.8178 67.1842 64.1314C66.6178 63.4443 65.6023 63.3471 64.9159 63.9129Z" fill="black"/>
<path d="M149.088 51H50.9116C47.652 51 45 53.652 45 56.9124V121.794C45 125.053 47.652 127.705 50.9116 127.705H88.3145L86.1728 136.034H78.54C75.0613 136.034 72.2314 138.864 72.2314 142.343V144.59C72.2314 146.645 73.904 148.317 75.9593 148.317H124.041C126.096 148.317 127.769 146.645 127.769 144.59V142.343C127.769 138.864 124.939 136.034 121.46 136.034H113.827L111.685 127.705H149.088C152.348 127.705 155 125.053 155 121.794V56.9124C155 53.652 152.348 51 149.088 51V51ZM121.46 139.257C123.161 139.257 124.546 140.641 124.546 142.343V144.59C124.546 144.867 124.319 145.094 124.041 145.094H75.9593C75.6807 145.094 75.4541 144.867 75.4541 144.59V142.343C75.4541 140.641 76.8388 139.257 78.54 139.257H121.46ZM89.5004 136.034L91.6421 127.705H108.358L110.5 136.034H89.5004ZM151.777 121.794C151.777 123.276 150.571 124.482 149.088 124.482H50.9116C49.4286 124.482 48.2227 123.276 48.2227 121.794V118.267H151.777V121.794ZM151.777 115.044H48.2227V56.9124C48.2227 55.4295 49.4286 54.2227 50.9116 54.2227H149.088C150.571 54.2227 151.777 55.4286 151.777 56.9124V115.044Z" fill="black"/>
</svg>
