<svg width="40" height="40" viewBox="0 0 40 40" fill="none" xmlns="http://www.w3.org/2000/svg">
<rect width="40" height="40" rx="4" fill="#1BD741"/>
<path d="M6 34.0068L7.95931 27.0479C6.69936 24.9075 6.03599 22.4721 6.03599 19.9703C6.03599 12.267 12.303 6 20.0062 6C27.7095 6 33.9764 12.267 33.9764 19.9703C33.9764 27.6735 27.7095 33.9405 20.0062 33.9405C17.6059 33.9405 15.2556 33.3261 13.1764 32.1595L6 34.0068ZM13.5433 29.6179L13.9709 29.879C15.7837 30.9857 17.8708 31.5707 20.0062 31.5707C26.4027 31.5707 31.6066 26.3668 31.6066 19.9703C31.6066 13.5738 26.4027 8.36982 20.0062 8.36982C13.6097 8.36982 8.4058 13.5738 8.4058 19.9703C8.4058 22.199 9.03925 24.3634 10.2375 26.2293L10.5255 26.6777L9.39718 30.6852L13.5433 29.6179Z" fill="white"/>
<path d="M16.0818 13.4681L15.1753 13.4186C14.8906 13.4031 14.6113 13.4982 14.3961 13.6852C13.9566 14.0668 13.2539 14.8046 13.0381 15.7661C12.7162 17.1996 13.2136 18.9551 14.501 20.7105C15.7883 22.4659 18.1874 25.2746 22.4296 26.4741C23.7966 26.8607 24.872 26.6001 25.7017 26.0693C26.3588 25.649 26.8118 24.9743 26.9751 24.2116L27.1198 23.5356C27.1658 23.3207 27.0567 23.1027 26.8571 23.0107L23.7935 21.5986C23.5946 21.5069 23.3587 21.5648 23.225 21.7382L22.0223 23.2974C21.9314 23.4151 21.7759 23.4618 21.6354 23.4125C20.8118 23.123 18.0528 21.9675 16.5389 19.0514C16.4733 18.925 16.4896 18.7714 16.5827 18.6636L17.7322 17.3338C17.8496 17.1981 17.8793 17.0072 17.8087 16.8421L16.4881 13.7525C16.4178 13.588 16.2603 13.4778 16.0818 13.4681Z" fill="white"/>
</svg>
