<?xml version="1.0" encoding="utf-8"?>
<!-- Generator: Adobe Illustrator 16.0.0, SVG Export Plug-In . SVG Version: 6.00 Build 0)  -->
<!DOCTYPE svg PUBLIC "-//W3C//DTD SVG 1.1//EN" "http://www.w3.org/Graphics/SVG/1.1/DTD/svg11.dtd">
<svg version="1.1" xmlns="http://www.w3.org/2000/svg" xmlns:xlink="http://www.w3.org/1999/xlink" x="0px" y="0px" width="2568px"
	 height="1000px" viewBox="0 0 2568 1000" enable-background="new 0 0 2568 1000" xml:space="preserve">
<g id="Layer_1">
</g>
<g id="ORG">
	<g>
		<path fill="#FFF3E1" d="M1529.855,884.841v59.742h-343.391c-15.455-1.15-27.607-14.072-27.607-29.832
			c0-16.504,13.383-29.91,29.91-29.91H1529.855z"/>
		<path fill="#FFF3E1" d="M1993.193,884.841v59.742h343.391c15.455-1.15,27.607-14.072,27.607-29.832
			c0-16.504-13.383-29.91-29.91-29.91H1993.193z"/>
		<g opacity="0.7">
			<g>
				<path fill="#FFDEA9" d="M1499.154,704.476c-28.299,9.791-61.854-5.859-83.062-26.994
					c-21.207-21.139-29.012-54.695-19.314-83.018c6.709-19.592,21.047-37.041,21.764-57.734
					c0.852-24.613-17.922-46.258-19.07-70.855c-1.068-22.975,13.193-43.469,20.32-65.33c5.434-16.666,6.736-34.354,9.906-51.588
					c3.176-17.246,8.639-34.812,20.672-47.557c12.025-12.754,32.061-19.277,47.707-11.379c13.428,6.779,20.398,21.947,23.854,36.58
					c3.459,14.641,4.488,30.025,10.678,43.736c9.357,20.717,28.947,34.508,46.018,49.516c17.076,15.008,33.334,34.84,31.893,57.527
					c-1.5,23.746-22.26,44.203-19.617,67.85c1.645,14.762,12.098,26.771,18.947,39.949c16.299,31.373,10.711,72.715-13.332,98.631
					C1572.469,709.726,1531.658,718.39,1499.154,704.476"/>
			</g>
			<g>
				<g>
					<g>
						<path fill="#F4C587" d="M1535.895,715.765c-0.083,0.035-0.631-1.174-1.598-3.508c-0.479-1.176-1.067-2.623-1.762-4.334
							c-0.344-0.859-0.713-1.783-1.107-2.773c-0.394-0.99-0.828-2.039-1.176-3.189c-3.114-9.084-7.123-22.441-10.426-39.312
							c-3.373-16.855-6.01-37.148-8.845-59.629c-2.818-22.492-5.917-47.219-9.17-73.172c-6.435-51.936-12.116-98.965-16.099-133.021
							c-1.991-17.029-3.558-30.814-4.582-40.35c-0.512-4.766-0.889-8.471-1.115-10.984c-0.227-2.516-0.302-3.842-0.213-3.854
							c0.09-0.01,0.34,1.293,0.734,3.787c0.395,2.496,0.933,6.18,1.6,10.928c1.334,9.494,3.179,23.246,5.404,40.246
							c4.449,33.998,10.42,80.992,16.855,132.928c3.18,25.963,6.21,50.697,8.967,73.197c2.704,22.508,5.145,42.756,8.271,59.58
							c3.058,16.84,6.772,30.188,9.578,39.336c0.309,1.156,0.705,2.215,1.06,3.213c0.353,1,0.683,1.936,0.989,2.805
							c0.601,1.738,1.11,3.213,1.523,4.408C1535.593,714.457,1535.978,715.732,1535.895,715.765z"/>
					</g>
				</g>
			</g>
			<g>
				<g>
					<g>
						<path fill="#F4C587" d="M1561.574,446.095c0.076,0.162-1.075,0.943-3.211,2.211c-0.539,0.314-1.133,0.66-1.781,1.039
							c-0.645,0.393-1.323,0.854-2.066,1.324c-1.471,0.965-3.201,1.969-4.977,3.289c-0.903,0.637-1.849,1.303-2.833,1.996
							c-0.981,0.697-1.941,1.508-2.971,2.295c-2.083,1.547-4.138,3.408-6.344,5.311c-4.292,3.938-8.765,8.533-13.002,13.752
							c-4.185,5.262-7.708,10.621-10.63,15.662c-1.382,2.564-2.758,4.973-3.819,7.34c-0.548,1.174-1.133,2.287-1.602,3.396
							c-0.465,1.109-0.911,2.176-1.337,3.195c-0.91,2.021-1.512,3.914-2.137,5.555c-0.299,0.826-0.604,1.584-0.848,2.299
							c-0.231,0.721-0.443,1.379-0.635,1.979c-0.781,2.369-1.295,3.658-1.469,3.613s0.009-1.422,0.488-3.871
							c0.125-0.615,0.264-1.293,0.414-2.033c0.175-0.74,0.415-1.537,0.652-2.398c0.502-1.713,1.001-3.705,1.812-5.797
							c0.384-1.057,0.786-2.164,1.204-3.316c0.429-1.15,0.978-2.305,1.494-3.521c0.998-2.455,2.328-4.951,3.683-7.604
							c2.868-5.215,6.416-10.744,10.699-16.129c4.335-5.342,8.969-9.996,13.443-13.92c2.297-1.895,4.448-3.73,6.63-5.234
							c1.077-0.766,2.086-1.551,3.117-2.217c1.035-0.656,2.029-1.287,2.979-1.891c1.871-1.244,3.696-2.152,5.258-3.01
							c0.788-0.418,1.511-0.822,2.198-1.154c0.694-0.309,1.332-0.592,1.909-0.848
							C1560.196,446.406,1561.497,445.931,1561.574,446.095z"/>
					</g>
				</g>
			</g>
			<g>
				<g>
					<g>
						<path fill="#F4C587" d="M1577.312,561.355c0.084,0.158-0.995,0.969-3.005,2.289c-0.509,0.328-1.069,0.689-1.68,1.084
							c-0.601,0.42-1.25,0.877-1.946,1.363c-1.386,0.992-3.019,2.035-4.692,3.375c-0.852,0.646-1.743,1.324-2.673,2.029
							c-0.926,0.709-1.831,1.521-2.802,2.318c-1.966,1.566-3.905,3.424-5.987,5.328c-4.054,3.926-8.282,8.473-12.3,13.598
							c-3.969,5.164-7.327,10.389-10.125,15.291c-1.327,2.49-2.646,4.83-3.677,7.123c-0.529,1.139-1.093,2.217-1.55,3.289
							c-0.453,1.074-0.889,2.107-1.305,3.094c-0.884,1.957-1.483,3.783-2.1,5.369c-0.296,0.797-0.595,1.529-0.839,2.221
							c-0.231,0.693-0.444,1.33-0.637,1.908c-0.784,2.285-1.299,3.527-1.473,3.48s0.012-1.379,0.494-3.748
							c0.127-0.594,0.266-1.25,0.418-1.967c0.174-0.715,0.409-1.486,0.643-2.318c0.493-1.656,0.99-3.578,1.773-5.604
							c0.374-1.023,0.764-2.096,1.171-3.211c0.416-1.113,0.942-2.232,1.44-3.412c0.965-2.375,2.235-4.801,3.533-7.375
							c2.74-5.068,6.115-10.457,10.175-15.738c4.107-5.24,8.489-9.846,12.72-13.756c2.171-1.895,4.205-3.729,6.268-5.252
							c1.02-0.775,1.973-1.562,2.948-2.242c0.979-0.67,1.92-1.314,2.818-1.93c1.771-1.264,3.5-2.215,4.979-3.102
							c0.747-0.432,1.432-0.85,2.084-1.197c0.659-0.326,1.264-0.625,1.812-0.898
							C1575.986,561.705,1577.229,561.197,1577.312,561.355z"/>
					</g>
				</g>
			</g>
			<g>
				<g>
					<g>
						<path fill="#F4C587" d="M1506.758,559.177c-0.357,0.203-3.601-5.164-9.3-13.496c-0.718-1.039-1.469-2.125-2.251-3.258
							c-0.783-1.133-1.652-2.271-2.518-3.475c-1.713-2.42-3.675-4.904-5.707-7.543c-4.158-5.197-8.887-10.787-14.246-16.277
							c-5.383-5.469-10.859-10.311-16.057-14.445c-2.672-1.967-5.14-3.943-7.629-5.533c-1.229-0.818-2.396-1.643-3.55-2.383
							c-1.174-0.707-2.301-1.387-3.377-2.035c-2.126-1.359-4.151-2.361-5.901-3.322c-0.877-0.475-1.694-0.918-2.449-1.328
							c-0.775-0.371-1.485-0.711-2.129-1.02c-2.55-1.242-3.927-2.008-3.857-2.174c0.07-0.166,1.58,0.285,4.251,1.24
							c0.669,0.244,1.409,0.516,2.217,0.811c0.798,0.334,1.654,0.734,2.58,1.15c1.843,0.85,3.983,1.768,6.194,3.039
							c1.121,0.613,2.295,1.256,3.518,1.924c1.201,0.705,2.414,1.5,3.689,2.293c2.586,1.541,5.144,3.484,7.903,5.436
							c5.369,4.1,10.993,8.973,16.458,14.527c5.443,5.574,10.181,11.289,14.282,16.629c2.003,2.709,3.921,5.27,5.573,7.768
							c0.836,1.24,1.671,2.42,2.416,3.592c0.74,1.174,1.451,2.301,2.13,3.377c1.377,2.139,2.498,4.148,3.509,5.896
							c1.02,1.742,1.837,3.277,2.475,4.549C1506.275,557.65,1506.914,559.089,1506.758,559.177z"/>
					</g>
				</g>
			</g>
			<g>
				<g>
					<g>
						<path fill="#F4C587" d="M1521.84,663.208c-0.17,0.059-0.834-1.199-1.884-3.514c-0.259-0.584-0.546-1.229-0.858-1.932
							c-0.326-0.699-0.717-1.443-1.109-2.254c-0.812-1.607-1.637-3.482-2.768-5.445c-0.54-0.994-1.105-2.035-1.693-3.119
							c-0.592-1.08-1.297-2.156-1.974-3.299c-1.322-2.305-2.955-4.629-4.612-7.107c-3.459-4.861-7.544-10.002-12.269-15.01
							c-4.774-4.963-9.712-9.293-14.401-12.984c-2.396-1.775-4.639-3.52-6.877-4.951c-1.107-0.732-2.148-1.488-3.2-2.131
							c-1.054-0.641-2.065-1.256-3.032-1.842c-1.91-1.227-3.73-2.135-5.295-3.023c-0.788-0.432-1.509-0.855-2.193-1.217
							c-0.69-0.348-1.324-0.666-1.897-0.955c-2.272-1.166-3.495-1.889-3.423-2.053s1.432,0.244,3.829,1.125
							c0.602,0.227,1.265,0.475,1.989,0.746c0.719,0.297,1.487,0.664,2.319,1.039c1.652,0.775,3.583,1.596,5.575,2.734
							c1.01,0.549,2.067,1.125,3.168,1.727c1.098,0.609,2.185,1.334,3.338,2.039c2.331,1.381,4.664,3.09,7.148,4.85
							c4.864,3.658,9.961,8.029,14.838,13.1c4.826,5.115,8.945,10.418,12.363,15.451c1.637,2.566,3.23,4.98,4.496,7.375
							c0.648,1.186,1.321,2.307,1.877,3.432c0.546,1.129,1.07,2.213,1.571,3.248c1.041,2.049,1.763,4.004,2.456,5.689
							c0.334,0.848,0.662,1.629,0.924,2.365c0.238,0.74,0.457,1.418,0.654,2.033C1521.668,661.775,1522.01,663.15,1521.84,663.208z"
							/>
					</g>
				</g>
			</g>
		</g>
		<g>
			<path fill="#FFDEA9" d="M1505.164,667.511c-3.684,14.148-13.609,26.328-26.301,33.57c-0.154,0.102-0.281,0.178-0.434,0.23
				c-3.533,1.994-7.295,3.607-11.182,4.732c-0.82,0.256-1.641,0.486-2.457,0.664c-0.818,0.182-1.639,0.385-2.455,0.539
				c-0.82,0.152-1.641,0.307-2.457,0.408c-0.844,0.129-1.664,0.23-2.508,0.309c-12.742,13.84-36.002,15.172-54.064,9.773
				c-18.037-5.398-32.367-21.672-35.41-40.248c-0.154-0.895-0.283-1.791-0.385-2.686c-0.104-0.896-0.178-1.791-0.256-2.713
				c-0.102-1.125-0.154-2.277-0.205-3.43c-0.051-0.664-0.076-1.355-0.076-2.02c-0.127-2.943-0.152-5.91-0.279-8.828
				c-0.309-6.549-1.051-12.971-3.941-18.805c-1.816-3.686-4.35-6.857-7.24-9.75c-7.934-8.033-18.578-14.072-24.41-23.82
				c-7.445-12.408-5.654-28.016-8.213-42.242c-1.947-10.873-6.498-21.057-9.877-31.547s-5.578-21.852-2.711-32.496
				c2.863-10.643,12.023-20.236,23.053-20.518c9.439-0.232,17.832,6.088,24.102,13.176c6.295,7.061,11.436,15.301,18.932,21.031
				c11.361,8.699,26.328,10.518,40.248,13.74c13.945,3.225,28.863,9.365,34.824,22.363c6.217,13.611,0.816,31.137,9.312,43.445
				c2.201,3.172,5.066,5.627,8.238,7.803c4.529,3.096,9.621,5.604,14.174,8.699C1501.559,621.406,1510.77,645.994,1505.164,667.511z
				"/>
			<g>
				<path fill="#F4C17F" d="M1481.1,703.267c-0.047,0.049-0.725-0.434-1.984-1.406c-1.266-0.965-3.064-2.479-5.318-4.492
					c-4.496-4.043-10.67-10.287-17.543-18.648c-6.902-8.326-14.426-18.779-22.695-30.385c-8.266-11.629-17.348-24.402-26.889-37.801
					c-19.037-26.863-36.17-51.242-48.486-68.953c-6.088-8.832-11.033-16.004-14.502-21.027c-1.645-2.467-2.936-4.398-3.857-5.783
					c-0.859-1.334-1.287-2.055-1.225-2.092c0.057-0.043,0.592,0.6,1.568,1.854c0.996,1.328,2.393,3.188,4.172,5.559
					c3.59,4.932,8.717,11.975,15.035,20.646c12.621,17.488,29.945,41.738,48.977,68.6c9.492,13.436,18.529,26.24,26.758,37.896
					c8.191,11.676,15.555,22.164,22.285,30.572c6.682,8.428,12.652,14.777,16.953,18.977c2.158,2.094,3.861,3.701,5.041,4.762
					C1480.553,702.617,1481.145,703.21,1481.1,703.267z"/>
			</g>
			<g>
				<path fill="#F4C17F" d="M1415.008,546.203c0.277,0.199-1.693,3.062-4.189,8.008c-1.266,2.467-2.574,5.502-3.824,8.941
					c-1.188,3.451-2.291,7.314-3.078,11.459c-0.744,4.145-1.111,8.152-1.24,11.807c-0.068,3.65,0.064,6.951,0.361,9.711
					c0.561,5.516,1.361,8.896,1.035,8.984c-0.219,0.064-1.543-3.203-2.482-8.795c-0.494-2.799-0.781-6.172-0.814-9.928
					c0.025-3.756,0.336-7.887,1.107-12.16c0.816-4.26,2.006-8.232,3.336-11.744c1.371-3.488,2.855-6.539,4.314-8.969
					C1412.428,548.63,1414.834,546.058,1415.008,546.203z"/>
			</g>
			<g>
				<path fill="#F4C17F" d="M1458.061,605.378c0.277,0.182-1.488,3.049-3.723,7.93c-1.135,2.438-2.305,5.412-3.416,8.771
					c-1.072,3.375-2.047,7.146-2.744,11.168c-0.662,4.031-0.969,7.914-1.07,11.455c-0.047,3.541,0.078,6.734,0.357,9.406
					c0.516,5.352,1.24,8.629,0.92,8.715c-0.227,0.066-1.467-3.104-2.371-8.525c-0.465-2.703-0.754-5.971-0.812-9.611
					c0-3.633,0.264-7.633,0.938-11.777c0.723-4.145,1.787-8.01,2.979-11.443c1.242-3.414,2.586-6.406,3.912-8.807
					C1455.656,607.837,1457.869,605.242,1458.061,605.378z"/>
			</g>
			<g>
				<path fill="#F4C17F" d="M1418.318,625.183c-0.174,0.264-3.598-1.695-9.246-4.58c-5.652-2.867-13.596-6.59-22.783-9.492
					c-4.605-1.42-9.068-2.475-13.17-3.23c-4.115-0.664-7.85-1.117-11.002-1.219c-6.299-0.297-10.232,0.123-10.279-0.232
					c-0.031-0.207,3.863-1.152,10.311-1.232c3.223-0.078,7.053,0.23,11.277,0.811c4.201,0.662,8.779,1.686,13.479,3.133
					c9.371,2.957,17.346,6.959,22.871,10.188C1415.299,622.564,1418.457,624.972,1418.318,625.183z"/>
			</g>
			<g>
				<path fill="#F4C17F" d="M1457.658,678.332c-0.23,0.252-2.932-2.062-7.668-5.191c-2.361-1.578-5.285-3.271-8.623-4.973
					c-3.355-1.652-7.145-3.273-11.242-4.635c-4.113-1.326-8.123-2.258-11.811-2.912c-3.693-0.607-7.059-0.959-9.893-1.09
					c-5.67-0.281-9.221-0.008-9.25-0.346c-0.029-0.23,3.475-1.018,9.283-1.111c2.895-0.064,6.348,0.15,10.15,0.664
					c3.801,0.568,7.943,1.471,12.164,2.834c4.211,1.398,8.078,3.121,11.475,4.902c3.367,1.836,6.285,3.711,8.58,5.471
					C1455.449,675.457,1457.818,678.166,1457.658,678.332z"/>
			</g>
		</g>
		<path opacity="0.4" fill="#F7996F" d="M1596.508,683.81c-15.633,16.861-38.404,26.354-61.33,27.146l0.717,4.811
			c-0.639-1.586-1.254-3.172-1.869-4.785c-11.947,0.256-23.871-1.791-34.873-6.498c-10.209,3.531-21.158,3.736-31.904,1.561
			c-0.027,0-0.027,0-0.053,0c-0.793,0.23-1.611,0.461-2.404,0.664c-0.818,0.182-1.639,0.385-2.455,0.539
			c-0.82,0.152-1.641,0.307-2.457,0.408c-0.844,0.129-1.664,0.23-2.508,0.309c-12.742,13.84-36.002,15.172-54.064,9.773
			c-18.037-5.398-32.367-21.672-35.41-40.248c-0.154-0.895-0.283-1.791-0.385-2.686c-0.104-0.896-0.178-1.791-0.256-2.713
			c-0.102-1.125-0.154-2.277-0.205-3.43c-0.051-0.664-0.076-1.355-0.076-2.02c-0.127-2.943-0.152-5.91-0.279-8.828
			c-0.309-6.549-1.051-12.971-3.941-18.805c-1.816-3.686-4.35-6.857-7.24-9.75l56.52-7.111l1.918-0.256l0.717-0.104l2.301-0.281
			l15.225-1.918l22.414-9.697l1.738-0.742l5.322-2.303h0.027c2.404-2.227,4.836-4.453,7.316-6.652
			c10.697-9.596,21.953-19.139,33.084-28.145c23.359-18.934,46.055-35.539,61.174-45.518c0,0,9.469-13.307,37.178-17.986
			c-5.527,11.998-10.977,23.869-9.541,36.689c1.637,14.764,12.1,26.764,18.932,39.939
			C1626.137,616.544,1620.559,657.89,1596.508,683.81z"/>
		<path opacity="0.3" fill="#FFF3E1" d="M408.084,578.488c0,0,191.896-20.104,327.502-152.67
			c135.607-132.566,194.455-124.031,264.816-40.025c70.363,84.004,94.67,255.773,94.67,255.773s63.965,291.34-260.979,245.285
			c-324.945-46.055-402.982-108.912-529.633-109.467C177.809,776.83,54.994,579.716,408.084,578.488z"/>
		<path fill="#FCE6CA" d="M68.139,448.392c0,0,15.129-29.688,95.967-29.688c80.836,0,84.785,19.023,112.947,19.023
			c28.152,0,39.695-12.051,90.979-12.299c51.291-0.248,46.279,12.299,66.732,13.553c20.459,1.254,17.896-7.732,48.67-5.434
			c30.768,2.297,56.414,39.936,0,39.936c-56.426,0-426.975,0-426.975,0L68.139,448.392z"/>
		<path fill="#F9EDE1" d="M277.248,200.49c0,0,15.129-29.688,95.967-29.688c80.836,0,84.785,19.025,112.947,19.025
			c28.152,0,39.695-12.053,90.979-12.301c51.291-0.246,46.279,12.301,66.732,13.553c20.459,1.254,17.896-7.732,48.67-5.434
			c30.768,2.297,56.414,39.936,0,39.936c-56.426,0-426.975,0-426.975,0L277.248,200.49z"/>
		<path fill="#FCE6CA" d="M1106.15,310.164c0,0,8.838-17.342,56.057-17.342c47.217,0,49.523,11.111,65.975,11.111
			c16.443,0,23.186-7.039,53.141-7.184c29.963-0.145,27.033,7.184,38.98,7.916c11.951,0.734,10.453-4.516,28.43-3.174
			c17.973,1.342,32.951,23.326,0,23.326c-32.961,0-249.402,0-249.402,0L1106.15,310.164z"/>
		<g>
			<path fill="#FFF3E1" d="M2163.803,901.906c-13.713,15.787-28.938,29.988-45.338,42.678h-612.559
				c-34.514,0-48.381-6.447-53.576-10.311c-0.947-0.895-1.893-1.816-2.816-2.738c-0.023-0.025-0.023-0.025-0.023-0.025
				c-12.564-12.613-22.184-24.92-28.17-34.822c-22.158-36.639-33.34-82.234-19.83-122.84
				c25.432-76.477,121.1-101.756,201.695-101.244c80.572,0.512,167.973,13.178,236.008-30.012
				c42.369-26.891,70.566-72.129,113.09-98.711c84.666-52.912,208.168-8.777,254.658,79.572
				C2253.406,711.802,2229.279,826.556,2163.803,901.906z"/>
		</g>
		<g>
			<path fill="#2D1E56" d="M1760.324,571.121"/>
			<path fill="#F9D19D" d="M1487.619,631.404c0,0-125.715,15.592-165.676,27.287c-39.963,11.695-102.33,30.217-110.619,106.232
				c0,0-12.18,6.824-12.18,17.543s0.971,47.754,13.156,75.529h1014.293l51.893-48c0,0,4.756-10.234,5.117-19.736
				c0.369-9.502-0.729-34.354-2.191-36.912s-10.598-11.693-23.021-19.004c0,0,4.014-25.582-2.926-50.801
				c-6.945-25.217-15.959-51.773-39.35-52.139H1487.619z"/>
			<path fill="#FFDEA9" d="M1226.141,718.494c-7.451,12.502-12.777,27.715-14.816,46.43c0,0-12.18,6.824-12.18,17.543
				s0.971,47.754,13.156,75.529h1014.293l51.893-48c0,0,4.756-10.234,5.117-19.736c0.369-9.502-0.729-34.354-2.191-36.912
				s-10.598-11.693-23.021-19.004c0,0,0.996-6.355,1.133-15.85H1226.141z"/>
			<g>
				<path fill="#F7996F" d="M1227.189,716.8c-0.594,0.955-1.172,1.936-1.74,2.924h59.699c5.465,0,24.701-5.967,39.363-12.934
					c15.078-7.158,112.492-39.883,138.98-46.684c21.229-5.449,38.713-18.244,47.51-28.703h-3.873
					c-9.006,9.74-25.527,21.035-44.357,25.873c-26.578,6.822-124.363,39.676-139.514,46.875
					c-15.191,7.217-33.592,12.648-38.109,12.648H1227.189z"/>
				<path fill="#F7996F" d="M1904.969,857.996c5.936-22.674,21.602-86.846,21.207-130.609c-0.451-49.852-5.412-79.379-29.914-95.982
					h-5.586c26.838,15.379,32.113,44.619,32.578,96.01c0.395,43.916-15.561,108.721-21.305,130.582H1904.969z"/>
				<path fill="#F7996F" d="M1526.703,679.375c4.098-27.455,29.633-41.674,45.574-47.971h-7.336
					c-16.268,7.582-37.334,22.115-41.125,47.537c-3.676,24.613-13.939,108.047,2.387,179.055h2.994
					C1512.76,787.359,1523.039,703.929,1526.703,679.375z"/>
			</g>
			<path fill="#F7996F" d="M2268.621,803.216c-4.508,0-13.482-0.084-20.689-12.914l0.01,0.234
				c-20.961-36.328-60.117-60.838-105.066-60.838c-60.697,0-110.842,44.611-119.775,102.812l-0.113-0.242
				c-2.207,10.859-12.021,24.264-21.766,24.264s-481.439,0-503.857,0s-24.018-24.264-24.018-24.264l-0.096,0.346
				c-8.896-58.254-59.059-102.916-119.789-102.916c-67.014,0-121.332,54.322-121.332,121.338c0,1.502,0.133,2.969,0.188,4.459
				c-5.086,0-10.441,0-12.043,0c-3.283,0-10.738-4.459-10.738-4.459s0,14.51,0,19.627s15.033,19.979,29.33,19.979h3.887h213.682
				h11.615h560.223h21.043h156.08c0,0,28.859-6.588,46.148-19.545v0.016c0,0,17.438-11.658,20.615-18.234
				c3.158-6.582,6.578-17.785,7.062-22.658c0.484-4.875,1.834-27.004,1.834-27.004S2273.123,803.216,2268.621,803.216z"/>
			<path fill="#EF8E67" d="M1447.023,851.037c0,51.67-41.895,93.559-93.562,93.559c-51.672,0-93.559-41.889-93.559-93.559
				c0-51.678,41.887-93.562,93.559-93.562C1405.129,757.474,1447.023,799.359,1447.023,851.037z"/>
			<circle fill="#EEEEEE" cx="1353.459" cy="851.037" r="63.943"/>
			<path fill="#EF8E67" d="M2236.428,851.037c0,51.67-41.887,93.559-93.553,93.559c-51.678,0-93.561-41.889-93.561-93.559
				c0-51.678,41.883-93.562,93.561-93.562C2194.541,757.474,2236.428,799.359,2236.428,851.037z"/>
			<path fill="#EEEEEE" d="M2206.809,851.037c0,35.312-28.621,63.943-63.934,63.943c-35.322,0-63.949-28.631-63.949-63.943
				c0-35.314,28.627-63.943,63.949-63.943C2178.188,787.093,2206.809,815.722,2206.809,851.037z"/>
			<path fill="#FFFFFF" d="M1273.09,723.744c-11.309,20.086-30.617,36.367-43.127,36.367c-12.516,0-13.498-16.281-2.193-36.367
				c11.301-20.078,30.619-36.363,43.127-36.363C1283.41,687.38,1284.389,703.662,1273.09,723.744z"/>
			<path fill="#FFF3E1" d="M1487.619,631.404c0,0-0.488,16.568,16.562,16.568c17.057,0,711.934-16.568,711.934-16.568
				s-0.971-6.09-7.797-14.861s-63.83-97.703-76.504-100.625c-12.672-2.926-201.256-8.773-249.49-8.773
				c-48.246,0-238.775,5.846-251.443,9.744C1618.209,520.791,1532.934,582.679,1487.619,631.404z"/>
			<g>
				<path fill="#F7996F" d="M1923.383,638.345l-16.574-126.697l-21.93,3.049l-12.809,124.859
					C1889.271,639.152,1906.418,638.746,1923.383,638.345z"/>
				<path fill="#F7996F" d="M1574.438,646.482c18.975-27.682,73.615-104.928,109.072-129.955l-40.203,3.654
					c0,0-75.096,74.496-118.828,127.406C1536.592,647.332,1553.619,646.953,1574.438,646.482z"/>
				<path fill="#F7996F" d="M2208.318,616.542c-6.826-8.771-63.83-97.703-76.504-100.625c-3.602-0.832-21.516-1.904-46.359-3.006
					l-10.529,1.055l72.191,119.08c42.568-1.012,68.998-1.643,68.998-1.643S2215.145,625.314,2208.318,616.542z"/>
			</g>
			<path fill="#FFDEA9" d="M1614.076,526.533c0,0,12.418-17.439,50.428-19.389c38.004-1.949,194.914-11.693,302.605-10.232
				c107.697,1.463,138.635,5.359,149.844,5.359s52.871,2.682,52.871,4.873c0,2.195-25.006,11.336-31.992,12.979
				C2130.84,521.765,1930.559,515.429,1614.076,526.533z"/>
			<path fill="#F7996F" d="M1869.164,679.525c0,11.705-9.492,21.195-21.195,21.195c-11.709,0-21.199-9.49-21.199-21.195
				c0-11.709,9.49-21.199,21.199-21.199C1859.672,658.326,1869.164,667.816,1869.164,679.525z"/>
			<path fill="#FFF3E1" d="M1885.248,679.525c0,3.629-16.693,6.576-37.279,6.576c-20.584,0-37.279-2.947-37.279-6.576
				c0-3.633,16.695-6.58,37.279-6.58C1868.555,672.945,1885.248,675.892,1885.248,679.525z"/>
			<path fill="#F7996F" d="M2252.723,718.542c1.502,9.582-5.041,17.354-14.625,17.354l0,0c-9.58,0-18.574-7.771-20.084-17.354
				l-7.141-45.422c-1.508-9.586,5.039-17.352,14.623-17.352l0,0c9.582,0,18.576,7.766,20.082,17.352L2252.723,718.542z"/>
		</g>
		<g>
			<path fill="#FFDEA9" d="M2505.738,359.044c-5.479,17.041-12.871,33.596-16.018,51.197c-4.172,23.131-1.254,48.463-13.33,68.598
				c-12.922,21.57-40.248,31.957-51.404,54.523c-9.363,18.961-4.912,41.578-8.34,62.457c-4.889,29.629-27.404,55.623-55.957,64.834
				c-0.514,0.18-1.051,0.332-1.561,0.486c-29.297,8.752-67.061,6.627-87.762-15.863c-12.023-1.074-23.668-4.859-34.182-10.771
				c-0.258-0.129-0.488-0.256-0.717-0.408c-12.18-6.936-22.799-16.709-30.68-28.273c-5.424-7.982-9.566-16.836-11.998-26.225
				c-6.117-23.414-1.406-49.023,11.334-69.494c6.295-10.105,14.508-18.959,24.359-25.662c12.535-8.547,27.734-14.303,36.357-26.789
				c13.816-19.982,5.016-48.408,15.146-70.516c9.67-21.107,33.902-31.061,56.52-36.307c3.146-0.742,6.32-1.432,9.518-2.098
				c19.727-4.17,39.941-8.061,55.83-20.213c12.178-9.312,20.52-22.67,30.729-34.156c10.186-11.514,23.795-21.775,39.146-21.393
				c17.91,0.463,32.75,16.018,37.406,33.314C2514.795,323.556,2511.213,342.005,2505.738,359.044z"/>
			<g>
				<path fill="#F4C17F" d="M2464.186,328.24c0.102,0.078-0.562,1.254-1.969,3.402c-1.512,2.252-3.609,5.398-6.27,9.391
					c-5.629,8.162-13.662,19.805-23.541,34.131c-15.428,22.186-35.512,50.814-58.105,82.771
					c-6.65,9.441-13.561,19.217-20.621,29.168c-4.861,6.832-9.623,13.535-14.305,20.137c0,0,0-0.025-0.025,0
					c-0.613,0.869-1.227,1.74-1.842,2.609c-9.594,13.512-18.807,26.457-27.479,38.637c-10.031,14.045-19.371,27.07-28.094,38.404
					c-1.688,2.148-3.328,4.246-4.965,6.268c-1.279,1.588-2.533,3.148-3.787,4.656c-11.154,13.562-21.184,23.719-28.477,30.27
					c-3.045,2.738-5.578,4.887-7.521,6.422c-0.41,0.334-0.768,0.613-1.127,0.871c-2.021,1.586-3.121,2.379-3.199,2.277
					c0-0.154,0.973-1.102,2.764-2.791c0.258-0.229,0.537-0.486,0.846-0.766c1.842-1.664,4.324-4.018,7.344-6.961
					c6.982-6.805,16.68-17.117,27.529-30.805c10.898-13.664,22.875-30.678,36.18-49.639c13.355-18.934,28.016-39.709,43.445-61.533
					c2.406-3.377,4.785-6.756,7.139-10.08c0.717-0.973,1.406-1.971,2.098-2.943c4.504-6.346,8.928-12.59,13.254-18.678
					c21.928-30.832,41.629-58.336,57.006-79.65c10.26-14.098,18.6-25.51,24.41-33.518c2.891-3.863,5.166-6.883,6.779-9.031
					C2463.213,329.289,2464.057,328.24,2464.186,328.24z"/>
			</g>
			<g>
				<path fill="#F4C17F" d="M2340.152,382.673c-0.449,0.326,2.738,4.971,6.801,12.998c2.064,4.008,4.188,8.936,6.213,14.518
					c1.924,5.605,3.717,11.877,4.986,18.605c1.225,6.73,1.805,13.234,2.02,19.17c0.119,5.922-0.09,11.279-0.576,15.764
					c-0.908,8.955-2.219,14.439-1.684,14.582c0.35,0.107,2.494-5.195,4.023-14.277c0.795-4.539,1.264-10.018,1.324-16.113
					c-0.045-6.1-0.549-12.805-1.809-19.746c-1.32-6.916-3.254-13.363-5.398-19.062c-2.232-5.662-4.643-10.615-7.016-14.559
					C2344.35,386.615,2340.441,382.437,2340.152,382.673z"/>
			</g>
			<g>
				<path fill="#F4C17F" d="M2270.26,478.746c-0.459,0.291,2.408,4.949,6.043,12.871c1.844,3.959,3.736,8.789,5.551,14.244
					c1.729,5.477,3.328,11.598,4.453,18.127c1.064,6.545,1.574,12.85,1.738,18.6c0.076,5.746-0.135,10.932-0.584,15.271
					c-0.83,8.684-2.014,14.006-1.49,14.148c0.365,0.105,2.375-5.043,3.85-13.846c0.748-4.391,1.219-9.689,1.312-15.6
					c0-5.898-0.418-12.393-1.523-19.121c-1.16-6.73-2.889-13.006-4.838-18.576c-2.018-5.545-4.188-10.402-6.352-14.301
					C2274.162,482.738,2270.564,478.525,2270.26,478.746z"/>
			</g>
			<g>
				<path fill="#F4C17F" d="M2334.779,510.894c0.275,0.43,5.832-2.752,15.008-7.434c9.18-4.654,22.072-10.699,36.994-15.412
					c7.471-2.305,14.723-4.014,21.379-5.242c6.676-1.078,12.738-1.814,17.865-1.98c10.23-0.48,16.605,0.203,16.672-0.375
					c0.064-0.338-6.252-1.873-16.732-2c-5.227-0.127-11.453,0.375-18.305,1.312c-6.826,1.074-14.256,2.738-21.883,5.09
					c-15.217,4.797-28.164,11.295-37.119,16.537C2339.682,506.646,2334.555,510.552,2334.779,510.894z"/>
			</g>
			<g>
				<path fill="#F4C17F" d="M2270.914,597.183c0.365,0.41,4.742-3.352,12.449-8.428c3.842-2.562,8.58-5.314,13.992-8.078
					c5.457-2.68,11.604-5.311,18.26-7.523c6.666-2.152,13.188-3.662,19.17-4.729c5.992-0.986,11.453-1.555,16.061-1.766
					c9.211-0.457,14.957-0.014,15.027-0.562c0.045-0.373-5.652-1.648-15.076-1.803c-4.703-0.104-10.314,0.244-16.496,1.078
					c-6.152,0.924-12.879,2.387-19.734,4.598c-6.832,2.271-13.104,5.068-18.631,7.961c-5.467,2.982-10.203,6.025-13.932,8.883
					C2274.498,592.513,2270.65,596.91,2270.914,597.183z"/>
			</g>
		</g>
		<path opacity="0.4" fill="#F7996F" d="M2375.555,488.433c-0.461,1.434-0.998,2.816-1.639,4.172
			c-4.834,10.465-14.582,18.447-26.812,20.572l4.707,51.146l0.205,2.277l8.674,94.053c-0.514,0.18-1.051,0.332-1.561,0.486
			c-29.297,8.752-67.061,6.627-87.762-15.863c-12.023-1.074-23.668-4.859-34.182-10.771c-0.41,0.334-0.768,0.613-1.127,0.871
			c-2.021,1.586-3.121,2.379-3.199,2.277c0-0.154,0.973-1.102,2.764-2.791c0.258-0.229,0.537-0.486,0.846-0.766
			c-12.18-6.936-22.799-16.709-30.68-28.273l-0.664-95.719c6.295-10.105,14.508-18.959,24.359-25.662
			c12.535-8.547,27.734-14.303,36.357-26.789c13.816-19.982,5.016-48.408,15.146-70.516c9.67-21.107,33.902-31.061,56.52-36.307
			c3.146-0.742,6.32-1.432,9.518-2.098c6.191,6.857,10.186,16.504,12.129,27.709l14.303,77.016l0.844,4.477l2.506,13.484
			C2377.781,477.304,2377.27,483.113,2375.555,488.433z"/>
		<rect x="1807.816" y="220.076" fill="#FFDEA9" width="97.955" height="5.281"/>
		<rect x="1778.332" y="199.934" fill="#FFDEA9" width="29.484" height="5.281"/>
		<rect x="1820.594" y="199.934" fill="#FFDEA9" width="52.621" height="5.281"/>
		<rect x="1868.582" y="69.117" fill="#FFDEA9" width="150.793" height="5.283"/>
		<rect x="1683.51" y="69.117" fill="#FFDEA9" width="86.217" height="5.283"/>
		<rect x="1877.158" y="87.667" fill="#FFDEA9" width="97.957" height="5.281"/>
		<rect x="1883.875" y="48.974" fill="#FFDEA9" width="29.482" height="5.283"/>
		<rect x="2098.158" y="48.974" fill="#FFDEA9" width="29.484" height="5.283"/>
		<rect x="1926.137" y="48.974" fill="#FFDEA9" width="144.867" height="5.283"/>
		<rect x="1766.76" y="181.66" fill="#FFDEA9" width="52.625" height="5.281"/>
		<g>
			<path fill="#FFDEA9" d="M1443.201,129.048c2.463-0.459,4.977-1.648,7.32-3.045c1.637-0.281,3.451-0.615,5.375-0.877
				c1.525-0.205,3.078-0.371,4.719-0.371h5.695h18.986c10.395,0,18.816-8.176,18.816-18.27c0-5.816-5.238-6.301-11.635-5.697
				c9.689-3.076,19.215-4.875,25.736-4.875h66.221l40.684-25.977h37.311l-15.1,25.977h128.355l21.928-20.176l5.436-9.213
				l5.803-1.129l17.842-16.422h34.746l-1.58,4.662l-14.438,31.154l-0.943-0.891l-1.266,1.252l-1.262,1.254l1.885,1.795
				l16.629,15.805h-19.09l-3.992-1.896l-35.662-16.949l-3.318-1.574l-1.594,3.15l39.09,18.572l-8.748,18.871l-13.738,29.449
				c-7.811-9.184-40.717-14.094-71.988-14.121h-0.016h-0.012c-0.072,0-0.146,0-0.213,0h-1.803v0.424
				c-4.236,1.754-7.227,8.871-7.227,17.936c0,1.637,0.127,3.17,0.309,4.666h-50.377l59.648,46.58h-50.541l-104.131-46.58h-86.674
				h-11.078c-0.295,0-0.574-0.084-0.875-0.084c-14.406-0.26-16.523-1.109-45.543-2.781c-35.523-2.047-35.82-12.27-35.82-12.27
				C1406.473,142.72,1411.893,134.83,1443.201,129.048z"/>
			<path fill="#FFC48F" d="M1811.502,153.845c0,0.039,0.039,0.096,0.039,0.143c0,0.885-0.471,1.781-1.354,2.67
				c-0.656,0.667-1.615,1.336-2.744,1.995c-8.736,5.096-31,9.588-60.459,10.121c1.666-2.424,2.85-5.936,3.369-10.121
				c0.186-1.494,0.312-3.03,0.312-4.665c0-6.225-1.426-11.498-3.682-14.779C1785.01,139.888,1811.121,147.191,1811.502,153.845z"/>
			<path fill="#FFC48F" d="M1742.99,168.027c-0.553,0.5-1.086,0.814-1.582,0.814c-0.068,0-0.154-0.053-0.225-0.068
				c-0.568-0.08-1.193-0.492-1.803-1.217c-1.369-1.609-2.68-4.719-3.27-8.91c-0.205-1.447-0.344-2.979-0.344-4.665
				c0-6.59,1.762-11.402,3.613-13.572c0.609-0.723,1.234-1.125,1.803-1.221c0.07-0.014,0.156-0.062,0.225-0.062
				c0.496,0,1.029,0.314,1.582,0.824c2.002,1.854,4.066,6.91,4.066,14.031c0,1.686-0.146,3.217-0.34,4.665
				C1746.051,163.309,1744.516,166.609,1742.99,168.027z"/>
			<g>
				<polygon fill="#FFC48F" points="1694.223,120.876 1720.41,120.876 1716.797,107.73 1690.609,107.73 				"/>
				<polygon fill="#FFC48F" points="1650.873,120.876 1677.064,120.876 1673.451,107.73 1647.26,107.73 				"/>
				<polygon fill="#FFC48F" points="1607.521,120.876 1633.713,120.876 1630.1,107.73 1603.91,107.73 				"/>
				<polygon fill="#FFC48F" points="1564.176,120.876 1590.363,120.876 1586.75,107.73 1560.559,107.73 				"/>
				<path fill="#FFC48F" d="M1500.959,96.369l-50.438,30.869C1450.521,127.238,1529.424,137.109,1500.959,96.369z"/>
			</g>
		</g>
		<path opacity="0.4" fill="#F7996F" d="M2283.598,790.248c-0.18,4.58-1.357,9.314-2.533,12.998c0,0.104-0.23,3.838-0.537,8.521
			c-0.436,6.779-1.021,15.58-1.305,18.447c-0.484,4.887-3.916,16.094-7.061,22.668c-0.795,1.664-2.51,3.635-4.605,5.682
			c-2.1,1.994-4.555,4.043-6.908,5.885c-4.76,3.736-9.111,6.652-9.111,6.652c-3.838,2.865-8.262,5.449-12.818,7.701
			c-2.533,1.254-5.117,2.404-7.65,3.48c-9.414,26.533-30.445,47.562-56.979,56.953c-9.775,3.455-20.264,5.348-31.215,5.348
			c-10.953,0-21.441-1.893-31.217-5.348h2.125c0-4.068,2.354-7.752,6.062-9.441c3.609-1.637,13.408-4.938,18.705-6.703
			c2.125-0.689,3.582-2.635,3.709-4.861l0.154-2.635h0.768l0.869-13.203h-1.637c0,0-0.154-31.854,0.078-76.578h-60.205
			l46.848-311.053l-16.656-11.205l-2.891-1.561c3.172,0.178,5.525,0.281,7.367,0.281c11.207,0,52.861,2.686,52.861,4.861
			c0,1.1-6.244,3.939-13.383,6.703c-7.111,2.764-15.119,5.477-18.6,6.295c19.113,18.139,64.451,88.631,70.49,96.408
			c6.83,8.775,7.777,14.865,7.777,14.865c23.412,0.357,32.418,26.918,39.352,52.145c6.68,24.205,3.25,48.768,2.969,50.66
			c-0.025,0.078-0.025,0.129-0.025,0.129c12.408,7.316,21.543,16.451,23.027,19.01
			C2282.881,755.912,2283.982,780.755,2283.598,790.248z"/>
		<path fill="#F9E0BD" d="M1620.586,369.595c0,0,11.641-22.84,73.83-22.84c62.191,0,65.23,14.635,86.895,14.635
			c21.662,0,30.537-9.271,69.996-9.463c39.459-0.189,35.605,9.463,51.342,10.43c15.736,0.963,13.764-5.951,37.439-4.182
			c23.674,1.768,43.402,30.725,0,30.725c-43.406,0-328.486,0-328.486,0L1620.586,369.595z"/>
		<path fill="#FFDEA9" d="M2054.592,149.984c0,16.075-13.033,29.106-29.107,29.106c-16.072,0-29.105-13.031-29.105-29.106
			c0-16.076,13.033-29.107,29.105-29.107C2041.559,120.876,2054.592,133.908,2054.592,149.984z"/>
		<circle fill="#FFDEA9" cx="2062.118" cy="207.268" r="12.808"/>
		<path fill="#FFF3E1" d="M2109.652,951.025h342.58c3.26,0,5.898-2.643,5.898-5.9l0,0c0-3.26-2.639-5.896-5.898-5.896h-342.58
			c-3.256,0-5.895,2.637-5.895,5.896l0,0C2103.758,948.382,2106.396,951.025,2109.652,951.025z"/>
		<polygon fill="#FFCD97" points="2269.271,267.472 2268.271,286.125 2266.84,313.707 2264.971,348.81 2249.672,352.47 
			2233.064,348.81 2232.58,306.72 2232.4,290.705 2232.094,263.685 		"/>
		<path fill="#1AB0B7" d="M2351.221,461.523l-17.643-94.975c-3.908-22.432-15.979-38.543-37.57-38.625h-15.451l-30.898,24.539
			l-27.959-24.539h-19.762c-26.959-0.102-41.188,16.92-41.305,48.123l18.215,23.664l2.877,412.045h168.213l-28.416-308.467
			C2341.189,499.882,2354.475,481.259,2351.221,461.523z"/>
		<path fill="#078985" d="M2162.148,813.958l172.164-2.203c0,0-6.488-176.807-15.924-203.246s-146.49,13.127-146.49,13.127
			L2162.148,813.958z"/>
		<polygon fill="#FFCD97" points="2183.879,921.343 2165.844,921.343 2169.93,858.515 2185.873,901.054 		"/>
		<path fill="#565656" d="M2177.725,939.228h-40.922c0-4.062,2.373-7.746,6.072-9.43c3.607-1.641,13.396-4.949,18.697-6.703
			c2.123-0.699,3.594-2.633,3.725-4.863l0.145-2.648h18.873v17.051C2184.314,936.273,2181.365,939.228,2177.725,939.228z"/>
		<polygon fill="#FFCD97" points="2264.812,921.343 2282.852,921.343 2283.318,899.878 2262.738,900.277 		"/>
		<path fill="#565656" d="M2270.969,939.228h40.924c0-4.062-2.379-7.746-6.076-9.43c-3.602-1.641-13.396-4.949-18.691-6.703
			c-2.121-0.699-3.602-2.633-3.73-4.863l-0.146-2.648h-18.873v17.051C2264.375,936.273,2267.332,939.228,2270.969,939.228z"/>
		<path fill="#565656" d="M2283.318,899.878c0,0,37.049-195.389,31.76-294.447l-6.096-70.838l-125.984-1.445l-11.271,47.932
			c-7.252,92.496-6.295,321.309-6.295,321.309h20.314l55.463-267.619c1.678-4.209,7.625-4.174,9.242,0.039l12.287,265.469
			L2283.318,899.878z"/>
		<path fill="#F23B51" d="M2308.539,641.25h-132.445l34.627-304.096l38.938,15.309l35.021-15.309l36.482,289.779
			C2322.119,634.533,2316.195,641.25,2308.539,641.25z"/>
		<path fill="#1AB0B7" d="M2204.898,333.625l-12.129,23.482l-25.139-11.719l-52.379,109.877
			c-7.922,18.479-5.686,33.365,12.527,44.131l7.727,4.158l8.984-20.943l19.035-43.234l-58.201,386.445h80.549l41.49-479.615
			L2204.898,333.625z"/>
		<path fill="#078985" d="M2343.893,581.863l-15.926-38.676c-2.871-6.979-10.467-10.566-17.564-8.619L2211.949,326.4
			c-0.859-1.818-3.025-2.594-4.842-1.734c-1.82,0.857-2.598,3.027-1.736,4.84l98.693,208.666c-4.246,4.084-5.803,10.49-3.42,16.268
			l15.924,38.678c3.105,7.547,11.742,11.145,19.289,8.037C2343.402,598.046,2347.002,589.41,2343.893,581.863z"/>
		<polygon fill="#FFCD97" points="2144.49,482.611 2156.52,501.38 2171.727,503.404 2165.432,523.673 2135.506,503.554 		"/>
		<path fill="#EDBA8C" d="M2268.271,286.125l-1.432,27.582c-5.91,4.631-14.545,7.119-22.031,5.201
			c-4.244-1.09-9.518-6.711-12.229-12.188l-0.18-16.016L2268.271,286.125z"/>
		<path fill="#F23B51" d="M2249.658,352.462h-1.641c-17.221,0-33.369-8.35-43.326-22.398l-0.32-0.451
			c-6.055-8.549-7.055-19.689-2.611-29.176l16.281-34.758l13.07,33.514L2249.658,352.462z"/>
		<path fill="#F23B51" d="M2249.658,352.462c18.041,0.498,35.1-8.197,45.297-23.092l1.105-1.621
			c6.125-8.953,6.77-20.566,1.668-30.135l-16.602-31.137l-13.072,33.518L2249.658,352.462z"/>
		<path fill="#565656" d="M2289.912,245.982c0,20.777-16.844,37.617-37.623,37.617c-20.768,0-37.611-16.84-37.611-37.617
			c0-20.775,16.844-37.619,37.611-37.619C2273.068,208.363,2289.912,225.207,2289.912,245.982z"/>
		<path fill="#FFCD97" d="M2251.357,309.48c-18.404,0-33.316-14.92-33.316-33.32l-0.166-26.232c0-18.402,66.805-20.371,66.805-1.968
			v28.201C2284.68,294.56,2269.756,309.48,2251.357,309.48z"/>
		<path fill="#565656" d="M2250.688,214.158c-24.416,0.025-32.646,9.477-32.646,30.137l-1.322,1.35l0.949,7.951
			c0,0,2.211-11.554,10.619-11.724h46.141c7.945-0.215,10.252,11.32,10.252,11.32l1.688-7.347l-0.166-1.703
			C2286.201,223.479,2278.223,214.135,2250.688,214.158z"/>
		<path fill="#FFCD97" d="M2279.529,278.125l-1.355-0.088l1.305-19.826l5.111,0.336c2.816,0.184,4.947,2.615,4.754,5.428
			l-0.381,5.889C2288.643,274.748,2284.418,278.451,2279.529,278.125z"/>
		<path fill="#FFCD97" d="M2222.271,279.228l1.361-0.09l-1.305-19.824l-5.115,0.332c-2.814,0.186-4.947,2.617-4.756,5.43
			l0.381,5.887C2213.158,275.847,2217.381,279.55,2222.271,279.228z"/>
		<path fill="#565656" d="M2269.438,268.964c1.332,0.088,2.496-0.932,2.584-2.26l0.064-1.012c0.09-1.33-0.93-2.492-2.26-2.578
			c-1.332-0.088-2.49,0.93-2.58,2.258l-0.064,1.014C2267.09,267.716,2268.105,268.876,2269.438,268.964z"/>
		<path fill="#565656" d="M2232.689,268.609c1.336,0,2.422-1.09,2.422-2.428v-1.01c0-1.334-1.086-2.426-2.422-2.426
			s-2.426,1.092-2.426,2.426v1.01C2230.264,267.519,2231.354,268.609,2232.689,268.609z"/>
		<path fill="#D34539" d="M2253.117,297.626l-4.889-0.062c-5.535-0.076-10.012-3.588-10.006-7.85l24.932,0.334
			C2263.145,294.308,2258.648,297.703,2253.117,297.626z"/>
		<path fill="#FFFFFF" d="M2245.875,293.408l9.666,0.131c3.162,0.043,5.871-1.398,7.035-3.486l-23.721-0.316
			C2240.01,291.855,2242.713,293.367,2245.875,293.408z"/>
		<path fill="#FFAE83" d="M2250.008,284.644c-3.762-0.943-5.842-2.385-6.32-4.371c-0.314-1.311,0.154-2.371,0.941-4.133
			c0.34-0.762,0.758-1.699,1.219-2.893c0.828-2.119,1.512-4.309,2.035-6.51c0.115-0.486,0.604-0.787,1.092-0.674
			c0.5,0.125,0.795,0.609,0.674,1.096c-0.539,2.279-1.246,4.549-2.102,6.746c-0.475,1.229-0.906,2.191-1.256,2.975
			c-0.75,1.678-1.002,2.295-0.84,2.963c0.383,1.59,2.998,2.814,7.559,3.555c0.482,0.086,0.832,0.549,0.752,1.039
			c-0.078,0.498-0.545,0.834-1.045,0.754C2251.734,285.035,2250.834,284.849,2250.008,284.644z"/>
		<path fill="#565656" d="M2289.102,250.906l-2.133-3.255l-7.154,11.49c-2.4-2.75-6.266-4.549-10.623-4.549
			c-5.627,0-10.43,2.984-12.322,7.164h-11.486c-1.891-4.18-6.688-7.164-12.314-7.164c-4.299,0-8.109,1.746-10.52,4.426l-4.881-7.691
			l-1.674,3.941l4.496,7.086c-0.396,1.049-0.611,2.166-0.611,3.322c0,6.111,5.918,11.084,13.189,11.084
			c7.266,0,13.186-4.973,13.186-11.084c0-0.092-0.016-0.186-0.018-0.285h9.783c0,0.1-0.012,0.193-0.012,0.285
			c0,6.111,5.912,11.084,13.184,11.084c7.268,0,13.182-4.973,13.182-11.084c0-1.078-0.189-2.117-0.529-3.104L2289.102,250.906z
			 M2233.068,273.123c-5.266,0-9.553-3.34-9.553-7.447c0-4.104,4.287-7.445,9.553-7.445c5.262,0,9.545,3.342,9.545,7.445
			C2242.613,269.783,2238.33,273.123,2233.068,273.123z M2269.191,273.123c-5.266,0-9.549-3.34-9.549-7.447
			c0-4.104,4.283-7.445,9.549-7.445c5.264,0,9.549,3.342,9.549,7.445C2278.74,269.783,2274.455,273.123,2269.191,273.123z"/>
		<path fill="#565656" d="M2276.869,387.191l-0.357,9.594l-2.432,64.4c-0.127,2.918-2.584,5.219-5.527,5.117l-44.059-1.662
			l-6.602-0.258c-2.943-0.102-5.244-2.582-5.141-5.525l2.812-73.969c0.104-2.943,2.559-5.221,5.502-5.117l50.686,1.918
			C2274.668,381.792,2276.971,384.273,2276.869,387.191z"/>
		<path fill="#4C4C4C" d="M2276.512,396.785l-2.432,64.4c-0.127,2.918-2.584,5.219-5.527,5.117l-44.059-1.662l2.432-64.4
			c0.104-2.943,2.584-5.221,5.5-5.117L2276.512,396.785z"/>
		<path fill="#FFCD97" d="M2314.006,467.925l-43.094-13.773l-11.111-20.988c-0.578-1.174-2.193-1.295-2.939-0.221l-4.234,6.127
			l-14.977-14.801c-1.805-1.715-4.658-1.639-6.377,0.166c-1.176,1.242-1.555,3.049-0.957,4.662l4.58,12.436
			c1.016,2.746,2.639,5.227,4.768,7.246l16.396,17.643c1.738,1.875,3.76,3.463,5.994,4.711L2320,503.554L2314.006,467.925z"/>
	</g>
</g>
</svg>
