<svg width="60" height="60" viewBox="0 0 60 60" fill="none" xmlns="http://www.w3.org/2000/svg">
<path d="M57.2723 30.2516V21.8188C57.2723 18.9593 55.0543 16.6337 52.2519 16.4082L44.4205 2.72948C43.6948 1.46439 42.5229 0.560181 41.1206 0.184719C39.725 -0.188187 38.2656 0.007662 37.0165 0.734681L10.17 16.3643H5.45488C2.44671 16.3643 0.00038147 18.8105 0.00038147 21.8188V54.5455C0.00038147 57.5537 2.44658 60 5.45488 60H51.8178C54.826 60 57.2723 57.5538 57.2723 54.5455V46.1126C58.8561 45.5478 59.9995 44.0484 59.9995 42.273V34.0913C59.9995 32.3159 58.8561 30.8164 57.2723 30.2516ZM49.083 16.3643H37.1976L46.1117 11.1745L49.083 16.3643ZM46.1117 11.1745L37.1976 16.3643H26.3937L42.0557 4.09007L46.1117 11.1745ZM38.3894 3.09165C39.0059 2.73076 39.7263 2.63488 40.4148 2.81871C41.1113 3.0051 41.6919 3.45522 42.0528 4.08508L42.0557 4.09007L26.3937 16.3643H15.5903L38.3894 3.09165ZM54.545 54.5455C54.545 56.0489 53.3212 57.2727 51.8178 57.2727H5.45488C3.9515 57.2727 2.7277 56.0489 2.7277 54.5455V21.8188C2.7277 20.3154 3.9515 19.0916 5.45488 19.0916H51.8178C53.3212 19.0916 54.545 20.3154 54.545 21.8188V30.0004H46.3633C41.8516 30.0004 38.1816 33.6704 38.1816 38.1821C38.1816 42.6938 41.8516 46.3638 46.3633 46.3638H54.545V54.5455ZM57.2723 42.273C57.2723 43.0253 56.6611 43.6366 55.9087 43.6366H46.3633C43.3551 43.6366 40.9088 41.1904 40.9088 38.1821C40.9088 35.1739 43.355 32.7276 46.3633 32.7276H55.9087C56.661 32.7276 57.2723 33.3388 57.2723 34.0913V42.273Z" fill="#565656"/>
<path d="M46.3633 35.455C44.8599 35.455 43.6361 36.6788 43.6361 38.1821C43.6361 39.6855 44.8599 40.9093 46.3633 40.9093C47.8667 40.9093 49.0905 39.6855 49.0905 38.1821C49.0906 36.6788 47.8668 35.455 46.3633 35.455Z" fill="#565656"/>
</svg>
