<svg width="60" height="60" viewBox="0 0 60 60" fill="none" xmlns="http://www.w3.org/2000/svg">
<path d="M27.025 3.14999C27.025 2.45937 26.4656 1.89999 25.775 1.89999H3.14999C2.45937 1.89999 1.89999 2.45937 1.89999 3.14999V25.775C1.89999 26.4656 2.45937 27.025 3.14999 27.025H25.775C26.4656 27.025 27.025 26.4656 27.025 25.775V3.14999ZM24.525 24.525H4.39999V4.39999H24.525V24.525Z" fill="#0F4C8A"/>
<path d="M58.15 3.14999C58.15 2.45937 57.5906 1.89999 56.9 1.89999H34.275C33.5844 1.89999 33.025 2.45937 33.025 3.14999V25.775C33.025 26.4656 33.5844 27.025 34.275 27.025H56.9C57.5906 27.025 58.15 26.4656 58.15 25.775V3.14999ZM55.65 24.525H35.525V4.39999H55.65V24.525Z" fill="#0F4C8A"/>
<path d="M27.025 34.275C27.025 33.5844 26.4656 33.025 25.775 33.025H3.14999C2.45937 33.025 1.89999 33.5844 1.89999 34.275V56.9C1.89999 57.5906 2.45937 58.15 3.14999 58.15H25.775C26.4656 58.15 27.025 57.5906 27.025 56.9V34.275ZM24.525 55.525H4.39999V35.525H24.525V55.525Z" fill="#0F4C8A"/>
<path d="M58.15 34.275C58.15 33.5844 57.5906 33.025 56.9 33.025H34.275C33.5844 33.025 33.025 33.5844 33.025 34.275V56.9C33.025 57.5906 33.5844 58.15 34.275 58.15H56.9C57.5906 58.15 58.15 57.5906 58.15 56.9V34.275ZM55.65 55.525H35.525V35.525H55.65V55.525Z" fill="#0F4C8A"/>
</svg>
