<svg width="60" height="60" viewBox="0 0 60 60" fill="none" xmlns="http://www.w3.org/2000/svg">
<path d="M5 24C5.2658 24.0016 5.52128 23.8972 5.71 23.71L9.71 19.71C10.1021 19.3179 10.1021 18.6821 9.71 18.29C9.31788 17.8979 8.68212 17.8979 8.29 18.29L4.29 22.29C4.10069 22.4778 3.9942 22.7334 3.9942 23C3.9942 23.2667 4.10069 23.5222 4.29 23.71C4.47872 23.8972 4.7342 24.0016 5 24Z" fill="#0F4C8A"/>
<path d="M5 30C5.2658 30.0015 5.52128 29.8972 5.71 29.71L15.71 19.71C16.1021 19.3179 16.1021 18.6821 15.71 18.29C15.3179 17.8979 14.6821 17.8979 14.29 18.29L4.29 28.29C4.10069 28.4778 3.9942 28.7334 3.9942 29C3.9942 29.2666 4.10069 29.5222 4.29 29.71C4.47872 29.8972 4.7342 30.0015 5 30Z" fill="#0F4C8A"/>
<path d="M57 0H31C29.3431 0 28 1.34315 28 3V14H5C2.23858 14 0 16.2386 0 19V45C0 47.7614 2.23858 50 5 50H16V54H13C11.3431 54 10 55.3431 10 57C10 58.6569 11.3431 60 13 60H57C58.6569 60 60 58.6569 60 57V3C60 1.34315 58.6569 0 57 0ZM5 16H41C42.6569 16 44 17.3431 44 19V43H2V19C2 17.3431 3.34315 16 5 16ZM2 45H44C44 46.6569 42.6569 48 41 48H5C3.34315 48 2 46.6569 2 45ZM18 50H28V54H18V50ZM31 58H13C12.4477 58 12 57.5523 12 57C12 56.4477 12.4477 56 13 56H33C33.5523 56 34 56.4477 34 57C34 57.5523 33.5523 58 33 58H31ZM58 57C58 57.5523 57.5523 58 57 58H35.82C36.1441 57.0832 36.0038 56.0661 35.4435 55.2714C34.8832 54.4766 33.9724 54.0027 33 54H30V50H41C43.7614 50 46 47.7614 46 45V19C46 16.2386 43.7614 14 41 14H30V3C30 2.44772 30.4477 2 31 2H57C57.5523 2 58 2.44772 58 3V57Z" fill="#0F4C8A"/>
<path d="M54 5.00003H34C32.8954 5.00003 32 5.89546 32 7.00003V9.00003C32 10.1046 32.8954 11 34 11H54C55.1046 11 56 10.1046 56 9.00003V7.00003C56 5.89546 55.1046 5.00003 54 5.00003ZM34 9.00003V7.00003H54V9.00003H34Z" fill="#0F4C8A"/>
<path d="M52 20C53.6568 20 55 18.6568 55 17C55 15.3431 53.6568 14 52 14C50.3431 14 49 15.3431 49 17C49 18.6568 50.3431 20 52 20ZM52 16C52.5523 16 53 16.4477 53 17C53 17.5523 52.5523 18 52 18C51.4477 18 51 17.5523 51 17C51 16.4477 51.4477 16 52 16Z" fill="#0F4C8A"/>
<path d="M55 24.9999C55 23.3431 53.6568 21.9999 52 21.9999C50.3431 21.9999 49 23.3431 49 24.9999C49 26.6568 50.3431 27.9999 52 27.9999C53.6568 27.9999 55 26.6568 55 24.9999ZM52 25.9999C51.4477 25.9999 51 25.5522 51 24.9999C51 24.4477 51.4477 23.9999 52 23.9999C52.5523 23.9999 53 24.4477 53 24.9999C53 25.5522 52.5523 25.9999 52 25.9999Z" fill="#0F4C8A"/>
<path d="M39 51.9999C38.4477 51.9999 38 52.4477 38 52.9999V54.9999C38 55.5522 38.4477 55.9999 39 55.9999C39.5523 55.9999 40 55.5522 40 54.9999V52.9999C40 52.4477 39.5523 51.9999 39 51.9999Z" fill="#0F4C8A"/>
<path d="M43 51.9999C42.4477 51.9999 42 52.4477 42 52.9999V54.9999C42 55.5522 42.4477 55.9999 43 55.9999C43.5523 55.9999 44 55.5522 44 54.9999V52.9999C44 52.4477 43.5523 51.9999 43 51.9999Z" fill="#0F4C8A"/>
<path d="M47 51.9999C46.4477 51.9999 46 52.4477 46 52.9999V54.9999C46 55.5522 46.4477 55.9999 47 55.9999C47.5523 55.9999 48 55.5522 48 54.9999V52.9999C48 52.4477 47.5523 51.9999 47 51.9999Z" fill="#0F4C8A"/>
<path d="M51 51.9999C50.4477 51.9999 50 52.4477 50 52.9999V54.9999C50 55.5522 50.4477 55.9999 51 55.9999C51.5523 55.9999 52 55.5522 52 54.9999V52.9999C52 52.4477 51.5523 51.9999 51 51.9999Z" fill="#0F4C8A"/>
<path d="M55 51.9999C54.4477 51.9999 54 52.4477 54 52.9999V54.9999C54 55.5522 54.4477 55.9999 55 55.9999C55.5523 55.9999 56 55.5522 56 54.9999V52.9999C56 52.4477 55.5523 51.9999 55 51.9999Z" fill="#0F4C8A"/>
</svg>
