<svg width="60" height="60" viewBox="0 0 60 60" fill="none" xmlns="http://www.w3.org/2000/svg">
<path d="M32.8126 1.875C28.6941 1.87697 24.643 2.92119 21.0367 4.91042C17.4305 6.89966 14.3862 9.76919 12.1876 13.2518V8.4375C12.1876 8.18886 12.0888 7.95041 11.913 7.77459C11.7372 7.59878 11.4988 7.5 11.2501 7.5V2.8125C11.2501 2.56386 11.1513 2.3254 10.9755 2.14959C10.7997 1.97378 10.5613 1.875 10.3126 1.875H4.68762C4.43898 1.875 4.20053 1.97378 4.02471 2.14959C3.8489 2.32541 3.75012 2.56386 3.75012 2.8125V7.5C3.50148 7.5 3.26303 7.59878 3.08721 7.77459C2.9114 7.95041 2.81262 8.18886 2.81262 8.4375V17.8125C2.81262 18.0611 2.9114 18.2996 3.08721 18.4754C3.26303 18.6512 3.50148 18.75 3.75012 18.75H4.68762V23.4375H3.75012C3.50148 23.4375 3.26303 23.5363 3.08721 23.7121C2.9114 23.8879 2.81262 24.1264 2.81262 24.375V28.125C2.81262 28.3736 2.9114 28.6121 3.08721 28.7879C3.26303 28.9637 3.50148 29.0625 3.75012 29.0625H4.68762V31.875C4.68762 37.0668 6.22716 42.1419 9.11155 46.4587C11.9959 50.7755 16.0956 54.14 20.8922 56.1268C25.6888 58.1136 30.9668 58.6335 36.0588 57.6206C41.1508 56.6077 45.8281 54.1077 49.4992 50.4365C51.9444 48.0047 53.8829 45.112 55.2026 41.9259C56.5224 38.7398 57.197 35.3236 57.1876 31.875V26.25C57.1876 12.8096 46.253 1.875 32.8126 1.875ZM10.3063 16.875H4.68762V9.375H10.3126V16.8598L10.3063 16.875ZM5.62512 3.75H9.37512V7.5H5.62512V3.75ZM6.56262 18.75H8.43762V23.4375H6.56262V18.75ZM4.68762 25.3125H14.0626V27.1875H4.68762V25.3125ZM10.3126 29.0625H12.1876V31.875C12.1876 42.2138 20.5989 50.625 30.9376 50.625C41.2764 50.625 49.6876 42.2138 49.6876 31.875V27.1875C49.6857 25.4476 48.9936 23.7796 47.7633 22.5493C46.5331 21.319 44.865 20.627 43.1251 20.625H40.3126V18.75H43.1251C45.3621 18.7525 47.5068 19.6423 49.0886 21.2241C50.6703 22.8059 51.5601 24.9505 51.5626 27.1875V31.875C51.5626 43.2477 42.3103 52.5 30.9376 52.5C19.5649 52.5 10.3126 43.2477 10.3126 31.875V29.0625ZM43.1251 16.875H40.3126V15.9375C40.3126 15.6889 40.2138 15.4504 40.038 15.2746C39.8622 15.0988 39.6238 15 39.3751 15H30.0001C29.7515 15 29.513 15.0988 29.3372 15.2746C29.1614 15.4504 29.0626 15.6889 29.0626 15.9375H24.3751C24.1265 15.9375 23.888 16.0363 23.7122 16.2121C23.5364 16.3879 23.4376 16.6264 23.4376 16.875V22.5C23.4376 22.7486 23.5364 22.9871 23.7122 23.1629C23.888 23.3387 24.1265 23.4375 24.3751 23.4375H29.0626C29.0626 23.6861 29.1614 23.9246 29.3372 24.1004C29.513 24.2762 29.7515 24.375 30.0001 24.375H39.3751C39.6238 24.375 39.8622 24.2762 40.038 24.1004C40.2138 23.9246 40.3126 23.6861 40.3126 23.4375V22.5H43.1251C44.3679 22.5014 45.5594 22.9957 46.4381 23.8745C47.3169 24.7533 47.8112 25.9447 47.8126 27.1875V31.875C47.8126 41.18 40.2425 48.75 30.9376 48.75C21.6327 48.75 14.0626 41.18 14.0626 31.875V29.0625H15.0001C15.2488 29.0625 15.4872 28.9637 15.663 28.7879C15.8388 28.6121 15.9376 28.3736 15.9376 28.125V24.375C15.9376 24.1264 15.8388 23.8879 15.663 23.7121C15.4872 23.5363 15.2488 23.4375 15.0001 23.4375H14.2733C14.9467 19.0028 17.1873 14.9564 20.5888 12.0323C23.9902 9.10823 28.3271 7.50022 32.8126 7.5C40.9474 7.5 47.8877 12.7078 50.4775 19.9642C49.5195 18.9855 48.3756 18.2081 47.1131 17.6777C45.8505 17.1472 44.4946 16.8743 43.1251 16.875ZM29.0626 21.5625H25.3126V17.8125H29.0626V21.5625ZM30.9376 16.875H38.4376V22.5H30.9376V16.875ZM55.3126 31.875C55.3126 45.3154 44.378 56.25 30.9376 56.25C17.4972 56.25 6.56262 45.3154 6.56262 31.875V29.0625H8.43762V31.875C8.43762 44.2815 18.5311 54.375 30.9376 54.375C43.3442 54.375 53.4376 44.2815 53.4376 31.875V26.25C53.4376 14.8773 44.1853 5.625 32.8126 5.625C27.8297 5.62521 23.0152 7.42918 19.259 10.7035C15.5029 13.9778 13.0589 18.5012 12.3789 23.4375H10.4871C11.1729 18.0002 13.8194 13 17.9298 9.37526C22.0403 5.7505 27.3322 3.75031 32.8126 3.75C45.2192 3.75 55.3126 13.8435 55.3126 26.25V31.875Z" fill="#0F4C8A"/>
</svg>
