<svg width="60" height="60" viewBox="0 0 60 60" fill="none" xmlns="http://www.w3.org/2000/svg">
<path d="M39.5469 27.3672C40.0323 27.3672 40.4258 26.9737 40.4258 26.4883C40.4258 26.0029 40.0323 25.6094 39.5469 25.6094C39.0615 25.6094 38.668 26.0029 38.668 26.4883C38.668 26.9737 39.0615 27.3672 39.5469 27.3672Z" fill="#0F4C8A"/>
<path d="M44.0625 0H15.9375C13.5143 0 11.543 1.97133 11.543 4.39453V55.6055C11.543 58.0287 13.5143 60 15.9375 60H44.0625C46.4857 60 48.457 58.0287 48.457 55.6055V4.39453C48.457 1.97133 46.4857 0 44.0625 0ZM13.3008 55.6055V4.39453C13.3008 3.24867 14.0357 2.2718 15.0586 1.90898V43.3008C15.0586 43.7862 15.4521 44.1797 15.9375 44.1797C16.4229 44.1797 16.8164 43.7862 16.8164 43.3008V1.75781H43.1836V58.2422H16.8164V46.8164C16.8164 46.331 16.4229 45.9375 15.9375 45.9375C15.4521 45.9375 15.0586 46.331 15.0586 46.8164V58.091C14.0357 57.7282 13.3008 56.7513 13.3008 55.6055ZM46.6992 55.6055C46.6992 56.7513 45.9643 57.7282 44.9414 58.091V1.90898C45.9643 2.2718 46.6992 3.24867 46.6992 4.39453V55.6055Z" fill="#0F4C8A"/>
<path d="M19.4531 14.0625H40.5469C41.0323 14.0625 41.4258 13.669 41.4258 13.1836V7.91016C41.4258 7.42477 41.0323 7.03125 40.5469 7.03125H19.4531C18.9677 7.03125 18.5742 7.42477 18.5742 7.91016V13.1836C18.5742 13.669 18.9677 14.0625 19.4531 14.0625ZM20.332 8.78906H39.668V12.3047H20.332V8.78906Z" fill="#0F4C8A"/>
<path d="M19.4531 22.8516H40.5469C41.0323 22.8516 41.4258 22.458 41.4258 21.9727V16.6992C41.4258 16.2138 41.0323 15.8203 40.5469 15.8203H19.4531C18.9677 15.8203 18.5742 16.2138 18.5742 16.6992V21.9727C18.5742 22.458 18.9677 22.8516 19.4531 22.8516ZM20.332 17.5781H39.668V21.0938H20.332V17.5781Z" fill="#0F4C8A"/>
<path d="M30 40.6641C27.5768 40.6641 25.6055 42.6354 25.6055 45.0586C25.6055 47.4818 27.5768 49.4531 30 49.4531C32.4232 49.4531 34.3945 47.4818 34.3945 45.0586C34.3945 42.6354 32.4232 40.6641 30 40.6641ZM30 47.6953C28.5461 47.6953 27.3633 46.5125 27.3633 45.0586C27.3633 43.6046 28.5461 42.4219 30 42.4219C31.4539 42.4219 32.6367 43.6046 32.6367 45.0586C32.6367 46.5125 31.4539 47.6953 30 47.6953Z" fill="#0F4C8A"/>
<path d="M30 37.1484C25.6383 37.1484 22.0898 40.6969 22.0898 45.0586C22.0898 49.4203 25.6383 52.9688 30 52.9688C34.3617 52.9688 37.9102 49.4203 37.9102 45.0586C37.9102 40.6969 34.3617 37.1484 30 37.1484ZM30 51.2109C26.6075 51.2109 23.8477 48.4511 23.8477 45.0586C23.8477 41.6661 26.6075 38.9062 30 38.9062C33.3925 38.9062 36.1523 41.6661 36.1523 45.0586C36.1523 48.4511 33.3925 51.2109 30 51.2109Z" fill="#0F4C8A"/>
</svg>
