<svg width="60" height="60" viewBox="0 0 60 60" fill="none" xmlns="http://www.w3.org/2000/svg">
<path d="M59.1211 31.4648C58.6357 31.4648 58.2422 31.8584 58.2422 32.3438V56.6696C58.2422 57.5367 57.5367 58.2422 56.6696 58.2422H3.33035C2.46328 58.2422 1.75781 57.5367 1.75781 56.6696V32.3438C1.75781 31.8584 1.3643 31.4648 0.878906 31.4648C0.393516 31.4648 0 31.8584 0 32.3438V56.6696C0 58.506 1.49402 60 3.33035 60H56.6695C58.5059 60 59.9999 58.506 59.9999 56.6696V32.3438C60 31.8584 59.6065 31.4648 59.1211 31.4648Z" fill="#0F4C8A"/>
<path d="M56.6696 0H3.33035C1.49402 0 0 1.49402 0 3.33035V27.6562C0 28.1416 0.393516 28.5352 0.878906 28.5352C1.3643 28.5352 1.75781 28.1416 1.75781 27.6562V3.33035C1.75781 2.46328 2.46328 1.75781 3.33035 1.75781H56.6695C57.5367 1.75781 58.2422 2.46328 58.2422 3.33035V27.6562C58.2422 28.1416 58.6357 28.5352 59.1211 28.5352C59.6065 28.5352 60 28.1416 60 27.6562V3.33035C60 1.49402 58.506 0 56.6696 0Z" fill="#0F4C8A"/>
<path d="M48.0863 11.9134C43.2554 7.08226 36.8321 4.42163 30 4.42163C23.1678 4.42163 16.7445 7.08226 11.9135 11.9133C7.08232 16.7445 4.42169 23.1678 4.42169 29.9999C4.42169 36.8321 7.08232 43.2553 11.9134 48.0864C16.7444 52.9176 23.1677 55.5781 29.9999 55.5781C36.832 55.5781 43.2553 52.9175 48.0863 48.0864C52.9175 43.2553 55.578 36.8321 55.578 29.9999C55.578 23.1678 52.9174 16.7445 48.0863 11.9134ZM30 53.8204C16.8654 53.8204 6.1795 43.1345 6.1795 29.9999C6.1795 16.8653 16.8654 6.17944 30 6.17944C43.1346 6.17944 53.8204 16.8653 53.8204 29.9999C53.8204 43.1345 43.1346 53.8204 30 53.8204Z" fill="#0F4C8A"/>
<path d="M53.1112 49.4618C51.2676 49.4618 49.7677 50.9617 49.7677 52.8053C49.7677 54.6489 51.2676 56.1487 53.1112 56.1487C54.9548 56.1487 56.4547 54.6489 56.4547 52.8053C56.4547 50.9617 54.9548 49.4618 53.1112 49.4618ZM53.1112 54.3909C52.2368 54.3909 51.5255 53.6796 51.5255 52.8053C51.5255 51.9309 52.2368 51.2196 53.1112 51.2196C53.9855 51.2196 54.6968 51.9309 54.6968 52.8053C54.6968 53.6796 53.9855 54.3909 53.1112 54.3909Z" fill="#0F4C8A"/>
<path d="M6.88883 49.4618C5.04523 49.4618 3.54535 50.9617 3.54535 52.8053C3.54535 54.6489 5.04523 56.1487 6.88883 56.1487C8.73242 56.1487 10.2323 54.6489 10.2323 52.8053C10.2323 50.9617 8.73242 49.4618 6.88883 49.4618ZM6.88883 54.3909C6.01449 54.3909 5.30316 53.6796 5.30316 52.8053C5.30316 51.9309 6.01449 51.2196 6.88883 51.2196C7.76316 51.2196 8.47449 51.9309 8.47449 52.8053C8.47449 53.6796 7.76316 54.3909 6.88883 54.3909Z" fill="#0F4C8A"/>
<path d="M6.88883 3.10547C5.04523 3.10547 3.54535 4.60535 3.54535 6.44895C3.54535 8.29254 5.04523 9.79242 6.88883 9.79242C8.73242 9.79242 10.2323 8.29254 10.2323 6.44895C10.2323 4.60535 8.73242 3.10547 6.88883 3.10547ZM6.88883 8.03461C6.01449 8.03461 5.30316 7.32328 5.30316 6.44895C5.30316 5.57461 6.01449 4.86328 6.88883 4.86328C7.76316 4.86328 8.47449 5.57461 8.47449 6.44895C8.47449 7.32328 7.76316 8.03461 6.88883 8.03461Z" fill="#0F4C8A"/>
<path d="M53.1112 3.10547C51.2676 3.10547 49.7677 4.60535 49.7677 6.44895C49.7677 8.29254 51.2676 9.79242 53.1112 9.79242C54.9548 9.79242 56.4547 8.29254 56.4547 6.44895C56.4547 4.60535 54.9548 3.10547 53.1112 3.10547ZM53.1112 8.03461C52.2368 8.03461 51.5255 7.32328 51.5255 6.44895C51.5255 5.57461 52.2368 4.86328 53.1112 4.86328C53.9855 4.86328 54.6968 5.57461 54.6968 6.44895C54.6968 7.32328 53.9855 8.03461 53.1112 8.03461Z" fill="#0F4C8A"/>
<path d="M51.9593 28.7826C51.8862 27.4551 50.8713 26.3459 49.5463 26.1451C47.8698 25.8908 45.9159 25.7619 43.7392 25.7619C42.0368 25.7619 40.4547 25.8405 39.2092 25.9296C41.2458 24.6043 43.8681 23.6234 47.0277 23.0104C47.9417 22.833 48.6846 22.2432 49.0659 21.3921C49.4444 20.5474 49.3878 19.568 48.9144 18.7722V18.7723C47.769 16.846 46.3398 15.1098 44.6666 13.6115C44.1511 13.1498 43.4842 12.8955 42.7888 12.8955C42.1759 12.8955 41.5903 13.0882 41.0954 13.4526C38.1811 15.5995 35.383 18.5902 33.6335 20.6098C34.1366 18.2326 35.2973 15.6847 37.0979 13.017C37.6187 12.2453 37.7269 11.3029 37.3947 10.4315C37.0651 9.56667 36.3327 8.91417 35.4353 8.68612C33.2712 8.13628 31.0167 7.91784 28.7823 8.04065C27.4549 8.1139 26.3457 9.12886 26.1449 10.4537C25.6021 14.0321 25.7385 18.1258 25.9294 20.7908C24.6041 18.7542 23.6232 16.1319 23.0102 12.9724C22.753 11.6466 21.5818 10.6844 20.2255 10.6844C19.716 10.6844 19.2135 10.8232 18.772 11.0857C16.8458 12.2315 15.1097 13.6606 13.6114 15.3336C12.7247 16.3239 12.6579 17.8258 13.4526 18.9049C15.5996 21.8193 18.5904 24.6173 20.6099 26.3668C18.2327 25.8637 15.6848 24.7031 13.0172 22.9024C12.5484 22.586 12.004 22.4187 11.4428 22.4187C10.1408 22.4187 9.00725 23.3014 8.68615 24.565C8.13432 26.737 7.91705 28.9753 8.04069 31.2179C8.11393 32.5453 9.12889 33.6544 10.4537 33.8553C12.1303 34.1096 14.084 34.2386 16.2608 34.2386C17.9626 34.2386 19.5449 34.1599 20.7908 34.0709C18.7542 35.3962 16.1319 36.3771 12.9723 36.9901C12.0583 37.1675 11.3155 37.7573 10.934 38.6084C10.5555 39.4531 10.6121 40.4324 11.0855 41.2283C12.2313 43.1545 13.6605 44.8906 15.3334 46.3889C15.849 46.8505 16.5159 47.1048 17.2112 47.1048C17.8242 47.1048 18.4098 46.9121 18.9047 46.5476C21.8191 44.4007 24.6171 41.41 26.3665 39.3905C25.8634 41.7678 24.7028 44.3156 22.9022 46.9832C22.3813 47.7549 22.2731 48.6973 22.6052 49.5689C22.9349 50.4337 23.6674 51.0862 24.5648 51.3143C26.3379 51.7647 28.1665 51.9931 30.0005 51.9931C30.4045 51.9931 30.814 51.9819 31.2177 51.9596C32.5451 51.8864 33.6542 50.8714 33.8551 49.5466C34.3977 45.968 34.2615 41.8743 34.0706 39.2095C35.3958 41.2462 36.3767 43.8684 36.9899 47.0279C37.247 48.3536 38.4181 49.316 39.7746 49.3161C40.284 49.3161 40.7865 49.1773 41.228 48.9148C43.154 47.7691 44.8903 46.3399 46.3884 44.6669C47.2754 43.6766 47.3422 42.1746 46.5472 41.0956C44.4001 38.1809 41.4095 35.3831 39.3901 33.6337C41.7672 34.1368 44.3151 35.2974 46.9829 37.0981C47.4517 37.4145 47.9961 37.5816 48.5573 37.5816C49.8592 37.5816 50.9927 36.6991 51.3138 35.4353C51.8656 33.2633 52.0829 31.025 51.9593 28.7826ZM42.1378 14.8679C42.3285 14.7275 42.5536 14.6532 42.7888 14.6532C43.0508 14.6532 43.3012 14.7482 43.494 14.9208C45.0341 16.3 46.3495 17.898 47.4037 19.6707C47.5849 19.9753 47.6066 20.3499 47.4619 20.6731C47.3155 20.9996 47.0424 21.2167 46.6929 21.2846C43.1656 21.969 40.235 23.0977 37.964 24.6447C37.1805 23.4834 36.1499 22.5023 34.9482 21.7764C36.6404 19.8214 39.3465 16.9242 42.1378 14.8679ZM27.8828 10.7172C27.9595 10.211 28.3786 9.82343 28.8791 9.79577C29.2506 9.77526 29.6277 9.76495 29.9999 9.76495C31.6875 9.76495 33.3706 9.97518 35.0024 10.3898C35.3458 10.4771 35.6262 10.7267 35.7521 11.0574C35.8795 11.3919 35.84 11.7385 35.6409 12.0337C33.6316 15.0104 32.3577 17.8797 31.8452 20.5783C31.7953 20.5686 31.7448 20.5616 31.6946 20.5526C31.6015 20.536 31.5087 20.5188 31.4146 20.5048C31.3454 20.4945 31.2758 20.4871 31.2064 20.4783C31.1208 20.4676 31.0354 20.4556 30.9491 20.4472C30.8608 20.4384 30.7721 20.4332 30.6835 20.4269C30.615 20.4221 30.5469 20.4154 30.4779 20.412C30.3188 20.4042 30.1596 20.3999 30 20.3999C29.8521 20.3999 29.7048 20.4044 29.5577 20.4112C29.5295 20.4125 29.5012 20.4135 29.4731 20.4151C29.3353 20.4226 29.198 20.4331 29.061 20.4465C29.0264 20.4499 28.9921 20.4539 28.9575 20.4576C28.8348 20.471 28.7124 20.4863 28.5906 20.5044C28.5525 20.51 28.5146 20.5161 28.4768 20.5222C28.3707 20.5393 28.265 20.5583 28.1596 20.579C28.106 20.5894 28.0524 20.6 27.9991 20.6114C27.8937 20.634 27.7884 20.6579 27.6838 20.684C27.498 18.1047 27.3631 14.1437 27.8828 10.7172ZM16.2605 32.4806C14.1718 32.4806 12.3068 32.3583 10.717 32.1172C10.2108 32.0404 9.82334 31.6214 9.79568 31.1208C9.6819 29.0566 9.8817 26.9966 10.3896 24.9977C10.5124 24.5142 10.9454 24.1763 11.4425 24.1763C11.6521 24.1763 11.8563 24.2395 12.0335 24.3591C15.0103 26.3684 17.8795 27.6424 20.5781 28.1548C20.5684 28.2048 20.5613 28.2553 20.5524 28.3054C20.5358 28.3986 20.5186 28.4914 20.5046 28.5855C20.4943 28.6546 20.4869 28.7242 20.4781 28.7936C20.4674 28.8793 20.4554 28.9646 20.447 29.051C20.4382 29.1392 20.433 29.2279 20.4267 29.3165C20.4219 29.3851 20.4152 29.4532 20.4118 29.5222C20.404 29.6812 20.3997 29.8405 20.3997 30.0001C20.3997 30.148 20.4042 30.2953 20.411 30.4423C20.4123 30.4706 20.4133 30.4988 20.4149 30.5271C20.4224 30.6648 20.4329 30.8021 20.4463 30.939C20.4497 30.9737 20.4537 31.0082 20.4574 31.0429C20.4708 31.1651 20.486 31.287 20.504 31.4085C20.5098 31.4475 20.516 31.4861 20.5222 31.5248C20.5392 31.63 20.5581 31.7348 20.5786 31.8394C20.5891 31.8937 20.5998 31.9478 20.6113 32.0019C20.6338 32.107 20.6577 32.2119 20.6837 32.3162C19.4685 32.4033 17.9223 32.4806 16.2605 32.4806ZM14.8678 17.8621C14.5642 17.4498 14.5864 16.8795 14.9209 16.506C16.2999 14.9662 17.8979 13.6508 19.6705 12.5963C19.8402 12.4954 20.032 12.4421 20.2254 12.4421C20.7418 12.4421 21.1872 12.8058 21.2845 13.3072C21.9689 16.8344 23.0976 19.765 24.6446 22.036C23.4833 22.8195 22.5021 23.8502 21.7763 25.0518C19.8214 23.3598 16.9241 20.6534 14.8678 17.8621ZM17.8621 45.1321C17.6715 45.2725 17.4464 45.3468 17.2111 45.3468C16.9492 45.3468 16.6986 45.2517 16.5058 45.0792C14.966 43.7001 13.6506 42.1021 12.596 40.3294C12.4148 40.0249 12.3931 39.6501 12.5379 39.327C12.6842 39.0004 12.9573 38.7833 13.3069 38.7154C16.8341 38.031 19.7647 36.9023 22.0357 35.3553C22.8192 36.5166 23.8499 37.4978 25.0515 38.2236C23.3597 40.1786 20.6533 43.076 17.8621 45.1321ZM32.1172 49.2829C32.0404 49.7892 31.6214 50.1766 31.1209 50.2042C29.0654 50.3176 26.9893 50.1164 24.9977 49.6103C24.6541 49.523 24.3738 49.2734 24.2478 48.9427C24.1204 48.6083 24.1599 48.2616 24.3592 47.9664C26.3685 44.9896 27.6424 42.1204 28.1547 39.4218C28.2036 39.4314 28.2529 39.4381 28.3019 39.447C28.3962 39.4639 28.4901 39.4812 28.5852 39.4954C28.6551 39.5059 28.7255 39.5134 28.7958 39.5223C28.8805 39.5329 28.965 39.5448 29.0504 39.5532C29.1402 39.5621 29.2304 39.5674 29.3205 39.5738C29.3877 39.5785 29.4544 39.5851 29.522 39.5885C29.681 39.5963 29.8404 39.6007 30.0001 39.6007C30.148 39.6007 30.2954 39.5962 30.4425 39.5894C30.4706 39.5881 30.4988 39.5871 30.527 39.5855C30.6649 39.578 30.8024 39.5675 30.9394 39.5541C30.9738 39.5507 31.008 39.5469 31.0424 39.5431C31.1653 39.5298 31.2879 39.5144 31.4101 39.4962C31.4477 39.4907 31.4851 39.4846 31.5226 39.4787C31.629 39.4616 31.7351 39.4425 31.8408 39.4217C31.8942 39.4113 31.9476 39.4008 32.0007 39.3895C32.1062 39.3669 32.2115 39.343 32.3163 39.3168C32.5019 41.8954 32.6367 45.8565 32.1172 49.2829ZM34.2248 36.6022C34.136 36.6594 34.046 36.7147 33.9547 36.7684C33.9508 36.7706 33.947 36.7728 33.9431 36.775C33.8522 36.8282 33.7601 36.8799 33.6668 36.9295C33.6655 36.9302 33.6642 36.9311 33.6629 36.9318C33.3826 37.0805 33.0922 37.2124 32.7931 37.3267C32.7922 37.3271 32.7912 37.3273 32.7902 37.3277C32.6832 37.3686 32.5755 37.4068 32.4672 37.4428C32.4599 37.4452 32.4526 37.4478 32.4452 37.4503C32.3474 37.4826 32.2489 37.5123 32.1501 37.5406C32.1275 37.5471 32.1049 37.5537 32.0822 37.5599C31.9951 37.5841 31.9076 37.6062 31.8198 37.6273C31.7828 37.6361 31.7457 37.6448 31.7085 37.6531C31.6312 37.6705 31.5539 37.6866 31.4762 37.7015C31.4262 37.7111 31.3759 37.7199 31.3256 37.7285C31.2575 37.7402 31.1893 37.7516 31.1209 37.7614C31.0583 37.7704 30.9954 37.7779 30.9323 37.7854C30.8733 37.7924 30.8142 37.7999 30.755 37.8057C30.6774 37.8132 30.5992 37.8183 30.521 37.8235C30.4742 37.8266 30.4276 37.8308 30.3808 37.8331C30.2546 37.8392 30.1277 37.8427 30 37.8427C29.8796 37.8427 29.7601 37.839 29.6409 37.8336C29.6045 37.8319 29.568 37.8296 29.5316 37.8275C29.4446 37.8223 29.3581 37.8157 29.272 37.8077C29.2357 37.8043 29.1992 37.8014 29.1629 37.7975C29.0497 37.7854 28.9371 37.7714 28.8254 37.7545C28.7931 37.7496 28.761 37.7433 28.7286 37.7381C28.6466 37.7246 28.5649 37.7102 28.4837 37.6942C28.4367 37.685 28.3899 37.6751 28.3432 37.665C28.2747 37.6502 28.2067 37.6342 28.1388 37.6177C28.0925 37.6064 28.0461 37.5956 27.9999 37.5834C27.5852 37.4739 27.1844 37.3301 26.7994 37.1572C26.7977 37.1564 26.7961 37.1554 26.7944 37.1546C25.4089 36.5312 24.2243 35.5062 23.4027 34.2325C23.4008 34.2296 23.3989 34.2265 23.3969 34.2236C23.3402 34.1354 23.2853 34.0461 23.2321 33.9555C23.2294 33.9508 23.2268 33.9461 23.224 33.9416C23.1711 33.8511 23.1198 33.7597 23.0704 33.667C23.0697 33.6657 23.0689 33.6646 23.0683 33.6633C22.9196 33.383 22.7878 33.0926 22.6733 32.7936C22.673 32.7925 22.6727 32.7914 22.6722 32.7903C22.6312 32.683 22.5929 32.5749 22.5567 32.4663C22.5545 32.4595 22.552 32.4528 22.5498 32.446C22.5173 32.3477 22.4876 32.2488 22.4591 32.1495C22.4528 32.1273 22.4463 32.1052 22.4401 32.0828C22.4158 31.9954 22.3936 31.9075 22.3725 31.8194C22.3637 31.7827 22.3551 31.7459 22.3469 31.7091C22.3296 31.6317 22.3134 31.554 22.2984 31.476C22.2889 31.4262 22.2801 31.3763 22.2716 31.3262C22.2599 31.2578 22.2485 31.1894 22.2385 31.1207C22.2296 31.0584 22.222 30.9956 22.2146 30.9328C22.2076 30.8736 22.2001 30.8144 22.1944 30.755C22.187 30.6775 22.1817 30.5994 22.1765 30.5212C22.1735 30.4743 22.1692 30.4277 22.1669 30.3808C22.1608 30.2546 22.1573 30.1277 22.1573 30.0001C22.1573 29.8797 22.1611 29.7602 22.1665 29.6411C22.1681 29.6046 22.1705 29.5681 22.1726 29.5316C22.1777 29.4448 22.1844 29.3585 22.1924 29.2724C22.1958 29.2359 22.1987 29.1993 22.2026 29.1629C22.2146 29.0498 22.2287 28.9374 22.2456 28.8257C22.2505 28.7929 22.2568 28.7603 22.2622 28.7276C22.2756 28.6461 22.29 28.5649 22.3058 28.4841C22.3151 28.4369 22.325 28.3899 22.3352 28.3428C22.35 28.2746 22.3658 28.2069 22.3823 28.1392C22.3937 28.0927 22.4046 28.0461 22.4169 27.9998C22.5263 27.5851 22.6701 27.1844 22.843 26.7994C22.8438 26.7978 22.8447 26.7962 22.8456 26.7945C23.469 25.409 24.4939 24.2244 25.7676 23.4028C25.7706 23.4009 25.7736 23.399 25.7765 23.397C25.8648 23.3403 25.9541 23.2853 26.0447 23.2321C26.0494 23.2294 26.054 23.2269 26.0586 23.2241C26.1491 23.1712 26.2405 23.1199 26.3332 23.0705C26.3345 23.0698 26.3355 23.069 26.3368 23.0684C26.6169 22.9198 26.9071 22.788 27.2059 22.6737C27.2072 22.6733 27.2085 22.6729 27.2099 22.6724C27.3172 22.6314 27.4253 22.5931 27.5339 22.5569C27.5407 22.5547 27.5474 22.5522 27.5542 22.55C27.6525 22.5175 27.7514 22.4878 27.8506 22.4593C27.8729 22.453 27.8949 22.4465 27.9173 22.4403C28.0047 22.416 28.0926 22.3938 28.1808 22.3727C28.2174 22.3639 28.2542 22.3553 28.291 22.3471C28.3685 22.3298 28.4462 22.3136 28.5241 22.2986C28.5739 22.2891 28.6238 22.2803 28.674 22.2718C28.7423 22.2601 28.8108 22.2487 28.8794 22.2387C28.9418 22.2298 29.0046 22.2222 29.0674 22.2148C29.1266 22.2078 29.1858 22.2003 29.2452 22.1946C29.3226 22.1872 29.4008 22.1819 29.479 22.1767C29.5258 22.1737 29.5725 22.1694 29.6194 22.1671C29.7456 22.161 29.8725 22.1575 30.0001 22.1575C30.1205 22.1575 30.24 22.1613 30.359 22.1667C30.3956 22.1683 30.4321 22.1707 30.4686 22.1728C30.5553 22.1779 30.6417 22.1846 30.7277 22.1926C30.7643 22.196 30.8008 22.1989 30.8373 22.2028C30.9504 22.2148 31.0628 22.2289 31.1744 22.2458C31.2072 22.2507 31.2398 22.257 31.2725 22.2624C31.3541 22.2758 31.4353 22.2902 31.516 22.306C31.5633 22.3153 31.6103 22.3252 31.6574 22.3354C31.7256 22.3502 31.7933 22.366 31.8609 22.3825C31.9074 22.3939 31.9541 22.4048 32.0004 22.4171C32.4151 22.5266 32.8158 22.6703 33.2007 22.8432C33.2024 22.844 33.204 22.8449 33.2056 22.8458C34.5912 23.4692 35.7758 24.4941 36.5974 25.7678C36.5993 25.7708 36.6012 25.7738 36.6031 25.7767C36.6599 25.865 36.7148 25.9543 36.768 26.0449C36.7707 26.0496 36.7733 26.0542 36.7761 26.0588C36.829 26.1493 36.8803 26.2407 36.9296 26.3334C36.9303 26.3347 36.9312 26.3357 36.9317 26.337C37.0805 26.6173 37.2123 26.9077 37.3268 27.2068C37.3271 27.2078 37.3274 27.209 37.3278 27.2101C37.3688 27.3173 37.4071 27.4252 37.4433 27.5337C37.4456 27.5408 37.4481 27.5477 37.4503 27.5546C37.4826 27.6527 37.5124 27.7515 37.5409 27.8505C37.5473 27.8729 37.5539 27.8953 37.56 27.9178C37.5841 28.0051 37.6064 28.0927 37.6275 28.1807C37.6363 28.2175 37.6448 28.2544 37.6531 28.2915C37.6705 28.3688 37.6867 28.4464 37.7017 28.5242C37.7112 28.574 37.7199 28.6242 37.7285 28.6743C37.7402 28.7425 37.7516 28.811 37.7615 28.8795C37.7706 28.942 37.7781 29.0048 37.7856 29.0677C37.7926 29.1269 37.8001 29.186 37.8058 29.2454C37.8133 29.323 37.8185 29.4011 37.8237 29.4793C37.8267 29.526 37.8309 29.5728 37.8333 29.6197C37.8394 29.7459 37.8429 29.8728 37.8429 30.0005C37.8429 30.1209 37.8391 30.2404 37.8337 30.3595C37.8321 30.396 37.8297 30.4325 37.8276 30.4691C37.8225 30.5558 37.8158 30.6421 37.8078 30.7282C37.8044 30.7647 37.8015 30.8013 37.7976 30.8377C37.7856 30.9508 37.7715 31.0632 37.7546 31.1749C37.7497 31.2077 37.7434 31.2403 37.738 31.273C37.7246 31.3545 37.7102 31.4357 37.6944 31.5165C37.6851 31.5637 37.6752 31.6107 37.665 31.6578C37.6502 31.726 37.6344 31.7937 37.6179 31.8614C37.6065 31.9079 37.5956 31.9545 37.5833 32.0008C37.4738 32.4155 37.3301 32.8162 37.1572 33.2012C37.1564 33.2028 37.1555 33.2044 37.1546 33.2061C36.531 34.5918 35.5058 35.7769 34.2315 36.5985C34.2292 36.5994 34.2269 36.6008 34.2248 36.6022ZM45.1321 42.138C45.4358 42.5503 45.4134 43.1206 45.079 43.4941C43.6999 45.034 42.1019 46.3495 40.3295 47.4038C40.1598 47.5047 39.9678 47.558 39.7745 47.558C39.258 47.558 38.8126 47.1943 38.7155 46.693C38.031 43.1657 36.9022 40.2351 35.3553 37.9641C36.5167 37.1806 37.4978 36.15 38.2235 34.9483C40.1785 36.6403 43.0758 39.3465 45.1321 42.138ZM49.6104 35.0022C49.4874 35.4858 49.0544 35.8236 48.5574 35.8236C48.348 35.8236 48.1437 35.7603 47.9666 35.6408C44.9897 33.6315 42.1204 32.3575 39.422 31.8451C39.4318 31.7947 39.4389 31.7438 39.4479 31.6933C39.4644 31.6007 39.4815 31.5085 39.4953 31.415C39.5059 31.3442 39.5135 31.2731 39.5225 31.2021C39.5331 31.1179 39.5448 31.0341 39.5532 30.9493C39.5621 30.8596 39.5674 30.7695 39.5738 30.6795C39.5785 30.6121 39.5851 30.5453 39.5885 30.4777C39.5963 30.3187 39.6007 30.1593 39.6007 29.9996C39.6007 29.8517 39.5962 29.7044 39.5894 29.5573C39.5881 29.5291 39.5871 29.5008 39.5856 29.4726C39.5781 29.3349 39.5675 29.1976 39.5542 29.0607C39.5508 29.026 39.5468 28.9914 39.543 28.9567C39.5297 28.8345 39.5144 28.7126 39.4964 28.5911C39.4906 28.5522 39.4844 28.5135 39.4782 28.4749C39.4612 28.3696 39.4424 28.2648 39.4219 28.1602C39.4113 28.106 39.4006 28.0518 39.3892 27.9979C39.3667 27.8928 39.3428 27.7879 39.3167 27.6835C40.5313 27.5969 42.0772 27.5196 43.7393 27.5196C45.8281 27.5196 47.6933 27.6418 49.283 27.8828C49.7892 27.9596 50.1766 28.3787 50.2043 28.8792C50.3181 30.9432 50.1183 33.0032 49.6104 35.0022Z" fill="#0F4C8A"/>
</svg>
