<svg width="60" height="60" viewBox="0 0 60 60" fill="none" xmlns="http://www.w3.org/2000/svg">
<g clip-path="url(#clip0)">
<path d="M45.3531 17.2926L47.353 15.293L48.7672 16.7069L46.7673 18.7068L45.3531 17.2926Z" fill="#0F4C8A"/>
<path d="M41.3534 13.2925L43.353 11.2929L44.7672 12.7071L42.7676 14.7067L41.3534 13.2925Z" fill="#0F4C8A"/>
<path d="M12.9391 58.2931C15.2147 60.5688 18.9047 60.5688 21.1813 58.2931L50.7672 28.7072C51.1572 28.3163 51.1572 27.684 50.7672 27.293L48.4743 25.0001L59.7672 13.7072C60.1575 13.3166 60.1575 12.6836 59.7672 12.2933L47.7668 0.292989C47.3765 -0.0976628 46.7436 -0.0976628 46.3529 0.292989L35.06 11.5859L32.7671 9.29299C32.3765 8.90266 31.7436 8.90266 31.3529 9.29299L1.76701 38.8789C-0.508968 41.1552 -0.508968 44.8454 1.76701 47.1211L12.9391 58.2931ZM47.06 2.41434L57.6461 13.0001L56.06 14.5862L45.4743 4.00011L47.06 2.41434ZM44.0597 5.41434L54.6458 16.0001L47.06 23.5862L36.4739 13.0001L44.0597 5.41434ZM3.18093 40.2931L32.06 11.4143L48.6458 28.0004L19.767 56.8792C18.272 58.3739 15.848 58.3739 14.353 56.8792L3.18093 45.7071C1.68626 44.2122 1.68626 41.7884 3.18093 40.2931Z" fill="#0F4C8A"/>
<path d="M28.3522 18.2923L30.3518 16.2931L31.7664 17.7073L29.7665 19.7066L28.3522 18.2923Z" fill="#0F4C8A"/>
<path d="M20.3517 26.2933L26.352 20.2936L27.7659 21.7078L21.7659 27.7078L20.3517 26.2933Z" fill="#0F4C8A"/>
</g>
<defs>
<clipPath id="clip0">
<rect width="60" height="60" fill="white"/>
</clipPath>
</defs>
</svg>
