<svg width="60" height="60" viewBox="0 0 60 60" fill="none" xmlns="http://www.w3.org/2000/svg">
<g clip-path="url(#clip0)">
<path d="M35.6576 4.6875C36.1751 4.6875 36.5951 4.2675 36.5951 3.75C36.5951 3.2325 36.1751 2.8125 35.6576 2.8125H35.6473C35.1298 2.8125 34.7154 3.2325 34.7154 3.75C34.7154 4.2675 35.1392 4.6875 35.6576 4.6875Z" fill="#0F4C8A"/>
<path d="M38.4422 4.6875H41.2547C41.7731 4.6875 42.1922 4.2675 42.1922 3.75C42.1922 3.2325 41.7731 2.8125 41.2547 2.8125H38.4422C37.9237 2.8125 37.5047 3.2325 37.5047 3.75C37.5047 4.2675 37.9237 4.6875 38.4422 4.6875Z" fill="#0F4C8A"/>
<path d="M38.5 53C39.3284 53 40 52.3284 40 51.5C40 50.6716 39.3284 50 38.5 50C37.6716 50 37 50.6716 37 51.5C37 52.3284 37.6716 53 38.5 53Z" fill="#0F4C8A"/>
<path d="M11.2454 60H28.1297H32.8088H48.7547C52.3726 60 55.3172 57.0553 55.3172 53.4375V5.62687C55.3172 2.52938 52.8001 0.009375 49.7044 0.001875C49.7007 0.001875 49.6969 0 49.6922 0H33.7463H27.1922H10.3079C7.20567 0 4.68286 2.52281 4.68286 5.625V53.4375C4.68286 57.0553 7.62755 60 11.2454 60ZM11.2454 58.125C8.97849 58.125 7.08474 56.5069 6.65255 54.3656C7.83661 55.5291 9.45849 56.25 11.2454 56.25H22.2094C22.5432 56.9522 22.996 57.5869 23.5454 58.125H11.2454ZM48.7547 54.375H38.4422H28.1297C25.545 54.375 23.4422 52.2722 23.4422 49.6875V48.75H38.4422H53.4422V49.6875C53.4422 52.2722 51.3394 54.375 48.7547 54.375ZM53.4422 46.875H23.4422V7.50187H53.4422V46.875ZM48.7547 58.125H32.8088H28.1297C25.8629 58.125 23.9691 56.5069 23.5369 54.3656C24.7219 55.5291 26.3429 56.25 28.1297 56.25H48.7547C50.5416 56.25 52.1635 55.5291 53.3475 54.3656C52.9154 56.5069 51.0216 58.125 48.7547 58.125ZM49.6829 1.875C49.6866 1.875 49.6894 1.87688 49.6922 1.87688C51.7604 1.87688 53.4422 3.55875 53.4422 5.62687H23.4422V5.625C23.4422 3.55687 25.1241 1.875 27.1922 1.875H33.7463H49.6829ZM10.3079 1.875H23.011C22.1166 2.87156 21.5672 4.18313 21.5672 5.625V53.4375C21.5672 53.7572 21.5972 54.0684 21.6422 54.375H11.2454C8.66067 54.375 6.55786 52.2722 6.55786 49.6875V5.625C6.55786 3.55687 8.23974 1.875 10.3079 1.875Z" fill="#0F4C8A"/>
<path d="M14.059 21.5625C16.6436 21.5625 18.7465 19.4597 18.7465 16.875V9.37689C18.7465 6.7922 16.6436 4.68939 14.059 4.68939C11.4743 4.68939 9.37146 6.7922 9.37146 9.37689V16.875C9.37146 19.4597 11.4743 21.5625 14.059 21.5625ZM14.059 19.6875C12.5083 19.6875 11.2465 18.4256 11.2465 16.875V13.1035C12.0321 13.6978 12.9996 14.0644 14.059 14.0644C15.1183 14.0644 16.0858 13.6978 16.8715 13.1035V16.875C16.8715 18.4256 15.6096 19.6875 14.059 19.6875ZM14.059 6.56439C15.6096 6.56439 16.8715 7.82627 16.8715 9.37689C16.8715 10.9275 15.6096 12.1894 14.059 12.1894C12.5083 12.1894 11.2465 10.9275 11.2465 9.37689C11.2465 7.82627 12.5083 6.56439 14.059 6.56439Z" fill="#0F4C8A"/>
<path d="M14.0869 10.3144C14.6044 10.3144 15.0244 9.89439 15.0244 9.37689C15.0244 8.85939 14.6044 8.43939 14.0869 8.43939H14.0766C13.5591 8.43939 13.1447 8.85939 13.1447 9.37689C13.1447 9.89439 13.5694 10.3144 14.0869 10.3144Z" fill="#0F4C8A"/>
</g>
<defs>
<clipPath id="clip0">
<rect width="60" height="60" fill="white"/>
</clipPath>
</defs>
</svg>
