<svg width="60" height="60" viewBox="0 0 60 60" fill="none" xmlns="http://www.w3.org/2000/svg">
<path d="M10.3279 28.5246H11.4885L13.2836 37.498C13.4468 41.8632 16.6635 45.5086 20.9744 46.2138V46.1961C21.031 46.2123 21.089 46.2235 21.1476 46.2295H26.0656V49.1803H19.1803C17.5506 49.1803 16.2295 50.5014 16.2295 52.1311V53.1147C16.2312 53.5962 16.4109 54.0601 16.7341 54.417C15.9338 55.5712 16.0541 57.1287 17.0221 58.1462C17.9902 59.1637 19.5399 59.3614 20.7324 58.6194C21.9249 57.8775 22.4323 56.4 21.9472 55.082H27.2272C27.1117 55.3971 27.0515 55.7299 27.0492 56.0656C27.0492 57.6953 28.3703 59.0164 30 59.0164C31.6297 59.0164 32.9508 57.6953 32.9508 56.0656C32.9476 55.7297 32.8863 55.397 32.7698 55.082H38.0499C37.9334 55.397 37.8721 55.7297 37.8689 56.0656C37.8681 57.3315 38.675 58.4569 39.8742 58.8625C41.0734 59.2682 42.3978 58.8636 43.1657 57.8572C43.9336 56.8507 43.9739 55.4665 43.2659 54.417C43.5891 54.0601 43.7688 53.5962 43.7705 53.1147V52.1311C43.7705 50.5014 42.4494 49.1803 40.8197 49.1803H33.9344V46.2295H38.8525C38.9097 46.2233 38.9663 46.2121 39.0217 46.1961V46.2138C43.336 45.5124 46.5574 41.866 46.7213 37.498L48.5115 28.5246H49.6721C50.2154 28.5246 50.6558 28.0842 50.6558 27.541C50.6558 26.9977 50.2154 26.5574 49.6721 26.5574H45.7377C45.1945 26.5574 44.7541 26.9977 44.7541 27.541C44.7541 28.0842 45.1945 28.5246 45.7377 28.5246H46.5049L45.4751 33.6738C44.7781 32.9248 43.8096 32.4871 42.7869 32.459C42.5055 32.4627 42.2258 32.503 41.9548 32.579C41.9449 32.0675 41.9223 31.5256 41.8958 30.9216C41.8525 29.9449 41.8033 28.8384 41.8033 27.541C41.8048 25.3936 42.4893 23.3023 43.7577 21.5695C45.0025 19.8758 45.694 17.8391 45.7377 15.7377C45.7377 12.2282 43.8748 11.1354 42.0728 10.079C40.8254 9.43384 39.7174 8.54911 38.8121 7.47541C38.6834 6.20223 37.9403 5.07241 36.8223 4.44984C35.3528 1.95541 34.1518 0 30 0C25.8482 0 24.6472 1.95541 23.1777 4.44688C22.0589 5.07004 21.3157 6.20115 21.1879 7.47541C20.2829 8.55017 19.1749 9.43592 17.9272 10.082C16.1253 11.1354 14.2623 12.2282 14.2623 15.7377C14.306 17.8391 14.9975 19.8758 16.2423 21.5695C17.5108 23.3023 18.1952 25.3936 18.1967 27.541C18.1967 28.8384 18.1475 29.9449 18.1043 30.9216C18.0777 31.5256 18.0551 32.0675 18.0453 32.579C17.7743 32.503 17.4945 32.4627 17.2131 32.459C16.1904 32.4871 15.2219 32.9248 14.5249 33.6738L13.4951 28.5246H14.2623C14.8055 28.5246 15.2459 28.0842 15.2459 27.541C15.2459 26.9977 14.8055 26.5574 14.2623 26.5574H10.3279C9.78464 26.5574 9.34427 26.9977 9.34427 27.541C9.34427 28.0842 9.78464 28.5246 10.3279 28.5246ZM23.1148 7.86885C23.1148 6.78239 23.9955 5.90164 25.082 5.90164H34.918C36.0045 5.90164 36.8853 6.78239 36.8853 7.86885V11.8033C36.8853 12.8897 36.0045 13.7705 34.918 13.7705H25.082C23.9955 13.7705 23.1148 12.8897 23.1148 11.8033V7.86885ZM32.2702 15.7377C32.9184 17.5672 34.7823 23.6754 34.9043 33.4426H25.0957C25.2177 23.6754 27.0816 17.5672 27.7298 15.7377H32.2702ZM37.8689 35.4098C38.4121 35.4098 38.8525 35.8502 38.8525 36.3934V37.1587C37.0669 37.0719 35.2794 37.282 33.5626 37.7803C32.3988 38.0984 31.2046 38.2929 30 38.3607C28.7954 38.2929 27.6012 38.0984 26.4374 37.7803C24.7205 37.2825 22.9331 37.0725 21.1476 37.1587V36.3934C21.1476 35.8502 21.5879 35.4098 22.1312 35.4098H37.8689ZM20.1639 56.0656C20.1639 56.6088 19.7236 57.0492 19.1803 57.0492C18.6371 57.0492 18.1967 56.6088 18.1967 56.0656C18.1967 55.5223 18.6371 55.082 19.1803 55.082C19.7236 55.082 20.1639 55.5223 20.1639 56.0656ZM30.9836 56.0656C30.9836 56.6088 30.5432 57.0492 30 57.0492C29.4568 57.0492 29.0164 56.6088 29.0164 56.0656C29.0164 55.5223 29.4568 55.082 30 55.082C30.5432 55.082 30.9836 55.5223 30.9836 56.0656ZM40.8197 57.0492C40.2765 57.0492 39.8361 56.6088 39.8361 56.0656C39.8361 55.5223 40.2765 55.082 40.8197 55.082C41.3629 55.082 41.8033 55.5223 41.8033 56.0656C41.8033 56.6088 41.3629 57.0492 40.8197 57.0492ZM41.8033 52.1311V53.1147H18.1967V52.1311C18.1967 51.5879 18.6371 51.1475 19.1803 51.1475H40.8197C41.3629 51.1475 41.8033 51.5879 41.8033 52.1311ZM31.9672 49.1803H28.0328V46.2295H31.9672V49.1803ZM32.9508 44.2623H21.7141C21.332 42.5792 21.1449 40.8577 21.1564 39.1318C22.7905 39.0344 24.4291 39.2258 25.9967 39.6974C27.3045 40.0516 28.6467 40.263 30 40.3279C31.3533 40.263 32.6956 40.0516 34.0033 39.6974C35.5711 39.2265 37.2095 39.0351 38.8436 39.1318C38.8545 40.8573 38.6694 42.5785 38.2918 44.2623H32.9508ZM44.7541 37.377C44.6222 40.1507 42.9478 42.6168 40.4184 43.7626C40.7105 41.9772 40.8448 40.1696 40.8197 38.3607V37.9584C40.7782 36.9157 41.0525 35.8848 41.6066 35.0007C41.9066 34.658 42.3322 34.4509 42.7869 34.4262C42.8676 34.4262 44.7541 34.4597 44.7541 37.377ZM41.0784 11.7757C42.8135 12.7938 43.7705 13.3554 43.7705 15.7377C43.7199 17.4732 43.1308 19.15 42.0846 20.5357C40.6226 22.5791 39.8364 25.0285 39.8361 27.541C39.8361 28.8816 39.8862 30.0118 39.9344 31.0082C39.997 31.9719 40.0062 32.9383 39.962 33.9029C39.898 33.9856 39.838 34.0731 39.781 34.1626C39.251 33.7004 38.5721 33.4447 37.8689 33.4426H36.8715C36.9189 27.4485 36.0702 21.4809 34.3535 15.7377H34.918C37.091 15.7377 38.8525 13.9762 38.8525 11.8033V10.2885C39.5547 10.8414 40.2989 11.3386 41.0784 11.7757ZM30 1.96721C32.282 1.96721 33.2577 2.62623 34.1803 3.93443H25.8197C26.7423 2.62623 27.718 1.96721 30 1.96721ZM17.9154 20.5357C16.8693 19.15 16.2801 17.4732 16.2295 15.7377C16.2295 13.3554 17.1866 12.7938 18.9216 11.7757C19.7011 11.3386 20.4454 10.8414 21.1476 10.2885V11.8033C21.1476 13.9762 22.9091 15.7377 25.082 15.7377H25.6466C23.9298 21.4809 23.0811 27.4485 23.1285 33.4426H22.1312C21.4289 33.4454 20.7512 33.701 20.222 34.1626C20.1649 34.0731 20.1049 33.9866 20.041 33.9029C19.9968 32.9383 20.006 31.9719 20.0685 31.0082C20.1138 30.0118 20.1669 28.8816 20.1669 27.541C20.1657 25.0282 19.3785 22.5787 17.9154 20.5357ZM17.2131 34.4262C17.6678 34.4506 18.0933 34.6573 18.3935 34.9997C18.9478 35.8841 19.2221 36.9154 19.1803 37.9584V38.3607C19.1552 40.1696 19.2895 41.9772 19.5816 43.7626C17.0522 42.6168 15.3778 40.1507 15.2459 37.377C15.2459 34.6229 16.8964 34.4361 17.2131 34.4262Z" fill="#0F4C8A"/>
</svg>
