<svg width="60" height="60" viewBox="0 0 60 60" fill="none" xmlns="http://www.w3.org/2000/svg">
<path d="M37.2674 52.3882H22.7326C22.247 52.3882 21.8535 52.7818 21.8535 53.2673C21.8535 53.753 22.247 54.1465 22.7326 54.1465H37.2674C37.753 54.1465 38.1465 53.7528 38.1465 53.2673C38.1465 52.7818 37.753 52.3882 37.2674 52.3882Z" fill="#0F4C8A"/>
<path d="M52.8831 20.3684C52.3975 20.3684 52.004 20.762 52.004 21.2475V55.833C52.004 57.1612 50.9235 58.2418 49.5953 58.2418H10.4046C9.07642 58.2418 7.99595 57.1612 7.99595 55.833V45.5428C7.99595 45.0573 7.60244 44.6636 7.11681 44.6636C6.63119 44.6636 6.23767 45.0573 6.23767 45.5428V55.833C6.23779 58.1306 8.10705 60 10.4046 60H49.5953C51.8929 60 53.7621 58.1306 53.7621 55.833V21.2475C53.7622 20.762 53.3687 20.3684 52.8831 20.3684Z" fill="#0F4C8A"/>
<path d="M49.5954 0H10.4046C8.10705 0 6.23779 1.86937 6.23779 4.16695V40.854C6.23779 41.3395 6.63131 41.7332 7.11693 41.7332C7.60256 41.7332 7.99607 41.3395 7.99607 40.854V4.16695C7.99607 2.83875 9.07654 1.75816 10.4047 1.75816H49.5954C50.9236 1.75816 52.0041 2.83875 52.0041 4.16695V16.5589C52.0041 17.0445 52.3976 17.4381 52.8832 17.4381C53.3688 17.4381 53.7624 17.0445 53.7624 16.5589V4.16695C53.7622 1.86937 51.893 0 49.5954 0Z" fill="#0F4C8A"/>
<path d="M34.356 34.8495C33.5318 33.8189 32.0996 33.542 30.9507 34.191L18.9353 40.9787C17.6809 41.6875 16.8046 42.9052 16.5311 44.3196C16.2576 45.7341 16.6169 47.1907 17.5166 48.3159C18.4164 49.441 19.7583 50.1118 21.1983 50.1559C21.2491 50.1575 21.2994 50.1583 21.35 50.1583C22.7349 50.1583 24.053 49.5755 24.9862 48.5452L34.2497 38.3164C35.1355 37.3382 35.1802 35.8802 34.356 34.8495ZM32.9462 37.1362L23.6827 47.3649C23.0622 48.0502 22.1784 48.4269 21.2522 48.3986C20.3281 48.3702 19.4671 47.9398 18.8897 47.2178C18.3123 46.4958 18.0818 45.5611 18.2573 44.6534C18.4327 43.7457 18.9952 42.9644 19.8 42.5097L31.8155 35.7219C31.9584 35.6412 32.114 35.6023 32.2677 35.6023C32.538 35.6023 32.8028 35.7225 32.9828 35.9477C33.2653 36.301 33.25 36.8008 32.9462 37.1362Z" fill="#0F4C8A"/>
<path d="M30 9.81921C20.8545 9.81921 13.4139 17.2597 13.4139 26.4053C13.4139 30.6174 14.9951 34.633 17.8662 37.7122C18.1974 38.0671 18.7534 38.0868 19.1086 37.7557C19.4638 37.4246 19.4833 36.8683 19.1521 36.5131C16.5856 33.7605 15.1722 30.1708 15.1722 26.4053C15.1722 18.2293 21.824 11.5775 30 11.5775C38.1761 11.5775 44.8279 18.2292 44.8279 26.4053C44.8279 32.3531 41.2937 37.7071 35.8245 40.0459C35.378 40.2368 35.1708 40.7534 35.3617 41.1998C35.5044 41.5336 35.829 41.7335 36.1705 41.7335C36.2858 41.7335 36.403 41.7106 36.5156 41.6625C42.6332 39.0467 46.5861 33.058 46.5861 26.4053C46.5861 17.2597 39.1456 9.81921 30 9.81921Z" fill="#0F4C8A"/>
<path d="M30 23.1819C28.2226 23.1819 26.7766 24.6279 26.7766 26.4054C26.7766 28.1827 28.2226 29.6288 30 29.6288C31.7774 29.6288 33.2235 28.1827 33.2235 26.4054C33.2235 24.628 31.7774 23.1819 30 23.1819ZM30 27.8706C29.1921 27.8706 28.5348 27.2133 28.5348 26.4054C28.5348 25.5975 29.1921 24.9402 30 24.9402C30.8079 24.9402 31.4652 25.5975 31.4652 26.4054C31.4652 27.2133 30.8079 27.8706 30 27.8706Z" fill="#0F4C8A"/>
<path d="M13.4334 3.99146C11.6311 3.99146 10.1647 5.45771 10.1647 7.26005C10.1647 9.0624 11.6311 10.5286 13.4334 10.5286C15.2358 10.5286 16.702 9.0624 16.702 7.26005C16.702 5.45771 15.2358 3.99146 13.4334 3.99146ZM13.4334 8.77036C12.6006 8.77036 11.923 8.09279 11.923 7.26005C11.923 6.42732 12.6006 5.74974 13.4334 5.74974C14.2662 5.74974 14.9438 6.42732 14.9438 7.26005C14.9438 8.09279 14.2663 8.77036 13.4334 8.77036Z" fill="#0F4C8A"/>
<path d="M46.5666 3.99146C44.7642 3.99146 43.298 5.45771 43.298 7.26005C43.298 9.0624 44.7642 10.5286 46.5666 10.5286C48.3689 10.5286 49.8353 9.0624 49.8353 7.26005C49.8353 5.45771 48.3688 3.99146 46.5666 3.99146ZM46.5666 8.77036C45.7338 8.77036 45.0563 8.09279 45.0563 7.26005C45.0563 6.42732 45.7338 5.74974 46.5666 5.74974C47.3994 5.74974 48.077 6.42732 48.077 7.26005C48.077 8.09279 47.3994 8.77036 46.5666 8.77036Z" fill="#0F4C8A"/>
<path d="M13.4335 49.4713C11.6311 49.4713 10.1649 50.9377 10.1649 52.7399C10.1649 54.5421 11.6312 56.0085 13.4335 56.0085C15.2358 56.0085 16.7021 54.5423 16.7021 52.7399C16.7021 50.9376 15.2358 49.4713 13.4335 49.4713ZM13.4335 54.2502C12.6006 54.2502 11.923 53.5726 11.923 52.7399C11.9231 51.9072 12.6006 51.2296 13.4335 51.2296C14.2662 51.2296 14.9438 51.9072 14.9438 52.7399C14.9438 53.5728 14.2662 54.2502 13.4335 54.2502Z" fill="#0F4C8A"/>
<path d="M46.5666 49.4713C44.7642 49.4713 43.298 50.9376 43.298 52.7399C43.298 54.5423 44.7642 56.0085 46.5666 56.0085C48.3689 56.0085 49.8353 54.5423 49.8353 52.7399C49.8353 50.9376 48.3688 49.4713 46.5666 49.4713ZM46.5666 54.2503C45.7338 54.2503 45.0563 53.5728 45.0563 52.74C45.0563 51.9072 45.7338 51.2297 46.5666 51.2297C47.3994 51.2297 48.077 51.9073 48.077 52.74C48.0769 53.5728 47.3994 54.2503 46.5666 54.2503Z" fill="#0F4C8A"/>
</svg>
