<svg width="60" height="60" viewBox="0 0 60 60" fill="none" xmlns="http://www.w3.org/2000/svg">
<path d="M55.5735 28.1812V27.0194C55.5735 12.9181 44.1013 1.44604 30 1.44604C26.3895 1.44604 22.8967 2.18714 19.6188 3.64858C16.4538 5.05976 13.6467 7.06823 11.2753 9.61823C10.9452 9.97331 10.9654 10.5288 11.3203 10.8589C11.6753 11.1891 12.2307 11.169 12.561 10.8139C17.0599 5.9764 23.4161 3.20187 30 3.20187C43.1268 3.20187 53.8071 13.8761 53.8174 27.0005C53.6197 25.6829 52.4803 24.6692 51.1085 24.6692H48.8727C48.3191 20.2 46.1934 16.0766 42.8439 13.0046C39.326 9.77796 34.7646 8.00105 30 8.00105C25.197 8.00105 20.6082 9.80316 17.0793 13.0755C13.7698 16.1442 11.6759 20.2357 11.127 24.6692H8.89148C7.51945 24.6692 6.38004 25.6832 6.18258 27.0011C6.18621 22.2721 7.57828 17.7011 10.2095 13.7812C10.4797 13.3787 10.3724 12.8333 9.96973 12.563C9.5673 12.293 9.02191 12.4 8.75156 12.8028C5.92219 17.0183 4.42664 21.9344 4.42664 27.0196V28.1814C1.95855 28.3435 0 30.4019 0 32.9103V46.9748C0 49.5888 2.1266 51.7155 4.7407 51.7155H6.15223V52.4765C6.15223 53.9871 7.38105 55.2159 8.8916 55.2159H12.7118C14.2223 55.2159 15.4512 53.9869 15.4512 52.4765V27.4086C15.4512 25.9605 14.3215 24.772 12.8972 24.6761C14.0521 16.2371 21.3872 9.75687 30 9.75687C38.5772 9.75687 45.9479 16.2519 47.1032 24.6762C45.6787 24.7717 44.5488 25.9604 44.5488 27.4087V52.4766C44.5488 53.9872 45.7777 55.216 47.2882 55.216H51.1084C52.6189 55.216 53.8479 53.9871 53.8479 52.4766V51.7156H55.2593C57.8734 51.7156 60 49.5889 60 46.9749V32.9103C60 30.4019 58.0414 28.3436 55.5735 28.1812V28.1812ZM4.7407 49.9597C3.09492 49.9597 1.75582 48.6207 1.75582 46.9748V32.9103C1.75582 31.2645 3.0948 29.9254 4.7407 29.9254H6.15223V49.9597H4.7407ZM13.6952 27.4086V52.4765C13.6952 53.0189 13.254 53.4601 12.7117 53.4601H8.89148C8.34914 53.4601 7.90793 53.0189 7.90793 52.4765V27.4086C7.90793 26.8662 8.34914 26.425 8.89148 26.425H12.7117C13.254 26.425 13.6952 26.8662 13.6952 27.4086V27.4086ZM58.2442 46.9748C58.2442 48.6206 56.9052 49.9597 55.2593 49.9597H53.8479V36.258C53.8479 35.7732 53.4548 35.3802 52.97 35.3802C52.4851 35.3802 52.0922 35.7732 52.0922 36.258V52.4765C52.0922 53.0189 51.651 53.4601 51.1085 53.4601H47.2883C46.746 53.4601 46.3048 53.0189 46.3048 52.4765V27.4086C46.3048 26.8662 46.746 26.425 47.2883 26.425H51.1085C51.651 26.425 52.0922 26.8662 52.0922 27.4086V32.0956C52.0922 32.5804 52.4852 32.9735 52.97 32.9735C53.455 32.9735 53.8479 32.5804 53.8479 32.0956V29.9254H55.2593C56.9051 29.9254 58.2442 31.2644 58.2442 32.9103V46.9748Z" fill="#0F4C8A"/>
</svg>
