<svg width="60" height="60" viewBox="0 0 60 60" fill="none" xmlns="http://www.w3.org/2000/svg">
<path d="M56.7388 29.1376H47.5622C47.0765 29.1376 46.6828 29.5312 46.6828 30.0169C46.6828 30.5027 47.0765 30.8963 47.5622 30.8963H56.7388C57.5673 30.8963 58.2413 31.5704 58.2413 32.3989V56.6807C58.2413 57.5091 57.5673 58.1831 56.7388 58.1831H3.26109C2.43257 58.1831 1.75863 57.5091 1.75863 56.6807V32.3986C1.75863 31.5701 2.43257 30.8961 3.26109 30.8961H42.8726C43.3584 30.8961 43.752 30.5024 43.752 30.0167C43.752 29.531 43.3584 29.1373 42.8726 29.1373H33.8786V27.0381C33.8786 26.0189 33.0493 25.1895 32.03 25.1895H30.7716V23.7032C30.7716 22.3248 31.8931 21.2033 33.2717 21.2033H34.8373C37.1855 21.2033 39.096 19.2928 39.096 16.9446V14.5583C39.096 12.2101 37.1855 10.2996 34.8373 10.2996H33.3795C32.0009 10.2996 30.8794 9.1781 30.8794 7.79963V0.937845C30.8794 0.452104 30.4858 0.0584717 30.0001 0.0584717C29.5143 0.0584717 29.1207 0.452104 29.1207 0.937845V7.79975C29.1207 10.1479 31.0312 12.0584 33.3794 12.0584H34.8372C36.2157 12.0584 37.3372 13.1799 37.3372 14.5584V16.9447C37.3372 18.3232 36.2157 19.4446 34.8372 19.4446H33.2716C30.9234 19.4446 29.0129 21.3552 29.0129 23.7033V25.1896H27.9304C26.9111 25.1896 26.0818 26.019 26.0818 27.0383V29.1374H3.26109C1.46285 29.1376 0 30.6004 0 32.3986V56.6804C0 58.4786 1.46285 59.9415 3.26109 59.9415H56.7389C58.537 59.9415 60 58.4787 60 56.6804V32.3986C59.9999 30.6004 58.537 29.1376 56.7388 29.1376ZM27.9304 26.9484H32.0299C32.0794 26.9484 32.1199 26.9888 32.1199 27.0384V29.1376H27.8405V27.0384H27.8404C27.8404 26.9888 27.8808 26.9484 27.9304 26.9484Z" fill="#0F4C8A"/>
<path d="M9.11494 33.2792H5.23253C4.44796 33.2792 3.80975 33.9174 3.80975 34.7019V38.2748C3.80987 39.0593 4.44807 39.6975 5.23253 39.6975H9.11494C9.89951 39.6975 10.5377 39.0593 10.5377 38.2748V34.7019C10.5377 33.9174 9.89951 33.2792 9.11494 33.2792ZM8.77908 37.9389H5.5685V35.0379H8.77908V37.9389Z" fill="#0F4C8A"/>
<path d="M16.7237 33.2792H12.8413C12.0567 33.2792 11.4185 33.9174 11.4185 34.7019V38.2748C11.4185 39.0593 12.0567 39.6975 12.8413 39.6975H16.7237C17.5083 39.6975 18.1466 39.0593 18.1466 38.2748V34.7019C18.1465 33.9174 17.5082 33.2792 16.7237 33.2792ZM16.3878 37.9388H13.1771V35.0378H16.3878V37.9388Z" fill="#0F4C8A"/>
<path d="M24.3325 33.2792H20.4501C19.6655 33.2792 19.0273 33.9174 19.0273 34.7019V38.2748C19.0273 39.0593 19.6655 39.6975 20.4501 39.6975H24.3325C25.117 39.6975 25.7552 39.0593 25.7552 38.2748V34.7019C25.7552 33.9174 25.117 33.2792 24.3325 33.2792ZM23.9965 37.9388H20.7859V35.0378H23.9965V37.9388Z" fill="#0F4C8A"/>
<path d="M31.9412 33.2792H28.0588C27.2742 33.2792 26.636 33.9174 26.636 34.7019V38.2748C26.636 39.0593 27.2742 39.6975 28.0588 39.6975H31.9412C32.7258 39.6975 33.3641 39.0593 33.3641 38.2748V34.7019C33.364 33.9174 32.7257 33.2792 31.9412 33.2792ZM31.6054 37.9388H28.3947V35.0378H31.6054V37.9388Z" fill="#0F4C8A"/>
<path d="M39.5499 33.2792H35.6675C34.883 33.2792 34.2448 33.9174 34.2448 34.7019V38.2748C34.2448 39.0593 34.883 39.6975 35.6675 39.6975H39.5499C40.3345 39.6975 40.9727 39.0593 40.9727 38.2748V34.7019C40.9727 33.9174 40.3345 33.2792 39.5499 33.2792ZM39.214 37.9388H36.0034V35.0378H39.214V37.9388Z" fill="#0F4C8A"/>
<path d="M47.1586 33.2792H43.2762C42.4916 33.2792 41.8534 33.9174 41.8534 34.7019V38.2748C41.8534 39.0593 42.4916 39.6975 43.2762 39.6975H47.1586C47.9432 39.6975 48.5815 39.0593 48.5815 38.2748V34.7019C48.5815 33.9174 47.9432 33.2792 47.1586 33.2792ZM46.8228 37.9388H43.6121V35.0378H46.8228V37.9388Z" fill="#0F4C8A"/>
<path d="M54.7673 33.2792H50.8849C50.1004 33.2792 49.4622 33.9174 49.4622 34.7019V38.2748C49.4622 39.0593 50.1004 39.6975 50.8849 39.6975H54.7673C55.5519 39.6975 56.1901 39.0593 56.1901 38.2748V34.7019C56.1901 33.9174 55.5519 33.2792 54.7673 33.2792ZM54.4314 37.9389H51.2208V35.0379H54.4314V37.9389Z" fill="#0F4C8A"/>
<path d="M12.4406 41.7214H5.23252C4.44796 41.7214 3.80975 42.3596 3.80975 43.1442V46.717C3.80975 47.5016 4.44796 48.1398 5.23252 48.1398H12.4406C13.2252 48.1397 13.8634 47.5015 13.8634 46.717V43.1442C13.8634 42.3596 13.2252 41.7214 12.4406 41.7214ZM12.1047 46.381H5.5685V43.4801H12.1047V46.381Z" fill="#0F4C8A"/>
<path d="M54.7674 41.7213H47.5593C46.7747 41.7214 46.1365 42.3596 46.1365 43.1441V46.7169C46.1365 47.5015 46.7747 48.1397 47.5593 48.1397H54.7674C55.5519 48.1397 56.1901 47.5015 56.1901 46.7169V43.1441C56.1901 42.3595 55.5519 41.7213 54.7674 41.7213ZM54.4315 46.381H47.8953V43.4801H54.4315V46.381Z" fill="#0F4C8A"/>
<path d="M20.1947 41.7213H16.3122C15.5277 41.7214 14.8895 42.3596 14.8895 43.1441V46.7169C14.8895 47.5015 15.5277 48.1397 16.3122 48.1397H20.1947C20.9792 48.1397 21.6175 47.5015 21.6175 46.7169V43.1441C21.6175 42.3595 20.9792 41.7213 20.1947 41.7213ZM19.8588 46.381H16.6481V43.4801H19.8588V46.381Z" fill="#0F4C8A"/>
<path d="M28.0257 41.7213H24.1433C23.3586 41.7214 22.7205 42.3596 22.7205 43.1441V46.7169C22.7205 47.5015 23.3587 48.1397 24.1433 48.1397H28.0257C28.8103 48.1397 29.4486 47.5015 29.4486 46.7169V43.1441C29.4486 42.3595 28.8103 41.7213 28.0257 41.7213ZM27.6898 46.381H24.4792V43.4801H27.6898V46.381Z" fill="#0F4C8A"/>
<path d="M35.8566 41.7213H31.9742C31.1896 41.7214 30.5514 42.3596 30.5514 43.1441V46.7169C30.5514 47.5015 31.1896 48.1397 31.9742 48.1397H35.8566C36.6411 48.1397 37.2795 47.5015 37.2795 46.7169V43.1441C37.2795 42.3595 36.6411 41.7213 35.8566 41.7213ZM35.5208 46.381H32.3101V43.4801H35.5208V46.381Z" fill="#0F4C8A"/>
<path d="M43.6876 41.7213H39.8052C39.0206 41.7214 38.3824 42.3596 38.3824 43.1441V46.7169C38.3824 47.5015 39.0206 48.1397 39.8052 48.1397H43.6876C44.4722 48.1397 45.1105 47.5015 45.1105 46.7169V43.1441C45.1105 42.3595 44.4722 41.7213 43.6876 41.7213ZM43.3518 46.381H40.1411V43.4801H43.3518V46.381Z" fill="#0F4C8A"/>
<path d="M46.4725 50.1635H20.5982C20.1125 50.1635 19.7189 50.5571 19.7189 51.0428C19.7189 51.5286 20.1125 51.9222 20.5982 51.9222H46.1365V54.8232H13.8634V51.9222H15.9228C16.4086 51.9222 16.8022 51.5286 16.8022 51.0428C16.8022 50.5571 16.4086 50.1635 15.9228 50.1635H13.5275C12.7429 50.1635 12.1047 50.8017 12.1047 51.5862V55.159C12.1046 55.9436 12.7428 56.5818 13.5274 56.5818H46.4725C47.2571 56.5818 47.8953 55.9436 47.8953 55.159V51.5862C47.8953 50.8017 47.2571 50.1635 46.4725 50.1635Z" fill="#0F4C8A"/>
<path d="M9.11494 50.1636H5.23253C4.44796 50.1636 3.80975 50.8018 3.80975 51.5863V55.1592C3.80975 55.9437 4.44796 56.5819 5.23253 56.5819H9.11494C9.89951 56.5819 10.5377 55.9437 10.5377 55.1592V51.5863C10.5377 50.8018 9.89951 50.1636 9.11494 50.1636ZM8.77908 54.8232H5.5685V51.9222H8.77908V54.8232Z" fill="#0F4C8A"/>
<path d="M54.7673 50.1636H50.8849C50.1004 50.1636 49.4622 50.8018 49.4622 51.5863V55.1592C49.4622 55.9437 50.1004 56.5819 50.8849 56.5819H54.7673C55.5519 56.5819 56.1901 55.9437 56.1901 55.1592V51.5863C56.19 50.8018 55.5518 50.1636 54.7673 50.1636ZM54.4314 54.8232H51.2208V51.9222H54.4314V54.8232Z" fill="#0F4C8A"/>
</svg>
