<svg width="60" height="60" viewBox="0 0 60 60" fill="none" xmlns="http://www.w3.org/2000/svg">
<path d="M7.79629 24.8593L23.4984 11.9154C23.8732 11.6065 23.9262 11.0526 23.6175 10.6782C23.3089 10.3038 22.7551 10.2501 22.3803 10.5591L6.67819 23.5029C6.30342 23.8118 6.25041 24.3657 6.55905 24.7401C6.8677 25.1145 7.42152 25.1682 7.79629 24.8593V24.8593Z" fill="#0F4C8A"/>
<path d="M10.8632 10.5591L7.67819 13.1846C7.30377 13.4932 7.25012 14.047 7.55905 14.4218C7.8677 14.7962 8.42188 14.8496 8.79629 14.5409L11.9813 11.9154C12.3557 11.6068 12.4091 11.0526 12.1004 10.6782C11.7915 10.3034 11.2376 10.2504 10.8632 10.5591Z" fill="#0F4C8A"/>
<path d="M56.7755 3.51562H3.22449C1.44653 3.51562 0 4.96216 0 6.74057V42.1303C0 43.9082 1.44653 45.3548 3.22449 45.3548H23.6261L22.4579 49.8981H18.2945C16.3971 49.8981 14.8535 51.4417 14.8535 53.3391V54.5645C14.8535 55.6856 15.7658 56.5974 16.8869 56.5974H43.1131C44.2342 56.5974 45.1465 55.6856 45.1465 54.5645V53.3391C45.1465 51.4417 43.6029 49.8981 41.7055 49.8981H37.5421L36.3739 45.3548H56.7755C58.5535 45.3548 60 43.9082 60 42.1303V6.74057C60 4.96216 58.5535 3.51562 56.7755 3.51562V3.51562ZM41.7055 51.6559C42.6334 51.6559 43.3887 52.4107 43.3887 53.3391V54.5645C43.3887 54.716 43.2651 54.8396 43.1131 54.8396H16.8869C16.7349 54.8396 16.6113 54.716 16.6113 54.5645V53.3391C16.6113 52.4107 17.3666 51.6559 18.2945 51.6559H41.7055ZM24.2729 49.8981L25.4411 45.3548H34.5589L35.7271 49.8981H24.2729ZM58.2422 42.1303C58.2422 42.9391 57.5844 43.597 56.7755 43.597H3.22449C2.41562 43.597 1.75781 42.9391 1.75781 42.1303V40.2068H58.2422V42.1303ZM58.2422 38.4489H1.75781V6.74057C1.75781 5.9317 2.41562 5.27344 3.22449 5.27344H56.7755C57.5844 5.27344 58.2422 5.93124 58.2422 6.74057V38.4489Z" fill="#0F4C8A"/>
</svg>
