<svg width="60" height="60" viewBox="0 0 60 60" fill="none" xmlns="http://www.w3.org/2000/svg">
<path d="M46.3405 43.4302C45.8554 43.4302 45.4621 43.8235 45.4621 44.3087V51.4863C45.4621 51.6575 45.3229 51.7967 45.1517 51.7967H14.8485C14.6772 51.7967 14.538 51.6575 14.538 51.4863V44.291C14.538 43.8058 14.1447 43.4125 13.6596 43.4125C13.1744 43.4125 12.7812 43.8058 12.7812 44.291V51.4864C12.7812 52.6263 13.7086 53.5537 14.8485 53.5537H45.1518C46.2917 53.5537 47.2191 52.6263 47.2191 51.4864V44.3088C47.219 43.8235 46.8258 43.4302 46.3405 43.4302Z" fill="#0F4C8A"/>
<path d="M45.1517 30.3433H14.8485C13.7085 30.3433 12.7812 31.2707 12.7812 32.4106V39.606C12.7812 40.0912 13.1744 40.4844 13.6596 40.4844C14.1447 40.4844 14.538 40.0912 14.538 39.606V32.4106C14.538 32.2394 14.6772 32.1002 14.8485 32.1002H45.1518C45.323 32.1002 45.4622 32.2394 45.4622 32.4106V39.5846C45.4622 40.0697 45.8555 40.463 46.3407 40.463C46.8258 40.463 47.2191 40.0697 47.2191 39.5846V32.4106C47.219 31.2707 46.2917 30.3433 45.1517 30.3433Z" fill="#0F4C8A"/>
<path d="M46.3405 3.37817C45.8554 3.37817 45.4621 3.77145 45.4621 4.25661V11.9857C45.4621 12.4709 45.8554 12.8641 46.3405 12.8641C46.8257 12.8641 47.219 12.4709 47.219 11.9857V4.25661C47.219 3.77145 46.8258 3.37817 46.3405 3.37817Z" fill="#0F4C8A"/>
<path d="M40.9902 3.37817C40.5051 3.37817 40.1118 3.77145 40.1118 4.25661V11.9857C40.1118 12.4709 40.5051 12.8641 40.9902 12.8641C41.4754 12.8641 41.8687 12.4709 41.8687 11.9857V4.25661C41.8687 3.77145 41.4754 3.37817 40.9902 3.37817Z" fill="#0F4C8A"/>
<path d="M35.64 3.37817C35.1549 3.37817 34.7616 3.77145 34.7616 4.25661V11.9857C34.7616 12.4709 35.1549 12.8641 35.64 12.8641C36.1252 12.8641 36.5185 12.4709 36.5185 11.9857V4.25661C36.5185 3.77145 36.1252 3.37817 35.64 3.37817Z" fill="#0F4C8A"/>
<path d="M30.2897 3.37817C29.8046 3.37817 29.4113 3.77145 29.4113 4.25661V11.9857C29.4113 12.4709 29.8046 12.8641 30.2897 12.8641C30.7749 12.8641 31.1682 12.4709 31.1682 11.9857V4.25661C31.1682 3.77145 30.7749 3.37817 30.2897 3.37817Z" fill="#0F4C8A"/>
<path d="M24.9393 3.37817C24.4542 3.37817 24.0609 3.77145 24.0609 4.25661V11.9857C24.0609 12.4709 24.4543 12.8641 24.9393 12.8641C25.4245 12.8641 25.8178 12.4709 25.8178 11.9857V4.25661C25.8179 3.77145 25.4246 3.37817 24.9393 3.37817Z" fill="#0F4C8A"/>
<path d="M19.5891 3.37817C19.104 3.37817 18.7107 3.77145 18.7107 4.25661V11.9857C18.7107 12.4709 19.104 12.8641 19.5891 12.8641C20.0743 12.8641 20.4676 12.4709 20.4676 11.9857V4.25661C20.4676 3.77145 20.0743 3.37817 19.5891 3.37817Z" fill="#0F4C8A"/>
<path d="M13.6595 8.16574C13.1743 8.16574 12.781 8.55902 12.781 9.04418V11.9857C12.781 12.4709 13.1743 12.8641 13.6595 12.8641C14.1446 12.8641 14.5379 12.4709 14.5379 11.9857V9.04418C14.5379 8.55902 14.1446 8.16574 13.6595 8.16574Z" fill="#0F4C8A"/>
<path d="M52.1383 21.17V9.62072C52.8501 9.50951 53.3963 8.8924 53.3963 8.14991L53.3962 2.77136C53.3959 1.24336 52.1527 0 50.6246 0H16.8745C16.0861 0 15.3446 0.307148 14.7872 0.864608L7.46835 8.18342C6.91089 8.741 6.60386 9.48233 6.60386 10.2708V18.4507C6.60386 19.4308 7.4012 20.2282 8.38124 20.2282C8.39249 20.2282 8.40175 20.2373 8.40175 20.2487V23.8876C8.40175 23.8989 8.39249 23.9081 8.38124 23.9081C7.4012 23.9081 6.60386 24.7054 6.60386 25.6856V57.2285C6.60386 58.7568 7.84686 60 9.37475 60L20.4084 59.9999C21.2258 59.9999 21.9607 59.5454 22.3263 58.8138C22.3333 58.7998 22.34 58.7856 22.3462 58.7712C22.3916 58.6669 22.4943 58.5994 22.6084 58.5994L37.3917 58.5995C37.5034 58.5995 37.6054 58.6651 37.6517 58.767C37.9925 59.5158 38.7268 59.9998 39.5224 59.9998H50.6263C52.1536 59.9998 53.3962 58.7569 53.3962 57.2292L53.3963 22.6559C53.3962 21.9109 52.8514 21.2902 52.1383 21.17ZM51.6393 22.8881L51.6392 57.2293C51.6392 57.7883 51.1847 58.243 50.6262 58.243H39.5222C39.3904 58.243 39.2955 58.1379 39.2508 58.0398C38.9202 57.3127 38.1904 56.8429 37.3915 56.8429L22.6085 56.8427C22.6082 56.8427 22.6081 56.8427 22.608 56.8427C21.8055 56.8427 21.0792 57.312 20.7482 58.0411C20.6802 58.1661 20.5511 58.2432 20.4083 58.2432L9.37464 58.2431C8.81553 58.2431 8.36061 57.788 8.36061 57.2285V25.6853C8.36061 25.674 8.36987 25.6647 8.38112 25.6647C9.36116 25.6647 10.1585 24.8674 10.1585 23.8873V20.2484C10.1585 19.2684 9.36116 18.4711 8.38112 18.4711C8.36975 18.4711 8.36061 18.4618 8.36061 18.4504V10.2706C8.36061 9.95143 8.48495 9.65131 8.71065 9.42561L16.0293 2.10691C16.2551 1.88109 16.5552 1.75675 16.8744 1.75675H50.6244C51.1839 1.75675 51.639 2.21203 51.6392 2.77136L51.6393 7.90264C50.9261 8.02287 50.3813 8.64326 50.3813 9.38811V21.4184C50.3814 22.1603 50.9276 22.7772 51.6393 22.8881Z" fill="#0F4C8A"/>
</svg>
