<svg width="54" height="54" viewBox="0 0 54 54" fill="none" xmlns="http://www.w3.org/2000/svg">
<path d="M53.2056 4L24 4.00002C23.5612 4.00002 23.2056 4.35563 23.2056 4.79437C23.2056 5.23311 23.5612 5.58872 24 5.58872L53.2056 5.58871C53.6444 5.58871 54 5.23309 54 4.79435C54 4.35562 53.6444 4 53.2056 4Z" fill="#0F4C8A"/>
<path d="M39 10.7H24C23.5612 10.7 23.2056 11.0556 23.2056 11.4944C23.2056 11.9331 23.5612 12.2887 24 12.2887H39C39.4387 12.2887 39.7944 11.9331 39.7944 11.4944C39.7944 11.0556 39.4387 10.7 39 10.7Z" fill="#0F4C8A"/>
<path d="M42.7944 10.7C42.3556 10.7 42 11.0556 42 11.4944C42 11.9331 42.3556 12.2887 42.7944 12.2887C43.2331 12.2887 43.5887 11.9331 43.5887 11.4944C43.5887 11.0556 43.2331 10.7 42.7944 10.7Z" fill="#0F4C8A"/>
<path d="M53.2056 41.8L24 41.8C23.5612 41.8 23.2056 42.1556 23.2056 42.5944C23.2056 43.0331 23.5612 43.3887 24 43.3887L53.2056 43.3887C53.6444 43.3887 54 43.0331 54 42.5943C54 42.1556 53.6444 41.8 53.2056 41.8Z" fill="#0F4C8A"/>
<path d="M39 48.5H24C23.5612 48.5 23.2056 48.8556 23.2056 49.2944C23.2056 49.7331 23.5612 50.0887 24 50.0887H39C39.4387 50.0887 39.7944 49.7331 39.7944 49.2944C39.7944 48.8556 39.4387 48.5 39 48.5Z" fill="#0F4C8A"/>
<path d="M42.7944 48.5C42.3556 48.5 42 48.8556 42 49.2944C42 49.7331 42.3556 50.0887 42.7944 50.0887C43.2331 50.0887 43.5887 49.7331 43.5887 49.2944C43.5887 48.8556 43.2331 48.5 42.7944 48.5Z" fill="#0F4C8A"/>
<path d="M53.2056 22.9L24 22.9C23.5612 22.9 23.2056 23.2556 23.2056 23.6944C23.2056 24.1331 23.5612 24.4887 24 24.4887L53.2056 24.4887C53.6444 24.4887 54 24.1331 54 23.6943C54 23.2556 53.6444 22.9 53.2056 22.9Z" fill="#0F4C8A"/>
<path d="M43.0944 29.6H28.0943C27.6556 29.6 27.3 29.9556 27.3 30.3944C27.3 30.8331 27.6556 31.1887 28.0943 31.1887H43.0944C43.5331 31.1887 43.8887 30.8331 43.8887 30.3944C43.8887 29.9556 43.5331 29.6 43.0944 29.6Z" fill="#0F4C8A"/>
<path d="M24.1944 29.6C23.7556 29.6 23.4 29.9556 23.4 30.3944C23.4 30.8331 23.7556 31.1887 24.1944 31.1887C24.6331 31.1887 24.9887 30.8331 24.9887 30.3944C24.9887 29.9556 24.6331 29.6 24.1944 29.6Z" fill="#0F4C8A"/>
<circle cx="8.5" cy="8" r="7" stroke="#0F4C8A" stroke-width="2"/>
<circle cx="8.5" cy="27" r="7" stroke="#0F4C8A" stroke-width="2"/>
<circle cx="8.5" cy="46" r="7" stroke="#0F4C8A" stroke-width="2"/>
</svg>
