<svg width="60" height="60" viewBox="0 0 60 60" fill="none" xmlns="http://www.w3.org/2000/svg">
<path d="M19.5189 13.6992C20.0144 13.6992 20.416 13.2976 20.416 12.8021C20.416 12.3067 20.0144 11.9051 19.5189 11.9051H18.2747V9.91521H19.5189C20.0144 9.91521 20.416 9.51361 20.416 9.01814C20.416 8.52268 20.0144 8.12108 19.5189 8.12108H18.2747V7.91061C18.2745 6.92787 17.4753 6.12854 16.4928 6.12854H10.4735C9.491 6.12854 8.69178 6.92787 8.69178 7.91037V8.12084H7.44748C6.95202 8.12084 6.55042 8.52244 6.55042 9.01791C6.55042 9.51338 6.95202 9.91498 7.44748 9.91498H8.6919V11.9048H7.44748C6.95202 11.9048 6.55042 12.3064 6.55042 12.8019C6.55042 13.2974 6.95202 13.699 7.44748 13.699H8.6919V15.6888H7.44748C6.95202 15.6888 6.55042 16.0904 6.55042 16.5859C6.55042 17.0813 6.95202 17.4829 7.44748 17.4829H8.6919V19.4728H7.44748C6.95202 19.4728 6.55042 19.8744 6.55042 20.3698C6.55042 20.8653 6.95202 21.2669 7.44748 21.2669H8.6919V23.2567H7.44748C6.95202 23.2567 6.55042 23.6584 6.55042 24.1538C6.55042 24.6493 6.95202 25.0509 7.44748 25.0509H8.6919V27.0407H7.44748C6.95202 27.0407 6.55042 27.4423 6.55042 27.9378C6.55042 28.4333 6.95202 28.8349 7.44748 28.8349H8.6919V30.8246H7.44748C6.95202 30.8246 6.55042 31.2262 6.55042 31.7217C6.55042 32.2171 6.95202 32.6187 7.44748 32.6187H8.6919V34.6086H7.44748C6.95202 34.6086 6.55042 35.0102 6.55042 35.5056C6.55042 36.0011 6.95202 36.4027 7.44748 36.4027H8.6919V37.0824C8.6919 38.0649 9.49111 38.8641 10.4736 38.8641H16.4928C17.4753 38.8641 18.2747 38.0649 18.2747 37.0824V36.4027H19.5189C20.0144 36.4027 20.416 36.0011 20.416 35.5056C20.416 35.0102 20.0144 34.6086 19.5189 34.6086H18.2747V32.6187H19.5189C20.0144 32.6187 20.416 32.2171 20.416 31.7217C20.416 31.2262 20.0144 30.8246 19.5189 30.8246H18.2747V28.8351H19.5189C20.0144 28.8351 20.416 28.4335 20.416 27.938C20.416 27.4426 20.0144 27.041 19.5189 27.041H18.2747V25.0511H19.5189C20.0144 25.0511 20.416 24.6495 20.416 24.1541C20.416 23.6586 20.0144 23.257 19.5189 23.257H18.2747V21.2671H19.5189C20.0144 21.2671 20.416 20.8655 20.416 20.3701C20.416 19.8746 20.0144 19.473 19.5189 19.473H18.2747V17.4832H19.5189C20.0144 17.4832 20.416 17.0816 20.416 16.5861C20.416 16.0906 20.0144 15.689 19.5189 15.689H18.2747V13.6992H19.5189ZM10.486 37.0829L9.58896 37.0827L10.486 37.0829ZM16.4804 37.0702H10.486V7.92279H16.4804V37.0702Z" fill="#0F4C8A"/>
<path d="M56.4921 2.29261H50.3208V1.60027C50.3208 0.820741 49.6867 0.186523 48.9071 0.186523H33.9066C33.1271 0.186523 32.4929 0.820624 32.4929 1.60027V2.29261H29.6749V1.60027C29.6749 0.820741 29.0408 0.186523 28.2611 0.186523H24.6862C23.9067 0.186523 23.2725 0.820624 23.2725 1.60027V2.29261H15.2704C14.775 2.29261 14.3734 2.69421 14.3734 3.18968C14.3734 3.68515 14.775 4.08675 15.2704 4.08675H23.2725V5.17519C23.2725 5.95472 23.9066 6.58893 24.6862 6.58893H28.2611C29.0406 6.58893 29.6749 5.95483 29.6749 5.17519V4.08675H32.4929V5.17519C32.4929 5.95472 33.127 6.58893 33.9066 6.58893H48.9071C49.6866 6.58893 50.3208 5.95483 50.3208 5.17519V4.08675H56.4921C57.437 4.08675 58.2057 4.8555 58.2057 5.80038V56.3056C58.2057 57.2505 57.437 58.0193 56.4921 58.0193H5.98686C5.04198 58.0193 4.27323 57.2505 4.27323 56.3056V55.2881H5.24894C6.04827 55.2881 6.69854 54.6378 6.69854 53.8385V45.3336C6.69854 44.5343 6.04827 43.884 5.24894 43.884H4.27323V5.80038C4.27323 4.8555 5.04198 4.08675 5.98686 4.08675H10.486C10.9815 4.08675 11.3831 3.68515 11.3831 3.18968C11.3831 2.69421 10.9815 2.29261 10.486 2.29261H5.98686C4.05269 2.29261 2.4791 3.86609 2.4791 5.80038V43.884H1.44961C0.650272 43.884 0 44.5343 0 45.3336V53.8385C0 54.6378 0.650272 55.2881 1.44961 55.2881H2.47921V56.3056C2.47921 58.2398 4.05269 59.8134 5.98698 59.8134H56.4922C58.4264 59.8134 60 58.2399 60 56.3056V5.80038C59.9999 3.86609 58.4264 2.29261 56.4921 2.29261ZM27.8807 4.79468H25.0667V1.98066H27.8807V4.79468ZM48.5265 4.79468H34.287V1.98066H48.5265V4.79468ZM1.79414 53.4938V45.6782H4.90441V53.4937C4.90358 53.4937 1.79496 53.4938 1.79414 53.4938Z" fill="#0F4C8A"/>
<path d="M40.5058 18.8337C34.5935 18.8337 29.7833 23.6439 29.7833 29.5563C29.7833 35.4686 34.5935 40.2787 40.5058 40.2787C46.4181 40.2787 51.2283 35.4686 51.2283 29.5563C51.2283 23.6439 46.4181 18.8337 40.5058 18.8337ZM40.5058 38.4845C35.5826 38.4845 31.5774 34.4793 31.5774 29.5563C31.5774 24.6331 35.5827 20.6279 40.5058 20.6279C45.4289 20.6279 49.4342 24.6331 49.4342 29.5563C49.4342 34.4793 45.4289 38.4845 40.5058 38.4845Z" fill="#0F4C8A"/>
<path d="M48.0322 27.5167C47.1278 26.7295 45.4192 26.5825 42.8187 27.0702C43.2766 25.6342 44.0157 24.4614 44.4478 23.8515C44.7404 23.4386 44.8038 22.9114 44.6175 22.4409C44.4311 21.9704 44.0237 21.6295 43.5281 21.529C40.883 20.9926 39.227 21.1563 38.4663 22.0301C37.679 22.9347 37.532 24.6432 38.0199 27.2436C36.5837 26.7857 35.411 26.0466 34.801 25.6142C34.3881 25.3219 33.8608 25.2585 33.3905 25.4447C32.9201 25.6311 32.5792 26.0383 32.4785 26.5342C31.942 29.1796 32.1061 30.8352 32.9796 31.5958C33.5374 32.0813 34.4005 32.3234 35.5897 32.3234C36.3293 32.3234 37.1965 32.2287 38.1933 32.0418C37.7353 33.4781 36.9961 34.6511 36.5639 35.2613C36.2715 35.6741 36.2081 36.2014 36.3945 36.6719C36.5808 37.1422 36.988 37.4832 37.4838 37.5837C38.4945 37.7886 39.3602 37.8913 40.0873 37.8913C41.2633 37.8912 42.0755 37.6224 42.5454 37.0825C43.3329 36.1781 43.48 34.4695 42.992 31.869C44.4284 32.327 45.6008 33.066 46.2109 33.4983C46.4673 33.6799 46.7678 33.7731 47.0713 33.7731C47.2566 33.7731 47.4431 33.7383 47.6214 33.6678C48.0918 33.4815 48.4327 33.0742 48.5333 32.5784C49.0698 29.9331 48.906 28.2774 48.0322 27.5167ZM34.1584 30.2433C34.0369 30.125 33.7981 29.3443 34.1509 27.3434C34.9289 27.8575 35.9775 28.4432 37.2114 28.8671C37.1651 29.0884 37.1405 29.3176 37.1402 29.5523C37.1402 29.5536 37.1401 29.555 37.1401 29.5563C37.1401 29.5563 37.1401 29.5563 37.1401 29.5564C37.1401 29.5564 37.1401 29.5564 37.1401 29.5565C37.1401 29.6214 37.1425 29.6859 37.1461 29.7499C37.1473 29.7718 37.1494 29.7934 37.151 29.8151C37.1542 29.8571 37.1579 29.8989 37.1626 29.9405C37.1656 29.9665 37.169 29.9925 37.1726 30.0184C37.1777 30.0557 37.1836 30.0927 37.1899 30.1297C37.1946 30.1566 37.1991 30.1836 37.2043 30.2103C37.2118 30.2484 37.2205 30.2859 37.2293 30.3235C37.234 30.3435 37.2376 30.3639 37.2427 30.3838C35.428 30.6584 34.4531 30.5 34.1584 30.2433ZM41.1927 35.9034C41.0743 36.0251 40.2939 36.2639 38.2927 35.9111C38.807 35.133 39.3927 34.0844 39.8166 32.8505C39.9992 32.8887 40.1871 32.9113 40.3791 32.9185C40.3882 32.9188 40.3972 32.919 40.4064 32.9192C40.4395 32.9201 40.4725 32.9216 40.5058 32.9216C40.5247 32.9216 40.5434 32.9205 40.5624 32.9202C40.5761 32.92 40.5898 32.9195 40.6035 32.9192C40.6508 32.9178 40.6981 32.9156 40.7449 32.9123C40.7617 32.9111 40.7784 32.9098 40.7951 32.9084C40.838 32.9048 40.8806 32.9001 40.9231 32.8948C40.9433 32.8924 40.9635 32.8899 40.9836 32.8871C41.0208 32.8818 41.0576 32.8755 41.0944 32.869C41.119 32.8647 41.1437 32.8607 41.1681 32.8558C41.1986 32.8497 41.2287 32.8425 41.2588 32.8356C41.2835 32.83 41.3086 32.8253 41.3331 32.8191C41.6079 34.6338 41.4492 35.6088 41.1927 35.9034ZM42.0771 29.5566C42.0771 29.603 42.0741 29.6487 42.0701 29.6942C42.0687 29.7099 42.067 29.7256 42.0652 29.7413C42.0616 29.7714 42.0567 29.8012 42.0515 29.8308C42.0447 29.8683 42.0366 29.9056 42.0271 29.9425C42.0237 29.9558 42.0205 29.969 42.0169 29.982C42.0081 30.0128 41.9985 30.0434 41.9877 30.0736C41.9869 30.076 41.9859 30.0784 41.9851 30.0808C41.9497 30.1793 41.9045 30.2749 41.8495 30.3658C41.8486 30.3674 41.8479 30.3692 41.8468 30.3708C41.7458 30.5364 41.6156 30.6817 41.4626 30.7997C41.4616 30.8004 41.4607 30.8009 41.4598 30.8016C41.3339 30.8982 41.1972 30.9729 41.0532 31.0271C41.0338 31.0343 41.0146 31.042 40.9948 31.0485C40.9739 31.0554 40.9526 31.0613 40.9315 31.0673C40.9051 31.0747 40.8786 31.0817 40.8518 31.0878C40.8331 31.092 40.8142 31.096 40.7952 31.0995C40.7638 31.1054 40.732 31.1102 40.6999 31.114C40.684 31.116 40.6683 31.1184 40.6524 31.1199C40.604 31.1243 40.5552 31.1273 40.5058 31.1273C40.4592 31.1273 40.4133 31.1242 40.3678 31.1202C40.3522 31.1188 40.3365 31.1172 40.3209 31.1153C40.2906 31.1117 40.2606 31.1068 40.2308 31.1015C40.1939 31.0948 40.1574 31.0868 40.121 31.0775C40.1073 31.074 40.0934 31.0707 40.0798 31.0668C40.0492 31.058 40.0188 31.0485 39.9888 31.0379C39.986 31.0369 39.9833 31.0358 39.9805 31.0348C39.8822 30.9994 39.7869 30.9543 39.6962 30.8995C39.6946 30.8985 39.6929 30.8978 39.6913 30.8969C39.5262 30.7962 39.3812 30.6665 39.2633 30.5142C39.2623 30.5127 39.2615 30.5111 39.2604 30.5097C39.1637 30.3838 39.0888 30.2468 39.0346 30.1028C39.0273 30.0836 39.0198 30.0645 39.0133 30.0448C39.0063 30.0238 39.0005 30.0025 38.9945 29.9813C38.9871 29.9551 38.9801 29.9287 38.974 29.9018C38.9697 29.883 38.9658 29.8641 38.9622 29.845C38.9563 29.8137 38.9516 29.7821 38.9476 29.7502C38.9456 29.7342 38.9432 29.7182 38.9417 29.7022C38.9372 29.654 38.9343 29.6055 38.9343 29.5561C38.9343 29.5559 38.9343 29.5558 38.9343 29.5556C38.9344 29.5096 38.9373 29.4638 38.9414 29.4182C38.9428 29.4026 38.9443 29.3872 38.9462 29.3716C38.9497 29.3411 38.9548 29.311 38.96 29.2811C38.9667 29.2442 38.9747 29.2076 38.9841 29.1713C38.9876 29.1576 38.9909 29.1438 38.9946 29.1302C39.0034 29.0996 39.0129 29.0691 39.0236 29.039C39.0245 29.0363 39.0256 29.0336 39.0265 29.0309C39.0619 28.9325 39.1071 28.8371 39.162 28.7463C39.1628 28.7449 39.1635 28.7432 39.1643 28.7417C39.2654 28.5756 39.3961 28.4301 39.5496 28.3118C39.5502 28.3114 39.551 28.311 39.5516 28.3106C39.6775 28.214 39.8142 28.1392 39.9581 28.0851C39.9776 28.0778 39.9968 28.0702 40.0166 28.0636C40.0375 28.0567 40.0588 28.0509 40.0799 28.0449C40.1063 28.0375 40.1327 28.0305 40.1596 28.0244C40.1783 28.0202 40.1972 28.0162 40.2162 28.0127C40.2476 28.0068 40.2793 28.002 40.3115 27.9981C40.3274 27.9961 40.3431 27.9938 40.359 27.9923C40.4074 27.9878 40.4562 27.9849 40.5056 27.9849C40.5522 27.9849 40.598 27.9879 40.6436 27.9919C40.6593 27.9933 40.675 27.995 40.6906 27.9968C40.7208 28.0004 40.7504 28.0053 40.7802 28.0106C40.8176 28.0174 40.8549 28.0254 40.8916 28.0349C40.9049 28.0383 40.9184 28.0415 40.9315 28.0452C40.9622 28.054 40.9928 28.0636 41.0229 28.0743C41.0255 28.0752 41.0281 28.0762 41.0306 28.0771C41.1292 28.1125 41.2247 28.1577 41.3155 28.2126C41.3167 28.2133 41.318 28.2138 41.3191 28.2145C41.4847 28.3152 41.63 28.4452 41.7482 28.598C41.7492 28.5994 41.7499 28.601 41.751 28.6022C41.8474 28.7277 41.9221 28.8643 41.9763 29.0078C41.9837 29.0276 41.9916 29.0472 41.9982 29.0675C42.005 29.0881 42.0108 29.1091 42.0168 29.1301C42.0243 29.1567 42.0314 29.1835 42.0375 29.2107C42.0417 29.2292 42.0456 29.2478 42.0491 29.2665C42.0551 29.2982 42.0598 29.3302 42.0639 29.3626C42.0659 29.3781 42.0682 29.3937 42.0696 29.4094C42.0742 29.4578 42.0771 29.5067 42.0771 29.5563C42.0771 29.5564 42.0771 29.5565 42.0771 29.5566ZM41.1949 26.2619C41.0122 26.2237 40.824 26.201 40.632 26.1939C40.6233 26.1936 40.6146 26.1936 40.6058 26.1932C40.5724 26.1923 40.5393 26.1906 40.5058 26.1906C40.4868 26.1906 40.468 26.1918 40.4491 26.192C40.4353 26.1923 40.4216 26.1927 40.4079 26.1931C40.3609 26.1944 40.314 26.1967 40.2675 26.2C40.2502 26.2012 40.2328 26.2025 40.2155 26.204C40.1735 26.2076 40.1318 26.2121 40.0902 26.2172C40.069 26.2198 40.0478 26.2224 40.0266 26.2253C39.9906 26.2305 39.955 26.2366 39.9195 26.2428C39.8938 26.2472 39.8681 26.2515 39.8426 26.2565C39.8129 26.2625 39.7838 26.2694 39.7543 26.2762C39.729 26.2819 39.7034 26.2867 39.6782 26.2932C39.4035 24.4787 39.5622 23.5038 39.8187 23.209C39.891 23.1346 40.2108 23.0164 40.9057 23.0164C41.3475 23.0164 41.9407 23.0642 42.7186 23.2014C42.2045 23.9795 41.6188 25.028 41.1949 26.2619ZM46.8607 31.7691C46.0828 31.255 45.0343 30.6694 43.8002 30.2454C43.8468 30.0229 43.8715 29.7925 43.8715 29.5564C43.8715 29.5564 43.8715 29.5564 43.8715 29.5563C43.8715 29.5561 43.8715 29.5563 43.8715 29.5561C43.8715 29.556 43.8715 29.5558 43.8715 29.5556C43.8715 29.4909 43.8691 29.4268 43.8655 29.363C43.8642 29.3408 43.8621 29.3187 43.8605 29.2965C43.8573 29.255 43.8537 29.2136 43.849 29.1726C43.8459 29.1462 43.8425 29.1199 43.8389 29.0936C43.8339 29.0567 43.828 29.02 43.8217 28.9836C43.817 28.9564 43.8124 28.9292 43.8072 28.9021C43.7997 28.864 43.791 28.8264 43.7821 28.7888C43.7774 28.7689 43.7739 28.7486 43.7688 28.7288C45.5824 28.454 46.5572 28.6126 46.8534 28.8695C46.9751 28.9888 47.2134 29.7698 46.8607 31.7691Z" fill="#0F4C8A"/>
<path d="M14.3858 42.8188C13.0852 41.5185 10.9693 41.5185 9.66874 42.819C8.36831 44.1195 8.36831 46.2356 9.66874 47.5361C10.3191 48.1864 11.173 48.5113 12.0274 48.5113C12.8813 48.5113 13.7357 48.1863 14.3859 47.5361C14.3859 47.5361 14.3859 47.5361 14.386 47.5361C15.6863 46.2357 15.6863 44.1195 14.3858 42.8188ZM13.1172 46.2673C12.5162 46.8684 11.5383 46.8681 10.9374 46.2673C10.3365 45.6665 10.3365 44.6887 10.9374 44.0876C11.2379 43.787 11.6324 43.6368 12.0273 43.6368C12.4218 43.6368 12.8166 43.7872 13.1171 44.0875C13.718 44.6887 13.718 45.6665 13.1172 46.2673Z" fill="#0F4C8A"/>
<path d="M14.3859 50.7324C13.0852 49.4321 10.9693 49.4322 9.66874 50.7324C8.36831 52.0328 8.36831 54.1489 9.66874 55.4495C10.3191 56.0998 11.173 56.4248 12.0274 56.4248C12.8813 56.4248 13.7357 56.0997 14.3859 55.4495L14.386 55.4494C15.6864 54.1489 15.6864 52.0328 14.3859 50.7324ZM13.1172 54.1809C12.5162 54.7819 11.5383 54.7818 10.9374 54.181C10.3365 53.5799 10.3365 52.6021 10.9374 52.0012C11.2379 51.7006 11.6326 51.5504 12.0273 51.5504C12.4219 51.5504 12.8166 51.7006 13.1171 52.0012C13.718 52.6021 13.718 53.5799 13.1172 54.1809Z" fill="#0F4C8A"/>
<path d="M22.4418 42.8188C21.1413 41.5185 19.0253 41.5183 17.7247 42.8189C16.4243 44.1195 16.4243 46.2355 17.7247 47.5361C18.375 48.1862 19.2292 48.5114 20.0833 48.5114C20.9374 48.5114 21.7917 48.1862 22.442 47.5361C23.7423 46.2356 23.7423 44.1195 22.4418 42.8188ZM21.1731 46.2673C20.5722 46.8683 19.5943 46.8683 18.9934 46.2673C18.3924 45.6665 18.3924 44.6886 18.9934 44.0876C19.2938 43.787 19.6885 43.6368 20.0832 43.6368C20.4779 43.6368 20.8726 43.787 21.1731 44.0875C21.7741 44.6886 21.7741 45.6665 21.1731 46.2673Z" fill="#0F4C8A"/>
<path d="M22.442 50.7322C21.1413 49.4319 19.0253 49.4319 17.7247 50.7322C16.4243 52.0326 16.4243 54.1487 17.7247 55.4493C18.375 56.0995 19.2292 56.4247 20.0833 56.4247C20.9374 56.4247 21.7917 56.0995 22.442 55.4493C22.442 55.4492 22.442 55.4492 22.442 55.4492C23.7424 54.1487 23.7424 52.0326 22.442 50.7322ZM21.1731 54.1807C20.5722 54.7817 19.5943 54.7816 18.9934 54.1808C18.3924 53.5797 18.3924 52.6019 18.9934 52.001C19.2938 51.7004 19.6885 51.5502 20.0832 51.5502C20.4779 51.5502 20.8726 51.7004 21.1731 52.001C21.7741 52.6019 21.7741 53.5797 21.1731 54.1807Z" fill="#0F4C8A"/>
<path d="M31.8883 10.8583C30.6047 9.57497 28.5173 9.57521 27.2342 10.8582C26.6126 11.4798 26.2704 12.3061 26.2704 13.1853C26.2704 14.0643 26.6127 14.8906 27.2342 15.5123C27.8559 16.1338 28.6822 16.476 29.5612 16.476C30.4403 16.476 31.2666 16.1337 31.8883 15.5123C33.1712 14.2292 33.1712 12.1414 31.8883 10.8583ZM30.6194 14.2434C30.0359 14.8271 29.0861 14.8269 28.503 14.2434C27.9194 13.6599 27.9194 12.7103 28.503 12.127C28.7947 11.8352 29.1779 11.6893 29.5613 11.6893C29.9445 11.6893 30.3278 11.8352 30.6195 12.127C31.203 12.7103 31.203 13.6599 30.6194 14.2434Z" fill="#0F4C8A"/>
<path d="M42.8329 10.8582C42.2112 10.2366 41.3848 9.89441 40.5058 9.89441C39.6267 9.89441 38.8003 10.2367 38.1788 10.8582C36.8958 12.1414 36.8958 14.229 38.1788 15.512C38.8003 16.1337 39.6267 16.4759 40.5058 16.4759C41.3848 16.4759 42.2112 16.1337 42.8329 15.5121C44.1158 14.229 44.1158 12.1412 42.8329 10.8582ZM41.5642 14.2432C41.2815 14.5259 40.9057 14.6816 40.5059 14.6816C40.1062 14.6816 39.7302 14.526 39.4477 14.2432C38.8641 13.6599 38.8641 12.7103 39.4477 12.1267C39.7302 11.8441 40.1062 11.6884 40.5059 11.6884C40.9057 11.6884 41.2815 11.8442 41.5642 12.1267C42.1477 12.7103 42.1477 13.6599 41.5642 14.2432Z" fill="#0F4C8A"/>
<path d="M53.7775 10.858C52.4942 9.57495 50.4067 9.57471 49.1235 10.858C47.8404 12.1412 47.8404 14.2289 49.1235 15.512C49.7452 16.1336 50.5715 16.4757 51.4506 16.4757C52.3296 16.4757 53.1559 16.1334 53.7776 15.512C54.3991 14.8904 54.7413 14.0642 54.7413 13.1851C54.7413 12.306 54.3989 11.4797 53.7775 10.858ZM52.5087 14.2433C51.9255 14.8269 50.9757 14.8269 50.3923 14.2433C49.8087 13.6599 49.8087 12.7103 50.3923 12.1269C50.684 11.8351 51.0672 11.6892 51.4505 11.6892C51.8338 11.6892 52.2171 11.8351 52.5088 12.1269C53.0923 12.7103 53.0923 13.6599 52.5087 14.2433Z" fill="#0F4C8A"/>
<path d="M54.6345 47H29.7944C29.3556 47 29 47.3556 29 47.7944C29 48.2331 29.3556 48.5887 29.7944 48.5887H54.6345C55.0732 48.5887 55.4288 48.2331 55.4288 47.7944C55.4288 47.3556 55.0732 47 54.6345 47Z" fill="#0F4C8A"/>
<path d="M51.6444 51.9772H31.8971C31.4016 51.9772 31 52.3788 31 52.8742C31 53.3697 31.4016 53.7713 31.8971 53.7713H51.6445C52.14 53.7713 52.5416 53.3697 52.5416 52.8742C52.5415 52.3788 52.14 51.9772 51.6444 51.9772Z" fill="#0F4C8A"/>
</svg>
