<svg width="60" height="60" viewBox="0 0 60 60" fill="none" xmlns="http://www.w3.org/2000/svg">
<g clip-path="url(#clip0)">
<path d="M50.3549 0H41.0934C40.6078 0 40.2145 0.393677 40.2145 0.878906C40.2145 1.36459 40.6078 1.75827 41.0934 1.75827H50.3549C54.2487 1.75827 57.4159 4.92554 57.4159 8.81927V51.1807C57.4159 55.074 54.2487 58.2417 50.3549 58.2417H9.63959C5.74631 58.2417 2.57858 55.074 2.57858 51.1807V8.81927C2.57858 4.92554 5.74631 1.75827 9.63959 1.75827H37.0692C37.5549 1.75827 37.9482 1.36459 37.9482 0.878906C37.9482 0.393677 37.5549 0 37.0692 0H9.63959C4.77676 0 0.820312 3.95645 0.820312 8.81927V51.1807C0.820312 56.0435 4.77676 60 9.63959 60H50.3549C55.2177 60 59.1742 56.0435 59.1742 51.1807V8.81927C59.1742 3.95645 55.2177 0 50.3549 0V0Z" fill="#0F4C8A"/>
<path d="M19.054 20.2808C19.2435 19.834 19.0352 19.3176 18.588 19.1281C18.1412 18.9386 17.6253 19.1473 17.4358 19.5941C16.7203 21.2801 16.3577 23.0713 16.3577 24.9174V35.0826C16.3577 42.6041 22.4762 48.7225 29.9977 48.7225C37.5188 48.7225 43.6372 42.6041 43.6372 35.0826V24.9174C43.6372 17.3959 37.5188 11.2775 29.9977 11.2775C26.0779 11.2775 22.3439 12.9666 19.753 15.9114C19.4325 16.2762 19.4678 16.8315 19.8326 17.1524C20.197 17.4728 20.7523 17.4371 21.0732 17.0728C23.1358 14.7281 26.0298 13.298 29.1183 13.0687V16.4433C27.8577 16.8219 26.9362 17.9924 26.9362 19.3748V22.8653C26.9362 24.2477 27.8577 25.4182 29.1183 25.7968V28.1873C29.1183 28.6729 29.512 29.0666 29.9977 29.0666C30.4829 29.0666 30.8766 28.6729 30.8766 28.1873V25.7968C32.1368 25.4178 33.0579 24.2473 33.0579 22.8653V19.3748C33.0579 17.9929 32.1368 16.8224 30.8766 16.4433V13.0678C37.0193 13.5191 41.879 18.6612 41.879 24.917V35.0826C41.879 41.6345 36.5488 46.9643 29.9973 46.9643C23.4457 46.9643 18.1155 41.6345 18.1155 35.0826V24.917C18.1155 23.3084 18.4314 21.7484 19.054 20.2808V20.2808ZM31.2996 19.3748V22.8658C31.2996 23.5835 30.715 24.1681 29.9968 24.1681C29.279 24.1681 28.6945 23.584 28.6945 22.8658V19.3748C28.6945 18.6566 29.2786 18.0725 29.9968 18.0725C30.715 18.0725 31.2996 18.6566 31.2996 19.3748Z" fill="#0F4C8A"/>
</g>
<defs>
<clipPath id="clip0">
<rect width="60" height="60" fill="white"/>
</clipPath>
</defs>
</svg>
