<svg width="60" height="60" viewBox="0 0 60 60" fill="none" xmlns="http://www.w3.org/2000/svg">
<path d="M30 0C19.5114 0.011625 11.0116 8.51138 11 19V41C11 51.4934 19.5066 60 30 60C40.4934 60 49 51.4934 49 41V19C48.9884 8.51138 40.4886 0.011625 30 0ZM32 10V16C32 17.1046 31.1046 18 30 18C28.8954 18 28 17.1046 28 16V10C28 8.89538 28.8954 8 30 8C31.1046 8 32 8.89538 32 10ZM13 19C13.0149 10.0092 20.025 2.58337 29 2.051V6.142C27.2394 6.59663 26.0069 8.18163 26 10V16C26.0069 17.8184 27.2394 19.4034 29 19.858V24H13V19ZM47 41C46.9895 50.3845 39.3845 57.9895 30 58C20.6155 57.9895 13.0105 50.3845 13 41V26H47V41ZM47 24H31V19.858C32.7607 19.4034 33.9931 17.8184 34 16V10C33.9931 8.18163 32.7607 6.59663 31 6.142V2.051C39.975 2.58337 46.9851 10.0092 47 19V24Z" fill="#0F4C8A"/>
</svg>
