<svg width="60" height="60" viewBox="0 0 60 60" fill="none" xmlns="http://www.w3.org/2000/svg">
<path d="M49.691 0.410768C49.3473 0.0670569 48.7898 0.0670569 48.4461 0.410768C48.1023 0.754479 48.1023 1.31194 48.4461 1.65565C50.3657 3.57518 51.4227 6.12729 51.4227 8.84182C51.4227 11.5564 50.3655 14.1085 48.4461 16.0279C48.1023 16.3716 48.1023 16.929 48.4461 17.2728C48.618 17.4447 48.8433 17.5306 49.0685 17.5306C49.2937 17.5306 49.5191 17.4446 49.6909 17.2728C51.9429 15.0208 53.1832 12.0266 53.1832 8.84182C53.1832 5.65702 51.943 2.66276 49.691 0.410768Z" fill="#0F4C8A"/>
<path d="M34.0739 1.65565C34.4177 1.31194 34.4177 0.754479 34.0739 0.410768C33.7302 0.0670569 33.1727 0.0670569 32.829 0.410768C28.1802 5.0596 28.1802 12.6238 32.829 17.2726C33.0011 17.4447 33.2263 17.5306 33.4515 17.5306C33.6768 17.5306 33.9021 17.4446 34.0739 17.2728C34.4177 16.929 34.4177 16.3716 34.0739 16.0279C30.1116 12.0654 30.1116 5.61811 34.0739 1.65565Z" fill="#0F4C8A"/>
<path d="M46.6539 3.44788C46.3102 3.10417 45.7527 3.10417 45.409 3.44788C45.0652 3.79159 45.0652 4.34905 45.409 4.69276C47.6968 6.98061 47.6968 10.7031 45.409 12.9909C45.0654 13.3345 45.0654 13.8919 45.4091 14.2357C45.581 14.4076 45.8063 14.4935 46.0315 14.4935C46.2567 14.4935 46.4821 14.4075 46.6539 14.2357C49.6281 11.2615 49.6281 6.4221 46.6539 3.44788Z" fill="#0F4C8A"/>
<path d="M35.3923 8.84181C35.3923 7.27454 36.0026 5.80103 37.1109 4.69279C37.4548 4.34908 37.4548 3.79162 37.1109 3.4479C36.7672 3.10408 36.2099 3.10408 35.866 3.4479C34.4252 4.88861 33.6317 6.80427 33.6317 8.84181C33.6317 10.8793 34.4253 12.7949 35.8662 14.2357C36.0381 14.4076 36.2633 14.4935 36.4885 14.4935C36.7138 14.4935 36.9391 14.4075 37.1109 14.2357C37.4548 13.892 37.4548 13.3345 37.1109 12.9908C36.0027 11.8826 35.3923 10.4091 35.3923 8.84181Z" fill="#0F4C8A"/>
<path d="M43.7996 8.13622C43.7639 6.74837 42.6484 5.66122 41.2601 5.66122C39.8717 5.66122 38.7562 6.74837 38.7205 8.13622L38.1033 32.1165C38.0907 32.6025 38.4745 33.0067 38.9606 33.0191C38.9683 33.0192 38.976 33.0194 38.9837 33.0194C39.4592 33.0194 39.8509 32.64 39.8632 32.1618L40.4804 8.18146C40.4913 7.75548 40.8339 7.42162 41.2601 7.42162C41.6863 7.42162 42.0287 7.75537 42.0397 8.18146L42.6569 32.1618C42.6692 32.64 43.0609 33.0194 43.5364 33.0194C43.5442 33.0194 43.5519 33.0192 43.5595 33.0191C44.0455 33.0066 44.4294 32.6025 44.4169 32.1165L43.7996 8.13622Z" fill="#0F4C8A"/>
<path d="M59.7702 43.8164L58.052 38.1233C57.6639 36.8373 56.5005 35.9732 55.1572 35.9732H4.84289C3.49957 35.9732 2.33625 36.8373 1.94813 38.1233L0.229805 43.8164C0.0821484 44.1885 0 44.5936 0 45.0177V56.5799C0 58.3814 1.46555 59.847 3.26707 59.847H56.7329C58.5345 59.847 60 58.3814 60 56.5799V45.0177C60 44.5936 59.9179 44.1885 59.7702 43.8164ZM58.2395 56.5799C58.2395 57.4106 57.5637 58.0865 56.7329 58.0865H3.26707C2.43633 58.0865 1.76051 57.4106 1.76051 56.5799V45.0177C1.76051 44.8103 1.8027 44.6126 1.87875 44.4327C1.87945 44.4311 1.88027 44.4297 1.88086 44.428C1.8982 44.3872 1.91766 44.3476 1.9384 44.3087C1.94203 44.3018 1.94602 44.2951 1.94977 44.2882C1.97027 44.2513 1.99195 44.2152 2.01539 44.1804C2.01691 44.1782 2.01832 44.1758 2.01984 44.1736C2.18074 43.9365 2.4075 43.7479 2.67352 43.6334C2.6782 43.6314 2.68277 43.6294 2.68746 43.6274C2.7723 43.5919 2.86125 43.5641 2.95313 43.5445C2.96367 43.5423 2.97445 43.5406 2.98512 43.5386C3.01969 43.532 3.05473 43.5267 3.09 43.5225C3.10289 43.521 3.11566 43.5193 3.12867 43.5182C3.17426 43.514 3.22031 43.5111 3.26707 43.5111H5.95441C6.44051 43.5111 6.83473 43.117 6.83473 42.6308C6.83473 42.1447 6.44063 41.7505 5.95441 41.7505H3.26707C3.21352 41.7505 3.16031 41.752 3.10723 41.7546C3.09094 41.7554 3.07477 41.7568 3.05848 41.7579C3.02168 41.7602 2.98488 41.7628 2.94832 41.7663C2.93027 41.7681 2.91246 41.7704 2.89453 41.7724C2.85938 41.7764 2.82422 41.7808 2.7893 41.7858C2.77266 41.7883 2.75613 41.7909 2.73961 41.7938C2.71852 41.7972 2.69719 41.8 2.67621 41.8038L3.63352 38.6319C3.79559 38.0946 4.28168 37.7336 4.84289 37.7336H55.1571C55.7183 37.7336 56.2044 38.0945 56.3665 38.6319L57.3238 41.8038C57.3028 41.8 57.2815 41.7972 57.2604 41.7938C57.2439 41.7911 57.2273 41.7883 57.2107 41.7858C57.1758 41.7806 57.1407 41.7764 57.1055 41.7724C57.0875 41.7704 57.0697 41.7681 57.0517 41.7663C57.0151 41.7628 56.9783 41.7602 56.9415 41.7579C56.9252 41.7568 56.9091 41.7554 56.8928 41.7546C56.8397 41.752 56.7865 41.7505 56.7329 41.7505H10.6491C10.163 41.7505 9.76875 42.1446 9.76875 42.6308C9.76875 43.1169 10.1629 43.5111 10.6491 43.5111H56.7329C56.7796 43.5111 56.8256 43.514 56.8713 43.5182C56.8842 43.5193 56.8971 43.521 56.91 43.5225C56.9454 43.5267 56.9803 43.532 57.0149 43.5386C57.0255 43.5406 57.0362 43.5423 57.0469 43.5445C57.1387 43.5641 57.2277 43.5919 57.3125 43.6274C57.3172 43.6294 57.3218 43.6314 57.3265 43.6334C57.5925 43.7479 57.8193 43.9365 57.9802 44.1736C57.9817 44.1758 57.9831 44.1782 57.9846 44.1804C58.008 44.2153 58.0297 44.2514 58.0502 44.2882C58.054 44.295 58.058 44.3018 58.0616 44.3087C58.0823 44.3475 58.1018 44.3872 58.1191 44.428C58.1198 44.4297 58.1207 44.4311 58.1212 44.4327C58.1974 44.6127 58.2395 44.8104 58.2395 45.0177V56.5799Z" fill="#0F4C8A"/>
<path d="M51.6882 46.4545C49.4546 46.4545 47.6373 48.2718 47.6373 50.5055C47.6373 52.7391 49.4545 54.5564 51.6882 54.5564C53.9219 54.5564 55.7392 52.7392 55.7392 50.5055C55.7392 48.2718 53.9218 46.4545 51.6882 46.4545ZM51.6882 52.7958C50.4253 52.7958 49.3978 51.7683 49.3978 50.5054C49.3978 49.2424 50.4253 48.2149 51.6882 48.2149C52.9512 48.2149 53.9787 49.2424 53.9787 50.5054C53.9787 51.7683 52.9512 52.7958 51.6882 52.7958Z" fill="#0F4C8A"/>
<path d="M42.5352 46.4545C40.3015 46.4545 38.4843 48.2718 38.4843 50.5055C38.4843 52.7391 40.3015 54.5564 42.5352 54.5564C44.7688 54.5564 46.5861 52.7392 46.5861 50.5055C46.586 48.2718 44.7688 46.4545 42.5352 46.4545ZM42.5352 52.7958C41.2723 52.7958 40.2448 51.7683 40.2448 50.5054C40.2448 49.2424 41.2723 48.2149 42.5352 48.2149C43.7981 48.2149 44.8256 49.2424 44.8256 50.5054C44.8256 51.7683 43.798 52.7958 42.5352 52.7958Z" fill="#0F4C8A"/>
<path d="M33.3821 46.4545C31.1483 46.4545 29.3311 48.2718 29.3311 50.5055C29.3311 52.7391 31.1483 54.5564 33.3821 54.5564C35.6157 54.5564 37.433 52.7392 37.433 50.5055C37.433 48.2718 35.6158 46.4545 33.3821 46.4545ZM33.3821 52.7958C32.1191 52.7958 31.0916 51.7683 31.0916 50.5054C31.0916 49.2424 32.1191 48.2149 33.3821 48.2149C34.645 48.2149 35.6725 49.2424 35.6725 50.5054C35.6725 51.7683 34.645 52.7958 33.3821 52.7958Z" fill="#0F4C8A"/>
<path d="M21.9391 46.5936H6.0799C4.9249 46.5936 3.98517 47.5334 3.98517 48.6884V52.4617C3.98517 53.6167 4.9249 54.5564 6.0799 54.5564H21.9391C23.0941 54.5564 24.0338 53.6167 24.0338 52.4617V48.6884C24.0338 47.5334 23.0941 46.5936 21.9391 46.5936ZM22.2733 52.4617C22.2733 52.6459 22.1234 52.7959 21.9391 52.7959H6.0799C5.89568 52.7959 5.74568 52.646 5.74568 52.4617V48.6884C5.74568 48.5041 5.89556 48.3541 6.0799 48.3541H21.9391C22.1233 48.3541 22.2733 48.504 22.2733 48.6884V52.4617Z" fill="#0F4C8A"/>
</svg>
