<svg width="60" height="60" viewBox="0 0 60 60" fill="none" xmlns="http://www.w3.org/2000/svg">
<path d="M59.9972 48.7574C59.9966 48.7486 59.9967 48.7399 59.9959 48.7311C59.9927 48.6963 59.9877 48.6622 59.9805 48.6288C59.9798 48.6256 59.9788 48.6223 59.978 48.619C59.9711 48.5883 59.9625 48.5583 59.9524 48.529C59.9497 48.5212 59.9468 48.5135 59.9439 48.5058C59.934 48.4792 59.9229 48.4533 59.9106 48.4281C59.9085 48.4236 59.9071 48.4191 59.9048 48.4146L55.2042 39.143V8.63907C55.2042 7.70086 54.441 6.93762 53.5028 6.93762H6.49699C5.55879 6.93762 4.79555 7.70086 4.79555 8.63907V39.1427L0.0950391 48.4145C0.0928125 48.419 0.0914063 48.4235 0.0892969 48.428C0.0769922 48.4532 0.0659766 48.4791 0.0560156 48.5056C0.0530859 48.5133 0.0501563 48.521 0.0474609 48.5289C0.0375 48.5583 0.0288281 48.5884 0.0219141 48.6191C0.0212109 48.6223 0.0201562 48.6254 0.0194531 48.6286C0.0123047 48.6621 0.00726563 48.6962 0.00410156 48.731C0.00328125 48.7397 0.00328125 48.7485 0.0028125 48.7572C0.00164063 48.7754 0 48.7935 0 48.812V51.0416C0 52.156 0.906445 53.0624 2.02078 53.0624H57.9792C59.0936 53.0624 60 52.156 60 51.0416V48.812C60 48.7935 59.9984 48.7754 59.9972 48.7574ZM6.55348 8.69567H53.4465V38.4741H6.55348V8.69567ZM6.21434 40.2318H53.7855L57.69 47.933H38.3798L37.4106 44.4186C37.2132 43.7032 36.5572 43.2035 35.8151 43.2035H24.1847C23.4425 43.2035 22.7864 43.7032 22.5892 44.4185L21.6199 47.933H2.30988L6.21434 40.2318ZM36.5564 47.9331H23.4436L24.2631 44.9615H35.7369L36.5564 47.9331ZM58.2422 51.0415C58.2422 51.1865 58.1242 51.3045 57.9792 51.3045H2.02078C1.87582 51.3045 1.75781 51.1865 1.75781 51.0415V49.6908H58.2422V51.0415Z" fill="#0F4C8A"/>
<path d="M50.6926 25.0495C50.2071 25.0495 49.8137 25.4429 49.8137 25.9284V34.8411H10.1863V25.9284C10.1863 25.4429 9.7929 25.0495 9.30739 25.0495C8.82188 25.0495 8.42848 25.4429 8.42848 25.9284V35.2207C8.42848 35.9807 9.04665 36.5989 9.80672 36.5989H50.1934C50.9534 36.5989 51.5716 35.9808 51.5716 35.2207V25.9284C51.5715 25.4432 51.1781 25.0495 50.6926 25.0495Z" fill="#0F4C8A"/>
<path d="M50.1933 10.5707H9.80672C9.04676 10.5707 8.42848 11.1888 8.42848 11.9489V21.2412C8.42848 21.7267 8.82188 22.1201 9.30739 22.1201C9.7929 22.1201 10.1863 21.7267 10.1863 21.2412V12.3285H49.8137V21.2412C49.8137 21.7267 50.2071 22.1201 50.6926 22.1201C51.1781 22.1201 51.5715 21.7267 51.5715 21.2412V11.9489C51.5715 11.1887 50.9534 10.5707 50.1933 10.5707Z" fill="#0F4C8A"/>
</svg>
