<svg width="60" height="60" viewBox="0 0 60 60" fill="none" xmlns="http://www.w3.org/2000/svg">
<path d="M59.0625 36.5625C59.0625 35.0119 57.8006 33.75 56.25 33.75H54.375V5.625C54.375 3.04031 52.2722 0.9375 49.6875 0.9375H45C42.4153 0.9375 40.3125 3.04031 40.3125 5.625V6.5625H3.75C2.19937 6.5625 0.9375 7.82438 0.9375 9.375V30C0.9375 31.5506 2.19937 32.8125 3.75 32.8125H4.6875V59.0625H44.0625V32.8125H45C46.5506 32.8125 47.8125 31.5506 47.8125 30V9.375C47.8125 7.82438 46.5506 6.5625 45 6.5625H42.1875V5.625C42.1875 4.07437 43.4494 2.8125 45 2.8125H49.6875C51.2381 2.8125 52.5 4.07437 52.5 5.625V33.75H50.625C49.0744 33.75 47.8125 35.0119 47.8125 36.5625V45H49.6875V50.625H57.1875V45H59.0625V36.5625ZM42.1875 53.4375H31.8591C36.8831 50.7525 40.3125 45.4584 40.3125 39.375C40.3125 35.5716 38.9334 31.9266 36.4997 29.0625H42.1875V53.4375ZM13.8 30.1256L19.1269 35.4525C18.9244 35.7225 18.7388 36.0047 18.5794 36.3047L12.1491 32.4469C12.6159 31.6219 13.1709 30.8466 13.8 30.1256ZM24.375 34.6875C26.9597 34.6875 29.0625 36.7903 29.0625 39.375C29.0625 41.9597 26.9597 44.0625 24.375 44.0625C21.7903 44.0625 19.6875 41.9597 19.6875 39.375C19.6875 36.7903 21.7903 34.6875 24.375 34.6875ZM30.1706 42.4463L36.5981 46.3031C36.1256 47.1328 35.5706 47.9072 34.9453 48.6206L29.6231 43.2984C29.8256 43.0275 30.0112 42.7453 30.1706 42.4463ZM31.3022 51.5981L27.4453 45.1706C27.7453 45.0112 28.0275 44.8256 28.2975 44.6231L33.6197 49.9453C32.9062 50.5706 32.1319 51.1256 31.3022 51.5981ZM11.3409 34.1484L17.9381 38.1066C17.8575 38.5172 17.8125 38.9409 17.8125 39.375C17.8125 42.9938 20.7572 45.9375 24.375 45.9375C24.8091 45.9375 25.2328 45.8925 25.6434 45.8119L29.6072 52.4175C27.9881 53.0691 26.2247 53.4375 24.375 53.4375C16.6209 53.4375 10.3125 47.1291 10.3125 39.375C10.3125 37.5628 10.68 35.7947 11.3409 34.1484ZM33.9141 29.0625C36.7866 31.7213 38.4375 35.4544 38.4375 39.375C38.4375 41.2247 38.0691 42.9881 37.4175 44.6072L30.8119 40.6434C30.8925 40.2328 30.9375 39.8091 30.9375 39.375C30.9375 35.7562 27.9928 32.8125 24.375 32.8125C23.9409 32.8125 23.5172 32.8575 23.1066 32.9381L20.7806 29.0625H33.9141ZM18.5944 29.0625L21.3047 33.5794C21.0047 33.7388 20.7225 33.9244 20.4525 34.1269L15.3881 29.0625H18.5944ZM8.4375 39.375C8.4375 45.4584 11.8669 50.7525 16.8909 53.4375H6.5625V29.0625H12.2513C9.81656 31.9266 8.4375 35.5716 8.4375 39.375ZM6.5625 57.1875V55.3125H42.1875V57.1875H6.5625ZM45 30.9375H44.0625V27.1875H4.6875V30.9375H3.75C3.2325 30.9375 2.8125 30.5166 2.8125 30V25.3125H45.9375V30C45.9375 30.5166 45.5175 30.9375 45 30.9375ZM45.9375 9.375V23.4375H2.8125V9.375C2.8125 8.85844 3.2325 8.4375 3.75 8.4375H45C45.5175 8.4375 45.9375 8.85844 45.9375 9.375ZM55.3125 48.75H51.5625V45H55.3125V48.75ZM57.1875 43.125H49.6875V36.5625C49.6875 36.0459 50.1075 35.625 50.625 35.625H56.25C56.7675 35.625 57.1875 36.0459 57.1875 36.5625V43.125Z" fill="#0F4C8A"/>
<path d="M24.375 42.1875C25.9256 42.1875 27.1875 40.9256 27.1875 39.375C27.1875 37.8244 25.9256 36.5625 24.375 36.5625C22.8244 36.5625 21.5625 37.8244 21.5625 39.375C21.5625 40.9256 22.8244 42.1875 24.375 42.1875ZM24.375 38.4375C24.8925 38.4375 25.3125 38.8584 25.3125 39.375C25.3125 39.8916 24.8925 40.3125 24.375 40.3125C23.8575 40.3125 23.4375 39.8916 23.4375 39.375C23.4375 38.8584 23.8575 38.4375 24.375 38.4375Z" fill="#0F4C8A"/>
<path d="M4.6875 19.6875H6.5625V21.5625H4.6875V19.6875Z" fill="#0F4C8A"/>
</svg>
