<svg width="60" height="60" viewBox="0 0 60 60" fill="none" xmlns="http://www.w3.org/2000/svg">
<g clip-path="url(#clip0)">
<path d="M52.2675 28.7825H50.1285C48.9423 28.7825 47.9773 29.7475 47.9773 30.9338V33.0727C47.9773 34.2589 48.9423 35.2239 50.1285 35.2239H52.2675C53.4537 35.2239 54.4187 34.2589 54.4187 33.0727V30.9338C54.4187 29.7475 53.4536 28.7825 52.2675 28.7825ZM52.662 33.0726C52.662 33.2901 52.485 33.467 52.2675 33.467H50.1285C49.911 33.467 49.7341 33.2901 49.7341 33.0726V30.9337C49.7341 30.7162 49.911 30.5391 50.1285 30.5391H52.2675C52.485 30.5391 52.662 30.7162 52.662 30.9337V33.0726Z" fill="#0F4C8A"/>
<path d="M59.0608 24.4829C58.452 23.8697 57.6407 23.5302 56.7768 23.5272L54.946 23.5206L54.9859 12.4916C54.9889 11.6692 54.6708 10.8951 54.0904 10.3123C53.5099 9.72939 52.7372 9.40818 51.9146 9.40771L48.797 9.40607V3.58185C48.797 2.36134 47.8042 1.36853 46.5837 1.36853H13.3088C12.0883 1.36853 11.0955 2.36134 11.0955 3.58185V9.38673L8.14502 9.38509C8.14444 9.38509 8.14385 9.38509 8.14326 9.38509C6.45506 9.38509 5.0767 10.7582 5.07049 12.4469L5.03112 23.3401L3.32885 23.334C3.32475 23.334 3.321 23.334 3.31701 23.334C1.53881 23.334 0.0886152 24.7777 0.0822871 26.5573L2.14636e-05 49.2808C-0.00642385 51.0646 1.43955 52.521 3.22326 52.5274L10.7385 52.5546L9.29592 56.5786C9.13947 57.0151 9.20498 57.5025 9.47123 57.8822C9.73748 58.2619 10.1733 58.4896 10.6371 58.4913L49.3566 58.6315C49.3583 58.6315 49.36 58.6315 49.3617 58.6315C49.8236 58.6315 50.2588 58.4072 50.5268 58.0308C50.7958 57.653 50.865 57.1662 50.7116 56.7284L49.2982 52.6942L56.6712 52.7208C56.6753 52.7208 56.6791 52.7208 56.6832 52.7208C58.4614 52.7207 59.9115 51.2772 59.9179 49.4976L60 26.7738C60.0031 25.9098 59.6696 25.0962 59.0608 24.4829ZM48.797 11.1628H48.7971L51.9137 11.1645C52.266 11.1647 52.5969 11.3023 52.8456 11.552C53.0943 11.8017 53.2305 12.1331 53.2292 12.4854L53.1892 23.5143L48.797 23.4985V11.1628ZM12.8522 3.58185C12.8522 3.33013 13.0571 3.12529 13.3088 3.12529H46.5838C46.8355 3.12529 47.0404 3.33013 47.0404 3.58185V23.4919L12.8522 23.3683V3.58185ZM6.82737 12.4532C6.82994 11.7299 7.42022 11.1419 8.14338 11.1419C8.14362 11.1419 8.14397 11.1419 8.1442 11.1419L11.0956 11.1435V23.362L6.78799 23.3465L6.82737 12.4532ZM8.73201 50.7905L8.74655 46.7633C8.74748 46.4947 8.96627 46.277 9.23451 46.277C9.23522 46.277 9.2358 46.277 9.23639 46.277L12.9839 46.2906L12.225 48.4077L11.3964 50.7191L11.3674 50.8L8.73201 50.7905ZM11.1055 56.7363L12.8112 51.9784C12.8113 51.9781 12.8115 51.9776 12.8118 51.9772L14.8491 46.2939L45.2329 46.4037L47.2292 52.1017C47.2293 52.1021 47.2295 52.1024 47.2296 52.1027L48.901 56.8731L11.1055 56.7363ZM51.2517 50.9442L48.6818 50.935L48.3375 49.9522L47.0979 46.414L50.7799 46.4274C50.9104 46.4278 51.0327 46.479 51.1246 46.5716C51.2165 46.6642 51.2667 46.7869 51.2663 46.9171L51.2517 50.9442ZM58.1609 49.4911C58.158 50.3044 57.4954 50.9639 56.6828 50.9639C56.6809 50.9639 56.6792 50.9639 56.6774 50.9639L53.0084 50.9507L53.0229 46.9234C53.0251 46.3238 52.7936 45.7593 52.3711 45.3338C51.9488 44.9081 51.3858 44.6727 50.7863 44.6705L45.9049 44.6528C45.8898 44.652 45.8751 44.6492 45.8598 44.649L14.2349 44.5347C14.2337 44.5347 14.2327 44.5347 14.2317 44.5347C14.2171 44.5347 14.203 44.5374 14.1885 44.5381L9.24295 44.5201C9.24014 44.5201 9.23744 44.5201 9.23463 44.5201C8.00065 44.5201 6.99447 45.5219 6.99002 46.7568L6.97549 50.784L3.22983 50.7706C2.41467 50.7676 1.75397 50.102 1.75701 49.2871L1.83928 26.5634C1.84221 25.7501 2.50479 25.0906 3.31737 25.0906C3.31924 25.0906 3.321 25.0906 3.32276 25.0906L5.90252 25.0999C5.90264 25.0999 56.7701 25.2839 56.7703 25.2839C57.5855 25.2869 58.2462 25.9525 58.2431 26.7674L58.1609 49.4911Z" fill="#0F4C8A"/>
<path d="M35.2702 15.5055H17.6409C17.1557 15.5055 16.7626 15.8987 16.7626 16.3838C16.7626 16.869 17.1557 17.2621 17.6409 17.2621H35.2701C35.7553 17.2621 36.1484 16.869 36.1484 16.3838C36.1484 15.8987 35.7554 15.5055 35.2702 15.5055Z" fill="#0F4C8A"/>
<path d="M42.7037 15.5055H40.128C39.6429 15.5055 39.2497 15.8987 39.2497 16.3838C39.2497 16.869 39.6429 17.2621 40.128 17.2621H42.7037C43.1887 17.2622 43.582 16.869 43.582 16.3838C43.582 15.8987 43.1888 15.5055 42.7037 15.5055Z" fill="#0F4C8A"/>
<path d="M20.2647 8.91931H17.6409C17.1557 8.91931 16.7626 9.31248 16.7626 9.79763C16.7626 10.2827 17.1557 10.676 17.6409 10.676H20.2647C20.7499 10.676 21.143 10.2828 21.143 9.79763C21.143 9.31248 20.7499 8.91931 20.2647 8.91931Z" fill="#0F4C8A"/>
<path d="M42.7036 8.91931H25.02C24.5348 8.91931 24.1417 9.31248 24.1417 9.79763C24.1417 10.2827 24.5348 10.676 25.02 10.676H42.7036C43.1887 10.676 43.5819 10.2828 43.5819 9.79763C43.5819 9.31248 43.1887 8.91931 42.7036 8.91931Z" fill="#0F4C8A"/>
</g>
<defs>
<clipPath id="clip0">
<rect width="60" height="60" fill="white"/>
</clipPath>
</defs>
</svg>
