<svg width="60" height="60" viewBox="0 0 60 60" fill="none" xmlns="http://www.w3.org/2000/svg">
<g clip-path="url(#clip0)">
<path d="M10.7252 6.59338H10.7111C8.54086 6.62514 6.77578 8.41741 6.77578 10.5887V16.298H0.883125C0.395391 16.298 0 16.6934 0 17.1812C0 17.6689 0.395391 18.0643 0.883125 18.0643H6.7759V22.7075H0.883125C0.395391 22.7075 0 23.1029 0 23.5906C0 24.0783 0.395391 24.4737 0.883125 24.4737H6.7759V29.1168H0.883125C0.395391 29.1169 0 29.5123 0 30.0001C0 30.4878 0.395391 30.8832 0.883125 30.8832H6.7759V35.5263H0.883125C0.395391 35.5263 0 35.9217 0 36.4094C0 36.8971 0.395391 37.2925 0.883125 37.2925H6.7759V41.9357H0.883125C0.395391 41.9357 0 42.3311 0 42.8189C0 43.3066 0.395391 43.702 0.883125 43.702H6.7759V46.7219C6.7759 47.2094 7.17152 47.605 7.65902 47.605C8.14652 47.605 8.54215 47.2094 8.54215 46.7219V10.5888C8.54215 9.37706 9.52652 8.37745 10.7382 8.35858C11.2257 8.35155 11.6155 7.95112 11.6073 7.46245C11.6002 6.97963 11.2069 6.59338 10.7252 6.59338Z" fill="#0F4C8A"/>
<path d="M48.0665 51.2753H10.7723C9.86211 51.2753 9.052 50.7313 8.707 49.8893C8.52207 49.4372 8.0075 49.2217 7.55539 49.4065C7.10317 49.5914 6.88778 50.1072 7.07258 50.5581C7.68957 52.0665 9.14153 53.0414 10.7723 53.0414H16.298V59.1166C16.298 59.6044 16.6934 59.9998 17.1812 59.9998C17.6689 59.9998 18.0643 59.6044 18.0643 59.1166V53.0414H22.7075V59.1166C22.7075 59.6044 23.1029 59.9998 23.5906 59.9998C24.0784 59.9998 24.4738 59.6044 24.4738 59.1166V53.0414H29.1168V59.1166C29.1168 59.6044 29.5122 59.9998 30 59.9998C30.4877 59.9998 30.8831 59.6044 30.8831 59.1166V53.0414H35.5262V59.1166C35.5262 59.6044 35.9216 59.9998 36.4093 59.9998C36.897 59.9998 37.2924 59.6044 37.2924 59.1166V53.0414H41.9356V59.1166C41.9356 59.6044 42.331 59.9998 42.8188 59.9998C43.3065 59.9998 43.7019 59.6044 43.7019 59.1166V53.0414H48.0665C48.554 53.0414 48.9497 52.6458 48.9497 52.1583C48.9497 51.6699 48.554 51.2753 48.0665 51.2753Z" fill="#0F4C8A"/>
<path d="M41.9777 15.0162H18.0224C16.4657 15.0162 15.2 16.2821 15.2 17.8387V41.7952C15.2 43.3519 16.4658 44.6177 18.0224 44.6177H41.9778C43.5345 44.6177 44.8002 43.3518 44.8002 41.7952V17.8387C44.8002 16.282 43.5344 15.0162 41.9777 15.0162ZM16.9661 17.8387C16.9661 17.2558 17.4394 16.7825 18.0223 16.7825H36.2901V26.006C34.6935 26.351 33.4323 27.6121 33.0875 29.2088H26.5793V24.6801C28.2478 24.354 29.5102 22.8808 29.5102 21.1181C29.5102 19.1174 27.8816 17.489 25.88 17.489C24.1172 17.489 22.6443 18.7512 22.3179 20.4186H16.9661V17.8387ZM37.1734 27.678C38.504 27.678 39.5862 28.7613 39.5862 30.0919C39.5862 31.4226 38.5041 32.5047 37.1734 32.5047C35.8333 32.5047 34.7595 31.4119 34.7595 30.0919C34.7596 28.7695 35.8363 27.678 37.1734 27.678ZM25.88 22.9821C24.8587 22.9821 24.016 22.1514 24.016 21.1181C24.016 20.0913 24.852 19.2553 25.88 19.2553C26.9079 19.2553 27.7439 20.0913 27.7439 21.1181C27.7439 22.1549 26.8997 22.9821 25.88 22.9821ZM22.066 37.416C21.5537 37.1287 21.2076 36.5789 21.2076 35.9512C21.2076 35.0245 21.9624 34.2708 22.8891 34.2708C23.8158 34.2708 24.5694 35.0245 24.5694 35.9512C24.5693 37.2353 23.1804 38.046 22.066 37.416ZM29.2085 42.8514H23.2835V39.3754C24.9992 39.1799 26.3357 37.7186 26.3357 35.9512C26.3357 34.0506 24.7896 32.5046 22.8891 32.5046C20.9874 32.5046 19.4413 34.0506 19.4413 35.9512C19.4413 37.3642 20.2962 38.583 21.5173 39.114V42.8514H18.0224C17.4395 42.8514 16.9662 42.3769 16.9662 41.7952V22.1848H22.4098C22.4173 22.197 22.8919 23.9978 24.8131 24.5882V30.0919C24.8131 30.5794 25.2087 30.9751 25.6962 30.9751H29.2085V42.8514ZM43.034 41.7952C43.034 42.3769 42.5607 42.8514 41.9778 42.8514H30.9748V39.0323H43.034V41.7952ZM43.034 37.266H30.9748V30.9751H33.0875C33.4937 32.8567 35.1716 34.271 37.1734 34.271C39.4778 34.271 41.3525 32.3963 41.3525 30.0919C41.3525 28.0901 39.9382 26.4123 38.0566 26.006C38.0566 26.006 38.0564 26.006 38.0563 26.006V16.7825H41.9777C42.5605 16.7825 43.0339 17.2558 43.0339 17.8387V37.266H43.034Z" fill="#0F4C8A"/>
<path d="M59.1169 24.4738C59.6046 24.4738 60 24.0784 60 23.5907C60 23.1029 59.6046 22.7075 59.1169 22.7075H53.2241V18.0643H59.1169C59.6046 18.0643 60 17.6689 60 17.1812C60 16.6935 59.6046 16.2981 59.1169 16.2981H53.2241V10.5887C53.2241 8.38559 51.432 6.59227 49.2277 6.59227H43.7019V0.883125C43.7019 0.395391 43.3066 0 42.8188 0C42.3311 0 41.9357 0.395391 41.9357 0.883125V6.59215H37.2925V0.883125C37.2925 0.395391 36.8971 0 36.4094 0C35.9216 0 35.5262 0.395391 35.5262 0.883125V6.59215H30.8832V0.883125C30.8832 0.395391 30.4878 0 30 0C29.5123 0 29.1169 0.395391 29.1169 0.883125V6.59215H24.4738V0.883125C24.4738 0.395391 24.0784 0 23.5907 0C23.103 0 22.7076 0.395391 22.7076 0.883125V6.59215H18.0644V0.883125C18.0644 0.395391 17.669 0 17.1812 0C16.6935 0 16.2981 0.395391 16.2981 0.883125V6.59215H14.2579C13.7692 6.59215 13.3748 6.98777 13.3748 7.47527C13.3748 7.96277 13.7692 8.3584 14.2579 8.3584C18.8841 8.3584 45.5253 8.3584 49.2277 8.3584C50.4582 8.3584 51.4579 9.3593 51.4579 10.5886V49.0451C51.4579 49.6609 51.213 50.2344 50.7667 50.6595C50.4135 50.9963 50.3993 51.5556 50.7361 51.9076C50.9104 52.0901 51.1424 52.182 51.3755 52.182C51.5945 52.182 51.8135 52.1007 51.9855 51.9382C52.7839 51.1764 53.2243 50.1484 53.2243 49.0451V43.7019H59.117C59.6048 43.7019 60.0001 43.3065 60.0001 42.8188C60.0001 42.3311 59.6048 41.9357 59.117 41.9357H53.2243V37.2925H59.117C59.6048 37.2925 60.0001 36.8971 60.0001 36.4093C60.0001 35.9216 59.6048 35.5262 59.117 35.5262H53.2243V30.8831H59.117C59.6048 30.8831 60.0001 30.4877 60.0001 30C60.0001 29.5123 59.6048 29.1169 59.117 29.1169H53.2243V24.4738H59.1169Z" fill="#0F4C8A"/>
</g>
<defs>
<clipPath id="clip0">
<rect width="60" height="60" fill="white"/>
</clipPath>
</defs>
</svg>
