<svg width="60" height="60" viewBox="0 0 60 60" fill="none" xmlns="http://www.w3.org/2000/svg">
<g clip-path="url(#clip0)">
<path d="M55.2383 29.1223H51.2934C49.4154 24.5696 44.9298 21.3566 39.7071 21.3566C34.4844 21.3566 29.9987 24.5695 28.1208 29.1223H12.3436C11.8582 29.1223 11.4647 29.5157 11.4647 30.0012C11.4647 30.4867 11.8582 30.8801 12.3436 30.8801H27.5446C27.3067 31.843 27.1796 32.8489 27.1796 33.8841C27.1796 37.3249 28.5743 40.4459 30.8277 42.7122H1.75781V33.884C1.75781 32.2277 3.10535 30.8801 4.76168 30.8801H8.82797C9.31336 30.8801 9.70687 30.4867 9.70687 30.0012C9.70687 29.5157 9.31336 29.1223 8.82797 29.1223H4.76168C2.13609 29.1223 0 31.2583 0 33.884V45.5327C0 48.1583 2.13609 50.2944 4.76168 50.2944H5.8241V52.3607C5.8241 53.3623 6.63891 54.1771 7.64051 54.1771H13.5312C14.5328 54.1771 15.3476 53.3623 15.3476 52.3607V50.2944H26.2686C26.754 50.2944 27.1475 49.901 27.1475 49.4155C27.1475 48.93 26.754 48.5366 26.2686 48.5366H23.1132V44.47H33.0156C34.9527 45.6989 37.2482 46.4115 39.7071 46.4115C42.1661 46.4115 44.4615 45.6989 46.3986 44.47H58.2422V45.5327C58.2422 47.189 56.8946 48.5366 55.2383 48.5366H53.297H45.5313H29.7843C29.2989 48.5366 28.9054 48.93 28.9054 49.4155C28.9054 49.901 29.2989 50.2944 29.7843 50.2944H44.6524V52.3607C44.6524 53.3623 45.4672 54.1771 46.4688 54.1771H52.3595C53.3611 54.1771 54.1759 53.3623 54.1759 52.3607V50.2944H55.2383C57.8639 50.2944 60 48.1583 60 45.5327V33.884C60 31.2583 57.8639 29.1223 55.2383 29.1223ZM52.4181 52.3606C52.4181 52.3928 52.3918 52.4192 52.3595 52.4192H46.4688C46.4365 52.4192 46.4102 52.3928 46.4102 52.3606V50.2942H52.4181V52.3606ZM1.75781 45.5327V44.47H9.70687V48.5366H6.70301H4.76168C3.10535 48.5366 1.75781 47.189 1.75781 45.5327ZM13.5898 52.3606C13.5898 52.3928 13.5635 52.4192 13.5312 52.4192H7.64051C7.60816 52.4192 7.58191 52.3928 7.58191 52.3606V50.2942H13.5898V52.3606ZM21.3554 48.5366H14.4687H11.4647V44.47H21.3553V48.5366H21.3554ZM28.9375 33.8841C28.9375 27.9457 33.7688 23.1145 39.7071 23.1145C45.6455 23.1145 50.4766 27.9458 50.4766 33.8841C50.4766 39.8225 45.6454 44.6537 39.7071 44.6537C33.7688 44.6537 28.9375 39.8224 28.9375 33.8841ZM48.5865 42.7122C50.8398 40.4459 52.2345 37.3249 52.2345 33.8841C52.2345 32.8489 52.1073 31.843 51.8695 30.8801H55.2383C56.8946 30.8801 58.2422 32.2277 58.2422 33.884V42.7122H48.5865Z" fill="#0F4C8A"/>
<path d="M39.7071 25.2394C34.9405 25.2394 31.0625 29.1174 31.0625 33.8841C31.0625 38.6507 34.9405 42.5287 39.7071 42.5287C44.4737 42.5287 48.3517 38.6507 48.3517 33.8841C48.3517 29.1174 44.4737 25.2394 39.7071 25.2394ZM39.7071 40.7707C35.9098 40.7707 32.8203 37.6814 32.8203 33.884C32.8203 30.0865 35.9098 26.9971 39.7071 26.9971C43.5044 26.9971 46.5939 30.0865 46.5939 33.884C46.5939 37.6814 43.5044 40.7707 39.7071 40.7707Z" fill="#0F4C8A"/>
<path d="M41.6484 29.1223C40.0933 29.1223 38.8282 30.3874 38.8282 31.9425C38.8282 33.4976 40.0934 34.7629 41.6484 34.7629C43.2035 34.7629 44.4688 33.4976 44.4688 31.9425C44.4688 30.3874 43.2036 29.1223 41.6484 29.1223ZM41.6484 33.0052C41.0626 33.0052 40.586 32.5286 40.586 31.9426C40.586 31.3568 41.0626 30.8802 41.6484 30.8802C42.2343 30.8802 42.711 31.3568 42.711 31.9426C42.711 32.5284 42.2344 33.0052 41.6484 33.0052Z" fill="#0F4C8A"/>
<path d="M12.5272 40.5872H18.3514C18.8368 40.5872 19.2303 40.1937 19.2303 39.7083C19.2303 39.2228 18.8368 38.8294 18.3514 38.8294H12.5272C12.0418 38.8294 11.6483 39.2228 11.6483 39.7083C11.6483 40.1937 12.0418 40.5872 12.5272 40.5872Z" fill="#0F4C8A"/>
<path d="M12.5272 36.7043H18.3514C18.8368 36.7043 19.2303 36.3109 19.2303 35.8254C19.2303 35.3399 18.8368 34.9465 18.3514 34.9465H12.5272C12.0418 34.9465 11.6483 35.3399 11.6483 35.8254C11.6483 36.3109 12.0418 36.7043 12.5272 36.7043Z" fill="#0F4C8A"/>
<path d="M39.7071 13.5887C36.4928 13.5887 33.5623 15.3555 32.0593 18.1999C31.8326 18.629 31.9967 19.1608 32.4259 19.3876C32.855 19.6147 33.3868 19.4504 33.6136 19.0211C34.8113 16.7545 37.1462 15.3466 39.7071 15.3466C42.2683 15.3466 44.6031 16.7547 45.8006 19.0213C45.9583 19.3196 46.2631 19.4899 46.5785 19.4899C46.7169 19.4897 46.8574 19.4571 46.9883 19.3879C47.4176 19.161 47.5816 18.6294 47.3549 18.2001C45.8521 15.3556 42.9217 13.5887 39.7071 13.5887Z" fill="#0F4C8A"/>
<path d="M49.0271 16.1225C49.2108 16.1225 49.3962 16.0652 49.5544 15.9463C49.9425 15.6548 50.0208 15.104 49.7292 14.7157C47.3374 11.5318 43.6846 9.70583 39.7072 9.70583C35.7299 9.70583 32.077 11.5318 29.6852 14.7156C29.3937 15.1037 29.4719 15.6547 29.8601 15.9462C30.2483 16.2379 30.7993 16.1593 31.0907 15.7714C33.1473 13.0338 36.2879 11.4636 39.7072 11.4636C43.1266 11.4636 46.2673 13.0338 48.3238 15.7716C48.4964 16.0015 48.7601 16.1227 49.0271 16.1225Z" fill="#0F4C8A"/>
<path d="M27.4469 12.6573C27.6138 12.8037 27.8204 12.8754 28.0261 12.8754C28.2703 12.8754 28.5135 12.7742 28.6873 12.576C31.4715 9.40141 35.4882 7.58078 39.7072 7.58078C43.9261 7.58078 47.9427 9.40141 50.7271 12.5759C51.0472 12.9408 51.6026 12.9769 51.9674 12.6571C52.3323 12.3371 52.3686 11.7817 52.0486 11.4168C48.9306 7.8618 44.4322 5.82297 39.7072 5.82297C34.9821 5.82297 30.4837 7.8618 27.3657 11.4169C27.0457 11.782 27.082 12.3372 27.4469 12.6573Z" fill="#0F4C8A"/>
</g>
<defs>
<clipPath id="clip0">
<rect width="60" height="60" fill="white"/>
</clipPath>
</defs>
</svg>
