<svg width="60" height="60" viewBox="0 0 60 60" fill="none" xmlns="http://www.w3.org/2000/svg">
<path d="M9.30491 43.7897C8.82655 43.7897 8.43866 44.1774 8.43866 44.6559V46.8406C8.43866 47.319 8.82643 47.7069 9.30491 47.7069C9.78339 47.7069 10.1712 47.3191 10.1712 46.8406V44.6559C10.1712 44.1773 9.78327 43.7897 9.30491 43.7897Z" fill="#0F4C8A"/>
<path d="M14.3578 43.7897C13.8795 43.7897 13.4916 44.1774 13.4916 44.6559V46.8406C13.4916 47.319 13.8794 47.7069 14.3578 47.7069C14.8363 47.7069 15.2241 47.3191 15.2241 46.8406V44.6559C15.2241 44.1773 14.8363 43.7897 14.3578 43.7897Z" fill="#0F4C8A"/>
<path d="M24.9187 19.0489C25.4112 19.0489 25.8105 18.6496 25.8105 18.1571C25.8105 17.6645 25.4112 17.2653 24.9187 17.2653C24.4262 17.2653 24.0269 17.6645 24.0269 18.1571C24.0269 18.6496 24.4262 19.0489 24.9187 19.0489Z" fill="#0F4C8A"/>
<path d="M54.7336 19.0489C55.2261 19.0489 55.6254 18.6496 55.6254 18.1571C55.6254 17.6645 55.2261 17.2653 54.7336 17.2653C54.2411 17.2653 53.8418 17.6645 53.8418 18.1571C53.8418 18.6496 54.2411 19.0489 54.7336 19.0489Z" fill="#0F4C8A"/>
<path d="M24.9187 50.7948C25.4112 50.7948 25.8105 50.3956 25.8105 49.903C25.8105 49.4105 25.4112 49.0112 24.9187 49.0112C24.4262 49.0112 24.0269 49.4105 24.0269 49.903C24.0269 50.3956 24.4262 50.7948 24.9187 50.7948Z" fill="#0F4C8A"/>
<path d="M54.7336 50.7948C55.2261 50.7948 55.6254 50.3956 55.6254 49.903C55.6254 49.4105 55.2261 49.0112 54.7336 49.0112C54.2411 49.0112 53.8418 49.4105 53.8418 49.903C53.8418 50.3956 54.2411 50.7948 54.7336 50.7948Z" fill="#0F4C8A"/>
<path d="M39.5402 17.5505C30.5085 17.5505 23.1606 24.8984 23.1606 33.9302C23.1606 42.9619 30.5085 50.3097 39.5402 50.3097C48.572 50.3097 55.9199 42.9618 55.9199 33.9301C55.9199 24.8983 48.572 17.5505 39.5402 17.5505ZM40.4064 19.3093C47.7943 19.7424 53.7279 25.676 54.161 33.0639H50.9449C50.5222 27.4464 46.024 22.9481 40.4064 22.5254V19.3093ZM45.6475 33.0639C45.2648 30.3542 43.1162 28.2056 40.4065 27.823V24.2658C45.0676 24.6803 48.79 28.4028 49.2045 33.0639H45.6475ZM49.2045 34.7962C48.79 39.4573 45.0676 43.1798 40.4065 43.5943V40.0372C43.1161 39.6546 45.2648 37.5059 45.6475 34.7962H49.2045ZM38.674 19.3093V22.5254C33.0565 22.9481 28.558 27.4464 28.1353 33.0639H24.9192C25.3523 25.676 31.2859 19.7423 38.674 19.3093ZM38.674 24.2657V27.8228C35.9643 28.2055 33.8156 30.3541 33.433 33.0638H29.8759C30.2904 28.4027 34.0129 24.6803 38.674 24.2657ZM38.674 48.551C31.2859 48.1178 25.3523 42.1843 24.9192 34.7963H28.1353C28.558 40.4138 33.0564 44.9122 38.674 45.3349V48.551ZM38.674 43.5943C34.0127 43.1798 30.2904 39.4575 29.8759 34.7962H33.433C33.8156 37.5059 35.9643 39.6546 38.674 40.0372V43.5943ZM39.5402 38.3669C37.0938 38.3669 35.1035 36.3766 35.1035 33.9302C35.1035 31.4838 37.0939 29.4935 39.5402 29.4935C41.9866 29.4935 43.9769 31.4838 43.9769 33.9302C43.9769 36.3766 41.9865 38.3669 39.5402 38.3669ZM40.4065 48.551V45.3349C46.024 44.9122 50.5223 40.4138 50.945 34.7963H54.1612C53.728 42.1844 47.7945 48.118 40.4065 48.551Z" fill="#0F4C8A"/>
<path d="M56.4383 11.7721H3.56156C1.59773 11.7721 0 13.3697 0 15.3337V51.5561C0 53.5199 1.59773 55.1176 3.56156 55.1176H56.4383C58.4021 55.1176 60 53.5199 60 51.5561V15.3337C60 13.3697 58.4023 11.7721 56.4383 11.7721ZM56.4384 53.3853H3.56156C2.55293 53.3853 1.73238 52.5647 1.73238 51.5561V15.3337C1.73238 14.325 2.55293 13.5045 3.56156 13.5045H56.4383C57.447 13.5045 58.2675 14.325 58.2675 15.3337V51.5561H58.2676C58.2676 52.5646 57.4471 53.3853 56.4384 53.3853Z" fill="#0F4C8A"/>
<path d="M58.4436 8.32213L58.0517 7.02334C57.6653 5.74284 56.5069 4.88245 55.1693 4.88245H4.83084C3.49338 4.88245 2.33498 5.74284 1.94849 7.02334L1.52463 8.42748C1.38634 8.88545 1.64556 9.36885 2.10353 9.50713C2.18697 9.53233 2.27123 9.54428 2.3542 9.54428C2.72615 9.54428 3.07009 9.30264 3.18318 8.92811L3.60705 7.52385C3.77111 6.9801 4.26295 6.61483 4.83084 6.61483H55.1693C55.7372 6.61483 56.2289 6.9801 56.3931 7.52385L56.7852 8.82276C56.9234 9.28073 57.4065 9.53947 57.8647 9.40166C58.3228 9.26338 58.5819 8.77998 58.4436 8.32213Z" fill="#0F4C8A"/>
<path d="M17.6393 17.5505H6.0234C4.95184 17.5505 4.08008 18.4223 4.08008 19.4939V31.1097C4.08008 32.1813 4.95184 33.053 6.0234 33.053H17.6393C18.7107 33.053 19.5825 32.1813 19.5825 31.1097V19.4939C19.5825 18.4222 18.7108 17.5505 17.6393 17.5505ZM17.8501 31.1096C17.8501 31.2258 17.7555 31.3204 17.6393 31.3204H6.0234C5.90715 31.3204 5.81258 31.2258 5.81258 31.1096V19.4937C5.81258 19.3775 5.90715 19.2829 6.0234 19.2829H17.6393C17.7555 19.2829 17.8501 19.3775 17.8501 19.4937V31.1096Z" fill="#0F4C8A"/>
<path d="M19.1301 43.4177L17.2055 41.2526C16.8659 40.8704 16.3777 40.6511 15.8663 40.6511H7.79651C7.2851 40.6511 6.7969 40.8704 6.45729 41.2525L4.53272 43.4177C4.24093 43.746 4.08026 44.1687 4.08026 44.6081V48.5799C4.08026 49.5679 4.88405 50.3717 5.87206 50.3717H17.7908C18.7789 50.3717 19.5826 49.5679 19.5826 48.5799V44.6081C19.5826 44.1687 19.4219 43.746 19.1301 43.4177ZM17.8501 48.5799C17.8501 48.6126 17.8235 48.6392 17.7908 48.6392H5.87194C5.83925 48.6392 5.81264 48.6126 5.81264 48.5799V44.6081C5.81264 44.5934 5.81792 44.5795 5.82764 44.5687L7.75221 42.4035C7.76346 42.3909 7.77964 42.3837 7.79651 42.3837H15.8663C15.8832 42.3837 15.8993 42.391 15.9106 42.4037L17.8351 44.5687C17.8449 44.5796 17.8501 44.5935 17.8501 44.6082V48.5799Z" fill="#0F4C8A"/>
<path d="M14.4935 24.7732C14.3513 24.4677 14.0451 24.2725 13.7081 24.2725H11.8314L14.1899 21.5689C14.503 21.2071 14.4635 20.6601 14.1018 20.3471C13.74 20.034 13.193 20.0735 12.88 20.4352L9.29968 24.5719C9.07784 24.8283 9.02593 25.1905 9.16679 25.4988C9.30764 25.8072 9.61561 26.005 9.95464 26.005H11.8314L9.29171 29.0441C8.98374 29.4102 9.03097 29.9567 9.39706 30.2646C9.55948 30.4013 9.75741 30.4679 9.95417 30.4679C10.201 30.4679 10.4462 30.3629 10.6176 30.1593L14.3712 25.6964C14.588 25.4386 14.6357 25.0785 14.4935 24.7732Z" fill="#0F4C8A"/>
</svg>
