<svg width="60" height="60" viewBox="0 0 60 60" fill="none" xmlns="http://www.w3.org/2000/svg">
<g clip-path="url(#clip0)">
<path d="M31.591 16.6523L32.1426 17.2039L31.8082 17.5382C31.4589 17.8876 31.4589 18.454 31.8082 18.8032C32.1576 19.1525 32.7239 19.1525 33.0732 18.8032L33.4075 18.4688L34.9126 19.974L34.5783 20.3083C34.229 20.6577 34.229 21.224 34.5783 21.5732C34.9276 21.9226 35.494 21.9226 35.8432 21.5732L36.1776 21.2389L37.6827 22.7441L37.3484 23.0784C36.999 23.4277 36.999 23.9941 37.3484 24.3433C37.6977 24.6928 38.2641 24.6927 38.6133 24.3433L38.9476 24.009L40.4531 25.5144L40.1188 25.8487C39.7695 26.198 39.7695 26.7644 40.1188 27.1136C40.4681 27.4631 41.0345 27.463 41.3837 27.1136L41.7181 26.7793L41.8493 26.9105C42.4965 27.5577 43.5497 27.5577 44.1969 26.9105L48.7683 22.3392C49.0819 22.0256 49.2545 21.6088 49.2545 21.1654C49.2545 20.722 49.0819 20.3052 48.7683 19.9917L48.637 19.8604L49.1053 19.3922C49.4546 19.0428 49.4546 18.4766 49.1053 18.1272C48.9307 17.9525 48.7017 17.8652 48.4728 17.8652C48.244 17.8652 48.015 17.9525 47.8404 18.1272L47.3721 18.5955L45.867 17.0904L46.3352 16.6221C46.6846 16.2727 46.6846 15.7064 46.3352 15.3572C46.1606 15.1825 45.9316 15.0951 45.7028 15.0951C45.4739 15.0951 45.2449 15.1824 45.0703 15.3572L44.602 15.8254L43.0969 14.3204L43.5652 13.8521C43.9145 13.5028 43.9145 12.9364 43.5652 12.5872C43.3906 12.4126 43.1616 12.3252 42.9327 12.3252C42.7038 12.3252 42.4749 12.4125 42.3002 12.5872L41.832 13.0555L40.3268 11.5503L40.7951 11.082C41.1442 10.7325 41.1442 10.1661 40.7949 9.81678C40.6202 9.64217 40.3913 9.55474 40.1624 9.55474C39.9335 9.55474 39.7045 9.64205 39.5299 9.81678L39.0617 10.2851L38.5099 9.73334C38.1864 9.40978 37.7612 9.24806 37.3362 9.24806C36.911 9.24806 36.486 9.4099 36.1623 9.73346L31.5911 14.3048C31.2775 14.6184 31.1049 15.0352 31.1049 15.4787C31.1049 15.9221 31.2775 16.3388 31.591 16.6523ZM37.3356 11.0893L41.199 14.9524L41.1992 14.9525L41.1993 14.9526L43.969 17.7224C43.9691 17.7225 43.9692 17.7226 43.9692 17.7227C43.9693 17.7228 43.9695 17.7229 43.9696 17.7229L47.412 21.1653L43.0229 25.5543L42.3504 24.8818C42.3504 24.8818 42.3504 24.8818 42.3503 24.8817C42.3503 24.8817 42.3503 24.8817 42.3502 24.8817L39.5801 22.1116C39.5801 22.1116 39.5801 22.1116 39.58 22.1115C39.58 22.1115 39.58 22.1115 39.5799 22.1115L32.9467 15.4783L37.3356 11.0893Z" fill="#0F4C8A"/>
<path d="M20.5955 27.6481L21.1471 28.1997L20.8127 28.534C20.4634 28.8834 20.4634 29.4497 20.8127 29.7989C21.1621 30.1483 21.7284 30.1483 22.0776 29.7989L22.412 29.4646L23.9171 30.9698L23.5828 31.3041C23.2335 31.6534 23.2335 32.2198 23.5828 32.569C23.9321 32.9185 24.4985 32.9184 24.8477 32.569L25.182 32.2347L26.6872 33.7398L26.3529 34.0742C26.0035 34.4235 26.0035 34.9899 26.3529 35.3391C26.7022 35.6886 27.2686 35.6884 27.6178 35.3391L27.9521 35.0048L29.4573 36.5099L29.1231 36.8441C28.7737 37.1935 28.7737 37.7598 29.1231 38.1091C29.4724 38.4584 30.0388 38.4584 30.388 38.1091L30.7222 37.7748L30.8535 37.9061C31.5007 38.5532 32.5538 38.5532 33.2011 37.9061L37.7724 33.3347C38.086 33.0211 38.2586 32.6043 38.2586 32.161C38.2586 31.7175 38.086 31.3007 37.7724 30.9872L37.6412 30.856L38.1095 30.3877C38.4588 30.0384 38.4588 29.4721 38.1095 29.1228C37.9348 28.9481 37.7059 28.8607 37.477 28.8607C37.2481 28.8607 37.0191 28.9481 36.8445 29.1228L36.3763 29.5911L34.8711 28.0859L35.3394 27.6176C35.6887 27.2683 35.6887 26.7019 35.3394 26.3527C35.1648 26.1781 34.9358 26.0907 34.7069 26.0907C34.4781 26.0907 34.2491 26.178 34.0745 26.3527L33.6062 26.821L32.101 25.3158L32.5693 24.8475C32.9186 24.4982 32.9186 23.9318 32.5693 23.5826C32.3947 23.408 32.1657 23.3206 31.9368 23.3206C31.708 23.3206 31.479 23.4079 31.3044 23.5826L30.8361 24.0509L29.331 22.5458L29.7992 22.0775C30.1485 21.7281 30.1485 21.1617 29.7991 20.8124C29.6245 20.6378 29.3955 20.5504 29.1667 20.5504C28.9378 20.5504 28.7088 20.6377 28.5342 20.8124L28.0659 21.2807L27.5143 20.7291C27.2007 20.4155 26.7839 20.2429 26.3406 20.2429C25.8971 20.2429 25.4803 20.4155 25.1668 20.7291L20.5955 25.3005C20.2819 25.6141 20.1092 26.0309 20.1092 26.4743C20.1092 26.9178 20.2817 27.3346 20.5955 27.6481ZM26.34 22.0847L27.4324 23.1772C27.4325 23.1773 27.4327 23.1775 27.4329 23.1776C27.433 23.1777 27.4332 23.178 27.4335 23.1781L30.2029 25.9478C30.2031 25.9479 30.2033 25.9482 30.2034 25.9483C30.2035 25.9484 30.2038 25.9486 30.204 25.9488L32.9731 28.7179C32.9733 28.718 32.9735 28.7182 32.9736 28.7184C32.9737 28.7185 32.974 28.7187 32.9742 28.7188L36.4163 32.161L32.0273 36.55L31.3548 35.8776C31.3548 35.8776 31.3548 35.8776 31.3547 35.8775C31.3547 35.8775 31.3547 35.8775 31.3545 35.8773L28.5845 33.1073C28.5845 33.1073 28.5845 33.1073 28.5844 33.1071C28.5842 33.107 28.5844 33.1071 28.5842 33.107L25.8142 30.337C25.8142 30.337 25.8142 30.337 25.814 30.3368C25.814 30.3368 25.814 30.3368 25.8139 30.3367L21.951 26.4738L26.34 22.0847Z" fill="#0F4C8A"/>
<path d="M9.59974 38.6438L10.1513 39.1954L9.81701 39.5297C9.46767 39.8791 9.46767 40.4453 9.81701 40.7947C10.1662 41.144 10.7326 41.144 11.0819 40.7947L11.4163 40.4603L12.9214 41.9655L12.5871 42.2998C12.2377 42.6491 12.2377 43.2155 12.5871 43.5647C12.9364 43.9142 13.5028 43.9141 13.852 43.5647L14.1863 43.2304L15.6915 44.7357L15.3572 45.07C15.0078 45.4193 15.0078 45.9857 15.3572 46.3349C15.7065 46.6844 16.2729 46.6843 16.6221 46.3349L16.9564 46.0006L18.4616 47.5057L18.1273 47.84C17.778 48.1893 17.778 48.7557 18.1273 49.1049C18.4767 49.4542 19.043 49.4542 19.3923 49.1049L19.7265 48.7707L19.8577 48.9019C20.505 49.549 21.5581 49.549 22.2053 48.9019L26.7768 44.3304C27.4239 43.6832 27.4239 42.63 26.7767 41.9829L26.6455 41.8517L27.1137 41.3834C27.4631 41.0341 27.4631 40.4678 27.1137 40.1185C26.9391 39.9438 26.7101 39.8565 26.4813 39.8565C26.2524 39.8565 26.0234 39.9438 25.8488 40.1185L25.3805 40.5868L23.8754 39.0816L24.3437 38.6133C24.693 38.264 24.693 37.6977 24.3437 37.3484C24.169 37.1737 23.9401 37.0864 23.7112 37.0864C23.4823 37.0864 23.2533 37.1737 23.0787 37.3484L22.6105 37.8167L21.1053 36.3115L21.5736 35.8433C21.9229 35.4939 21.9229 34.9276 21.5736 34.5783C21.399 34.4037 21.17 34.3163 20.9411 34.3163C20.7123 34.3163 20.4833 34.4036 20.3087 34.5783L19.8404 35.0466L18.3352 33.5415L18.8035 33.0732C19.1527 32.7239 19.1527 32.1575 18.8034 31.8081C18.6288 31.6335 18.3998 31.5461 18.1709 31.5461C17.9421 31.5461 17.7131 31.6334 17.5385 31.8081L17.0702 32.2764L16.5186 31.7248C16.205 31.4112 15.7882 31.2386 15.3448 31.2386C14.9014 31.2386 14.4846 31.4112 14.1711 31.7248L9.59974 36.2962C9.28615 36.6098 9.11353 37.0266 9.11353 37.4701C9.11353 37.9135 9.28603 38.3303 9.59974 38.6438ZM15.3441 33.0806L16.4366 34.173C16.4367 34.1731 16.4369 34.1733 16.437 34.1735C16.4372 34.1736 16.4374 34.1738 16.4376 34.1739L19.2072 36.9435C19.2073 36.9436 19.2076 36.9439 19.2077 36.944C19.2078 36.9441 19.208 36.9444 19.2083 36.9445L25.4206 43.1568L21.0316 47.5458L20.3591 46.8733C20.3591 46.8733 20.3591 46.8733 20.3589 46.8732C20.3589 46.8732 20.3589 46.8732 20.3588 46.8732L17.5887 44.1031C17.5887 44.1031 17.5887 44.1031 17.5886 44.103C17.5885 44.1029 17.5886 44.103 17.5885 44.1029L14.8184 41.3328C14.8184 41.3328 14.8184 41.3328 14.8183 41.3327C14.8182 41.3325 14.8183 41.3327 14.8182 41.3325L12.0483 38.5626C12.0483 38.5626 12.0483 38.5626 12.0481 38.5625C12.0481 38.5625 12.0481 38.5625 12.048 38.5625L10.9551 37.4696L15.3441 33.0806Z" fill="#0F4C8A"/>
<path d="M0.504257 40.4223L8.14557 48.0636C8.49491 48.413 9.06127 48.413 9.41049 48.0636L10.138 47.3362C10.4212 47.0529 10.8821 47.0529 11.1654 47.3362C11.4486 47.6194 11.4486 48.0802 11.1654 48.3634L10.4379 49.0909C10.2701 49.2586 10.1758 49.4862 10.1758 49.7234C10.1758 49.9606 10.2701 50.1881 10.4379 50.3558L18.0792 57.997C18.7504 58.6684 19.8427 58.6683 20.5139 57.997L21.2575 57.2534L23.4809 59.4769C24.1781 60.174 25.3126 60.1743 26.0098 59.4769L59.4771 26.0097C60.1744 25.3124 60.1744 24.178 59.4771 23.4807L57.2538 21.2574L57.9976 20.5137C58.3228 20.1885 58.5019 19.7562 58.5019 19.2964C58.5019 18.8366 58.3228 18.4041 57.9976 18.0791L50.3563 10.4377C50.1885 10.2699 49.961 10.1757 49.7238 10.1757C49.4867 10.1757 49.2591 10.2699 49.0913 10.4377L48.3639 11.1652C48.2267 11.3025 48.0442 11.3781 47.8503 11.3781C47.6563 11.3781 47.4737 11.3025 47.3366 11.1652C47.1994 11.028 47.1239 10.8456 47.1239 10.6516C47.1239 10.4577 47.1995 10.2751 47.3367 10.138L48.0642 9.41048C48.4136 9.06115 48.4135 8.49478 48.0642 8.14556L40.423 0.504364C40.0979 0.179169 39.6655 0.000106812 39.2057 0.000106812C38.7459 0.000106812 38.3134 0.179169 37.9884 0.504364L11.1984 27.2943C10.8491 27.6437 10.8491 28.21 11.1984 28.5592C11.5478 28.9086 12.1141 28.9086 12.4633 28.5592L39.2054 1.81686L46.1664 8.7779L46.0714 8.87294C45.0906 9.85368 45.0906 11.4495 46.0714 12.4303C46.5464 12.9054 47.1781 13.167 47.85 13.167C48.522 13.167 49.1536 12.9054 49.6287 12.4303L49.7237 12.3352L56.6848 19.2963L55.3566 20.6245C55.3565 20.6246 55.3563 20.6247 55.3561 20.6248C55.356 20.6249 55.3559 20.6251 55.3558 20.6253L52.2915 23.6895C51.9422 24.0388 51.9422 24.6052 52.2915 24.9544C52.6408 25.3038 53.2071 25.3038 53.5565 24.9544L55.9887 22.5223L58.212 24.7448L57.0881 25.8686L56.095 24.8755C55.9204 24.7008 55.6914 24.6134 55.4625 24.6134C55.2336 24.6134 55.0047 24.7007 54.8301 24.8755C54.4807 25.2248 54.4807 25.7911 54.8301 26.1404L55.8232 27.1335L54.0928 28.864L53.0997 27.8709C52.9251 27.6963 52.6961 27.6088 52.4672 27.6088C52.2383 27.6088 52.0094 27.6961 51.8347 27.8709C51.4854 28.2202 51.4854 28.7866 51.8347 29.1358L52.8279 30.129L51.0974 31.8595L50.1041 30.8662C49.9295 30.6916 49.7005 30.6041 49.4717 30.6041C49.2428 30.6041 49.0138 30.6915 48.8392 30.8662C48.4899 31.2155 48.4899 31.7819 48.8392 32.1311L49.8325 33.1244L48.1021 34.8549L47.1088 33.8616C46.9342 33.687 46.7052 33.5996 46.4764 33.5996C46.2475 33.5996 46.0185 33.6869 45.8439 33.8616C45.4946 34.2109 45.4946 34.7773 45.8439 35.1265L46.8372 36.1198L45.1067 37.8503L44.1134 36.857C43.9388 36.6823 43.7098 36.595 43.4809 36.595C43.2521 36.595 43.0231 36.6823 42.8485 36.857C42.4991 37.2064 42.4991 37.7727 42.8485 38.1219L43.8418 39.1152L42.1112 40.8457L41.1178 39.8523C40.9432 39.6777 40.7143 39.5903 40.4854 39.5903C40.2565 39.5903 40.0275 39.6776 39.8529 39.8523C39.5036 40.2017 39.5036 40.768 39.8529 41.1173L40.8463 42.1107L39.1159 43.8412L38.1225 42.8478C37.9479 42.6732 37.719 42.5857 37.4901 42.5857C37.2612 42.5857 37.0322 42.673 36.8576 42.8478C36.5083 43.1971 36.5083 43.7635 36.8576 44.1127L37.851 45.1061L36.1205 46.8366L35.1271 45.8431C34.9525 45.6685 34.7235 45.581 34.4947 45.581C34.2658 45.581 34.0368 45.6683 33.8622 45.8431C33.5129 46.1924 33.5129 46.7588 33.8622 47.108L34.8557 48.1015L33.1252 49.832L32.1318 48.8385C31.9572 48.6638 31.7282 48.5765 31.4994 48.5765C31.2705 48.5765 31.0415 48.6638 30.8669 48.8385C30.5176 49.1878 30.5176 49.7541 30.8669 50.1034L31.8604 51.0969L30.1299 52.8274L29.1364 51.8339C28.9618 51.6593 28.7328 51.5719 28.5039 51.5719C28.2751 51.5719 28.0461 51.6592 27.8715 51.8339C27.5221 52.1833 27.5221 52.7496 27.8715 53.0988L28.865 54.0923L27.1345 55.8229L26.1409 54.8292C25.9662 54.6546 25.7373 54.5672 25.5084 54.5672C25.2795 54.5672 25.0505 54.6545 24.8759 54.8292C24.5266 55.1786 24.5266 55.7449 24.8759 56.0941L25.8696 57.0878L24.7462 58.2111L22.5228 55.9877L50.1833 28.3278C50.5327 27.9785 50.5327 27.4121 50.1833 27.0629C50.0087 26.8883 49.7797 26.8008 49.5509 26.8008C49.322 26.8008 49.093 26.8881 48.9184 27.0629L19.2964 56.6845L12.3353 49.7235L12.4303 49.6285C13.411 48.6477 13.411 47.052 12.4303 46.0712C11.9552 45.596 11.3236 45.3345 10.6516 45.3345C9.97967 45.3345 9.34803 45.596 8.87295 46.0712L8.77791 46.1663L1.81676 39.2051L9.0894 31.9325C9.43874 31.5831 9.43874 31.0168 9.0894 30.6675C8.74006 30.3182 8.1737 30.3182 7.82448 30.6675L0.504257 37.9878C0.179062 38.3128 3.8147e-06 38.7453 3.8147e-06 39.2051C0.00012207 39.665 0.17918 40.0973 0.504257 40.4223Z" fill="#0F4C8A"/>
</g>
<defs>
<clipPath id="clip0">
<rect width="60" height="60" fill="white" transform="translate(60 60) rotate(180)"/>
</clipPath>
</defs>
</svg>
