<svg width="60" height="60" viewBox="0 0 60 60" fill="none" xmlns="http://www.w3.org/2000/svg">
<path d="M31.25 35H51.2501C51.9401 35 52.5001 34.44 52.5001 33.75C52.5001 33.06 51.9401 32.4999 51.2501 32.4999H31.25C30.56 32.4999 30 33.06 30 33.75C30 34.44 30.56 35 31.25 35Z" fill="#0F4C8A"/>
<path d="M60 23.75V18.75C60 17.5425 59.64 16.425 59.045 15.4675C59.03 15.4375 59.0276 15.4024 59.01 15.375L51.28 2.94996C50.1325 1.10496 48.1475 0 45.9725 0H14.03C11.8526 0 9.87 1.10496 8.7225 2.94996L0.992461 15.375C0.977461 15.4 0.977461 15.4275 0.962461 15.455C0.362461 16.4125 0 17.5375 0 18.75V23.75C0 25.8 1.00746 27.6101 2.54004 28.7501C1.00746 29.89 0 31.6975 0 33.75V38.75C0 40.8 1.00746 42.6101 2.54004 43.7501C1.00746 44.89 0 46.6975 0 48.75V53.75C0 57.195 2.805 60 6.24996 60H22.6399C23.3324 60 23.89 59.44 23.89 58.75C23.89 58.06 23.3299 57.4999 22.6399 57.4999H6.24996C4.18242 57.4999 2.49996 55.8175 2.49996 53.7499V48.75C2.49996 46.68 4.18242 45 6.24996 45H27.16C27.85 45 28.41 44.44 28.41 43.75C28.41 43.06 27.85 42.4999 27.16 42.4999H6.24996C4.18242 42.4999 2.49996 40.8175 2.49996 38.7499V33.75C2.49996 31.68 4.18242 30 6.24996 30H53.7499C55.8175 30 57.4999 31.6825 57.4999 33.75V38.75C57.4999 39.3 57.3649 39.8525 57.1049 40.385C56.8024 41.0051 57.0574 41.7525 57.6773 42.0575C58.2998 42.3626 59.0474 42.1076 59.3498 41.4851C59.7824 40.6051 59.9999 39.6875 59.9999 38.75V33.75C59.9999 31.7 58.9924 29.89 57.4598 28.75C58.9925 27.6075 60 25.8 60 23.75ZM10.845 4.26996C11.5325 3.16242 12.7225 2.49996 14.0275 2.49996H45.97C47.275 2.49996 48.465 3.16242 49.155 4.26996L54.3125 12.5575C54.125 12.5374 53.9426 12.4999 53.75 12.4999H6.24996C6.05742 12.4999 5.87496 12.5374 5.68746 12.5549L10.845 4.26996ZM57.5 23.75C57.5 25.8176 55.8176 27.5 53.75 27.5H6.24996C4.18242 27.5 2.49996 25.8176 2.49996 23.75V18.75C2.49996 16.68 4.18242 15 6.24996 15H53.7499C55.8175 15 57.4999 16.68 57.4999 18.75V23.75H57.5Z" fill="#0F4C8A"/>
<path d="M5.00006 51.2499C5.00006 53.3175 6.68252 54.9999 8.75006 54.9999C10.8176 54.9999 12.5001 53.3175 12.5001 51.2499C12.5001 49.1824 10.8176 47.4999 8.75006 47.4999C6.68252 47.4999 5.00006 49.1799 5.00006 51.2499ZM9.99998 51.2499C9.99998 51.9399 9.43994 52.5 8.74994 52.5C8.05994 52.5 7.50002 51.9399 7.50002 51.2499C7.50002 50.5599 8.06006 49.9999 8.75006 49.9999C9.44006 49.9999 9.99998 50.5599 9.99998 51.2499Z" fill="#0F4C8A"/>
<path d="M51.25 42.5C51.0225 42.5 50.7949 42.5126 50.5725 42.5325C48.49 39.4075 44.9925 37.5 41.25 37.5C35.43 37.5 30.6276 41.9425 30.0576 47.615C27.18 48.17 25.0001 50.7101 25.0001 53.75C25.0001 57.195 27.8051 60 31.2501 60H51.2501C56.0751 60 60 56.075 60 51.25C60 46.4249 56.0751 42.5 51.25 42.5ZM51.25 57.5H31.2501C29.1825 57.5 27.5001 55.8176 27.5001 53.75C27.5001 51.6825 29.1825 50 31.2501 50C31.9401 50 32.5001 49.44 32.5001 48.75C32.5001 43.925 36.4251 40 41.2501 40C44.3752 40 47.2876 41.7225 48.8452 44.4949C49.1052 44.9575 49.6201 45.2024 50.1552 45.1124C50.5127 45.0499 50.8752 44.9999 51.2502 44.9999C54.6952 44.9999 57.5002 47.8049 57.5002 51.2498C57.5002 54.6948 54.6951 57.5 51.25 57.5Z" fill="#0F4C8A"/>
<path d="M51.25 17.4999H31.25C30.56 17.4999 30 18.06 30 18.75C30 19.44 30.56 20 31.25 20H51.2501C51.9401 20 52.5001 19.44 52.5001 18.75C52.5001 18.06 51.94 17.4999 51.25 17.4999Z" fill="#0F4C8A"/>
<path d="M51.25 22.5H31.25C30.56 22.5 30 23.06 30 23.75C30 24.44 30.56 25.0001 31.25 25.0001H51.2501C51.9401 25.0001 52.5001 24.44 52.5001 23.75C52.5001 23.06 51.94 22.5 51.25 22.5Z" fill="#0F4C8A"/>
<path d="M8.75006 17.4999C6.68252 17.4999 5.00006 19.1799 5.00006 21.2499C5.00006 23.3199 6.68252 24.9999 8.75006 24.9999C10.8176 24.9999 12.5001 23.3175 12.5001 21.2499C12.5001 19.1825 10.8175 17.4999 8.75006 17.4999ZM8.75006 22.5C8.06006 22.5 7.50002 21.9399 7.50002 21.2499C7.50002 20.5599 8.06006 19.9999 8.75006 19.9999C9.44006 19.9999 10.0001 20.5599 10.0001 21.2499C10.0001 21.9399 9.44006 22.5 8.75006 22.5Z" fill="#0F4C8A"/>
<path d="M5.00006 36.2499C5.00006 38.3175 6.68252 39.9999 8.75006 39.9999C10.8176 39.9999 12.5001 38.3175 12.5001 36.2499C12.5001 34.1824 10.8176 32.4999 8.75006 32.4999C6.68252 32.4999 5.00006 34.1799 5.00006 36.2499ZM9.99998 36.2499C9.99998 36.9399 9.43994 37.5 8.74994 37.5C8.05994 37.5 7.50002 36.9399 7.50002 36.2499C7.50002 35.5599 8.06006 34.9999 8.75006 34.9999C9.44006 34.9999 9.99998 35.5599 9.99998 36.2499Z" fill="#0F4C8A"/>
</svg>
