<svg width="60" height="60" viewBox="0 0 60 60" fill="none" xmlns="http://www.w3.org/2000/svg">
<g clip-path="url(#clip0)">
<path d="M24.6879 22.3845H51.8777C52.3669 22.3845 52.7633 21.9884 52.7633 21.4997C52.7633 21.011 52.3669 20.6149 51.8777 20.6149H24.6879C24.1988 20.6149 23.8023 21.011 23.8023 21.4997C23.8023 21.9884 24.1988 22.3845 24.6879 22.3845Z" fill="#0F4C8A"/>
<path d="M24.6879 28.8311H51.8777C52.3669 28.8311 52.7633 28.435 52.7633 27.9463C52.7633 27.4576 52.3669 27.0615 51.8777 27.0615H24.6879C24.1988 27.0615 23.8023 27.4576 23.8023 27.9463C23.8023 28.435 24.1988 28.8311 24.6879 28.8311Z" fill="#0F4C8A"/>
<path d="M11.7025 30.9279C12.1916 30.9279 12.588 30.5318 12.588 30.0432C12.588 29.5545 12.1916 29.1584 11.7025 29.1584C11.208 29.1584 10.6187 28.9096 10.6187 27.7239V26.4764C10.6187 25.7473 10.4054 25.2532 10.1232 24.9119C10.4053 24.5703 10.6187 24.0762 10.6187 23.3476V22.1002C10.6187 20.9146 11.208 20.6658 11.7025 20.6658C12.1916 20.6658 12.588 20.2697 12.588 19.781C12.588 19.2924 12.1916 18.8963 11.7025 18.8963C10.2813 18.8963 8.84742 19.887 8.84742 22.1001V23.3475C8.84742 23.8122 8.76281 23.8436 8.35641 23.9949C8.26336 24.0296 8.16727 24.0653 8.0693 24.1105C7.62539 24.3157 7.43203 24.8416 7.63734 25.285C7.71797 25.4591 7.84898 25.5931 8.00426 25.6811C8.02313 25.6935 8.26793 25.7984 8.35617 25.8308C8.76281 25.9804 8.84742 26.0116 8.84742 26.4762V27.7237C8.84742 29.9372 10.2813 30.9279 11.7025 30.9279V30.9279Z" fill="#0F4C8A"/>
<path d="M17.3926 27.5846C17.3926 28.7702 16.8033 29.019 16.3089 29.019C15.8197 29.019 15.4233 29.4151 15.4233 29.9038C15.4233 30.3925 15.8197 30.7886 16.3089 30.7886C17.73 30.7886 19.1639 29.7978 19.1639 27.5848V26.3406C19.1639 25.8759 19.2485 25.8444 19.6549 25.6932C19.7436 25.6602 19.8353 25.6256 19.9284 25.5833C19.931 25.5821 19.969 25.5637 19.9793 25.5568C20.1483 25.4688 20.2911 25.3277 20.3761 25.1412C20.5787 24.6964 20.3821 24.1718 19.937 23.9694C19.8408 23.9257 19.7463 23.8909 19.655 23.8574C19.2484 23.7078 19.1638 23.6767 19.1638 23.2119V21.9644C19.1638 19.7512 17.7299 18.7605 16.3087 18.7605C15.8196 18.7605 15.4232 19.1566 15.4232 19.6453C15.4232 20.134 15.8196 20.5301 16.3087 20.5301C16.8032 20.5301 17.3925 20.7789 17.3925 21.9646V23.212C17.3925 23.9411 17.6058 24.4351 17.888 24.7766C17.6059 25.1182 17.3925 25.6123 17.3925 26.3408V27.5846H17.3926Z" fill="#0F4C8A"/>
<path d="M27.2757 39H9.72437C9.32427 39 9 39.4477 9 40C9 40.5523 9.32427 41 9.72437 41H27.2756C27.6757 41 28 40.5523 28 40C28 39.4477 27.6757 39 27.2757 39V39Z" fill="#0F4C8A"/>
<path d="M27.2757 45H9.72437C9.32427 45 9 45.4477 9 46C9 46.5523 9.32427 47 9.72437 47H27.2756C27.6757 47 28 46.5523 28 46C28 45.4477 27.6757 45 27.2757 45Z" fill="#0F4C8A"/>
<path d="M50.6988 11.356C52.2237 11.356 53.4641 10.1167 53.4641 8.59336C53.4641 7.07004 52.2237 5.83078 50.6988 5.83078C49.1722 5.83078 47.9303 7.07004 47.9303 8.59336C47.9303 10.1167 49.1721 11.356 50.6988 11.356ZM50.6988 7.60031C51.247 7.60031 51.6929 8.04586 51.6929 8.59347C51.6929 9.14109 51.2469 9.58664 50.6988 9.58664C50.1489 9.58664 49.7013 9.14109 49.7013 8.59347C49.7013 8.04586 50.1488 7.60031 50.6988 7.60031Z" fill="#0F4C8A"/>
<path d="M42.7082 11.356C44.2331 11.356 45.4736 10.1167 45.4736 8.59336C45.4736 7.07004 44.2331 5.83078 42.7082 5.83078C41.1833 5.83078 39.9429 7.07004 39.9429 8.59336C39.9429 10.1167 41.1833 11.356 42.7082 11.356ZM42.7082 7.60031C43.2564 7.60031 43.7024 8.04586 43.7024 8.59347C43.7024 9.14109 43.2562 9.58664 42.7082 9.58664C42.16 9.58664 41.7141 9.14109 41.7141 8.59347C41.7141 8.04586 42.16 7.60031 42.7082 7.60031Z" fill="#0F4C8A"/>
<path d="M34.7177 11.356C36.2426 11.356 37.483 10.1167 37.483 8.59336C37.483 7.07004 36.2426 5.83078 34.7177 5.83078C33.1928 5.83078 31.9523 7.07004 31.9523 8.59336C31.9523 10.1167 33.1928 11.356 34.7177 11.356ZM34.7177 7.60031C35.2659 7.60031 35.7118 8.04586 35.7118 8.59347C35.7118 9.14109 35.2658 9.58664 34.7177 9.58664C34.1697 9.58664 33.7235 9.14109 33.7235 8.59347C33.7234 8.04586 34.1695 7.60031 34.7177 7.60031Z" fill="#0F4C8A"/>
<path d="M53.163 2.16797H6.83367C3.06562 2.16797 0 5.23055 0 8.99496V51.0019C0 54.7679 3.06562 57.832 6.83367 57.832H53.163C56.933 57.832 60 54.7679 60 51.0018V8.99496C60 5.23055 56.933 2.16797 53.163 2.16797V2.16797ZM53.163 56.0626H6.83367C4.04227 56.0626 1.77117 53.7923 1.77117 51.0019V15.1781H14.7844C15.2735 15.1781 15.67 14.782 15.67 14.2934C15.67 13.8047 15.2735 13.4086 14.7844 13.4086H1.77129V8.99496C1.77129 6.20625 4.04227 3.9375 6.83379 3.9375H53.1632C55.9564 3.9375 58.2289 6.20625 58.2289 8.99496V13.4087H18.8394C18.3503 13.4087 17.9538 13.8048 17.9538 14.2935C17.9538 14.7821 18.3503 15.1782 18.8394 15.1782H58.2288V51.0019C58.2288 53.7923 55.9563 56.0626 53.163 56.0626V56.0626Z" fill="#0F4C8A"/>
<path d="M52.5818 39.0489H52.3455C52.2824 38.8795 52.2137 38.7123 52.1399 38.5474L52.3048 38.3827C52.6451 38.0427 52.8319 37.59 52.8307 37.1079C52.8295 36.6274 52.6417 36.1775 52.3055 35.8447L50.5911 34.1287C50.252 33.79 49.8002 33.6034 49.3189 33.6034C48.8378 33.6034 48.3859 33.7901 48.0469 34.1287L47.8821 34.2933C47.7168 34.2192 47.5493 34.1505 47.38 34.0875V33.8518C47.38 32.8628 46.573 32.058 45.5811 32.058H43.1566C42.1648 32.058 41.3578 32.8628 41.3578 33.8518V34.1379C41.2027 34.1985 41.0489 34.264 40.8967 34.3343L40.6909 34.1287C40.3516 33.7898 39.9002 33.6034 39.4193 33.6034C39.4178 33.6034 39.4164 33.6034 39.415 33.6034C38.9351 33.6046 38.4859 33.7912 38.1495 34.1292L36.4358 35.8412C36.096 36.1775 35.9081 36.6274 35.907 37.1079C35.9058 37.59 36.0927 38.0426 36.4328 38.3825L36.6882 38.6377C36.6287 38.7735 36.5732 38.9106 36.5213 39.0487H36.1557C35.1657 39.0487 34.3602 39.855 34.3602 40.8458V43.2678C34.3602 44.2588 35.1656 45.0649 36.1557 45.0649H36.5728C36.6218 45.19 36.6736 45.3136 36.7283 45.4361L36.433 45.731C35.7315 46.4318 35.7315 47.572 36.4336 48.2734L38.147 49.9819C38.4837 50.3215 38.934 50.5091 39.4151 50.5103H39.4194C39.9004 50.5103 40.3518 50.3238 40.6911 49.9848L40.9847 49.6914C41.1079 49.7464 41.2323 49.7985 41.3579 49.8473V50.2616C41.3579 51.2525 42.1649 52.0587 43.1568 52.0587H45.5812C46.5731 52.0587 47.3801 51.2524 47.3801 50.2616V49.8966C47.5181 49.8451 47.6557 49.7896 47.7923 49.7304L48.0469 49.9847C48.386 50.3235 48.8378 50.5102 49.3191 50.5102C49.8004 50.5102 50.2521 50.3236 50.5913 49.9847L52.305 48.2727C52.6441 47.9339 52.8309 47.4825 52.8309 47.0018C52.8309 46.5211 52.6441 46.0698 52.305 45.7309L52.0999 45.5261C52.1702 45.3741 52.236 45.2202 52.2967 45.0647H52.582C53.574 45.0647 54.381 44.2584 54.381 43.2676V40.8456C54.3807 39.855 53.5738 39.0489 52.5818 39.0489V39.0489ZM52.6096 43.268C52.6096 43.2804 52.5942 43.2956 52.5818 43.2956H51.6653C51.2736 43.2956 50.9285 43.5526 50.8166 43.9275C50.6789 44.3883 50.4873 44.8368 50.2471 45.2605C50.0508 45.6066 50.1097 46.0411 50.3913 46.3222L51.0523 46.9825C51.0619 46.9919 51.0619 47.0123 51.0523 47.0218L49.3385 48.7338C49.3346 48.7377 49.3031 48.7379 49.299 48.7338L48.6015 48.037C48.3274 47.7633 47.9071 47.6995 47.5638 47.8793C47.1352 48.1041 46.6944 48.2809 46.2538 48.4051C45.8721 48.5127 45.6086 48.8605 45.6086 49.2566V50.262C45.6086 50.2745 45.5963 50.2896 45.5809 50.2896H43.1564C43.1441 50.2896 43.1288 50.2744 43.1288 50.262V49.2168C43.1288 48.8255 42.8714 48.4806 42.4961 48.3689C42.0593 48.2389 41.6354 48.0614 41.2362 47.8416C41.1019 47.7675 40.9547 47.7315 40.8087 47.7315C40.5793 47.7315 40.3526 47.8205 40.1822 47.9907L39.4384 48.7339C39.4364 48.7359 39.4313 48.7411 39.4191 48.7411H39.4189C39.4092 48.7411 39.4062 48.7379 39.4016 48.7334L37.6853 47.022C37.6758 47.0125 37.6758 46.9921 37.6854 46.9826L38.4293 46.2394C38.7068 45.9621 38.7686 45.5354 38.5809 45.191C38.362 44.7892 38.1831 44.3625 38.0491 43.9228C37.9355 43.5504 37.5916 43.2959 37.2019 43.2959H36.1556C36.145 43.2959 36.1313 43.2824 36.1313 43.2682V40.8462C36.1313 40.832 36.145 40.8185 36.1556 40.8185H37.1619C37.5584 40.8185 37.9065 40.5553 38.0142 40.1741C38.1402 39.7284 38.3171 39.2914 38.5404 38.8751C38.7247 38.5314 38.662 38.1076 38.3861 37.8318L37.6853 37.1317C37.6833 37.1297 37.6781 37.1245 37.6781 37.1123C37.6781 37.1027 37.6813 37.0996 37.6853 37.0956L39.4022 35.3802C39.4031 35.3793 39.4042 35.3782 39.405 35.3773C39.4061 35.3762 39.4091 35.373 39.4188 35.373H39.4189C39.431 35.373 39.4363 35.3782 39.4382 35.3801L40.099 36.0403C40.3799 36.3209 40.8132 36.3804 41.1595 36.1859C41.5889 35.9446 42.0391 35.7526 42.4976 35.6152C42.8722 35.5029 43.1286 35.1585 43.1286 34.7678V33.8521C43.1286 33.8414 43.1421 33.8277 43.1563 33.8277H45.5808C45.5971 33.8277 45.6084 33.8405 45.6084 33.8521V34.728C45.6084 35.1239 45.8716 35.4715 46.2529 35.5793C46.7292 35.7141 47.1936 35.9043 47.6332 36.1445C47.9781 36.3332 48.4064 36.2719 48.6846 35.994L49.2991 35.3801C49.303 35.3762 49.3354 35.3768 49.3378 35.3796L51.0551 37.0985C51.0561 37.0996 51.0593 37.1026 51.0593 37.1123C51.0593 37.1245 51.0541 37.1298 51.052 37.1318L50.4376 37.7456C50.1595 38.0235 50.0982 38.4512 50.287 38.7959C50.5259 39.2318 50.7163 39.6962 50.8532 40.1761C50.9616 40.5562 51.3093 40.8185 51.7049 40.8185H52.5817C52.5941 40.8185 52.6095 40.8337 52.6095 40.8462V43.268H52.6096Z" fill="#0F4C8A"/>
<path d="M44.3688 37.4298C41.8147 37.4298 39.737 39.5055 39.737 42.057C39.737 44.6084 41.8147 46.6841 44.3688 46.6841C46.9228 46.6841 49.0005 44.6084 49.0005 42.057C49.0005 39.5055 46.9227 37.4298 44.3688 37.4298ZM44.3688 44.9147C42.7915 44.9147 41.5082 43.6328 41.5082 42.057C41.5082 40.4811 42.7916 39.1992 44.3688 39.1992C45.9462 39.1992 47.2294 40.4813 47.2294 42.057C47.2294 43.6327 45.9461 44.9147 44.3688 44.9147Z" fill="#0F4C8A"/>
</g>
<defs>
<clipPath id="clip0">
<rect width="60" height="60" fill="white"/>
</clipPath>
</defs>
</svg>
