<svg width="60" height="60" viewBox="0 0 60 60" fill="none" xmlns="http://www.w3.org/2000/svg">
<g clip-path="url(#clip0)">
<path d="M49.5132 8.99556L42.8698 2.35217C41.3586 0.840799 38.8995 0.840799 37.3881 2.35206L13.8712 25.8692C13.5265 26.2139 13.5265 26.7726 13.8712 27.1172C14.2158 27.4618 14.7746 27.4618 15.1191 27.1172L38.6363 3.60011C39.4594 2.77698 40.7989 2.77698 41.622 3.60011L48.2654 10.2435C48.61 10.5881 49.1687 10.5881 49.5133 10.2435C49.8578 9.89884 49.858 9.34009 49.5132 8.99556Z" fill="#0F4C8A"/>
<path d="M58.8665 18.349L52.841 12.3234C52.4967 11.9789 51.938 11.9789 51.5934 12.3235C51.2487 12.6682 51.2487 13.2269 51.5934 13.5714L57.619 19.597C58.4421 20.4201 58.4421 21.7596 57.619 22.5827L55.1424 25.0593L41.6225 38.5791L38.1967 42.0049L30.7489 49.4526L28.8366 51.365L9.85398 32.3823L11.7905 30.4458C12.1352 30.1012 12.1352 29.5424 11.7905 29.1979C11.4459 28.8533 10.8871 28.8532 10.5426 29.1979L8.60593 31.1344L7.41448 29.9431C6.56791 29.0965 5.19049 29.0965 4.34392 29.9431L0.495117 33.7918C-0.16512 34.452 -0.16512 35.5263 0.495117 36.1865L1.62645 37.3178C2.28669 37.9781 3.36095 37.9781 4.02118 37.3178L5.87932 35.4598L7.72456 37.305L6.70631 38.3233C5.95596 39.0736 5.95596 40.2945 6.70631 41.0448L7.96655 42.305C8.71679 43.0552 9.93765 43.0552 10.688 42.305L11.7061 41.2867L12.9009 42.4815L11.8826 43.4997C11.1323 44.2501 11.1323 45.4709 11.8826 46.2212L13.1429 47.4814C13.8931 48.2317 15.114 48.2317 15.8643 47.4814L16.8826 46.4632L18.0773 47.6579L17.059 48.6761C16.3087 49.4265 16.3087 50.6474 17.059 51.3976L18.3193 52.6578C19.0695 53.4081 20.2904 53.4081 21.0407 52.6578L22.059 51.6396L28.7055 58.2861C29.3658 58.9464 30.44 58.9464 31.1003 58.2861L32.2316 57.1548C32.8918 56.4946 32.8918 55.4203 32.2316 54.7601L30.0844 52.6128L31.3728 51.3244L32.6622 52.6137C33.4124 53.3639 34.6333 53.3639 35.3836 52.6137L41.3578 46.6394C42.1081 45.8892 42.1081 44.6683 41.3578 43.918L40.0685 42.6287L42.2462 40.451L43.5356 41.7403C44.2858 42.4905 45.5067 42.4905 46.2569 41.7403L58.3032 29.6939C59.0536 28.9436 59.0536 27.7227 58.3032 26.9725L57.0139 25.6832L58.8664 23.8307C60.3777 22.3194 60.3777 19.8603 58.8665 18.349ZM9.44007 41.0568C9.37785 41.119 9.27659 41.119 9.21449 41.0569L7.95425 39.7967C7.89202 39.7345 7.89202 39.6333 7.95425 39.5711L8.97249 38.5529L10.4582 40.0387L9.44007 41.0568ZM14.6165 46.2335C14.5543 46.2957 14.4531 46.2957 14.391 46.2335L13.1309 44.9732C13.0687 44.911 13.0687 44.8099 13.1309 44.7477L14.1492 43.7294L15.6349 45.2152L14.6165 46.2335ZM19.7929 51.4099C19.7307 51.4721 19.6296 51.4721 19.5675 51.4099L18.3072 50.1497C18.2451 50.0876 18.2451 49.9863 18.3072 49.9242L19.3255 48.906L20.8112 50.3917L19.7929 51.4099ZM30.933 55.9575L29.903 56.9876L22.683 49.7676L19.9493 47.0339L17.5065 44.5911L14.7727 41.8573L12.3299 39.4145L9.59617 36.6808L6.50299 33.5876C6.15834 33.243 5.59959 33.243 5.25506 33.5876L2.82364 36.019L1.79356 34.9889L5.59174 31.1908C5.75018 31.0323 6.00787 31.0323 6.16631 31.1908L7.9819 33.0064L28.2125 53.237L30.933 55.9575ZM34.1358 51.3658C34.0737 51.428 33.9724 51.428 33.9103 51.3658L32.621 50.0765L33.8241 48.8735L35.2261 50.2755L34.1358 51.3658ZM36.4742 49.0275L35.0721 47.6254L36.3697 46.3278L37.7718 47.7299L36.4742 49.0275ZM40.11 45.166C40.1723 45.2282 40.1723 45.3294 40.11 45.3916L39.0197 46.4819L37.6177 45.0799L38.8208 43.8767L40.11 45.166ZM45.0091 40.4924C44.947 40.5546 44.8458 40.5546 44.7836 40.4924L43.4943 39.2031L44.7727 37.9247L46.1747 39.3268L45.0091 40.4924ZM47.4229 38.0787L46.0209 36.6767L47.5952 35.1024L48.9972 36.5044L47.4229 38.0787ZM50.2453 35.2564L48.8432 33.8543L50.4175 32.28L51.8196 33.6821L50.2453 35.2564ZM53.0675 32.434L51.6655 31.032L53.2398 29.4577L54.6418 30.8597L53.0675 32.434ZM57.0555 28.2205C57.1176 28.2826 57.1176 28.3839 57.0555 28.446L55.8899 29.6117L54.4878 28.2096L55.7662 26.9312L57.0555 28.2205Z" fill="#0F4C8A"/>
<path d="M20.6975 28.6744C20.5248 28.4955 20.2881 28.3926 20.0395 28.3883C19.7909 28.3839 19.5508 28.4785 19.3719 28.6513L16.6744 31.2562C16.4955 31.4289 16.3926 31.6656 16.3883 31.9142C16.3839 32.1629 16.4785 32.403 16.6512 32.5819L19.2562 35.2794C19.4289 35.4582 19.6656 35.5612 19.9142 35.5655C20.1628 35.5698 20.403 35.4752 20.5818 35.3025L23.2794 32.6975C23.4582 32.5248 23.5611 32.2881 23.5655 32.0395C23.5698 31.7909 23.4752 31.5508 23.3025 31.3719L20.6975 28.6744ZM21.3025 32L19.9537 33.3025L18.6512 31.9537L20 30.6513L21.3025 32Z" fill="#0F4C8A"/>
<path d="M32.3967 42.1389C32.5756 41.9661 32.6785 41.7294 32.6829 41.4808C32.6872 41.2322 32.5926 40.9921 32.4199 40.8132L25.9075 34.0694C25.7347 33.8906 25.498 33.7876 25.2494 33.7833C25.0008 33.779 24.7607 33.8736 24.5818 34.0463L21.8843 36.6512C21.7055 36.824 21.6025 37.0607 21.5982 37.3093C21.5939 37.5579 21.6885 37.798 21.8612 37.9769L28.3736 44.7207C28.5463 44.8995 28.783 45.0025 29.0316 45.0068C29.2802 45.0111 29.5204 44.9165 29.6992 44.7438C29.8781 44.5711 29.981 44.3344 29.9853 44.0858C29.9897 43.8372 29.8951 43.5971 29.7224 43.4182L23.8612 37.3488L25.2099 36.0463L31.0711 42.1157C31.2438 42.2946 31.4805 42.3975 31.7291 42.4018C31.9777 42.4062 32.2179 42.3116 32.3967 42.1389Z" fill="#0F4C8A"/>
<path d="M33.883 17.0135L31.1668 24.7127L27.2797 28.4665C27.1008 28.6392 26.9979 28.8759 26.9935 29.1245C26.9892 29.3731 27.0838 29.6132 27.2565 29.7921L31.164 33.8384C31.3367 34.0172 31.5734 34.1201 31.822 34.1245C32.0706 34.1288 32.3107 34.0342 32.4896 33.8615L36.3767 30.1077L44.1693 27.6653C44.3222 27.6173 44.4602 27.5309 44.5701 27.4143C44.6801 27.2978 44.7583 27.155 44.7974 26.9996C44.8365 26.8443 44.8351 26.6815 44.7934 26.5268C44.7516 26.3721 44.671 26.2307 44.559 26.116L35.4416 16.6747C35.3307 16.5597 35.1921 16.4749 35.0392 16.4285C34.8863 16.3821 34.724 16.3756 34.5678 16.4095C34.4117 16.4434 34.2668 16.5168 34.1469 16.6225C34.027 16.7282 33.9362 16.8628 33.883 17.0135V17.0135ZM29.2565 29.164L31.954 26.559L34.559 29.2565L31.8615 31.8615L29.2565 29.164ZM42.1566 26.3274L36.1565 28.2117L33.054 24.9989L35.1466 19.0683L42.1566 26.3274Z" fill="#0F4C8A"/>
<path d="M44.0881 21.1975C44.3367 21.2018 44.5768 21.1072 44.7556 20.9345C44.9344 20.7619 45.0373 20.5252 45.0417 20.2767C45.0589 19.2825 44.6805 18.3221 43.9898 17.6068C43.299 16.8915 42.3525 16.4799 41.3583 16.4624C41.2339 16.458 41.1098 16.4785 40.9934 16.5226C40.877 16.5667 40.7706 16.6336 40.6803 16.7193C40.59 16.805 40.5176 16.9078 40.4675 17.0217C40.4174 17.1357 40.3904 17.2585 40.3883 17.3829C40.3861 17.5074 40.4087 17.6311 40.4549 17.7467C40.501 17.8623 40.5697 17.9676 40.6569 18.0564C40.7442 18.1452 40.8482 18.2157 40.963 18.2638C41.0778 18.312 41.2011 18.3368 41.3256 18.3368C41.8227 18.3456 42.2959 18.5514 42.6413 18.909C42.9867 19.2667 43.1759 19.7468 43.1673 20.2439C43.163 20.4925 43.2576 20.7326 43.4302 20.9114C43.6029 21.0902 43.8396 21.1931 44.0881 21.1975V21.1975Z" fill="#0F4C8A"/>
<path d="M47.8384 21.263C48.087 21.2673 48.3271 21.1727 48.5059 21C48.6847 20.8273 48.7876 20.5907 48.792 20.3421C48.8238 18.3541 48.066 16.4346 46.6848 15.0043C45.3037 13.5741 43.4118 12.7498 41.4238 12.7122C41.178 12.7122 40.942 12.8087 40.7667 12.981C40.5913 13.1533 40.4907 13.3875 40.4864 13.6333C40.4821 13.8791 40.5745 14.1167 40.7437 14.295C40.913 14.4733 41.1454 14.578 41.3911 14.5866C42.8823 14.6145 44.3015 15.2326 45.3375 16.3055C46.3735 17.3783 46.9417 18.8182 46.9176 20.3094C46.9133 20.558 47.0078 20.798 47.1805 20.9769C47.3532 21.1557 47.5899 21.2586 47.8384 21.263V21.263Z" fill="#0F4C8A"/>
</g>
<defs>
<clipPath id="clip0">
<rect width="59.9999" height="60" fill="white"/>
</clipPath>
</defs>
</svg>
