<svg width="60" height="60" viewBox="0 0 60 60" fill="none" xmlns="http://www.w3.org/2000/svg">
<path d="M38.171 51.3297H21.8288C21.34 51.3297 20.9438 51.7259 20.9438 52.2146C20.9438 52.7034 21.34 53.0996 21.8288 53.0996H38.1709C38.6597 53.0996 39.0559 52.7034 39.0559 52.2146C39.0559 51.7259 38.6598 51.3297 38.171 51.3297Z" fill="#0F4C8A"/>
<path d="M14.6285 5.59874C15.1123 5.59874 15.5046 5.2065 15.5046 4.72265C15.5046 4.2388 15.1123 3.84656 14.6285 3.84656C14.1446 3.84656 13.7524 4.2388 13.7524 4.72265C13.7524 5.2065 14.1446 5.59874 14.6285 5.59874Z" fill="#0F4C8A"/>
<path d="M45.3714 5.59874C45.8552 5.59874 46.2475 5.2065 46.2475 4.72265C46.2475 4.2388 45.8552 3.84656 45.3714 3.84656C44.8875 3.84656 44.4953 4.2388 44.4953 4.72265C44.4953 5.2065 44.8875 5.59874 45.3714 5.59874Z" fill="#0F4C8A"/>
<path d="M14.6285 53.0912C15.1123 53.0912 15.5046 52.699 15.5046 52.2151C15.5046 51.7313 15.1123 51.3391 14.6285 51.3391C14.1446 51.3391 13.7524 51.7313 13.7524 52.2151C13.7524 52.699 14.1446 53.0912 14.6285 53.0912Z" fill="#0F4C8A"/>
<path d="M45.3714 53.0912C45.8552 53.0912 46.2475 52.699 46.2475 52.2151C46.2475 51.7313 45.8552 51.3391 45.3714 51.3391C44.8875 51.3391 44.4953 51.7313 44.4953 52.2151C44.4953 52.699 44.8875 53.0912 45.3714 53.0912Z" fill="#0F4C8A"/>
<path d="M49.8505 29.8004C49.3617 29.8004 48.9655 30.1966 48.9655 30.6854V52.6678C48.9656 53.8882 47.9728 54.881 46.7524 54.881H13.2474C12.027 54.881 11.0342 53.8882 11.0342 52.6678V30.6854C11.0342 30.1966 10.638 29.8004 10.1492 29.8004C9.66043 29.8004 9.26422 30.1966 9.26422 30.6854V52.6678C9.26422 54.8642 11.0511 56.6509 13.2473 56.6509H13.4322L13.7844 58.6215C13.9269 59.4203 14.6193 60 15.4307 60H18.1758C18.9872 60 19.6797 59.4203 19.8222 58.6217L20.1744 56.6509H39.8254L40.1775 58.6215C40.32 59.4203 41.0125 60 41.8239 60H44.569C45.3804 60 46.0729 59.4203 46.2154 58.6217L46.5675 56.6509H46.7524C48.9486 56.6509 50.7355 54.8642 50.7355 52.6678V30.6854C50.7355 30.1966 50.3393 29.8004 49.8505 29.8004ZM18.0943 58.23H15.5124L15.2302 56.6509H18.3766L18.0943 58.23ZM44.4874 58.23H41.9056L41.6234 56.6509H44.7697L44.4874 58.23Z" fill="#0F4C8A"/>
<path d="M46.7524 0H13.2474C11.0511 0 9.26422 1.78687 9.26422 3.9832V25.9657C9.26422 26.4544 9.66043 26.8507 10.1492 26.8507C10.638 26.8507 11.0342 26.4544 11.0342 25.9657V3.9832C11.0342 2.76281 12.027 1.77 13.2474 1.77H46.7525C47.9729 1.77 48.9657 2.76281 48.9657 3.9832V25.9657C48.9657 26.4544 49.362 26.8507 49.8507 26.8507C50.3395 26.8507 50.7357 26.4544 50.7357 25.9657V3.9832C50.7356 1.78687 48.9488 0 46.7524 0Z" fill="#0F4C8A"/>
<path d="M30 4.71338C25.0789 4.71338 21.0754 8.71696 21.0754 13.6379C21.0754 18.5588 25.0789 22.5624 30 22.5624C34.921 22.5624 38.9245 18.5588 38.9245 13.6379C38.9245 8.71685 34.921 4.71338 30 4.71338ZM30 20.7925C26.0548 20.7925 22.8453 17.583 22.8453 13.6379C22.8453 9.69278 26.0548 6.48326 30 6.48326C33.9451 6.48326 37.1546 9.69278 37.1546 13.6379C37.1546 17.583 33.9451 20.7925 30 20.7925Z" fill="#0F4C8A"/>
<path d="M29.9999 24.1432C22.9876 24.1432 17.2827 29.8482 17.2827 36.8604C17.2827 43.8728 22.9876 49.5776 29.9999 49.5776C37.0123 49.5776 42.7172 43.8727 42.7172 36.8604C42.7172 29.8482 37.0123 24.1432 29.9999 24.1432ZM29.9999 47.8077C23.9636 47.8077 19.0525 42.8967 19.0525 36.8604C19.0525 30.8241 23.9636 25.9131 29.9999 25.9131C36.0362 25.9131 40.9473 30.8241 40.9473 36.8604C40.9473 42.8967 36.0362 47.8077 29.9999 47.8077Z" fill="#0F4C8A"/>
<path d="M35.8066 31.054C34.2556 29.503 32.1934 28.6488 29.9999 28.6488C27.8064 28.6488 25.7443 29.503 24.1934 31.054C22.6423 32.6049 21.7881 34.6671 21.7881 36.8605C21.7881 39.0539 22.6423 41.116 24.1933 42.667C25.7443 44.218 27.8064 45.0721 29.9999 45.0721C32.1934 45.0721 34.2556 44.218 35.8064 42.667C37.3575 41.116 38.2117 39.0539 38.2117 36.8605C38.2117 34.6671 37.3575 32.6049 35.8066 31.054ZM34.555 41.4157C34.5549 41.4157 34.5549 41.4157 34.555 41.4157C33.3382 42.6323 31.7206 43.3024 29.9999 43.3024C28.2793 43.3024 26.6615 42.6323 25.4449 41.4157C24.2282 40.199 23.5581 38.5812 23.5581 36.8606C23.5581 35.1399 24.2281 33.5222 25.445 32.3055C26.6616 31.0889 28.2793 30.4188 29.9999 30.4188C31.7206 30.4188 33.3384 31.0889 34.555 32.3055C35.7718 33.5222 36.4417 35.1399 36.4417 36.8606C36.4417 38.5812 35.7716 40.1989 34.555 41.4157Z" fill="#0F4C8A"/>
<path d="M33.3937 10.2442C32.4873 9.33771 31.282 8.83838 30 8.83838C28.7179 8.83838 27.5128 9.3376 26.6063 10.2442C25.6998 11.1506 25.2006 12.3559 25.2006 13.6379C25.2006 14.9199 25.6998 16.1251 26.6062 17.0316C27.5127 17.9381 28.7179 18.4374 30 18.4374C31.282 18.4374 32.4871 17.9381 33.3937 17.0316C34.3001 16.1252 34.7994 14.9199 34.7994 13.6379C34.7994 12.3559 34.3001 11.1506 33.3937 10.2442ZM32.142 15.7801C31.5699 16.3522 30.8091 16.6674 30 16.6674C29.1907 16.6674 28.43 16.3523 27.8579 15.7801C27.2857 15.2079 26.9706 14.4471 26.9706 13.6379C26.9706 12.8286 27.2857 12.0679 27.8579 11.4957C28.43 10.9236 29.1908 10.6084 30 10.6084C30.8093 10.6084 31.5699 10.9235 32.1421 11.4957C32.7142 12.0679 33.0294 12.8287 33.0294 13.6379C33.0294 14.4471 32.7142 15.2079 32.142 15.7801Z" fill="#0F4C8A"/>
</svg>
