<svg width="60" height="60" viewBox="0 0 60 60" fill="none" xmlns="http://www.w3.org/2000/svg">
<g clip-path="url(#clip0)">
<path d="M22.0204 27.392C22.0204 26.8564 22.5192 26.5327 23.3949 26.5327C24.4167 26.5327 24.6964 26.9567 25.0737 26.9567C25.5115 26.9567 25.7061 26.4434 25.7061 26.1867C25.7061 25.4503 24.1127 25.2941 23.3949 25.2941C21.9961 25.2941 20.439 25.8631 20.439 27.5259C20.439 30.1705 24.3438 29.6572 24.3438 31.3311C24.3438 32.0005 23.7112 32.3018 22.9814 32.3018C21.7406 32.3018 21.4122 31.4426 20.9135 31.4426C20.5364 31.4426 20.2202 31.9112 20.2202 32.2237C20.2202 32.871 21.4365 33.6075 23.0301 33.6075C24.7088 33.6075 25.9251 32.7817 25.9251 31.1859C25.9251 28.2958 22.0204 28.7756 22.0204 27.392Z" fill="#0F4C8A"/>
<path d="M28.3702 27.392C28.3702 26.8564 28.8689 26.5327 29.7447 26.5327C30.7664 26.5327 31.0461 26.9567 31.4234 26.9567C31.8612 26.9567 32.0558 26.4434 32.0558 26.1867C32.0558 25.4503 30.4624 25.2941 29.7447 25.2941C28.3458 25.2941 26.7887 25.8631 26.7887 27.5259C26.7887 30.1705 30.6935 29.6572 30.6935 31.3311C30.6934 32.0005 30.061 32.3018 29.3311 32.3018C28.0903 32.3018 27.762 31.4426 27.2632 31.4426C26.8861 31.4426 26.5699 31.9112 26.5699 32.2237C26.5699 32.871 27.7862 33.6075 29.3799 33.6075C31.0586 33.6075 32.2749 32.7817 32.2749 31.1859C32.2749 28.2958 28.3702 28.7756 28.3702 27.392Z" fill="#0F4C8A"/>
<path d="M36.2034 25.3496H34.0503C33.6368 25.3496 33.3569 25.5616 33.3569 25.7961V33.0606C33.3571 33.2948 33.6368 33.5068 34.0503 33.5068H36.2034C37.8091 33.5068 39.0621 32.8149 39.0621 30.9514V27.905C39.0621 26.0415 37.8092 25.3496 36.2034 25.3496ZM37.4806 30.9515C37.4806 31.822 37.0063 32.2349 36.2034 32.2349H34.9384V26.6218H36.2034C37.0063 26.6218 37.4806 27.0347 37.4806 27.9051V30.9515Z" fill="#0F4C8A"/>
<path d="M52.8832 17.8463C52.3976 17.8463 52.0041 18.2399 52.0041 18.7255V55.8331C52.0041 57.1613 50.9236 58.2419 49.5954 58.2419H10.4046C9.07642 58.2419 7.99583 57.1613 7.99583 55.8331V44.1217C7.99583 43.6362 7.6022 43.2426 7.11669 43.2426C6.63118 43.2426 6.23755 43.6362 6.23755 44.1217V55.8331C6.23767 58.1307 8.10692 60.0001 10.4046 60.0001H49.5953C51.8929 60.0001 53.7621 58.1307 53.7621 55.8331V18.7255C53.7621 18.2399 53.3687 17.8463 52.8832 17.8463Z" fill="#0F4C8A"/>
<path d="M49.5953 0H10.4046C8.10693 0 6.23767 1.86937 6.23767 4.16695V39.4329C6.23767 39.9184 6.6313 40.312 7.11681 40.312C7.60232 40.312 7.99595 39.9184 7.99595 39.4329V4.16695C7.99595 2.83875 9.07654 1.75816 10.4047 1.75816H49.5954C50.9236 1.75816 52.0041 2.83875 52.0041 4.16695V14.0367C52.0041 14.5222 52.3976 14.9159 52.8832 14.9159C53.3688 14.9159 53.7624 14.5222 53.7624 14.0367V4.16695C53.7621 1.86937 51.8929 0 49.5953 0Z" fill="#0F4C8A"/>
<path d="M42.2046 12.8938H41.0716V10.321C41.0716 9.83553 40.6781 9.44189 40.1925 9.44189C39.7069 9.44189 39.3133 9.83553 39.3133 10.321V12.8939H35.9755V10.321C35.9755 9.83553 35.582 9.44189 35.0963 9.44189C34.6107 9.44189 34.2172 9.83553 34.2172 10.321V12.8939H30.8792V10.321C30.8792 9.83553 30.4857 9.44189 30.0001 9.44189C29.5146 9.44189 29.121 9.83553 29.121 10.321V12.8939H25.7831V10.321C25.7831 9.83553 25.3895 9.44189 24.904 9.44189C24.4185 9.44189 24.0248 9.83553 24.0248 10.321V12.8939H20.687V10.321C20.6869 9.83553 20.2933 9.44189 19.8078 9.44189C19.3223 9.44189 18.9287 9.83553 18.9287 10.321V12.8939H17.7958C16.5205 12.8939 15.483 13.9313 15.483 15.2067V44.7935C15.483 46.0688 16.5205 47.1063 17.7958 47.1063H18.9287V49.6792C18.9287 50.1647 19.3223 50.5583 19.8078 50.5583C20.2933 50.5583 20.687 50.1647 20.687 49.6792V47.1063H24.0248V49.6792C24.0248 50.1647 24.4185 50.5583 24.904 50.5583C25.3895 50.5583 25.7831 50.1647 25.7831 49.6792V47.1063H29.121V49.6792C29.121 50.1647 29.5146 50.5583 30.0001 50.5583C30.4857 50.5583 30.8792 50.1647 30.8792 49.6792V47.1063H34.2172V49.6792C34.2172 50.1647 34.6107 50.5583 35.0963 50.5583C35.582 50.5583 35.9755 50.1647 35.9755 49.6792V47.1063H39.3133V49.6792C39.3133 50.1647 39.7069 50.5583 40.1925 50.5583C40.6781 50.5583 41.0716 50.1647 41.0716 49.6792V47.1063H42.2046C43.4798 47.1063 44.5173 46.0688 44.5173 44.7935V15.2066C44.5173 13.9312 43.4797 12.8938 42.2046 12.8938ZM42.7586 44.7934C42.7586 45.0992 42.5099 45.3479 42.2041 45.3479H17.7958C17.49 45.3479 17.2413 45.0991 17.2413 44.7934V15.2066C17.2413 14.9007 17.4901 14.6521 17.7958 14.6521H42.2042C42.51 14.6521 42.7588 14.9008 42.7588 15.2066V44.7934H42.7586Z" fill="#0F4C8A"/>
<path d="M13.4334 3.99146C11.6311 3.99146 10.1649 5.45771 10.1649 7.26005C10.1649 9.0624 11.6311 10.5286 13.4334 10.5286C15.2358 10.5286 16.7022 9.0624 16.7022 7.26005C16.7022 5.45771 15.2358 3.99146 13.4334 3.99146ZM13.4334 8.77036C12.6006 8.77036 11.9231 8.09279 11.9231 7.26005C11.9231 6.42732 12.6007 5.74974 13.4334 5.74974C14.2663 5.74974 14.9439 6.42732 14.9439 7.26005C14.9439 8.09279 14.2662 8.77036 13.4334 8.77036Z" fill="#0F4C8A"/>
<path d="M46.5666 3.99146C44.7642 3.99146 43.298 5.45771 43.298 7.26005C43.298 9.0624 44.7642 10.5286 46.5666 10.5286C48.3689 10.5286 49.8353 9.0624 49.8353 7.26005C49.8353 5.45771 48.3687 3.99146 46.5666 3.99146ZM46.5666 8.77036C45.7338 8.77036 45.0563 8.09279 45.0563 7.26005C45.0563 6.42732 45.7338 5.74974 46.5666 5.74974C47.3994 5.74974 48.077 6.42732 48.077 7.26005C48.077 8.09279 47.3994 8.77036 46.5666 8.77036Z" fill="#0F4C8A"/>
<path d="M13.4334 49.4713C11.6311 49.4713 10.1649 50.9376 10.1649 52.7399C10.1649 54.5423 11.6312 56.0085 13.4334 56.0085C15.2358 56.0085 16.7022 54.5423 16.7022 52.7399C16.7022 50.9376 15.2358 49.4713 13.4334 49.4713ZM13.4334 54.2502C12.6006 54.2502 11.9231 53.5726 11.9231 52.7399C11.9231 51.9072 12.6007 51.2296 13.4334 51.2296C14.2663 51.2296 14.9439 51.9072 14.9439 52.7399C14.9438 53.5728 14.2662 54.2502 13.4334 54.2502Z" fill="#0F4C8A"/>
<path d="M46.5666 49.4713C44.7642 49.4713 43.298 50.9376 43.298 52.7399C43.298 54.5423 44.7642 56.0085 46.5666 56.0085C48.3689 56.0085 49.8353 54.5423 49.8353 52.7399C49.8353 50.9376 48.3687 49.4713 46.5666 49.4713ZM46.5666 54.2503C45.7338 54.2503 45.0563 53.5728 45.0563 52.74C45.0563 51.9072 45.7338 51.2297 46.5666 51.2297C47.3994 51.2297 48.077 51.9073 48.077 52.74C48.077 53.5728 47.3994 54.2503 46.5666 54.2503Z" fill="#0F4C8A"/>
</g>
<defs>
<clipPath id="clip0">
<rect width="60" height="60" fill="white"/>
</clipPath>
</defs>
</svg>
