<svg width="60" height="60" viewBox="0 0 60 60" fill="none" xmlns="http://www.w3.org/2000/svg">
<path d="M27.6361 46.8645C27.8078 46.967 27.9982 47.0174 28.1877 47.0174C28.4656 47.0174 28.7402 46.9098 28.9476 46.7024L34.8994 40.7588C35.1357 40.5226 35.2478 40.1971 35.2066 39.8657C35.1654 39.5343 34.9777 39.2464 34.6907 39.0747L31.6086 37.2349L32.8427 33.1169C32.9842 32.6445 32.7873 32.1382 32.3639 31.8855C31.9409 31.6324 31.4012 31.6992 31.0524 32.0476L25.1006 37.9912C24.8643 38.2274 24.7522 38.5524 24.7934 38.8838C24.8341 39.2152 25.0223 39.5036 25.3093 39.6753L28.3914 41.515L27.1573 45.6331C27.0158 46.1055 27.2127 46.6118 27.6361 46.8645V46.8645ZM26.9632 38.6156L30.3831 35.2002L29.7716 37.24C29.6301 37.7124 29.827 38.2191 30.2504 38.4718L33.0363 40.1349L29.6169 43.5503L30.228 41.51C30.3694 41.0376 30.1726 40.5308 29.7491 40.2786L26.9632 38.6156Z" fill="#0F4C8A"/>
<path d="M8.49609 10.703C8.98132 10.703 9.375 10.3098 9.375 9.82407V7.44141C9.375 6.95618 8.98132 6.5625 8.49609 6.5625C8.01086 6.5625 7.61719 6.95618 7.61719 7.44141V9.82407C7.61719 10.3098 8.01086 10.703 8.49609 10.703Z" fill="#0F4C8A"/>
<path d="M51.5039 0H8.49609C8.01086 0 7.61719 0.393677 7.61719 0.878906V3.63281C7.61719 4.11804 8.01086 4.51172 8.49609 4.51172C8.98132 4.51172 9.375 4.11804 9.375 3.63281V1.75781H50.625V32.5195H46.2305C45.7452 32.5195 45.3516 32.9132 45.3516 33.3984C45.3516 33.8837 45.7452 34.2773 46.2305 34.2773H50.625V35.8594H46.2305C45.7452 35.8594 45.3516 36.2531 45.3516 36.7383C45.3516 37.2235 45.7452 37.6172 46.2305 37.6172H50.625V39.1992H46.2305C45.7452 39.1992 45.3516 39.5929 45.3516 40.0781C45.3516 40.5634 45.7452 40.957 46.2305 40.957H50.625V42.5391H46.2305C45.7452 42.5391 45.3516 42.9327 45.3516 43.418C45.3516 43.9032 45.7452 44.2969 46.2305 44.2969H50.625V49.3359H44.9414C44.4562 49.3359 44.0625 49.7296 44.0625 50.2148C44.0625 50.7001 44.4562 51.0938 44.9414 51.0938H50.625V54.6094H9.375V51.0938H41.2207C41.7059 51.0938 42.0996 50.7001 42.0996 50.2148C42.0996 49.7296 41.7059 49.3359 41.2207 49.3359H9.375V44.2969H13.7695C14.2548 44.2969 14.6484 43.9032 14.6484 43.418C14.6484 42.9327 14.2548 42.5391 13.7695 42.5391H9.375V40.957H13.7695C14.2548 40.957 14.6484 40.5634 14.6484 40.0781C14.6484 39.5929 14.2548 39.1992 13.7695 39.1992H9.375V37.6172H13.7695C14.2548 37.6172 14.6484 37.2235 14.6484 36.7383C14.6484 36.2531 14.2548 35.8594 13.7695 35.8594H9.375V34.2773H13.7695C14.2548 34.2773 14.6484 33.8837 14.6484 33.3984C14.6484 32.9132 14.2548 32.5195 13.7695 32.5195H9.375V13.5741C9.375 13.0888 8.98132 12.6952 8.49609 12.6952C8.01086 12.6952 7.61719 13.0888 7.61719 13.5741V55.4883C7.61719 55.9735 8.01086 56.3672 8.49609 56.3672H11.2793V59.1211C11.2793 59.6063 11.673 60 12.1582 60H19.0723C19.5575 60 19.9512 59.6063 19.9512 59.1211V56.3672H40.0488V59.1211C40.0488 59.6063 40.4425 60 40.9277 60H47.8418C48.327 60 48.7207 59.6063 48.7207 59.1211V56.3672H51.5039C51.9891 56.3672 52.3828 55.9735 52.3828 55.4883V0.878906C52.3828 0.393677 51.9891 0 51.5039 0ZM18.1934 58.2422H13.0371V56.3672H18.1934V58.2422ZM46.9629 58.2422H41.8066V56.3672H46.9629V58.2422Z" fill="#0F4C8A"/>
<path d="M42.4805 6.97266C42.4805 5.97107 41.6656 5.15625 40.6641 5.15625H19.3359C18.3344 5.15625 17.5195 5.97107 17.5195 6.97266V18.9258C17.5195 19.9274 18.3344 20.7422 19.3359 20.7422H40.6641C41.6656 20.7422 42.4805 19.9274 42.4805 18.9258V6.97266ZM40.7227 18.9258C40.7227 18.9583 40.6966 18.9844 40.6641 18.9844H19.3359C19.3034 18.9844 19.2773 18.9583 19.2773 18.9258V6.97266C19.2773 6.94016 19.3034 6.91406 19.3359 6.91406H40.6641C40.6966 6.91406 40.7227 6.94016 40.7227 6.97266V18.9258Z" fill="#0F4C8A"/>
<path d="M17.5195 27.6562C17.5195 28.6578 18.3344 29.4727 19.3359 29.4727H26.6016C27.6031 29.4727 28.418 28.6578 28.418 27.6562V24.7266C28.418 23.725 27.6031 22.9102 26.6016 22.9102H19.3359C18.3344 22.9102 17.5195 23.725 17.5195 24.7266V27.6562ZM19.2773 24.7266C19.2773 24.6941 19.3034 24.668 19.3359 24.668H26.6016C26.6341 24.668 26.6602 24.6941 26.6602 24.7266V27.6562C26.6602 27.6888 26.6341 27.7148 26.6016 27.7148H19.3359C19.3034 27.7148 19.2773 27.6888 19.2773 27.6562V24.7266Z" fill="#0F4C8A"/>
<path d="M42.4805 27.6562V24.7266C42.4805 23.725 41.6656 22.9102 40.6641 22.9102H33.3984C32.3969 22.9102 31.582 23.725 31.582 24.7266V27.6562C31.582 28.6578 32.3969 29.4727 33.3984 29.4727H40.6641C41.6656 29.4727 42.4805 28.6578 42.4805 27.6562ZM33.3398 27.6562V24.7266C33.3398 24.6941 33.3659 24.668 33.3984 24.668H40.6641C40.6966 24.668 40.7227 24.6941 40.7227 24.7266V27.6562C40.7227 27.6888 40.6966 27.7148 40.6641 27.7148H33.3984C33.3659 27.7148 33.3398 27.6888 33.3398 27.6562Z" fill="#0F4C8A"/>
</svg>
