<svg width="60" height="60" viewBox="0 0 60 60" fill="none" xmlns="http://www.w3.org/2000/svg">
<g clip-path="url(#clip0)">
<path d="M26.8675 28.0599L25.0107 26.2032C24.1856 25.3781 22.843 25.3781 22.0179 26.2032L16.5398 31.6813C15.7147 32.5064 15.7147 33.849 16.5398 34.6743L18.3964 36.5309C19.2215 37.356 20.5642 37.356 21.3894 36.5309L26.8675 31.0528C27.6925 30.2277 27.6925 28.8851 26.8675 28.0599ZM25.6194 29.8049L20.1413 35.2829C20.0043 35.4199 19.7813 35.4199 19.6443 35.2829L17.7877 33.4263C17.6507 33.2893 17.6507 33.0663 17.7877 32.9293L23.2658 27.4513C23.4028 27.3143 23.6257 27.3143 23.7628 27.4513L25.6194 29.3079C25.7564 29.4449 25.7564 29.6679 25.6194 29.8049Z" fill="#0F4C8A"/>
<path d="M34.8048 35.9974L32.9482 34.1408C32.123 33.3155 30.7804 33.3155 29.9552 34.1406L24.4772 39.6188C23.6521 40.4439 23.6521 41.7865 24.4772 42.6118L26.3338 44.4684C27.1589 45.2935 28.5015 45.2935 29.3268 44.4684L34.8048 38.9903C35.6298 38.1652 35.6298 36.8226 34.8048 35.9974ZM33.5567 37.7423L28.0786 43.2203C27.9416 43.3573 27.7186 43.3573 27.5816 43.2203L25.725 41.3637C25.588 41.2267 25.588 41.0037 25.725 40.8667L31.2031 35.3887C31.3401 35.2517 31.5629 35.2517 31.7001 35.3887L33.5567 37.2453C33.6937 37.3823 33.6937 37.6053 33.5567 37.7423Z" fill="#0F4C8A"/>
<path d="M49.5132 8.99556L42.8698 2.35217C41.3586 0.840799 38.8995 0.840799 37.3881 2.35206L14.0226 25.7177C13.6779 26.0623 13.6779 26.6211 14.0226 26.9656C14.3672 27.3102 14.926 27.3103 15.2705 26.9656L38.6363 3.60011C39.4594 2.77698 40.7989 2.77698 41.622 3.60011L48.2654 10.2435C48.61 10.5881 49.1688 10.5881 49.5133 10.2435C49.8577 9.89884 49.858 9.34009 49.5132 8.99556Z" fill="#0F4C8A"/>
<path d="M48.2337 12.9853C43.8697 8.62118 36.7687 8.62107 32.4046 12.9853C28.0405 17.3495 28.0405 24.4503 32.4046 28.8144C36.7687 33.1785 43.8697 33.1785 48.2337 28.8144C52.5978 24.4503 52.5978 17.3493 48.2337 12.9853ZM46.9857 27.5664C43.3096 31.2423 37.3285 31.2424 33.6525 27.5665C29.9766 23.8905 29.9766 17.9093 33.6525 14.2332C37.3285 10.5571 43.3097 10.5572 46.9857 14.2332C50.6618 17.9091 50.6619 23.8904 46.9857 27.5664Z" fill="#0F4C8A"/>
<path d="M47.7128 17.5442C46.2996 15.412 45.076 14.4125 43.9726 14.4889C42.8786 14.5645 41.6867 15.534 40.337 17.4465C40.265 17.4461 40.193 17.4482 40.1211 17.4523C39.5489 16.2656 39.2891 15.1015 39.1806 14.4657C39.0984 13.9832 38.7811 13.5793 38.3319 13.3849C37.8828 13.1906 37.3711 13.2359 36.9632 13.5063C34.8311 14.9196 33.8315 16.1431 33.9078 17.2466C33.9835 18.3406 34.9528 19.5328 36.8653 20.8821C36.865 20.9541 36.8671 21.0261 36.8712 21.0981C35.6847 21.67 34.5204 21.9299 33.8846 22.0385C33.4021 22.1209 32.9983 22.438 32.8037 22.8873C32.6094 23.3365 32.6549 23.8481 32.9253 24.2559C34.3387 26.3883 35.5621 27.3876 36.6655 27.3112C37.3687 27.2626 38.1123 26.8452 38.9121 26.0453C39.3565 25.6009 39.8187 25.0365 40.3005 24.3538C40.3727 24.3541 40.4448 24.352 40.5169 24.348C41.089 25.5347 41.3487 26.6988 41.4572 27.3348C41.5396 27.8173 41.8568 28.2212 42.306 28.4155C42.7552 28.6098 43.2667 28.5644 43.6747 28.2941C44.4854 27.7567 45.1324 27.2468 45.6187 26.7605C46.4117 25.9672 46.7777 25.2372 46.7303 24.5533C46.6546 23.4593 45.6853 22.2672 43.7727 20.9179C43.7731 20.8459 43.771 20.7739 43.7669 20.702C44.9534 20.13 46.1177 19.8702 46.7537 19.7616C47.0532 19.7105 47.3225 19.5687 47.5301 19.3611C47.6569 19.2343 47.7606 19.083 47.8342 18.9128C48.0284 18.4637 47.9832 17.952 47.7128 17.5442ZM35.6687 17.1284C35.6718 17.0319 35.8091 16.7476 36.2563 16.3004C36.5412 16.0155 36.9522 15.6642 37.5341 15.2534C37.697 16.0331 37.9709 17.0044 38.4303 18.006C38.234 18.1343 38.0478 18.2841 37.8755 18.4564C37.8673 18.4646 37.8597 18.4733 37.8515 18.4816C37.8466 18.4866 37.8417 18.4919 37.8368 18.4971C37.7993 18.5357 37.7629 18.5749 37.7276 18.6148C37.7189 18.6247 37.7105 18.6349 37.7019 18.6448C37.6714 18.6802 37.6415 18.716 37.6125 18.7523C37.6007 18.7672 37.5893 18.7823 37.5777 18.7973C37.5534 18.8291 37.5293 18.8611 37.5062 18.8935C37.4924 18.9128 37.4788 18.9325 37.4655 18.9521C37.4457 18.9811 37.4263 19.0102 37.4075 19.0396C37.4001 19.0511 37.3921 19.0621 37.385 19.0736C36.1695 18.1413 35.6917 17.4594 35.6687 17.1284ZM36.5476 25.5503C36.3896 25.5451 35.7283 25.1802 34.6726 23.6847C35.4523 23.5218 36.4237 23.2479 37.4251 22.7886C37.5534 22.9849 37.7032 23.1711 37.8755 23.3434C37.9204 23.3883 37.9663 23.4314 38.013 23.4732C38.0278 23.4866 38.0433 23.4991 38.0584 23.5122C38.0908 23.5402 38.1231 23.568 38.1562 23.5946C38.1748 23.6096 38.1938 23.6238 38.2126 23.6383C38.2432 23.6619 38.2738 23.6851 38.305 23.7075C38.3254 23.7221 38.3461 23.7364 38.3669 23.7506C38.3976 23.7716 38.4284 23.7922 38.4596 23.8121C38.4707 23.8193 38.4814 23.827 38.4926 23.834C37.5606 25.049 36.8787 25.5272 36.5476 25.5503ZM41.9815 21.2023C41.9766 21.2293 41.9703 21.2558 41.9641 21.2823C41.9591 21.3037 41.9542 21.3252 41.9485 21.3464C41.9418 21.3711 41.9343 21.3955 41.9266 21.4197C41.9187 21.4441 41.9102 21.4682 41.9013 21.4923C41.8934 21.5134 41.8858 21.5346 41.8771 21.5553C41.8608 21.5942 41.843 21.6328 41.8237 21.6706C41.8172 21.6834 41.8102 21.6958 41.8034 21.7084C41.784 21.744 41.7634 21.7791 41.7413 21.8136C41.7322 21.8279 41.7224 21.8417 41.7128 21.8557C41.6924 21.8853 41.6711 21.9144 41.6487 21.943C41.6389 21.9555 41.6291 21.9682 41.619 21.9804C41.5861 22.0197 41.552 22.0584 41.5151 22.0953C41.478 22.1325 41.4391 22.1668 41.3995 22.1999C41.3916 22.2064 41.3839 22.213 41.3759 22.2193C41.3363 22.2511 41.2957 22.2811 41.2541 22.3088C41.249 22.3122 41.2435 22.3154 41.2383 22.3188C41.2019 22.3424 41.1646 22.364 41.1269 22.3847C41.1153 22.3909 41.1038 22.3974 41.0921 22.4034C41.0532 22.4233 41.0136 22.4416 40.9735 22.4584C40.9532 22.4668 40.9323 22.4743 40.9117 22.4819C40.8909 22.4897 40.8699 22.4969 40.8488 22.5038C40.8238 22.5119 40.7989 22.5201 40.7733 22.5273C40.5266 22.5956 40.2677 22.6073 40.0168 22.562C39.9904 22.5572 39.9646 22.5509 39.9387 22.545C39.9167 22.5399 39.8946 22.5349 39.8729 22.5289C39.8485 22.5222 39.8243 22.515 39.8003 22.5072C39.7757 22.4994 39.7513 22.4907 39.7271 22.4817C39.7061 22.4738 39.685 22.4662 39.6645 22.4577C39.6255 22.4413 39.5868 22.4234 39.5488 22.4041C39.5362 22.3977 39.5239 22.3908 39.5114 22.3841C39.4757 22.3646 39.4405 22.344 39.4061 22.3218C39.3919 22.3127 39.378 22.303 39.364 22.2934C39.3344 22.273 39.3053 22.2516 39.2767 22.2293C39.2642 22.2194 39.2515 22.2097 39.2393 22.1995C39.2 22.1667 39.1613 22.1326 39.1244 22.0957C39.0872 22.0585 39.0529 22.0196 39.0198 21.98C39.0133 21.9722 39.0068 21.9644 39.0004 21.9565C38.9686 21.9168 38.9385 21.8763 38.9109 21.8346C38.9075 21.8294 38.9044 21.824 38.901 21.8189C38.8773 21.7823 38.8557 21.7449 38.835 21.7071C38.8288 21.6956 38.8224 21.6842 38.8164 21.6725C38.7964 21.6335 38.7781 21.5938 38.7613 21.5537C38.753 21.5336 38.7456 21.513 38.738 21.4925C38.7302 21.4713 38.7228 21.4501 38.7157 21.4286C38.7077 21.4039 38.6996 21.3792 38.6925 21.354C38.6241 21.107 38.6124 20.8477 38.6578 20.5965C38.6625 20.5709 38.6686 20.5459 38.6744 20.5208C38.6796 20.4978 38.6849 20.475 38.691 20.4522C38.6975 20.4284 38.7047 20.4049 38.7121 20.3814C38.7202 20.3561 38.7291 20.3312 38.7384 20.3062C38.746 20.2857 38.7534 20.2652 38.7618 20.2452C38.7786 20.2052 38.7967 20.1656 38.8166 20.1267C38.8225 20.1152 38.8289 20.1039 38.835 20.0926C38.8546 20.0565 38.8755 20.021 38.8978 19.9862C38.907 19.972 38.9166 19.9583 38.9262 19.9443C38.9466 19.9147 38.968 19.8855 38.9904 19.8568C39.0003 19.8443 39.0099 19.8317 39.0201 19.8194C39.0529 19.78 39.087 19.7414 39.124 19.7045C39.1612 19.6673 39.2001 19.6329 39.2397 19.5999C39.2475 19.5934 39.2553 19.5869 39.2632 19.5805C39.3029 19.5487 39.3434 19.5186 39.3851 19.4909C39.3902 19.4875 39.3954 19.4846 39.4006 19.4812C39.4373 19.4574 39.4748 19.4356 39.5128 19.415C39.5242 19.4089 39.5354 19.4026 39.5468 19.3967C39.5861 19.3766 39.6259 19.3582 39.6664 19.3413C39.6859 19.3332 39.706 19.3261 39.7259 19.3187C39.7478 19.3105 39.77 19.3027 39.7922 19.2955C39.8162 19.2876 39.8403 19.2798 39.8649 19.273C40.1119 19.2044 40.3711 19.1926 40.6224 19.2379C40.6488 19.2427 40.6747 19.2491 40.7007 19.255C40.7227 19.2601 40.7448 19.2651 40.7668 19.2711C40.791 19.2777 40.8149 19.2849 40.8387 19.2925C40.8637 19.3005 40.8884 19.3093 40.913 19.3184C40.9336 19.3262 40.9544 19.3336 40.9747 19.3421C41.0146 19.3589 41.0541 19.377 41.093 19.397C41.1045 19.4028 41.1157 19.4093 41.1271 19.4154C41.1632 19.4349 41.1987 19.4558 41.2336 19.4782C41.2478 19.4872 41.2615 19.4969 41.2754 19.5064C41.3051 19.5268 41.3343 19.5482 41.3629 19.5707C41.3754 19.5806 41.388 19.5902 41.4002 19.6004C41.4395 19.6332 41.4782 19.6673 41.5151 19.7043C41.5519 19.7415 41.5863 19.7803 41.6193 19.8199C41.6259 19.8277 41.6323 19.8355 41.6388 19.8434C41.6705 19.883 41.7006 19.9236 41.7283 19.9653C41.7317 19.9705 41.7347 19.9759 41.7381 19.981C41.7618 20.0176 41.7836 20.055 41.8042 20.0929C41.8104 20.1044 41.8168 20.1157 41.8227 20.1273C41.8428 20.1664 41.8612 20.2061 41.8779 20.2464C41.8861 20.2663 41.8934 20.2865 41.9009 20.3067C41.909 20.3284 41.9165 20.3502 41.9238 20.3721C41.9316 20.3963 41.9396 20.4206 41.9465 20.4454C42.0149 20.6922 42.0268 20.9513 41.9815 21.2023ZM44.9696 24.6712C44.9645 24.8293 44.5997 25.4904 43.1041 26.5464C42.9412 25.7667 42.6674 24.7954 42.2081 23.7937C42.4043 23.6655 42.5906 23.5156 42.7628 23.3434C42.7708 23.3354 42.7782 23.327 42.7861 23.3189C42.7921 23.3128 42.7979 23.3065 42.8038 23.3002C42.8403 23.2626 42.8758 23.2244 42.9101 23.1855C42.9195 23.1749 42.9285 23.164 42.9379 23.1532C42.9678 23.1185 42.9971 23.0836 43.0253 23.0481C43.0376 23.0326 43.0495 23.0169 43.0615 23.0012C43.0854 22.97 43.109 22.9386 43.1317 22.9068C43.1459 22.887 43.1597 22.867 43.1734 22.8468C43.193 22.8181 43.2121 22.7893 43.2308 22.7602C43.2381 22.7486 43.2462 22.7375 43.2535 22.7259C44.4686 23.6584 44.9465 24.3403 44.9696 24.6712ZM43.2128 19.0109C43.0846 18.8146 42.9347 18.6284 42.7625 18.4562C42.7176 18.4113 42.6716 18.3682 42.625 18.3263C42.61 18.313 42.5945 18.3003 42.5794 18.2872C42.5472 18.2593 42.5149 18.2315 42.4818 18.2049C42.4631 18.1899 42.444 18.1756 42.425 18.161C42.3945 18.1375 42.364 18.1143 42.333 18.0921C42.3124 18.0773 42.2916 18.063 42.2706 18.0487C42.24 18.0277 42.2093 18.0073 42.1783 17.9875C42.167 17.9804 42.1564 17.9725 42.1451 17.9655C43.0775 16.7505 43.7596 16.2725 44.0904 16.2494C44.2486 16.2544 44.9097 16.6194 45.9654 18.1149C45.1858 18.2778 44.2145 18.5517 43.2128 19.0109Z" fill="#0F4C8A"/>
<path d="M57.014 25.683L58.8666 23.8305C60.3778 22.3193 60.3778 19.8602 58.8666 18.3488L52.841 12.3233C52.4967 11.9788 51.9379 11.9788 51.5934 12.3235C51.2488 12.6681 51.2488 13.2269 51.5934 13.5714L57.619 19.597C58.4421 20.4201 58.4421 21.7596 57.619 22.5827L55.1424 25.0592L41.6225 38.5791L38.1967 42.0049L30.7489 49.4526L28.8366 51.365L9.85398 32.3823L11.9439 30.2924C12.2886 29.9477 12.2886 29.389 11.9439 29.0445C11.5993 28.6998 11.0405 28.6998 10.696 29.0445L8.60593 31.1344L7.41448 29.943C6.56791 29.0965 5.19049 29.0965 4.34392 29.943L0.495117 33.7917C-0.16512 34.452 -0.16512 35.5262 0.495117 36.1865L1.62645 37.3178C2.28669 37.978 3.36095 37.978 4.02119 37.3178L5.87932 35.4598L8.46812 38.0486L7.30842 39.2083C6.63612 39.8806 6.63612 40.9745 7.30842 41.6468L11.5547 45.893C12.227 46.5653 13.321 46.5653 13.9933 45.893L15.153 44.7333L16.3831 45.9635L15.2234 47.1232C14.5511 47.7955 14.5511 48.8894 15.2234 49.5617L19.4696 53.8079C20.1419 54.4802 21.2359 54.4802 21.9082 53.8079L23.0679 52.6482L28.7057 58.286C29.3659 58.9462 30.4402 58.9462 31.1004 58.286L32.2317 57.1547C32.892 56.4944 32.892 55.4202 32.2317 54.7599L30.0845 52.6127L31.373 51.3242L32.8909 52.8422C33.5151 53.4663 34.5308 53.4663 35.155 52.8422L41.5866 46.4105C42.2107 45.7864 42.2107 44.7706 41.5866 44.1465L40.0687 42.6285L42.2464 40.4508L43.7643 41.9688C44.3885 42.5929 45.4041 42.5929 46.0283 41.9688L58.532 29.465C59.1561 28.8409 59.1562 27.8252 58.532 27.201L57.014 25.683ZM12.7741 44.6164L8.58519 40.4275L9.71617 39.2965L13.9051 43.4854L12.7741 44.6164ZM20.6889 52.5314L16.5001 48.3424L17.631 47.2114L21.8199 51.4004L20.6889 52.5314ZM30.933 55.9575L29.903 56.9876L23.6919 50.7764L18.2551 45.3396L15.7769 42.8614L10.3401 37.4246L6.50334 33.5878C6.15869 33.2432 5.59994 33.2432 5.25541 33.5878L2.82399 36.0192L1.79391 34.9892L5.59221 31.1909C5.75065 31.0324 6.00834 31.0324 6.16678 31.1909L7.98202 33.0063L28.2126 53.237L30.933 55.9575ZM34.0229 51.4786L32.6209 50.0765L33.824 48.8735L35.226 50.2755L34.0229 51.4786ZM36.4742 49.0275L35.0721 47.6254L36.3697 46.3278L37.7718 47.7298L36.4742 49.0275ZM40.2227 45.2787L39.0196 46.4818L37.6176 45.0797L38.8206 43.8767L40.2227 45.2787ZM44.8965 40.605L43.4944 39.203L44.7728 37.9246L46.1749 39.3266L44.8965 40.605ZM47.4229 38.0787L46.0209 36.6767L47.5952 35.1024L48.9972 36.5044L47.4229 38.0787ZM50.2453 35.2564L48.8432 33.8543L50.4175 32.28L51.8196 33.682L50.2453 35.2564ZM53.0675 32.434L51.6655 31.032L53.2398 29.4577L54.6418 30.8597L53.0675 32.434ZM55.8897 29.6116L54.4877 28.2096L55.7661 26.9312L57.1682 28.3332L55.8897 29.6116Z" fill="#0F4C8A"/>
</g>
<defs>
<clipPath id="clip0">
<rect width="59.9999" height="60" fill="white"/>
</clipPath>
</defs>
</svg>
